<svg xmlns="http://www.w3.org/2000/svg" enable-background="new 0 0 66 66" viewBox="0 0 66 66"><path fill="#3590CE" d="M63.99784,32.99784c0,17.11822-13.87907,30.99729-30.99728,30.99729
				c-17.12365,0-31.00272-13.87907-31.00272-30.99729c0-17.12365,13.87907-31.00271,31.00272-31.00271
				C50.11877,1.99513,63.99784,15.8742,63.99784,32.99784z"/><path fill="#444A88" d="M42.34781,60.53324c15.89504-8.94331,10.95068-25.05167,9.34997-28.15416
				c-1.92049-3.7223-3.158-12.17031-4.49216-16.14068c-5.3435-15.90186-9.93404-9.50667-14.20778-9.50667
				s-8.86427-6.39519-14.20778,9.50667c-1.33416,3.97037-2.57167,12.41838-4.49216,16.14068
				c-1.60071,3.10249-6.54507,19.21085,9.34997,28.15416H42.34781z"/><path fill="#F1AD7E" d="M41.92146,52.04592c-0.08154-0.56738-0.13898-1.1413-0.14252-1.72656v-7.46002h-17.56v7.46002
				c-0.00177,0.58569-0.05823,1.16003-0.13916,1.72784c2.77185,1.05206,5.77991,1.63385,8.91919,1.63385
				C36.13954,53.68105,39.14875,53.09877,41.92146,52.04592z"/><path fill="#27B14B" d="M45.21894,58.99935h0.01001c-1.75934-1.92377-2.93048-4.33112-3.3075-6.95343
				c-2.77271,1.05286-5.78192,1.63513-8.92249,1.63513c-3.13928,0-6.14734-0.58179-8.91919-1.63385
				c-0.37378,2.62183-1.55005,5.02869-3.30084,6.95215H20.769c-0.55005,0.59998-1.15002,1.15997-1.81,1.65002
				c4.20996,2.13995,8.98999,3.34998,14.03998,3.34998s9.83002-1.21002,14.03998-3.34998
				C46.38899,60.15932,45.77894,59.59932,45.21894,58.99935z"/><path fill="#F1AD7E" d="M46.87157,21.88566c0.93858,3.96278-0.0494,12.41461-1.49818,16.22061
				c-1.48158,3.89215-8.2175,11.14494-12.38211,11.1439c-4.1623-0.00104-10.88991-7.25353-12.36971-11.1439
				c-1.44785-3.80635-2.4354-12.25748-1.49826-16.22061c0.82801-3.50167,4.10154-8.89072,7.60263-9.72113
				c1.68809-0.40039,4.53042,2.98413,6.26534,2.98413c1.73492,0,4.57708-3.38382,6.26534-2.98413
				C42.75965,12.99385,46.0419,18.38271,46.87157,21.88566z"/><path fill="#FFF" d="M22.44659 25.12803c3.65757-1.87656 8.00429.24893 8.63215 3.28797-1.42782.80658-3.24692.87523-4.73309.17505-1.4896-.70018-2.59822-2.15546-2.87967-3.77549M42.5297 24.81555c-.28144 1.62003-1.39007 3.07531-2.87967 3.77549-1.48617.70018-3.30527.63154-4.73309-.17505.62785-3.03904 4.97458-5.16453 8.63214-3.28797M27.33136 39.0779c0 0 1.24636 2.81768 5.66777 2.81168 4.42141-.006 5.66013-2.82705 5.66013-2.82705"/><path fill="#172540" d="M46.95001,4.4804c-0.00421-0.00208-0.00854-0.00372-0.01276-0.0058
					c0.4754-1.01343,0.38324-2.09369-0.31934-2.646c-0.86755-0.68207-2.30322-0.2843-3.22412,0.88708
					c-0.05615,0.07141-0.09882,0.14697-0.1485,0.22052c-0.00519-0.00177-0.01013-0.00403-0.01532-0.0058
					c-3.20996-1.09998-6.64996-1.69-10.22998-1.69c-5.30453,0-8.47859,1.24403-10.25079,1.69409
					c-1.83133-2.70847-5.01357-1.27555-3.69,1.54169c-0.00305,0.00153-0.00616,0.00269-0.00922,0.00421
					C8.52002,9.65044,1.25,20.49041,1.25,33.00042c0,12.26001,6.98999,22.92999,17.21002,28.20001v0.01001
					c1.3382,1.07023,7.54466,3.29109,12.90997,3.48999c6.58061,0.48721,14.50222-2.15619,16.16998-3.48999v-0.01001
					C57.76001,55.93041,64.75,45.26043,64.75,33.00042C64.75,20.49041,57.47998,9.65044,46.95001,4.4804z M45.16998,57.77044
					c-3.93987-4.9985-2.22001-10.01951-2.64001-13.99005c1.67004-1.92999,2.98004-3.92999,3.54004-5.40997
					c1.48999-3.90002,2.51001-12.53003,1.52997-16.65997c-0.78992-3.35968-3.78931-8.54883-7.34875-10.00946
					c0.62311-1.17627,1.35468-2.37689,2.2088-3.52692c0,0,0,0,0,0.00635c5.28099,6.31166,5.58113,18.75824,8.56995,24.53998
					C52.75,36.05041,56.21002,49.19042,45.16998,57.77044z M24.89996,51.5404c0.12534-1.37743,0.04308-1.01991,0.07001-6.14996
					c6.10825,6.08413,9.98674,6.06324,16.06-0.01001c0.02598,4.94895-0.05408,4.81535,0.07001,6.14996
					C36.46693,53.5579,28.09094,53.1371,24.89996,51.5404z M14.96997,32.72039c1.21002-2.35999,2.12-6.34998,3-10.20996
					c1.41329-6.21284,2.10894-9.01036,5.56152-14.34174c0.85541,1.15106,1.58813,2.35297,2.21204,3.53058
					c-0.00116,0.00049-0.00238,0.00067-0.00354,0.00116c-3.56,1.45996-6.54999,6.64996-7.34998,10.01001
					c-0.97003,4.12994,0.03998,12.75,1.52997,16.65997c0.56,1.47998,1.87,3.48999,3.54999,5.41998
					c-0.42781,4.04121,1.32735,8.94674-2.63995,13.98004C9.78998,49.19042,13.25,36.05041,14.96997,32.72039z M39.58002,13.0404
					c2.98999,1.14001,5.83997,5.95001,6.56,9.02002c0.89996,3.77997-0.07001,12.09998-1.47003,15.77997
					c-0.45996,1.21002-1.45996,2.75-2.72998,4.29004c-0.41003,0.5-0.84003,0.98999-1.29999,1.47998
					c-2.49005,2.63-5.53003,4.89001-7.65002,4.89001c-2.10999,0-5.15002-2.26001-7.64001-4.89001
					c-0.45996-0.48999-0.88995-0.97998-1.29999-1.47998c-1.27002-1.54004-2.27002-3.08002-2.72998-4.29004
					c-1.40002-3.67999-2.35999-12-1.47003-15.77997c0.72998-3.07971,3.57941-7.89899,6.56909-9.01959
					c2.71428,5.74035,1.90099,7.11218,3.07245,7.11218c0.47976,0,0.83608-0.443,0.7334-0.91016
					c-0.04425-0.20178-0.61694-2.73273-2.00543-5.90271c0.00018,0.00012,0.00031,0.00012,0.00031,0.00012l0.01019,0.00012
					c0.46002,0.26001,0.94,0.61005,1.41003,0.94c3.47351,2.4433,3.67965,2.11244,8.13208-0.93109
					c-1.38562,3.16577-1.95709,5.69196-2.00128,5.89356c-0.08887,0.4043,0.16699,0.80371,0.57227,0.89258
					c0.05371,0.01172,0.10742,0.01758,0.16113,0.01758c0.34473,0,0.6543-0.23926,0.73145-0.58984
					c0.0116-0.05188,0.68073-3.01141,2.34161-6.52356C39.57819,13.03991,39.5791,13.04009,39.58002,13.0404z M38.69427,11.41137
					c-1.90376,0.19123-4.49031,2.98907-5.70428,2.98907c-1.17059,0-3.75303-2.73743-5.68884-2.98975
					c-0.7312-1.42554-1.62067-2.90106-2.69135-4.31012c0.53427-0.15569,1.07364-1.63957,5.31018-0.27014
					c2.70535,0.86573,3.44482,0.86889,6.16003,0c0.98999-0.32001,1.91998-0.62,2.85999-0.62
					c0.67932,0,1.50854,0.16003,2.44739,0.88824C40.31592,8.50848,39.4259,9.98498,38.69427,11.41137z M42.69,4.34038
					c0.00275,0.00085,0.00531,0.00195,0.008,0.00281c-0.04688,0.38318-0.01801,0.75122,0.10748,1.06732
					c-0.1626,0.17645-0.32654,0.35193-0.48248,0.53247c-0.00104-0.00079-0.00195-0.00177-0.00299-0.00256
					c-1.04999-0.83002-2.17004-1.22998-3.38-1.22998c-2.21537,0-4.20259,1.26996-5.94,1.26996
					c-2.55412,0-5.80573-2.826-9.32971-0.04016c-0.15521-0.17963-0.3183-0.35425-0.4801-0.52972
					c0.12531-0.31567,0.15424-0.68323,0.10767-1.06586C23.81585,4.25848,32.34378,0.80101,42.69,4.34038z M2.75,33.00042
					c0-19.74921,17.14364-27.21743,17.2442-27.30658c0.63812,0.53845,1.39008,0.78619,2.03278,0.66852
					c0.18854,0.20343,0.37592,0.40747,0.5553,0.61743C19.29423,10.68197,17.55992,17.52835,16.5,22.18041
					c-0.81,3.59003-1.73999,7.65997-2.87,9.84998C11.78998,35.6104,8.06,49.71044,19.83002,58.90044
					c-0.31,0.31-0.62,0.58997-0.94,0.84998C9.29999,54.6704,2.75,44.59039,2.75,33.00042z M20.35999,60.46044
					c0.38394-0.35062,0.82542-0.80463,0.89001-0.88c0.27224-0.18187,2.63148-2.85472,3.40997-6.53003
					c0.01001,0,0.03003,0.01001,0.04004,0.01001c5.43563,1.87404,11.66497,1.71704,16.59998,0
					c0.01001,0,0.03003-0.01001,0.03998-0.01001c0.56762,2.69251,1.98931,5.30039,4.30005,7.41003
					C38.14172,64.01896,28.2709,64.21478,20.35999,60.46044z M47.09998,59.75042c-0.32001-0.26001-0.63-0.54999-0.92999-0.84998
					c11.76001-9.20001,8.04004-23.29004,6.19-26.87006c-2.96083-5.73823-3.20095-18.58834-8.94861-25.04828
					c0.17999-0.21075,0.3681-0.41559,0.55731-0.61975c0.64319,0.11774,1.39581-0.13037,2.0343-0.6698
					c0.00555,0.00287,0.01147,0.005,0.01703,0.00787C56.20001,10.57043,63.25,20.9804,63.25,33.00042
					C63.25,44.59039,56.70001,54.68041,47.09998,59.75042z"/><path fill="#172540" d="M28.52997,29.82043c1.02002,0,2.03003-0.25,2.92004-0.75c0.27997-0.16003,0.42999-0.48999,0.35999-0.81
					c-1.26493-6.13281-11.15133-4.97357-10.03003-2.79004c0.19,0.37,0.64001,0.51001,1.01001,0.32001
					c0.04004-0.01996,0.09003-0.03998,0.13-0.06c0.5,1.53003,1.64001,2.85004,3.10999,3.54004
					C26.81,29.64043,27.66998,29.82043,28.52997,29.82043z M24.34998,25.27044c2.56967-0.47916,5.07425,0.90028,5.83002,2.75
					c-1.12,0.44-2.41998,0.40997-3.51001-0.11005C25.57001,27.40044,24.71997,26.41039,24.34998,25.27044z"/><path fill="#172540" d="M22.70245 22.84441c2.70047-.97964 5.78459-.318 7.83691 1.7998.14746.15234.34277.22852.53906.22852.18848 0 .37598-.07031.52148-.21094.29785-.28809.30566-.76367.01756-1.06055-1.17869-1.2168-2.73924-2.09668-4.39354-2.47656-1.64491-.37743-6.06047-.31613-5.48242 1.27051C21.88409 22.78484 22.31476 22.98406 22.70245 22.84441zM43.89001 24.46044c-1.99005-1.02002-4.39001-1.05005-6.42004-.07001-1.72998.82996-2.95996 2.26996-3.28998 3.87-.06.32001.08002.64996.37.81.88.5 1.90002.75 2.91003.75.85999 0 1.72998-.17999 2.50995-.54999 1.47003-.69 2.60004-2.01001 3.10004-3.54004.04999.02002.08997.04004.14001.06.37.19.81995.04999 1.00995-.32001S44.26001 24.65044 43.89001 24.46044zM39.33002 27.91039c-1.09003.52002-2.39001.55005-3.51001.11005.38-.93005 1.20001-1.76001 2.29999-2.28003 1.09998-.52997 2.34998-.69 3.52997-.46997C41.27002 26.41039 40.42999 27.40044 39.33002 27.91039z"/><path fill="#172540" d="M34.39581 24.6618c.14551.14063.33301.21094.52148.21094.19629 0 .3916-.07617.53906-.22852.97949-1.01074 2.27637-1.74219 3.65137-2.05859 1.37305-.31348 2.85938-.22266 4.18555.25879.3877.13965.81836-.06055.96094-.44922.1416-.38867-.05957-.81934-.44922-.96094-1.59473-.57813-3.38086-.68945-5.0332-.30957-1.65432.37988-3.21387 1.25879-4.39355 2.47656C34.09015 23.89812 34.09796 24.37371 34.39581 24.6618zM34.36456 35.69012c.19141 0 .38281-.07227.5293-.21777.31055-.30957.63184-.62891.97852-.77734.34863-.15039.80469-.16113 1.24609-.17188.41406-.01074.74121-.35449.73145-.76855-.00977-.40723-.34375-.73145-.75-.73145-.00586 0-.01172 0-.01855 0-.52832.01367-1.18555.0293-1.80078.29297-.60938.26172-1.07324.72266-1.44531 1.0918-.29297.29297-.29492.76758-.00293 1.06152C33.9798 35.6159 34.17218 35.69012 34.36456 35.69012zM28.91437 33.02312c-.44531-.0166-.75781.31836-.76855.73145-.00977.41406.31738.75781.73145.76855.44141.01074.89746.02148 1.24609.17188.34668.14844.66797.46777.97852.77734.14648.14551.33789.21777.5293.21777.19238 0 .38477-.07422.53223-.2207.29199-.29395.29004-.76855-.00293-1.06152-.37207-.36914-.83594-.83008-1.44531-1.0918C30.09991 33.05242 29.44269 33.0368 28.91437 33.02312zM39.61652 37.91961c-.01367.00781-1.28711.85352-4.92773.2207-.48535-.08496-.98242 0-1.39941.23438-.17969.10059-.40332.10059-.58301.00098-.41797-.23535-.91504-.32031-1.39941-.23535-3.62891.62891-4.90723-.20703-4.90918-.20801-.32813-.25586-.79785-.19727-1.05371.12793-.25488.32617-.19824.79785.12793 1.05371.07867.06073.47827.34113 1.32648.5437.00061.00116.00085.00159.00153.00275.32001.55005 1.21002 1.75 3.06 2.45001.83002.32001 1.85999.53003 3.13.53003H33c1.25 0 2.27002-.21002 3.09998-.53003 1.85004-.69 2.76001-1.89001 3.09003-2.45001.00031-.00055.00043-.00079.00073-.00134.85248-.20264 1.25415-.48425 1.33301-.5451.31836-.25098.37207-.70215.13184-1.02832C40.41632 37.75848 39.9505 37.68914 39.61652 37.91961zM33 41.14043c-.01001 0-.01001 0-.01001 0-2.02997 0-3.29999-.64001-4.03998-1.26001-.00427-.00342-.00659-.00659-.0108-.01001.73462-.00568 1.59998-.07532 2.6236-.25159.14746-.02734.29004-.00391.40918.06445.31641.17676.6709.26563 1.02539.26563.35547 0 .70996-.08887 1.02637-.2666.11816-.06641.26563-.08984.40918-.06348 1.01654.17517 1.87665.24481 2.60815.25128-.00433.00348-.00677.00684-.01111.01031C36.27997 40.50042 35.02002 41.13042 33 41.14043z"/><path fill="none" stroke="#172540" stroke-linecap="round" stroke-linejoin="round" stroke-miterlimit="10" stroke-width="1.5" d="
				M26.23639,38.75265"/></svg>