<svg xmlns="http://www.w3.org/2000/svg" enable-background="new 0 0 66 66" viewBox="0 0 66 66"><path fill="#3590CE" d="M63.99793,33.24861c0,17.11822-13.87907,30.99729-30.99729,30.99729
				c-17.12365,0-31.00271-13.87907-31.00271-30.99729c0-17.12365,13.87907-31.00271,31.00271-31.00271
				C50.11886,2.24589,63.99793,16.12496,63.99793,33.24861z"/><path fill="#444A88" d="M55.77793,54.27586c-5.66998,6.13-13.77997,9.97003-22.77997,9.97003s-17.10999-3.84003-22.78003-9.97003
				c3.42004-0.39001,6.92004-0.62,9.58002-2.76001c3.35999-2.69,2.40002-8.27997,2.40002-12.63995h21.58997
				c0,4.34998-0.94,9.94995,2.40002,12.63C48.85794,53.64586,52.35794,53.88585,55.77793,54.27586z"/><path fill="#172540" d="M32.99841,64.99597c-8.8252,0-17.32813-3.72168-23.33105-10.21094
				c-0.19141-0.20752-0.25098-0.50537-0.15234-0.77002c0.09863-0.26514,0.33691-0.45215,0.61816-0.48438l0.80273-0.08936
				c3.14158-0.34668,6.10938-0.67383,8.39258-2.50977c2.4668-1.9751,2.32129-5.85205,2.18164-9.60107
				c-0.03223-0.8418-0.0625-1.66797-0.0625-2.45459c0-0.41406,0.33594-0.75,0.75-0.75h21.58984c0.41406,0,0.75,0.33594,0.75,0.75
				c0,0.77637-0.0293,1.5918-0.05957,2.42383c-0.13672,3.76074-0.27734,7.6499,2.17969,9.62109
				c2.30176,1.84521,5.28418,2.17529,8.44238,2.52441l0.7627,0.08545c0.28125,0.03223,0.51953,0.21924,0.61816,0.48438
				c0.09863,0.26465,0.03906,0.5625-0.15234,0.77002C50.32556,61.27429,41.82263,64.99597,32.99841,64.99597z M11.82458,54.85144
				c5.6377,5.51123,13.27051,8.64453,21.17383,8.64453s15.53613-3.1333,21.17383-8.64502
				c-2.98926-0.34131-6.01855-0.80811-8.45313-2.76025c-3.04492-2.44238-2.88281-6.90674-2.74023-10.8457
				c0.01953-0.54932,0.04004-1.09131,0.05078-1.61914H22.95642c0.01074,0.5376,0.03125,1.08936,0.05273,1.64844
				c0.14648,3.92822,0.3125,8.38086-2.74219,10.82715C17.84119,54.05261,14.81189,54.51257,11.82458,54.85144z"/><path fill="#D6EBF7" d="M55.77785 54.27663c-3.87 4.18005-8.87994 7.30005-14.52997 8.86011-.57001-1.64014-.87-3.39014-.87-5.21997 0-3.87012 1.35999-7.44006 3.62-10.2301.33997 1.52002.98999 2.85999 2.19 3.81995C48.85787 53.64675 52.35787 53.88674 55.77785 54.27663zM25.61788 57.91677c0 1.82983-.29999 3.57983-.87 5.21997-5.65002-1.56006-10.66003-4.68005-14.53003-8.86011 3.42004-.38989 6.92004-.61987 9.58002-2.76001 1.21002-.96997 1.85999-2.30994 2.19-3.82996C24.25789 50.47671 25.61788 54.04665 25.61788 57.91677z"/><path fill="#444A88" d="M53.68514,22.1611c0,13.48118-9.26198,24.40985-20.68721,24.40985S12.31071,35.64228,12.31071,22.1611
				s9.26198-20.4152,20.68722-20.4152S53.68514,8.67991,53.68514,22.1611z"/><path fill="#D6EBF7" d="M48.01959 43.23796c0 0 3.18818-.446 3.85863-1.31608 1.85828-2.41158 4.10464-10.94977 1.75933-12.51459-.9411-.62792-4.00383 2.34883-4.00383 2.34883L48.01959 43.23796zM17.97626 43.23796c0 0-3.18818-.446-3.85864-1.31608-1.85828-2.41158-4.10463-10.94977-1.75933-12.51459.9411-.62792 4.00382 2.34883 4.00382 2.34883L17.97626 43.23796z"/><path fill="#D6EBF7" d="M51.20952,30.63252c0.09972,3.47065-1.57026,10.39919-3.01198,13.55779
				c-1.65782,3.63204-9.50888,12.83053-9.50888,12.83053c-1.06209,1.4331-2.626,2.41247-4.37901,2.74227l0,0
				c-0.86423,0.16259-1.75118,0.16275-2.61547,0.00047l-0.00629-0.00118c-1.75399-0.32933-3.31889-1.30893-4.38151-2.74273
				c0,0-7.85038-9.19764-9.50805-12.82936c-1.44172-3.1586-3.11251-10.08717-3.01193-13.55779
				c0.06976-2.40714,1.25516-7.59829,2.1836-11.33421c0.63709-2.56355,2.83097-4.43592,5.46367-4.65159
				c3.56342-0.29192,8.36171-0.64794,10.56828-0.64794c2.20604,0,7.00256,0.35585,10.56572,0.64773
				c2.63392,0.21576,4.82849,2.08967,5.46445,4.65474C49.95835,23.03704,51.14038,28.22622,51.20952,30.63252z"/><polygon fill="#3590CE" points="37.028 23.732 32.998 31.792 28.968 23.732"/><path fill="#172540" d="M34.3822 44.95105c-.19238 0-.38574-.07373-.53223-.22119-.29199-.29395-.29004-.76904.00391-1.06104.39648-.39404.84668-.84082 1.46094-1.10449.62109-.26563 1.25879-.28174 1.82129-.2959.44336.02881.75781.31836.76855.73096.00977.41406-.31738.7583-.73145.76904-.44824.01123-.91211.02246-1.26758.1748-.35156.15088-.67871.47559-.99512.79004C34.76404 44.87829 34.57361 44.95105 34.3822 44.95105zM31.61365 44.95105c-.19141 0-.38184-.07275-.52832-.21777-.31641-.31445-.64355-.63916-.99609-.79004-.35449-.15234-.81836-.16357-1.2666-.1748-.41406-.01074-.74121-.35498-.73145-.76904.01074-.41309.34668-.70801.76855-.73096.5625.01416 1.2002.03027 1.82031.2959.61523.26367 1.06543.71045 1.46191 1.10449.29395.29199.2959.76709.00391 1.06104C31.99939 44.87732 31.80603 44.95105 31.61365 44.95105z"/><path fill="#FFF" d="M26.14756,46.97733c0,0,0.94033,0.60477,1.49865,1.38872c0,0,1.17406,1.78292,5.35182,1.78292
				s5.35182-1.78292,5.35182-1.78292c0.55832-0.78395,1.49865-1.38872,1.49865-1.38872l0.30549-0.17736
				c0,0-1.38543,0.82715-5.57275,0.27542c-0.31353-0.04131-0.63789-0.00352-0.91539,0.11514l0,0
				c-0.4148,0.17737-0.92081,0.17737-1.33561,0h0c-0.2775-0.11866-0.60186-0.15645-0.91539-0.11514
				c-4.18733,0.55172-5.57275-0.27542-5.57275-0.27542"/><path fill="#172540" d="M32.99841,50.8988c-4.45313,0-5.83594-1.90283-5.97852-2.12012
				c-0.44922-0.63037-1.27051-1.16553-1.27832-1.1709c-0.03125-0.02051-0.06055-0.04248-0.08789-0.06641
				c-0.10547-0.0459-0.16895-0.08154-0.19629-0.09717c-0.35547-0.2124-0.47168-0.67285-0.25879-1.02832
				c0.21094-0.35596,0.6709-0.47168,1.02832-0.25977l0,0c0.00195,0.00049,1.3291,0.67383,5.08984,0.17578
				c0.44824-0.05957,0.91504,0.00049,1.30859,0.16895c0.22656,0.09668,0.51953,0.09814,0.74414,0.00049
				c0.40234-0.17139,0.85645-0.22803,1.31055-0.16943c3.7002,0.48877,5.04785-0.15527,5.10352-0.18408
				c0.35938-0.20264,0.80957-0.08008,1.0166,0.27197c0.19727,0.33594,0.10352,0.76367-0.20605,0.98779
				c-0.00098,0-0.00098,0.00049-0.00098,0.00049c-0.00098,0.00049-0.00098,0.00049-0.00098,0.00049
				c-0.01953,0.01465-0.04102,0.02783-0.0625,0.04053l-0.30469,0.17676l0,0c0.00195,0-0.80469,0.53076-1.26367,1.17529
				C38.83337,48.99548,37.45154,50.8988,32.99841,50.8988z M28.32263,48.00769c0.2793,0.30127,1.51367,1.39111,4.67578,1.39111
				c3.26172,0,4.4502-1.12939,4.68066-1.3916c-0.83984,0.02734-1.89258-0.0166-3.19531-0.18799
				c-0.18555-0.02344-0.375-0.00195-0.52441,0.06104c-0.59961,0.25732-1.32031,0.25879-1.92383-0.00049
				c-0.14746-0.06299-0.33789-0.08496-0.52246-0.06055C30.2113,47.9906,29.15564,48.03259,28.32263,48.00769z"/><path fill="#FFF" d="M21.13696 34.30273c0 0 5.38633-2.29877 7.70763 3.15519C26.90643 36.62404 22.71455 39.53131 21.13696 34.30273zM44.85889 34.30273c0 0-5.38633-2.29877-7.70763 3.15519C39.08943 36.62404 43.2813 39.53131 44.85889 34.30273z"/><path fill="#172540" d="M44.07001,3.48999C40.95001,1.86999,37.22003,1,33,1c-4.21997,0-7.95001,0.87-11.07001,2.48999
					C9.85999,7.98999,1.25,19.63,1.25,33.25c0,8.23004,3.15002,15.75,8.32001,21.40002
					c0.03003,0.04999,0.06,0.09998,0.10004,0.14001C15.45513,61.03782,23.78534,65,33,65c17.52037,0,31.75-14.27037,31.75-31.75
					C64.75,19.63,56.14001,7.98999,44.07001,3.48999z M63.25,33.25c0,7.78003-2.95001,14.87-7.78998,20.23999l-0.35999-0.03998
					c-3.16003-0.34998-6.14001-0.67999-8.44-2.52997c-0.44-0.35004-0.81-0.77002-1.11005-1.27002
					c1.46002-1.97003,2.75-3.87,3.33002-5.15002c0.10004-0.21997,0.20001-0.44995,0.29999-0.69995
					c1.14001-0.23004,2.72003-0.68005,3.29004-1.42004C54.12,40.23999,55.82001,34.25,55.29004,31.06
					c-0.18005-1.07996-0.59003-1.84998-1.24005-2.27997c-0.09998-0.07001-0.20996-0.12-0.32996-0.16003
					c0.46997-2.06,0.70996-4.21997,0.70996-6.45996c0-5.66003-1.63-10.42999-4.56-14.01001C57.94,13.59002,63.25,22.81,63.25,33.25z
					 M13.06,22.16003C13.06,10.29352,20.81682,2.5,33,2.5c12.21402,0,19.92999,7.81332,19.92999,19.66003
					c0,2.34998-0.28998,4.63-0.83997,6.77997C52,28.98004,51.91003,29.03003,51.82001,29.08002
					c-0.33997-2.70001-1.27002-6.76001-2.06-9.96002c-0.71002-2.88-3.17999-4.97998-6.13-5.21997
					C40,13.60003,35.22003,13.25,33,13.25c-2.21997,0-7.01001,0.35004-10.63,0.65002c-2.94995,0.23999-5.40997,2.33997-6.13,5.21997
					c-0.79999,3.21002-1.72998,7.27002-2.06,9.97003C14.09003,29.04004,14,28.98999,13.91003,28.94
					C13.35999,26.80005,13.06,24.52002,13.06,22.16003z M47.17999,36.38L45.44,40.63l-1.21997,2.96002L43.94,44.27002
					c-0.01996,0.03998-0.02997,0.07001-0.03998,0.10999l-0.69,2.84003l-8.03003,8.81h-4.35999l-8.02997-8.81L22.09003,44.38
					c-0.01001-0.03998-0.02002-0.07001-0.03003-0.10999l-0.27997-0.67999L20.56,40.61999L18.81,36.38l0.66003-5.92999
					c0.01996-0.19-0.03003-0.39001-0.16003-0.54999l-3-3.77002c-0.02997-0.03998-0.07001-0.07001-0.09998-0.09998
					c0.35999-1.82001,0.85999-4.03003,1.48999-6.54999c0.56-2.26001,2.48999-3.90003,4.79999-4.09003
					c0.12-0.01001,0.23999-0.02002,0.35999-0.02997c0.00073-0.00006,0.00146-0.00012,0.0022-0.00018l-0.28174,7.85925
					c-0.00684,0.21143,0.0752,0.41602,0.22559,0.56348l2.71484,2.65039v3.73804c-0.15387-0.04633-0.30042-0.08563-0.43066-0.11011
					c-0.99512-0.18848-3.49023,0.22949-3.98047,0.31543c-0.4082,0.07129-0.68164,0.45996-0.60938,0.86816
					c0.07129,0.4082,0.46777,0.68359,0.86719,0.60938c1.10645-0.19336,2.90918-0.41992,3.44531-0.31885
					c1.27051,0.23877,4.69043,2.19433,5.90039,2.92822c0.35071,0.21212,0.81277,0.10482,1.03027-0.25293
					c0.21484-0.354,0.10156-0.81543-0.25293-1.03027c-0.33972-0.20593-2.6189-1.57483-4.52148-2.44055
					c0.02966-0.08063,0.05176-0.16534,0.05176-0.25623v-4.36621c0-0.20215-0.08105-0.39551-0.22559-0.53662l-2.70313-2.63916
					l0.27588-7.69116c0.00067-0.00006,0.00128-0.00006,0.00195-0.00012c3.22003-0.26001,6.82001-0.5,8.63-0.5
					c1.80957,0,5.39844,0.23987,8.62781,0.49982l0.27588,7.69147l-2.70313,2.63916
					c-0.14453,0.14111-0.22559,0.33447-0.22559,0.53662v4.36621c0,0.09082,0.02209,0.17542,0.0517,0.25598
					c-1.90259,0.86591-4.1817,2.23486-4.52142,2.44079c-0.35449,0.21484-0.46777,0.67627-0.25293,1.03027
					c0.21712,0.35712,0.6789,0.46545,1.03027,0.25293c1.20996-0.73389,4.62891-2.68945,5.90039-2.92822
					c0.53516-0.104,2.33789,0.125,3.44531,0.31885c0.40332,0.07422,0.7959-0.20117,0.86719-0.60938
					c0.07227-0.4082-0.20117-0.79688-0.60938-0.86816c-0.48828-0.08594-2.97852-0.50342-3.98047-0.31592
					c-0.13025,0.02448-0.27679,0.06384-0.43066,0.11017v-3.73761l2.71484-2.65039c0.15039-0.14746,0.23242-0.35205,0.22559-0.56348
					l-0.28174-7.85956c0.00201,0.00018,0.00433,0.00031,0.00635,0.00049c0.13,0.00995,0.25,0.01996,0.37,0.02997
					c2.31,0.19,4.22998,1.84003,4.79999,4.09003c0.63,2.51996,1.12,4.72998,1.48004,6.54999
					C49.76001,26.06,49.72003,26.09002,49.69,26.13l-3.01001,3.77002C46.56,30.06,46.5,30.26001,46.52002,30.45001L47.17999,36.38z
					 M51.60999,34.61999c0.24005-1.44,0.37006-2.77997,0.35004-3.83996c0.56-0.40002,1.04999-0.67999,1.32001-0.71002
					c0.01996,0.02002,0.03998,0.04004,0.04999,0.06C53.56,30.36004,53.72003,30.75,53.81,31.31
					c0.48004,2.92004-1.21997,8.47003-2.52997,10.15002c-0.15002,0.19-0.72003,0.42999-1.48004,0.64001
					C50.53003,39.88,51.21002,37.10003,51.60999,34.61999z M12.72003,30.07001c0.26996,0.03003,0.76001,0.31,1.32001,0.72003
					c-0.02002,1.04999,0.10999,2.36999,0.32996,3.79999c0.40002,2.48999,1.10004,5.28998,1.83002,7.52002
					c-0.76001-0.21002-1.34003-0.45001-1.48999-0.65002c-1.29999-1.67999-3.01001-7.22998-2.53003-10.15002
					c0.09003-0.56,0.26001-0.94995,0.48004-1.17999L12.72003,30.07001z M16.73004,38.52002v-0.01001
					c-0.15002-0.58997-0.30005-1.20001-0.43005-1.79999C16.12,35.85003,15.96002,35,15.84003,34.19
					c-0.46205-2.70112-0.33717-4.1867,0.01001-6.21997l2.09998,2.63c-0.01122,0.10007-0.69354,6.18831-0.65002,5.79999
					c-0.00995,0.13,0,0.25,0.05005,0.37l0.01996,0.06c0.04229,0.10264,2.04559,4.96467,1.92004,4.65997l1.35999,3.30005
					l0.64001,2.63995L21.37,47.76001c0.03003,0.12,0.09003,0.22998,0.17999,0.32001l3.88,4.26001l4.5,4.95001
					c0.14001,0.14996,0.34003,0.23999,0.56,0.23999h5.02002c0.21002,0,0.41003-0.09003,0.54999-0.23999l4.5-4.94l3.89001-4.27002
					c0.08002-0.09003,0.14001-0.20001,0.16998-0.32001l0.08002-0.33002l0.65002-2.63995L46.70001,41.5l1.22998-2.98999V38.5
					l0.67004-1.63l0.03998-0.09998c0.04999-0.12,0.07001-0.23999,0.04999-0.37l-0.20996-1.85999v-0.02002l-0.43005-3.91998
					l2.10004-2.63c0.36575,2.14205,0.45766,3.4446,0.02002,6.17999c-0.05005,0.10999-0.10004,0.21002-0.16003,0.31L49.71002,36.63
					c-0.14001,0.63-0.28003,1.25-0.44,1.87C48.75,40.58001,48.12,42.53003,47.54999,43.82
					c-0.00995,0.02002-0.01996,0.04004-0.02997,0.06c-0.47003,1.03003-1.47003,2.54004-2.66003,4.17004
					c-0.33997,0.46997-0.69995,0.95996-1.06995,1.43994c-0.25,0.34003-0.51001,0.68005-0.77002,1.01001
					c-1.06,1.37-2.13,2.69-2.98999,3.75c-1.12,1.36005-1.91003,2.28003-1.94,2.32001
					c-0.96002,1.29004-2.35004,2.16003-3.91998,2.46002c-0.77002,0.14001-1.56006,0.14001-2.34003,0
					c-1.58002-0.29999-2.97003-1.16998-3.95001-2.5c-0.22803-0.22849-3.26311-3.91729-4.94-6.08002
					c-0.01001-0.01001-0.01001-0.02002-0.01996-0.02997c-0.24005-0.31-0.48004-0.62-0.71002-0.93005
					C21.84003,49,21.47003,48.51001,21.13,48.04004c-1.17999-1.62-2.17999-3.13-2.64996-4.16003
					c-0.01001-0.01996-0.02002-0.03998-0.03003-0.07001C17.87,42.53003,17.25,40.59002,16.73004,38.52002z M16.13,8.15002
					C13.19,11.73004,11.56,16.5,11.56,22.16003c0,2.22998,0.25,4.39996,0.72003,6.45996
					c-0.12,0.04004-0.23999,0.09003-0.34003,0.16003c-0.64001,0.42999-1.06,1.20001-1.23999,2.27997
					C10.17999,34.25,11.88,40.23999,13.52002,42.38c0.58002,0.73999,2.15997,1.19,3.29999,1.42004
					c0.10004,0.25,0.20001,0.47998,0.29999,0.69995c0.58002,1.28003,1.88,3.19,3.32001,5.15002
					c-0.29999,0.5-0.66998,0.92999-1.10999,1.27997c-2.28003,1.84003-5.25,2.17004-8.40002,2.51001l-0.38995,0.04004
					C5.69,48.11999,2.75,41.02002,2.75,33.25C2.75,22.81,8.06,13.59002,16.13,8.15002z M24.23004,62.20001
					c-4.51033-1.35296-8.78683-3.83173-12.38-7.34998c2.97998-0.34003,6-0.81,8.41998-2.75
					c0.42999-0.34003,0.81-0.73999,1.14001-1.17999c1.09998,1.44,2.22998,2.84998,3.15997,3.98999
					c0.20001,0.98999,0.29999,2,0.29999,3.01001c0,1.46997-0.20996,2.90997-0.60999,4.28998
					C24.25,62.21002,24.23999,62.20001,24.23004,62.20001z M33,63.5c-2.51996,0-4.95996-0.31-7.29999-0.88995
					c0.44-1.51001,0.66998-3.08002,0.66998-4.69c0-0.29004-0.01001-0.59003-0.02997-0.88
					c0.20001,0.23999,0.33002,0.38995,0.35999,0.42999C27.88,59.05999,29.60004,60.13,31.56,60.5
					c0.47003,0.09003,0.96002,0.14001,1.44,0.14001c0.48999,0,0.97003-0.04999,1.45001-0.14001
					c2.81263-0.53642,4.06028-2.10132,5.21002-3.45996c-0.11343,1.64309,0.07317,3.66793,0.63995,5.57001
					C37.96002,63.19,35.52002,63.5,33,63.5z M49.88,58.34002c-2.57806,1.74196-5.33531,3.02767-8.10999,3.85999
					c-0.01001,0-0.02002,0.01001-0.03003,0.01001c-0.69648-2.3444-0.79218-4.9126-0.31-7.29999
					c0.92999-1.14001,2.05005-2.54999,3.16003-3.98999c0.33002,0.44,0.70001,0.82996,1.13,1.16998
					c2.41998,1.95001,5.45001,2.41998,8.42999,2.76001C52.6967,56.30303,50.02835,58.34002,49.88,58.34002z"/><path fill="#172540" d="M37.67004 23.34002c-.14001-.22003-.38-.35999-.64001-.35999h-8.06c-.26001 0-.5.13995-.64001.35999-.14001.21997-.15002.5-.03003.72998l4.03003 8.06c.12.25.38.41003.66998.41003.28003 0 .54004-.16003.67004-.41003l4.02997-8.06C37.81 23.84002 37.79999 23.56 37.67004 23.34002zM33 30.11004l-2.82001-5.63h5.63L33 30.11004zM23.71002 33.07c-1.58002 0-2.82001.52002-2.87.54004-.35004.14996-.53003.53998-.41998.90997.75995 2.53003 2.25995 3.76001 4.56995 3.76001.57001 0 1.12-.07001 1.66003-.13.81-.09998 1.53998-.16003 1.89996 0 .10004.03998.16003.06.30005.06.39996-.03003.75995-.34003.75995-.75 0-.16998-.04999-.32001-.13995-.45001C28.02002 33.76001 25.54004 33.07 23.71002 33.07zM26.47003 36.66003c-.48999.06-1 .12-1.48004.12-1.07996 0-2.15997-.26001-2.88995-2 .40997-.10004.97998-.21002 1.60999-.21002 1.62 0 2.89001.66998 3.79999 1.98999C27.17004 36.58001 26.83002 36.61999 26.47003 36.66003zM45.15002 33.61004C45.10004 33.59002 43.87 33.07 42.29004 33.07c-1.87 0-4.39001.71002-5.83002 4.09003-.12.28998-.04999.60999.15997.82996.22003.22003.55005.28003.83002.16003.61869-.28291 2.26148.13 3.56.13 2.31 0 3.79999-1.22998 4.57001-3.76001C45.69 34.15002 45.5 33.76001 45.15002 33.61004zM41.01001 36.78003c-.80038 0-1.67434-.16873-2.52002-.22003.90002-1.32001 2.18005-1.98999 3.80005-1.98999.63 0 1.19.10999 1.59998.21002C43.17004 36.52002 42.08002 36.78003 41.01001 36.78003z"/></svg>