<svg xmlns="http://www.w3.org/2000/svg" enable-background="new 0 0 66 66" viewBox="0 0 66 66"><path fill="#3590CE" d="M63.99761,33.24947c0,17.11822-13.87907,30.99728-30.99728,30.99728
				c-17.12365,0-31.00272-13.87906-31.00272-30.99728c0-17.12365,13.87907-31.00272,31.00272-31.00272
				C50.11855,2.24676,63.99761,16.12582,63.99761,33.24947z"/><path fill="#F0523C" d="M57.26877,52.53744c-0.99005,1.23999-2.07001,2.40002-3.23004,3.47998
				c-3.88,2.20001-38.65997,2.18005-41.45001,0.56c-1.40997-1.22998-2.69995-2.58997-3.87-4.04999
				c-0.08997-2.53998,1.13-5.13,3.24005-6.57001c1.00995-0.69,2.19995-1.13,3.09998-1.96997
				c1.46002-1.34998,1.90997-3.52002,1.64001-5.48999c-0.27002-1.97003-1.16003-3.79004-2.03003-5.57001
				c-1.70996-3.48999-2.14001-7.37-2.52997-11.23999c-0.39001-3.86005-0.10004-7.87,1.41998-11.44
				c0.14001-0.32001,0.27997-0.63,0.44-0.92999c0.16998-0.34003,0.35999-0.67004,0.56-0.99005
				c2.82001-4.57996,8.08996-6.76996,13.19-6.12c0.69,0.09003,1.37,0.16003,2.06,0.20001c0.01001,0.01001,0.01001,0.01001,0.02002,0
				c2.12,0.16998,4.25,0.16998,6.37,0c0.69-0.03998,1.38-0.10999,2.07001-0.20001c5.08997-0.63,10.33997,1.55005,13.14996,6.11005
				c0.21002,0.32001,0.40002,0.64996,0.57001,1c0.15997,0.29999,0.29999,0.60999,0.44,0.92999
				c1.52002,3.57001,1.81,7.57996,1.41998,11.44c-0.38995,3.87-0.81,7.75-2.52997,11.23999
				c-0.87,1.77997-1.76001,3.59998-2.03003,5.57001c-0.26996,1.96997,0.17999,4.14001,1.64001,5.48999
				c0.90002,0.83997,2.09003,1.27997,3.09998,1.96997C56.14871,47.39743,57.36874,49.99746,57.26877,52.53744z"/><rect width="21.48" height="27.78" x="22.349" y="33.247" fill="#F1AD7E"/><path fill="#575E85" d="M55.48874,54.58743c-5.65002,5.95001-13.64001,9.66003-22.48999,9.66003
				c-8.85999,0-16.85004-3.71002-22.48999-9.67004l6.78998-1.75995l4.69-4.86005l8.28998,3.65002v2.97998h5.43005v-2.97998
				l8.28998-3.65002l4.69,4.86005L55.48874,54.58743z"/><path fill="#F1AD7E" d="M48.97762,9.57955v18.19011c0,0.76969-0.10446,1.53581-0.31052,2.2774l-2.62954,9.46335
				c-0.37342,1.3439-1.06773,2.56969-2.02793,3.58138c-1.90843,2.01075-5.20129,5.27291-7.03201,5.89774
				c-0.94363,0.32207-2.98293-0.25741-3.98001-0.25741s-3.03638,0.57948-3.98001,0.25741
				c-1.83071-0.62482-5.12358-3.88699-7.03201-5.89774c-0.96021-1.01169-1.65451-2.23748-2.02793-3.58138l-2.62954-9.46335
				c-0.20606-0.74159-0.31052-1.50771-0.31052-2.2774V9.57955H48.97762z"/><path fill="#F1AD7E" d="M44.90329 34.62893c0 0 3.96677-5.58904 4.33657-7.78625.47612-2.82892-.99427-11.30021-.99427-11.30021M21.09193 34.62893c0 0-3.96677-5.58904-4.33657-7.78625-.47612-2.82892.99428-11.30021.99428-11.30021"/><path fill="#F0523C" d="M51.46875,16.35802c-0.82768,2.38206-2.3215,4.48153-3.9869,6.36901c0,0,1.58463-8.5795-0.04041-11.69836
				c-0.79737,2.29119-1.64525,4.67331-3.34095,6.39926c-1.39291,1.41312-3.27029,2.28115-5.19813,2.75551
				c-1.9279,0.46432-5.90475,1.87296-5.90475,1.87296s-3.97685-1.40863-5.90469-1.87296
				c-1.9279-0.47437-3.79518-1.34239-5.18809-2.75551c-1.70581-1.72595-2.55369-4.10807-3.34095-6.39926
				c-1.63515,3.11887-0.04035,11.69836-0.04035,11.69836c-1.66545-1.88748-3.16938-3.98696-3.99706-6.36901
				s-0.93869-5.07701,0.10091-7.37837c0.85799-1.91779,2.47293-3.44187,4.28975-4.49163
				c1.82693-1.0497,3.87594-1.6654,5.92489-2.12972c3.60583-0.81539,12.70541-0.8154,16.31117,0
				c2.04895,0.46432,4.09797,1.08001,5.9249,2.12972c1.82692,1.04977,3.43182,2.57384,4.28975,4.49163
				C52.40744,11.28101,52.29643,13.97596,51.46875,16.35802z"/><path fill="#F0523C" d="M27.76361 20.2917c-1.29775-1.47075-2.46963-3.10669-3.11456-4.96283s-.73144-3.95608.07863-5.74933M38.23161 20.2917c1.29775-1.47075 2.46963-3.10669 3.11457-4.96283.64494-1.85613.73144-3.95608-.07863-5.74933"/><path fill="#FFF" d="M44.90329 26.94085c-.41022.33443-.9864.39082-1.50974.31186-.52334-.07896-1.02096-.27619-1.53611-.39758-1.16438-.27438-2.41953-.14688-3.50495.35602-1.08542.50291-1.99418 1.37801-2.53767 2.44369C38.31524 30.93348 43.68432 29.99285 44.90329 26.94085M21.09193 26.94085c.41022.33443.98639.39082 1.50974.31186s1.02096-.27619 1.53611-.39758c1.16438-.27438 2.41952-.14688 3.50495.35602 1.08542.50291 1.99418 1.37801 2.53767 2.44369C27.67999 30.93348 22.31091 29.99285 21.09193 26.94085M40.60309 40.4068c-1.72459-.0563-3.18065-1.13642-4.87537-1.38725-.99061-.14847-1.85586 0-2.73309.41974-.87719-.41974-1.74248-.56821-2.72712-.41974-1.7007.25083-3.15675 1.33095-4.87537 1.38725l.54899.12285c1.06222.33788 1.7962 1.15692 2.75694 1.6637 1.27415.68582 2.84625.75778 4.29655.7474 1.45445.01032 3.01427-.06073 4.30252-.7474.95477-.50678 1.69473-1.32582 2.75097-1.6637L40.60309 40.4068z"/><path fill="#172540" d="M52.01001,7.83996C49.46002,3.77997,44.97998,1.34997,40,1.34997c-0.08002,0-0.14996,0-0.22998,0.01001
					c-0.01001,0-0.02002,0-0.02002,0C37.97998,1.12994,35.59003,1,33,1c-2.59998,0-4.98999,0.12994-6.77002,0.35999
					c0,0,0,0-0.00995,0C26.14001,1.34997,26.06,1.34997,25.97998,1.34997c-4.97998,0-9.46997,2.42999-12.00995,6.51001
					C6.25,13.64996,1.25,22.87994,1.25,33.25c0,7.40997,2.54999,14.23999,6.83002,19.64996
					C8.13495,53.11937,9.87,54.96306,9.87,54.97998c1.17667,1.56651,6.89243,6.16101,10.83002,7.52997
					c0.01001,0.01001,0.01001,0.01001,0.02002,0.01001C24.67401,64.13819,28.37059,65,33,65
					c7.60338,0,15.22884-2.68541,21.34003-8.26001c0.01996-0.01001,0.04999-0.03003,0.07001-0.07001
					c0.00995,0.01001,0.02997,0,0.03998-0.03003c0.13042-0.06511,1.63535-1.58059,1.66998-1.64996
					C56.13,54.97998,56.13,54.97998,56.13,54.96997c0.25602-0.23631,1.76001-1.93843,1.76001-2.03998
					C62.19,47.51995,64.75,40.66998,64.75,33.25C64.75,22.86999,59.73999,13.62994,52.01001,7.83996z M63.25,33.25
					c0,6.39996-2,12.34998-5.40997,17.23999c-0.45001-2.09003-1.67004-3.98004-3.39001-5.15002
					c-1.67316-1.15524-5.08158-1.91322-4.41998-6.73999c0.25-1.84998,1.12-3.62,1.95996-5.34003
					c2.34725-4.75896,3.91647-15.51786,1.56-22.17999C59.51001,16.59997,63.25,24.5,63.25,33.25z M23.10004,47.62994v-2.32996
					c5.03699,4.98632,5.94181,4.74451,8.60999,4.32996c4.84071-0.66389,4.163,2.69683,11.37-4.50995v2.41998
					c-7.53221,3.49712-8.12,3.17766-8.12,4.07001v2.22998h-3.92999v-2.22998C31.03003,50.72474,30.40265,51.01884,23.10004,47.62994
					z M10.77002,53.72998c-0.46002-0.48999-0.90002-0.98999-1.31-1.51001c0.07186-8.06536,9.21486-4.92226,7.97998-13.82001
					c-0.68751-5.13229-3.30775-4.54542-4.56-16.78998c-0.27997-2.78003-0.16998-5.35004,0.32001-7.66004
					c0.09998,0.87,0.31,1.76001,0.62,2.65003c0.51001,1.47998,1.28003,2.91998,2.39001,4.42999
					c-0.24759,2.2382-0.53961,5.18095,0.06,6.83002c0.02759,0.37016-0.00971,1.15003,0.33997,2.39001
					c2.56116,8.28478,2.28741,10.67054,4.83002,13.35998c0.04999,0.06,0.10999,0.10999,0.16003,0.16998v3.53998
					c-0.15496,0.09298,0.06536-0.08911-4.69,4.82001L10.77002,53.72998z M43.47003,42.56994
					c-1.2666,1.36412-4.96363,5.1112-6.73004,5.71002c-0.21997,0.07001-1.28998,0.01001-2.22998-0.13
					c-5.44027-0.874-3.66279,3.01809-11.40997-4.97998l-0.57001-0.60004c-1.87262-1.92584-1.82785-3.52758-3.72003-9.97998
					c1.59781,2.47662,1.77585,2.78998,2.28003,2.78998c0.22544,0,0.45244-0.12378,0.51001-0.20996
					C21.87,34.92999,21.91998,34.5,21.70001,34.18994c-0.03003-0.03998-0.07001-0.08997-0.09998-0.13995
					c-0.97003-1.38-3.07001-4.56-3.83002-6.47003V23c0.87253,1.01721,1.59576,0.17173,1.48999-0.41003
					c-0.33002-1.78998-0.90997-6.09998-0.58002-9.06c0.62,1.56,1.44,3.15997,2.69,4.41998
					c1.38,1.40002,3.23999,2.39001,5.54999,2.96002c1.86005,0.45001,5.79004,1.84003,5.83002,1.84998
					c0.16003,0.06,0.34003,0.06,0.5,0c0.03998-0.00995,3.96002-1.39996,5.83002-1.84998
					c4.47338-1.09874,6.6639-3.42727,8.23999-7.38001c0.33002,2.96002-0.25,7.27002-0.58002,9.06
					c-0.06,0.33002,0.11005,0.66003,0.41003,0.81c0.31,0.15002,0.66998,0.08002,0.88995-0.17999
					c0.07001-0.07001,0.13-0.15002,0.19-0.21997v4.57996c-1.71822,4.27196-5.27198,7.30452-3.64996,7.71002
					c0.74383,0.44639,1.19949-0.52924,2.59998-2.70001C45.40539,38.76225,45.3544,40.59811,43.47003,42.56994z M49.5,18.77997
					v0.01001c-0.26001,0.44-0.56,0.87-0.88,1.32001c0.16998-1.42004,0.32001-3.20001,0.29004-4.90003v-0.01001
					c-0.02002-1.62-0.20001-3.15997-0.68005-4.25c-0.02997-0.08997-0.06995-0.17999-0.12-0.26996
					c-0.09998-0.17004-0.25-0.30005-0.42999-0.35004c-0.08997-0.03998-0.19-0.04999-0.28998-0.04999
					c-0.07001,0-0.15002,0.02002-0.22003,0.04999c-0.19995,0.07001-0.37,0.23999-0.44,0.45001
					c-1.40913,4.05373-2.51038,6.69158-6.5,8.21002c2.68636-3.74173,2.84984-7.31859,1.72003-9.72003
					c-0.12-0.27997-0.39001-0.44-0.67999-0.44c-0.10004,0-0.21002,0.02002-0.31,0.07001
					c-1.62047,0.72486,2.93623,3.77377-3.21002,10.81c-1.71997,0.5-4,1.28003-4.75,1.54999
					C32.25,21,29.97003,20.20996,28.26001,19.70996c-2.33418-2.65385-4.21392-6.07516-3.01001-9.38001
					c0.03998-0.14996,0.10004-0.29999,0.16003-0.44c0.40507-0.90556-0.95093-1.52258-1.37006-0.62
					c-0.14996,0.34003-0.27997,0.70001-0.37,1.06c-0.65767,2.35321-0.25032,5.41812,2.09003,8.65003
					c-5.97217-2.24515-5.77434-8.24891-6.91998-8.65003c-0.35232-0.15082-0.80138-0.03176-1.07001,0.64001
					c-0.48004,1.09003-0.66003,2.59998-0.67999,4.21002v0.00995c-0.04004,0.07001-0.07001,0.14001-0.08002,0.22003
					c-0.02002,0.14001-0.26001,1.53998-0.52002,3.34998c-0.4173-0.6785-0.92253-1.69278-1.25-2.64996
					c-0.83997-2.39002-0.81-4.88001,0.07001-6.82001c0.14001-0.31,0.29999-0.60999,0.5-0.91003
					c0.78003-1.25,1.97998-2.37994,3.47998-3.23999c1.5-0.85999,3.26001-1.48999,5.72003-2.04999
					c0.38-0.08997,0.83002-0.15997,1.34003-0.22998C28.04999,2.62994,30.41003,2.5,33,2.5
					c2.60004,0,4.97003,0.12994,6.66998,0.35999C40.16998,2.92999,40.62,3,40.98999,3.08996
					c2.46002,0.56,4.22003,1.19,5.71002,2.04999c1.09998,0.63,2.52002,1.67999,3.47998,3.23004
					c0.19,0.28998,0.35999,0.59998,0.5,0.91998C52.04118,12.29076,51.23442,15.96202,49.5,18.77997z M12.42999,11.08996
					c-1.08997,3.10999-1.44,6.69-1.03998,10.66998c0.37,3.65002,0.78998,7.78003,2.60999,11.5
					c6.58624,13.48593-3.92333,8.35988-5.83997,17.22003C4.75,45.58996,2.75,39.64996,2.75,33.25
					C2.75,24.50995,6.47998,16.61999,12.42999,11.08996z M33,63.5c-2.41281,0-5.05441-0.30601-7.54999-0.95001
					c-5.42752-1.40501-10.61357-4.5944-13.47003-7.58002c7.35459-1.95359,4.38697-0.16289,10.19-6.10999
					c0.10024,0.04413,7.85262,3.45683,7.36005,3.23999v2.48999c0,0.41003,0.32996,0.75,0.75,0.75h5.42999
					c1.19495,0,0.59878-1.79907,0.75-3.23999l6.62-2.91003l0.73999-0.32996l0.76001,0.78998l3.57001,3.69
					C48.23999,53.43994,48.37,53.50994,48.5,53.53997l5.52002,1.42999C49.76226,59.53212,41.67167,63.5,33,63.5z M55.22998,53.73999
					l-6.14996-1.60004l-4.5-4.65997v-3.90002c2.53458-2.70838,2.2382-5.02416,4.81-13.32995
					c0.21002-0.79004,0.33002-1.59003,0.33997-2.41003v-0.01001c0.12006-0.32001,0.21002-0.60999,0.25-0.85999
					c0.22003-1.29999,0.06-3.66998-0.19995-5.91998c1.56146-2.12419,2.71476-4.51178,3.00995-7.11005
					c1.11006,5.25527-0.0323,14.35998-2.14996,18.67004c-0.89001,1.82001-1.81,3.70001-2.09003,5.78998
					c-0.8221,5.92458,3.64608,7.19807,5.06,8.17999c1.78003,1.21002,2.91003,3.41003,2.91003,5.66003
					C56.10999,52.75994,55.67999,53.25994,55.22998,53.73999z"/><path fill="#172540" d="M34.41998 26.31c.03003 0 .05005 0 .08002-.01001 2.31-.23999 4.92999-.52002 7.16003-1.82001l.26996-.16003c.33002-.19995.64001-.38995.94-.45996.73999-.16003 1.58002.33997 2.38.87.34003.22998.81.14001 1.03998-.21002.23004-.33997.13-.81-.20996-1.03998-1.02002-.67999-2.22003-1.37-3.54004-1.08002-.53998.12-.98999.40002-1.38995.64001l-.25.14996c-1.95001 1.13-4.40002 1.39001-6.56 1.62006-.41003.04999-.71002.41998-.66003.82996C33.72003 26.01996 34.03998 26.31 34.41998 26.31zM45.60004 27.21997c.12994-.32001.01996-.67999-.25-.88-.28003-.20001-.65002-.20001-.92004.02002-.26996.21997-.64001.19-.91998.14996-.28998-.03998-.56-.13-.84003-.20996-.20996-.06-.41998-.12-.63995-.17999-1.31-.30005-2.77002-.16003-3.99005.40997-1.23999.58002-2.26996 1.57001-2.88995 2.78003-.19.37-.04999.81995.32001 1.00995.81995.42004 1.88.64001 3.06995.64001C41.22003 30.95996 44.57001 29.78998 45.60004 27.21997zM36.94 29.26996c.45001-.58002 1.04999-1.06 1.72998-1.38.92004-.42999 2.02002-.53998 3.02002-.29999.17999.03998.37.09998.56.15002.29999.08997.62.17999.96002.23999C41.60999 29.31 38.73999 29.72998 36.94 29.26996zM20.75 24.72998c.79999-.53003 1.64001-1.03003 2.37-.87.31.07001.62.26001.95001.45996l.27002.16003C26.56 25.77997 29.17999 26.06 31.5 26.29999 31.52002 26.31 31.54999 26.31 31.58002 26.31c.37 0 .70001-.29004.73999-.67004.03998-.40997-.25-.77997-.66998-.82996-2.16003-.23004-4.61005-.49005-6.56-1.62006l-.25-.14996c-.39001-.23999-.85004-.52002-1.39001-.64001C22.13 22.09997 20.94 22.79999 19.91998 23.47998 19.09646 24.02114 19.9104 25.28171 20.75 24.72998zM30.52002 30.31994c.37-.19.51996-.63995.33002-1.00995-.62006-1.21002-1.65002-2.20001-2.89001-2.78003-1.23004-.57001-2.67999-.71002-3.98999-.40997-.22003.06-.43005.12-.65002.17999-.27002.07996-.54999.16998-.83002.20996-.27997.04004-.64996.07001-.91998-.14996-.27002-.22003-.65002-.22003-.91998-.02002-.28003.20001-.38.56-.25.88 1.01996 2.57001 4.37 3.73999 7.04999 3.73999C28.64001 30.95996 29.71002 30.73999 30.52002 30.31994zM23.75 27.73999c.19-.05005.37-.11005.56-.15002.98999-.23999 2.09003-.13 3.02002.29999.67999.32001 1.27002.79999 1.72998 1.38-1.81.47003-4.67999.03003-6.27002-1.28998C23.13 27.91998 23.44 27.82995 23.75 27.73999zM40.63 39.65997c-1.56262-.05722-2.9764-1.12092-4.78998-1.38-1.01001-.15002-1.92004-.03998-2.85004.34003-3.17163-1.31006-5.37539.95676-7.62 1.03998-.38.01001-.69.29999-.71997.67999-.0921.85108.95782.85079 1.06.90002 1.8233.58481 2.00941 2.44995 7.06 2.44995 6.12617-.17499 5.45724-1.78336 7.44-2.42999.13867-.06519 1.21126-.04039 1.14001-.91998C41.32001 39.95996 41.01001 39.66998 40.63 39.65997zM32.77002 42.18994c-2.3196 0-3.49411-.28645-5.04999-1.56 1.58715-.52874 2.97295-1.45998 4.94995-.50995.21002.08997.44.08997.65002 0 1.95844-.96649 3.48596.02236 4.95001.50995C38.16003 40.71997 35.2145 42.12669 32.77002 42.18994zM30.31 34.55999c-.44952-1.12363.94593-1.79889.02002-2.46002-.34003-.23999-.79999-.16003-1.04004.17999-.04999.06-.08997.14001-.13995.22003-.22003.37994-.41003.90997-.42999 1.5C28.69 34.73999 28.94 35.56994 29.75 36.28997c.45534.39458 1.15577.14084 1.23999-.45001H31c1.0035.30883.4124.94 2.33002.94 1.10222-.20673.87356-.69799 1.65997-.94H35c.05392.3771.37254.64001.73999.64001.76711 0 1.57-1.36894 1.54004-2.47998-.02002-.59003-.21002-1.12006-.42999-1.5-.05005-.08002-.09003-.16003-.14001-.22003-.23999-.34002-.70001-.40997-1.04004-.17999C35.52002 32.19995 35.42999 32.33996 35.38 32.5c-.19368.67778.72131 1.04956.29999 2.04999-.19-.26001-.54999-.36005-.88-.23004C33.16045 34.8672 33.585 35.15039 33.12 35.28997h-.25c-.09998-.03003-.19-.09003-.25-.16998-.39001-.47003-.83997-.61005-1.16998-.71002C31.03395 34.25383 30.61354 34.12862 30.31 34.55999z"/></svg>