<svg xmlns="http://www.w3.org/2000/svg" enable-background="new 0 0 66 66" viewBox="0 0 66 66"><path fill="#3590CE" d="M63.99782,33.23842c0,17.11822-13.87907,30.99728-30.99728,30.99728
				c-17.12365,0-31.00272-13.87906-31.00272-30.99728c0-17.12365,13.87907-31.00272,31.00272-31.00272
				C50.11876,2.2357,63.99782,16.11477,63.99782,33.23842z"/><path fill="#444A88" d="M49.07935,19.65443c-0.12692,3.03254-1.08836,5.95943-2.26134,8.75954H18.73272
				c-1.16227-2.80011-2.12385-5.72701-2.26121-8.75954c-0.16897-3.9518,1.08837-7.88245,3.09599-11.29542
				c1.00375-1.70117,3.58201-3.29669,6.2659-4.7971c0.02694-0.015,0.0539-0.03,0.08086-0.04498
				c4.26278-2.36909,9.45633-2.36819,13.71914,0.00086c2.7246,1.51419,5.35156,3.11703,6.36041,4.84122
				C47.99099,11.77198,49.2589,15.70263,49.07935,19.65443z"/><path fill="#F1AD7E" d="M59.50692,49.32915c-5.44995,8.94-15.27997,14.91003-26.51001,14.91003
				c-11.23999,0-21.06995-5.98004-26.48999-14.92004c0.73004-0.44995,1.48999-0.77997,2.26001-1.00995
				c1.38-0.39001,2.79999-0.48004,4.22003-0.51001h0.01996c1.88-0.03003,3.77002,0.04999,5.61005-0.33002
				c0.75-0.15002,1.48999-0.38,2.20996-0.72998c1.45001-0.69,2.91998-2.04004,3.41998-4.20001
				c0.59003-2.54999-0.31-5.40002,0.13-8.02002h17.24005c0.44,2.62-0.46002,5.47003,0.12994,8.02002
				c0.51001,2.15997,1.97003,3.51001,3.43005,4.20001c0.52997,0.25,1.06,0.44,1.59998,0.58997
				c2.03003,0.54004,4.14001,0.44,6.22998,0.47003h0.01001c1.41998,0.02997,2.83002,0.12,4.21002,0.51001
				C58.00692,48.53917,58.77694,48.87914,59.50692,49.32915z"/><path fill="#575E85" d="M59.50692,49.32915c-5.44995,8.94-15.27997,14.91003-26.51001,14.91003
				c-11.23999,0-21.06995-5.98004-26.48999-14.92004c0.73004-0.44995,1.48999-0.77997,2.26001-1.00995
				c1.38-0.39001,2.79999-0.48004,4.22003-0.51001h0.01996c1.88-0.03003,3.77002,0.04999,5.61005-0.33002l14.37,13.14001
				l13.78998-13.28003c2.03003,0.54004,4.14001,0.44,6.22998,0.47003h0.01001c1.41998,0.02997,2.83002,0.12,4.21002,0.51001
				C58.00692,48.53917,58.77694,48.87914,59.50692,49.32915z"/><path fill="#F1AD7E" d="M21.32899 27.76428c-2.41949-2.36256-5.3038-4.01681-8.34229-4.78459.67698.44757 5.78326 10.76047 8.19963 14.87226.16301-1.32163.22125-2.66232.17364-3.99746L21.32899 27.76428zM44.59931 27.76428c2.41949-2.36256 5.3038-4.01681 8.34229-4.78459-.67698.44757-5.78326 10.76047-8.19963 14.87226-.16301-1.32163-.22125-2.66232-.17364-3.99746L44.59931 27.76428z"/><path fill="#F1AD7E" d="M42.35905,17.13262c2.38692-0.04353,4.46598,1.61207,4.78155,3.97844
				c0.17318,1.29868,0.264,2.4176,0.21035,2.65574c-0.26177,1.162-0.84512,2.2023-1.52194,3.1825
				c-0.233,0.33744-0.36805,0.73256-0.37322,1.14259l-0.00747,0.59191c-0.01901,1.50613-0.11107,3.0135-0.35569,4.49975
				c-0.13991,0.85008-0.20762,1.93049-0.14103,2.72286c0.05841,0.69505-0.13543,1.38121-0.53198,1.95502
				c-1.41427,2.04644-4.52074,6.5415-6.11657,8.85067c-0.61943,0.89631-1.6395,1.43132-2.72903,1.43132h-5.5775
				c-1.11881,0-2.16225-0.56396-2.77519-1.49994l-5.58621-8.53031c-0.47865-0.73092-0.6813-1.59745-0.6416-2.47024
				c0.04019-0.88359-0.0582-2.01968-0.22494-2.82198c-0.14801-0.71217-0.25454-1.43699-0.26372-2.16431
				c-0.00136-0.1074-0.00221-0.1754-0.00221-0.1754c-0.02729-2.16263-0.70997-4.25994-1.82196-6.12604
				c-0.26859-0.45073-0.3912-0.98067-0.29769-1.49696C21.79591,4.01409,31.98886,17.32176,42.35905,17.13262z"/><path fill="#010101" d="M39.3724,39.35038l-2.79506,2.92369c-0.88312,0.06855-2.04914,0.00853-3.60957-0.26579
				c-1.56043,0.27431-2.73504,0.33434-3.61811,0.2572l-2.79506-2.9151h0.39441c0.48871,0.5659,1.91194,1.37184,6.01875,0.64304
				c4.09829,0.7288,5.52151-0.07714,6.01022-0.64304H39.3724z"/><path fill="#FFF" d="M39.3724 39.35038l-4.51839 4.72416H31.073l-4.51839-4.72416h.39441c.48871.5659 1.91194 1.37184 6.01875.64304 4.09829.7288 5.52151-.07714 6.01022-.64304H39.3724zM22.39678 26.57739c0 0 1.88495-1.12091 2.57101-1.0284 1.32093.17812 4.24893 3.22052 4.24893 3.22052S23.85819 29.39196 22.39678 26.57739z"/><path fill="#172540" d="M27.9715 29.57789c-1.81543 0-5.04102-.34473-6.24121-2.65479-.18262-.35254-.05859-.78711.2832-.99023.44922-.26758 1.98438-1.13916 2.86719-1.13916.0332 0 .1543.00781.1875.01221 1.50391.20264 4.16992 2.90381 4.68848 3.44336.19824.20508.26172.50488.16602.77344-.09668.26807-.33594.4585-.61914.4917C29.28107 29.51686 28.74689 29.57789 27.9715 29.57789zM23.50763 26.8235c.97363.94482 2.75 1.18799 3.89941 1.24121-1.03711-.93311-2.0791-1.71045-2.54004-1.77246C24.65509 26.29323 24.0838 26.53102 23.50763 26.8235zM31.36115 26.75319c-.02051 0-.04102-.00098-.06152-.00244-.11426-.00928-2.82422-.25781-5.35938-2.92285-.55275-.58154-1.37207-.88721-2.25-.83105l-1.71582.10449c-.41406.02637-.76953-.28955-.79492-.70313-.02441-.41309.29004-.76904.70313-.79395l1.71582-.10449c1.33887-.08154 2.57031.3916 3.42871 1.29395 2.11914 2.22803 4.37402 2.45996 4.39648 2.46191.41016.03809.7168.40137.68066.81201C32.07013 26.45827 31.74591 26.75319 31.36115 26.75319zM34.5672 26.75319c-.38672 0-.71484-.29688-.74609-.68945-.03418-.41211.27246-.77295.68359-.80811.03516-.00342 2.2832-.24072 4.39551-2.46191.86035-.90234 2.09668-1.37451 3.42969-1.29395l1.71582.10449c.41309.0249.72754.38086.70313.79395-.02539.41406-.37988.73926-.79492.70313l-1.71582-.10449c-.87695-.05029-1.69727.25-2.25098.83105-2.53418 2.66504-5.24414 2.91357-5.3584 2.92285C34.60822 26.75221 34.58771 26.75319 34.5672 26.75319z"/><path fill="#FFF" d="M43.53152,26.57739c0,0-1.88495-1.12091-2.57101-1.0284
				c-1.32093,0.17812-4.24893,3.22052-4.24893,3.22052S42.0701,29.39196,43.53152,26.57739z"/><path fill="#172540" d="M37.95685,29.57789L37.95685,29.57789c-0.77539,0-1.30957-0.06104-1.33203-0.06348
				c-0.2832-0.0332-0.52246-0.22363-0.61914-0.4917c-0.0957-0.26855-0.03223-0.56836,0.16602-0.77344
				c0.51855-0.53955,3.18457-3.24072,4.68848-3.44336c0.0332-0.00439,0.1543-0.01221,0.1875-0.01221
				c0.88281,0,2.41797,0.87207,2.86719,1.13916c0.34082,0.20313,0.46484,0.63721,0.28223,0.99023
				C42.99786,29.23268,39.77228,29.57789,37.95685,29.57789z M41.04767,26.29371c-0.45215,0.06104-1.49121,0.83838-2.52734,1.771
				c1.14941-0.05273,2.92578-0.29639,3.89941-1.24072C41.84259,26.53102,41.26837,26.29371,41.04767,26.29371z"/><path fill="#6C8CAB" d="M50.01548 46.80132l-1.44685 8.04084-7.17018 6.24833-8.38273-.48522.064-.14082c.99874-2.07423 2.62479-3.79 4.63503-4.90394 2.98334-1.63894 5.03194-4.5582 5.58258-7.92565l.30728-1.94622L50.01548 46.80132zM15.99031 46.80132l1.44685 8.04084 7.17018 6.24833 8.38273-.48522-.064-.14082c-.99875-2.07423-2.6248-3.79-4.63503-4.90394-2.98334-1.63894-5.03195-4.5582-5.58258-7.92565l-.30728-1.94622L15.99031 46.80132z"/><path fill="#444A88" d="M38.48249,16.54163c-4.1284,0.27104-8.1197,1.3312-10.96935,3.65378
				c1.36775-4.15007,4.07599-7.72235,7.76041-10.23631"/><path fill="#172540" d="M37.67999,1.83412c-3.23999-1.12-6.84998-1.09998-10.13995,0.12006
					C12.63,4.54414,1.25,17.59413,1.25,33.23414c0,17.23005,13.8921,31.75,31.75,31.75c18.16582,0,31.75-14.75283,31.75-31.75
					C64.75,17.32417,52.98004,4.09413,37.67999,1.83412z M63.25,33.23414c0,5.48999-1.46997,10.63-4.03998,15.07001
					c-0.57001-0.29999-1.16003-0.53998-1.78003-0.72003c-1.48999-0.41998-3-0.50995-4.40997-0.53998
					c-1.17601,0-1.78142,0.00272-2.28998-0.01001L50.75,46.93415c0.04004-0.20001-0.01001-0.40002-0.12-0.56
					c-0.10999-0.16998-0.28998-0.28003-0.48999-0.31l-6.17999-1.07001c-0.62-0.59003-1.20001-1.44-1.47998-2.62
					c-0.02002-0.10004-0.04004-0.20001-0.06006-0.29999l2.41003-3.48004c0.22998-0.01996,0.44-0.15997,0.56-0.35999
					c1.03998-1.77997,2.57001-4.66998,4.04999-7.46997c1.58002-3.02002,3.56-6.77002,3.91998-7.16003
					c0.30005-0.20001,0.42004-0.58997,0.27002-0.92999c-0.14996-0.33002-0.52002-0.51001-0.87-0.41998
					c-1.20001,0.31-2.37,0.73999-3.5,1.29999c0.29999-1.22998,0.52002-2.53998,0.57001-3.87
					c0.16998-3.79999-0.92999-7.85004-3.19-11.70001c-0.67999-1.16998-1.98999-2.25-3.48999-3.23999
					C54.85004,8.91414,63.25,20.11415,63.25,33.23414z M17.04999,48.44416l-0.19-1.03003l2.36005-0.40997l2.56-0.45001
					c0.0159,0.10043,0.2059,1.30045,0.19,1.20001c0.13,0.81,0.33997,1.58997,0.63,2.33997
					c0.97998,2.60004,2.84998,4.76001,5.32996,6.12c1.60004,0.89001,2.92004,2.17004,3.85004,3.71002l-0.62,0.03998L24.87,60.32417
					l-6.73999-5.87l-1.08002-6V48.44416z M27.88,3.42415c3-1.15002,6.41003-1.20001,9.42999-0.13
					c2.08796,0.7369,6.89438,3.5013,8.04004,5.44c2.10999,3.60999,3.13995,7.37,2.97998,10.89002
					c-0.03998,0.87-0.15002,1.71997-0.31,2.54999c-0.04999-0.41998-0.10004-0.84003-0.14001-1.15997
					c-0.34998-2.69-2.64001-4.63-5.42999-4.63h-0.31c-1.04999,0-2.09998-0.14001-3.14001-0.38
					c-0.14996-0.14002-0.34998-0.23004-0.57001-0.21002c-0.07001,0-0.13995,0.01001-0.20996,0.02002
					c-1.23999,0.08002-2.40002,0.22998-3.5,0.45001c-2.13,0.41998-4.01001,1.06995-5.61005,1.95996
					c0.56-1.19,1.24005-2.31,2.05005-3.34998c0.31-0.41998,0.64996-0.83002,1.00995-1.22003
					c1.03003-1.14996,2.21002-2.17999,3.53003-3.07996c0.34003-0.23004,0.42999-0.70001,0.19-1.04004
					c-0.22998-0.33997-0.69-0.42999-1.03998-0.19c-1.58002,1.08002-2.98004,2.34003-4.19,3.75
					c-1.75-0.63-3.42004-1.09998-4.98004-1.09998c-4.20996,0-6.69,3.29999-8.03998,10.71002
					c-0.22003-0.99005-0.37-2.03003-0.41998-3.08002c-0.15002-3.54004,0.88-7.29999,2.98999-10.88001
					C21.391,6.73255,26.28461,4.03338,27.88,3.42415z M45.83002,33.30415c0.39191-2.31391,0.29542-5.46189,0.58002-5.85998
					c0.00997-0.03009,0.37274-0.57342,0.38995-0.60004c0.61005-0.46997,1.24005-0.90997,1.89001-1.28998
					c0.79999-0.47998,1.64001-0.89001,2.48999-1.22003c-1.37087,2.44207-3.92601,7.408-5.47998,10.25
					C45.72003,34.15413,45.76001,33.71412,45.83002,33.30415z M19,26.74415c1.0989,2.83892,0.47214,3.50238,1.03003,6.22998
					c0.08997,0.47003,0.16998,1.04004,0.20001,1.60004c-0.76001-1.39001-1.60004-2.97003-2.41003-4.51001
					c-1.47998-2.81-2.42999-4.59003-3.07001-5.73004C16.94697,25.19386,18.20065,26.21152,19,26.74415z M21.73999,35.67414
					c0.03003-0.59998,0-1.32001-0.07996-2c0.76996,1.29999,1.69995,2.29999,2.75995,2.97998
					c0.13,0.07001,0.27002,0.11005,0.40002,0.11005c0.25,0,0.5-0.12,0.64001-0.34003c0.21997-0.34998,0.12-0.82001-0.22998-1.03998
					c-0.97003-0.62-1.81006-1.58002-2.51001-2.86005c-0.57001-1.06-0.98999-2.21997-1.38-3.35998
					c-0.16204-0.48613-0.17843-0.55143-0.28003-0.66998c-0.54552-3.05597-2.1094-4.62474-1.94-5.5
					c1.53003-8.41998,4.31-9.5,6.56-9.5c1.22003,0,2.57001,0.34998,4.01001,0.84998c-1.25,1.69-2.20996,3.58002-2.89001,5.62
					c-0.09998,0.31,0.01001,0.66003,0.29004,0.85004c0.26802,0.18547,0.62947,0.17265,0.89996-0.04004
					c2.36005-1.91998,5.84003-3.10999,10.10004-3.44995c1.32996,0.33997,2.69,0.56,4.04999,0.56h0.31
					c2.03003,0,3.69,1.39996,3.95001,3.32996c0.17999,1.35004,0.22998,2.24005,0.21997,2.39001
					c-0.25292,1.12256-0.79676,2.00005-1.40997,2.91998c-0.70121,1.02275-0.51131,2.43012-0.51001,2.33002
					c-0.13,0.32531-0.69349,2.19606-1.5,3.66998c-0.69,1.28003-1.53998,2.24005-2.5,2.86005
					c-0.34998,0.21997-0.45001,0.69-0.22998,1.03998c0.19343,0.3041,0.61934,0.45649,1.03998,0.22998
					c1.06-0.67999,1.97998-1.67999,2.75-2.96997c-0.09003,0.79999-0.10999,1.64001-0.06,2.27997
					c0.03998,0.43005-0.06,0.88-0.28003,1.26001c-0.02997,0.07001-0.06995,0.14001-0.12,0.21002l-1.47998,2.14996l-1.46997,2.12006
					L37.69,46.28413c-0.47998,0.70001-1.27002,1.11005-2.12,1.11005H30c-0.87,0-1.67999-0.43005-2.14996-1.16003l-2.75-4.19
					L23.69,39.89418l-1.42999-2.19c-0.09998-0.15002-0.17999-0.32001-0.25-0.49005
					C21.81,36.75416,21.72003,36.23414,21.73999,35.67414z M26.59003,47.05415C27.35004,48.20417,28.62,48.89418,30,48.89418
					h5.57001c1.34003,0,2.59003-0.66003,3.34998-1.76001L41.31,43.67414c0.38,0.96002,0.92004,1.71002,1.48999,2.28998
					L42.56,47.51417c-0.53609,3.31693-2.56047,5.93714-5.20996,7.38995c-1.80005,1-3.28003,2.42004-4.35004,4.16003
					c-1.04999-1.73999-2.53998-3.16003-4.34998-4.16003c-5.32145-2.91811-5.2463-8.37252-5.45001-8.94
					c0.51001-0.51996,1-1.17999,1.35999-2.00995L26.59003,47.05415z M34.22003,59.92414
					c0.94-1.54999,2.26001-2.82001,3.85999-3.71002c2.80637-1.54555,4.73878-4.02235,5.59998-6.94
					c0.33675-1.03106,0.56617-2.82176,0.55005-2.71997l1.92999,0.34003l2.97998,0.51996l-0.17999,1.03003L47.88,54.45417
					l-6.73999,5.87l-6.39001-0.37L34.22003,59.92414z M2.75,33.23414c0-12.72998,7.90002-23.65002,19.06-28.08996
					c-1.32001,0.92999-2.31,1.84998-2.89001,2.82996c-2.25995,3.84003-3.35999,7.89001-3.19995,11.71002
					c0.06,1.26001,0.25,2.48999,0.52997,3.65997c-1-0.45996-2.02997-0.82996-3.08002-1.08997
					c-0.34998-0.09003-0.75995,0.06-0.89996,0.39996C12.12,22.98414,12.20001,23.35414,12.5,23.55415
					c0.42999,0.44,2.40002,4.19,3.98999,7.21002c1.48004,2.79999,3,5.69,4.05005,7.46997c0.12,0.19,0.29999,0.32001,0.50995,0.34998
					l2.47003,3.78003v0.01001c-0.28003,1.17999-0.85999,2.02002-1.47998,2.62l-6.18005,1.07001
					c-0.19995,0.02997-0.37,0.14001-0.47998,0.31c-0.12,0.15997-0.15997,0.35999-0.13,0.56l0.02002,0.09998
					c-0.19733,0,0.77714-0.00611-2.29999,0.01001c-1.40002,0.03998-2.91003,0.12-4.42004,0.54999
					C7.94,47.77412,7.35004,48.00416,6.79004,48.30415C4.22003,43.86415,2.75,38.72413,2.75,33.23414z M33,63.48414
					c-10.90484,0-20.59273-5.97376-25.42999-13.89001c1.6799-0.85852,3.46925-1.00492,5.45001-1.04999
					c1.12728-0.00553,0.95101,0.0127,2.52002-0.02002l1.15997,6.45001c0.03003,0.17004,0.12,0.32001,0.23999,0.42999l7.16998,6.25
					c0.14001,0.12,0.32001,0.19,0.5,0.19c0.01001,0,0.03003,0,0.04004-0.01001l8.31-0.47998H33.06l8.29999,0.47998
					c0.03355,0.03355,0.31337,0.00569,0.53003-0.17999l7.16998-6.25c0.13-0.10999,0.22003-0.25995,0.25-0.42999l1.15002-6.45001
					c1.60801,0.03219,1.49639,0.0149,2.53998,0.02002c1.29999,0.03003,2.69,0.10999,4.02002,0.47998
					c0.47998,0.15002,0.96002,0.33002,1.40997,0.56C53.0025,58.00623,43.57231,63.48414,33,63.48414z"/><path fill="#172540" d="M25.81915 40.31764l.39441-.24976 4.31647 4.52625c.13995.15002.33997.23004.53998.23004h3.78003c.20996 0 .39996-.08002.54999-.23004l4.31586-4.52557.39331.24908c.35059.22363.8125.11768 1.03516-.23193.22168-.34961.11719-.81299-.23242-1.03467l-1.27344-.80713c-.21387-.13672-.47852-.18213-.70996-.07373-.23145.10645-.3877.29688-.42383.54883-.9844 1.20093-3.80963.81499-5.40466.53516-.09003-.01001-.18005-.01001-.27002 0-2.65618.46196-3.34307.20001-3.88.20001l-1.34851-.49945c-.00201-.00177-.0033-.00317-.00531-.00488-.0285-.03638-.05713-.05713-.07617-.08569-.01001-.01001-.02002-.02002-.03003-.02002l-.02087-.02435c-.02332-.03021-.03436-.0495-.03571-.0495v.00098c-.03613-.25195-.19727-.46875-.42773-.5752-.23242-.10596-.50098-.08936-.71582.04785l-1.27344.80713c-.34961.22168-.4541.68506-.23242 1.03467S25.46954 40.54127 25.81915 40.31764zM34.53003 43.32417h-3.14001l-2.22998-2.33002c1.12078.11585 2.83354-.07136 3.80463-.23804 2.5141.43084 3.63638.23817 3.79535.23804L34.53003 43.32417zM29.89532 36.99c.18049.37671.63087.52972 1 .35205.14587-.06989.24664-.18701.31946-.3183.51691.35651 1.12921.54584 1.74792.54584.61975 0 1.23303-.18976 1.75018-.547.07275.13177.17377.24933.32013.31946.36985.17801.81983.02399 1-.35205l.40332-.84082c.54785-1.1416.47754-2.61523-.17384-3.6665-.21873-.35107-.68065-.46143-1.03319-.2417-.35156.21826-.45996.68066-.24219 1.03271.38672.62354.42676 1.53906.09766 2.22705l-.11371.23706c-.27643-.25305-.69824-.276-.98883-.02661-.55078.47314-1.48242.4751-2.03711.00098-.28845-.24915-.71027-.22595-.98688.02759l-.11469-.23901c-.3291-.68799-.28906-1.60352.09766-2.22705.21777-.35205.10938-.81445-.24219-1.03271-.35156-.21973-.81445-.10938-1.0332.2417C28.31825 34.6576 29.82276 36.7053 29.89532 36.99z"/></svg>