<svg xmlns="http://www.w3.org/2000/svg" enable-background="new 0 0 66 66" viewBox="0 0 66 66"><path fill="#3590CE" d="M63.99727,33.25269c0,17.11822-13.87907,30.99728-30.99729,30.99728
				c-17.12365,0-31.00271-13.87906-31.00271-30.99728c0-17.12365,13.87907-31.00271,31.00271-31.00271
				C50.1182,2.24998,63.99727,16.12904,63.99727,33.25269z"/><path fill="#3590CE" d="M63.99841,33.2542c0,8.79999-3.66003,16.73999-9.54999,22.39001
				c-5.57001,5.32996-13.13,8.60999-21.45001,8.60999s-15.87-3.28003-21.44-8.60999c-5.89001-5.64001-9.56-13.59003-9.56-22.39001
				c0-17.13001,13.88-31,31-31S63.99841,16.12419,63.99841,33.2542z"/><path fill="#6C8CAB" d="M54.44842,55.64421c-5.57001,5.32996-13.13,8.60999-21.45001,8.60999s-15.87-3.28003-21.44-8.60999
				c0.19-0.13,0.38-0.27002,0.56-0.42004c5.31-4.25,3.78998-13.08997,3.78998-19.98999h34.16003
				c0,6.88-1.48999,15.73999,3.79999,19.98004C54.0584,55.36418,54.24841,55.51421,54.44842,55.64421z"/><path fill="#6C8CAB" d="M51.14393,19.89303v22.82516l-9.60982,13.22253H24.45319L14.8506,42.71819V19.89303
				c0-10.02167,8.12138-18.14305,18.14305-18.14305S51.14393,9.87136,51.14393,19.89303z"/><path fill="#FFF" d="M34.89498,27.10988c-0.39078-0.7251-0.28277-1.63731,0.07823-2.37769
				c0.361-0.74038,0.94428-1.34495,1.51932-1.93471c1.25539-1.28753,2.53679-2.58409,4.0873-3.49496
				s3.42632-1.40658,5.16903-0.96306c0.73834,0.18791,1.45551,0.55808,1.91621,1.16488
				c0.4607,0.6068,0.61684,1.47562,0.25932,2.14839c-0.31895,0.60016-0.96101,0.94329-1.56668,1.25167
				c-1.47163,0.7493-2.94327,1.4986-4.4149,2.24789c-0.71397,0.36352-1.43736,0.73347-2.03015,1.27245
				c-0.44561,0.40517-0.81193,0.90122-1.3092,1.24101c-0.63583,0.43447-1.29405,0.2586-1.98158,0.3205
				C35.92246,28.04924,35.23973,27.74958,34.89498,27.10988z"/><path fill="#F0523C" d="M47.21805,25.99854c-1.91669,1.50453-4.32806,2.40105-6.95578,2.40105
				c-0.52556,0-1.05105-0.04126-1.5663-0.11334c1.34993-1.51485,3.10171-2.6793,5.10086-3.29757h0.01031
				C45.01286,25.14322,46.15668,25.49361,47.21805,25.99854z"/><path fill="#FFF" d="M31.09955,27.10988c0.39078-0.7251,0.28277-1.63731-0.07823-2.37769
				c-0.361-0.74038-0.94428-1.34495-1.51932-1.93471c-1.25539-1.28753-2.53679-2.58409-4.08729-3.49496
				s-3.42632-1.40658-5.16903-0.96306c-0.73834,0.18791-1.45551,0.55808-1.91621,1.16488
				c-0.4607,0.6068-0.61684,1.47562-0.25931,2.14839c0.31895,0.60016,0.96101,0.94329,1.56668,1.25167
				c1.47163,0.7493,2.94327,1.4986,4.4149,2.24789c0.71397,0.36352,1.43736,0.73347,2.03015,1.27245
				c0.44561,0.40517,0.81193,0.90122,1.3092,1.24101c0.63582,0.43447,1.29405,0.2586,1.98158,0.3205
				C30.07207,28.04924,30.7548,27.74958,31.09955,27.10988z"/><path fill="#F0523C" d="M18.77649,25.99854c1.91669,1.50453,4.32805,2.40105,6.95578,2.40105
				c0.52556,0,1.05105-0.04126,1.5663-0.11334c-1.34993-1.51485-3.10171-2.6793-5.10085-3.29757H22.1874
				C20.98168,25.14322,19.83786,25.49361,18.77649,25.99854z"/><path fill="#444A88" d="M50.63814 15.6331c-.54914-.83094-1.14886-1.62572-1.79189-2.38443-2.93352-3.45373-5.15173-2.57944-8.15754.34685-2.29768 2.23263-4.2991 4.76153-5.93929 7.51442.23122-3.23698.36851-6.44507 1.01154-9.61705.65031-3.23698 1.56795-6.2789 2.54337-8.94509C44.40259 4.40475 49.13524 9.39031 50.63814 15.6331zM31.24506 21.10994c-1.64014-2.75289-3.6416-5.28179-5.93928-7.51442-3.00576-2.92629-5.22397-3.80058-8.1575-.34685-.64307.75147-1.23557 1.53902-1.78471 2.36273 1.5029-6.23555 6.23555-11.21388 12.32658-13.07078.96823 2.67337 1.88583 5.70806 2.54337 8.95228C30.8766 14.66487 31.01389 17.87296 31.24506 21.10994zM40.63629 47.41938c-.32292 0-.64876-.09687-.93154-.29826-3.70105-2.63765-6.47639-2.50399-6.593-2.49637-.07557.00449-.16998.00493-.24601-.00135-.09777-.00359-2.87603-.13948-6.57595 2.49771-.72299.51488-1.72674.34669-2.24184-.37629-.51533-.72299-.34692-1.72674.37607-2.24207 4.29733-3.06238 7.84634-3.11575 8.57337-3.09064.72725-.02736 4.27581.02781 8.57314 3.09064.72299.51533.8914 1.51908.37607 2.24207C41.63309 47.18481 41.13839 47.41938 40.63629 47.41938z"/><path fill="#FFF" d="M45.57843 31.67453c-.32715 0-.65527-.04395-.97559-.13477-.39941-.11133-.63184-.52539-.51953-.92383.11133-.39844.52441-.63672.92383-.51953.68848.19141 1.47461.00977 2.04883-.47754.6084-.51367 1.00684-1.37598 1.04102-2.25098.0166-.41406.40918-.74707.77832-.71973.41309.01563.73633.36426.71973.77832-.0498 1.30078-.63672 2.54883-1.56934 3.33789C47.32452 31.35812 46.45441 31.67453 45.57843 31.67453zM20.41632 31.67453c-.87598 0-1.74609-.31641-2.44824-.91113-.93164-.78809-1.51855-2.03516-1.56934-3.33691-.0166-.41406.30566-.7627.71973-.77832.38867-.02344.7627.30469.77832.71973.03516.875.43359 1.7373 1.04004 2.25098.57617.48828 1.36133.67188 2.04883.47754.40625-.11621.81348.12109.9248.51855.1123.39941-.12012.81348-.51855.9248C21.07062 31.63058 20.74248 31.67453 20.41632 31.67453z"/><path fill="#172540" d="M39.58002,2.18497C39.57001,2.17496,39.57001,2.17496,39.56,2.17496
					c-4.00027-1.52945-8.94331-1.62327-13.16998,0.01996c-0.01001,0-0.03003,0.01001-0.05005,0.01001
					c0,0.00731-0.04722,0.02002-0.04999,0.02002C12.16051,5.20017,1.25,17.95009,1.25,33.25497
					c0,8.71261,3.45729,16.84148,9.71997,22.85999c0.02002,0.02997,0.05005,0.04999,0.07001,0.07001
					C17.26283,62.15568,25.33125,65.00497,33,65.00497c17.2067,0,31.75-13.88555,31.75-31.75
					C64.75,17.91327,53.76975,5.12067,39.58002,2.18497z M63.25,33.25497c0,8.48407-3.4891,16.01008-8.89001,21.38995
					c-2.04807-2.04807-3.50814-3.85532-3.71997-9.96997L51.75,43.15494c0.08997-0.12,0.14001-0.27997,0.14001-0.44V19.89493
					c0-1.45001-0.17004-2.87-0.48004-4.22998v-0.03003c0-0.12-0.02997-0.23999-0.07996-0.33997
					c-0.01001-0.03998-0.02002-0.08002-0.04004-0.12c-0.07001-0.31-0.15997-0.60999-0.26001-0.91003
					c-0.06995-0.21997-0.13995-0.44-0.21997-0.65997c-0.02002-0.09998-0.06-0.19-0.09998-0.28003
					c-1.04805-3.01225-3.31737-5.98329-5.25-7.61999C56.0211,10.48281,63.25,21.09278,63.25,33.25497z M15.59998,31.93497
					c1.59785,2.00997,3.97018,1.77649,6.36005,0.85999c0.90742-0.3344,0.38522-1.77364-0.55005-1.39001
					c-2.19402,0.84927-4.32243,0.97318-5.08997-1.26001c-0.54267-1.62783,0.29255-2.59062-0.72003-2.88
					c0.10181-6.40644-0.2732-8.22149,0.46002-11.34998c0.52002-0.77002,1.08002-1.5,1.65997-2.17999
					c1.13-1.33002,2.15002-1.97998,3.11005-1.97998c1.06,0,2.23999,0.70996,3.94995,2.37994
					c5.29202,5.12809,5.34605,7.73004,6.47003,7.73004c0.10006-0.04477,0.76001-0.04706,0.76001-0.75
					c0-0.30472-0.31624-6.17771-1.04004-9.77002c-0.52997-2.62-1.26996-5.31-2.20996-8.02997L28.75,3.30496
					c-0.03003-0.09003-0.06-0.17004-0.09003-0.26001c2.84207-0.73604,5.84705-0.7311,8.67004,0
					c-0.88628,2.65523-1.62714,4.88382-2.30005,8.29999c-0.56,2.72998-0.75,5.52002-0.92999,8.22003
					c0.03496,0.83885-0.44519,1.99783,0.42004,2.25995c0.41706,0.10442,0.71871-0.06233,0.87-0.32996
					c1.547-2.58476,6.77493-9.73999,9.76996-9.73999c0.97003,0,1.98004,0.64996,3.11005,1.97998
					c0.60999,0.70001,1.15997,1.44,1.65997,2.19c0.29999,1.26996,0.46002,2.59998,0.46002,3.96997v7.38
					c-0.35004,0.09003-0.59003,0.42999-0.54004,0.79999c0.33805,2.92905-1.248,4.86211-5.26996,3.33002
					c-0.92501-0.37942-1.4688,1.05659-0.54004,1.39001c2.36074,0.91792,4.76658,1.14214,6.35004-0.85004
					c0,3.04176,0,7.11319,0,10.53003L49.13,44.20493l-7.98004,10.98999h-16.31l-7.98999-11l-1.25-1.71997
					C15.59998,39.05223,15.59998,34.97908,15.59998,31.93497z M26.75,3.66495c0.01992-0.01992,0.47535-0.09565,0.51001-0.09998
					c0.95001,2.72998,1.70996,5.44995,2.23999,8.07996c0.44,2.19,0.64001,4.37,0.79999,6.64002
					c-1.32001-1.88-2.82001-3.62-4.46997-5.22998c-2.73264-2.65559-5.24196-3.9772-8.13-1.45001
					C19.8831,7.54338,24.02868,4.48018,26.75,3.66495z M48.28998,11.60495c-1.03998-0.91003-2.06-1.34998-3.13-1.34998
					c-3.27022,0-7.77624,5.64859-9.46997,8.02997c0.33233-4.71581,0.91698-8.59953,3.03998-14.71997
					C40.00031,3.56497,45.35844,6.27499,48.28998,11.60495z M11.62,11.87497c2.7819-2.782,6.02419-4.90768,8.90002-6.16003
					c-2.06237,2.05986-4.56936,4.80049-5.36005,7.96002c-0.07996,0.20001-0.13995,0.39996-0.20996,0.60999
					c-0.10004,0.31-0.19,0.62-0.26001,0.92999c-0.02002,0.07001-0.04004,0.15002-0.06,0.22003
					c0,0.01996-0.01001,0.03998-0.01001,0.06c-0.897,3.71956-0.36195,4.55399-0.52002,27.21997
					c0,0.16003,0.04999,0.32001,0.14001,0.44l1.09998,1.51001c-0.12994,4.04999-0.87994,7.72998-3.69995,9.97998
					c-4.81313-4.78848-7.68195-10.90647-8.54004-16.76996c-0.01001-0.01001-0.01001-0.01001,0-0.02002
					C2.90715,36.68193,2.75,34.95522,2.75,33.25497C2.75,24.91495,6.14001,17.35495,11.62,11.87497z M40.54999,62.54495
					c-1.05055,0.35054-4.4288,0.95001-7.54999,0.95001c-3.38223,0-6.95486-0.57193-10.34003-1.81
					c-0.30825,0-5.61796-2.10508-9.91998-6c2.66998-2.22003,3.65997-5.53003,3.97998-9.11005
					c7.39496,9.99151,7.02276,10.12,7.73004,10.12h17.07996c0.24005,0,0.47003-0.12,0.61005-0.31l7.12-9.79999
					c0.32996,3.58002,1.33997,6.88,4,9.10004c-2.22003,2.00995-4.73004,3.69-7.47003,4.97998
					C43.85651,61.5682,40.79337,62.54495,40.54999,62.54495z"/><path fill="#172540" d="M37.98999 28.54495c.09998.26001.33002.44.59998.47998 5.32355.74731 11.0464-2.69715 8.95001-3.70001-.96997-.46997-1.97998-.78998-3.01001-.96997 1.49005-1.04999 3-1.82001 4.49005-1.57001.40997.07001.78998-.21002.85999-.62.06-.40997-.21002-.79999-.62-.87-5.75701-.93128-10.17969 8.51483-14.60004 5.22998-.7864-.59583-1.69584.60712-.89996 1.21002C35.04418 28.67841 36.44061 28.99255 37.98999 28.54495zM45.64001 26.17496c-1.57001.94-3.34003 1.44-5.20001 1.46997 1.01001-.83997 2.17999-1.47998 3.42999-1.88995C44.46997 25.84494 45.06 25.98495 45.64001 26.17496zM27.39996 29.02493c.28003-.03998.51001-.21997.60004-.47998 1.45484.42029 2.87853.19313 4.22998-.81.80195-.60751-.10884-1.80179-.89001-1.21002-4.41985 3.26947-8.86036-6.16187-14.59998-5.22998-.98281.16782-.74041 1.6574.23999 1.48999 1.48999-.25 3 .52002 4.48999 1.57001-1.6669.2913-4.46538 1.18589-3.15997 2.22998C20.97301 28.6755 24.22758 29.47032 27.39996 29.02493zM20.34998 26.17496c.59003-.20001 1.19-.34003 1.77002-.42999 1.25.40997 2.41998 1.06 3.44 1.89996C23.70001 27.61496 21.91998 27.11496 20.34998 26.17496zM38.06 30.18497c-.99227-.09689-1.12924 1.39436-.15002 1.48999 5.34666.55309 7.58569 7.33305 8.08002 12.76996.03003.39001.35999.69.73999.69.03003 0 .04999-.00995.07001-.00995.41003-.03003.72003-.40002.67999-.81C46.94006 38.06775 44.29409 30.7966 38.06 30.18497zM19.19 45.12497c.02997 0 .04999.00995.07001.00995.38 0 .70996-.29999.75-.69.13-1.53998.40997-3.07996.79999-4.56995 2.60722-9.66656 8.15432-7.26227 7.94-9.02002-.19149-1.964-8.99231-.10148-10.23999 13.46002C18.47998 44.72495 18.77997 45.09494 19.19 45.12497zM42.01001 43.89493c-5.92982-4.22551-11.86096-4.39713-18.02002 0-1.06.75-1.31 2.23004-.54999 3.29004.71997 1.00995 2.26001 1.27997 3.27997.54999 4.57283-3.27042 8.33359-3.01173 12.55005 0 .39996.27997.87.42999 1.37.42999.75995 0 1.47998-.37 1.91998-.97998C43.31 46.12497 43.06 44.64493 42.01001 43.89493zM41.33997 46.31497c-.26996.35999-.82996.45996-1.19995.19995-5.00709-3.56602-9.47874-3.42659-14.29004 0-.37.26001-.92999.16003-1.19-.20996-.13-.17999-.19-.41003-.14996-.63.03998-.23004.15997-.42999.34998-.56 5.52569-3.93252 10.74638-3.93818 16.28003 0 .17999.13.31.32996.33997.56C41.52002 45.89493 41.46997 46.12497 41.33997 46.31497z"/><path fill="#172540" d="M30.02002 34.48495H29.88c-.58661-1.35743 1.00279-2.10048.03998-2.78003-1.21317-.82069-2.57649 2.34622-.83997 4.28003.72625.88786 1.56.42825 1.56-.26001 1.25054.31311.59379 1.09998 2.71997 1.09998.76902-.13565 1.09213-.55209 1.38-.83997.52511-.26255.57683-.24841.62-.27002-.06731.60539.74593 1.03896 1.23999.58002 2.20413-2.00365.71759-5.42721-.51996-4.59003-.98903.69805.62743 1.39749.02997 2.78003h-.14001c-.35962-.53002-.92671-.23193-1.19995-.15002-.13.04004-.27002.08002-.41003.15002h-2.71002C30.972 34.21371 30.37098 33.9677 30.02002 34.48495zM38.27997 48.56497c-3.50712-2.19699-7.00077-2.22977-10.56 0-.34998.21997-.45996.67999-.23999 1.02997.22003.34998.67999.46002 1.03003.23999 3.15628-1.97443 6.03989-1.83774 8.96997 0 .13.08002.26001.10999.40002.10999.25 0 .48999-.12.64001-.34998C38.73999 49.24496 38.63 48.78494 38.27997 48.56497z"/></svg>