<svg xmlns="http://www.w3.org/2000/svg" enable-background="new 0 0 66 66" viewBox="0 0 66 66"><path fill="#3590CE" d="M63.99785,33.24943c0,17.11822-13.87907,30.99729-30.99728,30.99729
				c-17.12365,0-31.00272-13.87907-31.00272-30.99729c0-17.12365,13.87907-31.00271,31.00272-31.00271
				C50.11879,2.24672,63.99785,16.12578,63.99785,33.24943z"/><path fill="#575E85" d="M42.1781,59.76586c7.99127-7.93701,13.57587-24.84485,13.57587-37.61414
				c0-17.25806-10.19586-20.40503-22.75616-20.40503c-12.57172,0-22.75604,3.14697-22.75604,20.40503
				c0,12.76929,5.57831,29.67712,13.57092,37.61414H42.1781z"/><path fill="#F1AD7E" d="M45.96778,51.30749c-2.21039-1.97998-2.36652-5.349-2.28143-8.66687H22.30127
				c0.08789,3.31506-0.06348,6.68005-2.2735,8.66687c-0.07996,0.07007-0.14996,0.14001-0.22998,0.20996
				c-2.65997,2.14014-6.15997,2.37012-9.58002,2.76001c5.67004,6.13013,13.78003,9.96997,22.78003,9.96997
				s17.10999-3.83984,22.77997-9.96997c-3.41998-0.38989-6.91998-0.62988-9.58997-2.77002
				C46.10779,51.4475,46.04779,51.36755,45.96778,51.30749z"/><path fill="#F0523C" d="M27.89783,53.64758l5.09998,10.59985c-9,0-17.10999-3.83984-22.78003-9.96997
				c3.42004-0.38989,6.92004-0.61987,9.58002-2.76001c0.08002-0.06995,0.15002-0.13989,0.22998-0.20996
				C21.9278,52.38757,24.6778,53.21752,27.89783,53.64758z"/><path fill="#F0523C" d="M55.77777,54.27746c-5.66998,6.13013-13.77997,9.96997-22.77997,9.96997l5.09998-10.59985
				c3.22003-0.43005,5.97003-1.26001,7.87-2.34009c0.08002,0.06006,0.14001,0.14001,0.22003,0.19995
				C48.85779,53.64758,52.35779,53.88757,55.77777,54.27746z"/><path fill="#444A88" d="M46.53604,36.07939l-13.62215,6.91833l-13.49822-6.25756c0,0-4.89497-13.79725-3.0034-17.95659
				c1.70346-3.73089,8.69495-9.7818,14.04568-11.39124c0.87788-0.27166,1.70346-0.41799,2.45594-0.41799
				c5.40297,0,14.52637,7.47218,16.50156,11.80923C51.75311,23.93905,46.53604,36.07939,46.53604,36.07939z"/><path fill="#F1AD7E" d="M46.45001,27.39194c0.70908,1.63808,0.94234,3.44308,0.66515,5.20639
				c-0.66661,4.24056-2.08217,9.23316-3.69082,12.10435c-1.16402,2.07759-6.80315,6.66771-6.80315,6.66771
				c-0.99125,0.97152-2.32389,1.51568-3.71185,1.51568h0c-1.38892,0-2.72239-0.54491-3.71383-1.51762
				c0,0-5.63157-4.58958-6.79409-6.66577c-1.60785-2.87153-3.02371-7.86356-3.69059-12.10408
				c-0.27733-1.76349-0.04411-3.56872,0.66505-5.20698l2.30689-5.32926c0.78803-1.82046,2.50935-3.06351,4.48527-3.23903
				l2.33604-0.20751c2.93342-0.26058,5.88416-0.26058,8.81757,0l2.33604,0.20751c1.97593,0.17552,3.69724,1.41857,4.48527,3.23903
				L46.45001,27.39194z"/><path fill="#444A88" d="M37.17198,13.18036c1.40158,2.04211,1.55004,4.79968,0.39299,7.2996
				c-0.54224,1.17157-1.34913,2.2781-1.83555,3.46067c-0.48642,1.18257-0.60484,2.53242,0.19057,3.39805
				c-2.0066-0.3679-2.95448-2.22073-3.12814-4.01771c-0.17366-1.79698,0.19353-3.70436-0.22297-5.43856"/><path fill="#444A88" d="M38.3387,15.85025c1.4206,1.1451,2.20718,3.03688,2.34283,4.92486
				c0.13565,1.88799-0.32236,3.77396-1.01851,5.51025c2.21741-0.87902,3.9774-2.95529,4.57463-5.39674
				s0.0159-5.18341-1.51103-7.12701"/><path fill="#FFF" d="M28.96832,34.63551c0,0-1.40724,1.27401-3.13704,1.27401c-1.73451,0-3.13707-1.27401-3.13707-1.27401
				s1.40256-1.27398,3.13707-1.27398C27.56108,33.36153,28.96832,34.63551,28.96832,34.63551z"/><path fill="#172540" d="M25.83087,36.6593c-2.00098,0-3.5752-1.40869-3.64063-1.46875
				c-0.15723-0.14209-0.24609-0.34375-0.24609-0.55518s0.08887-0.41309,0.24609-0.55518
				c0.06543-0.06006,1.63965-1.46875,3.64063-1.46875c1.99609,0,3.5752,1.4082,3.64063,1.46777
				c0.15723,0.14209,0.24707,0.34424,0.24707,0.55615s-0.08984,0.41406-0.24707,0.55615
				C29.40607,35.2511,27.82697,36.6593,25.83087,36.6593z M24.01154,34.63586c0.47852,0.26416,1.12402,0.52344,1.81934,0.52344
				c0.69141,0,1.33789-0.25977,1.81836-0.52441c-0.47949-0.26465-1.125-0.52344-1.81836-0.52344
				S24.49103,34.37122,24.01154,34.63586z"/><path fill="#172540" d="M30.89044,34.06262c-0.12695,0-0.25586-0.03223-0.37402-0.10059
				c-1.60156-0.92383-4.59277-2.36719-5.87891-2.29736c-0.31152,0.01709-1.25586,0.7124-1.97852,1.45898
				c-0.28809,0.29736-0.7627,0.30566-1.06055,0.01758s-0.30566-0.7627-0.01758-1.06055
				c0.41895-0.43359,1.87305-1.85352,2.97559-1.91406c2.12012-0.10059,6.24707,2.229,6.70996,2.49658
				c0.3584,0.20703,0.48145,0.66553,0.27441,1.02441C31.40216,33.92834,31.15021,34.06262,30.89044,34.06262z"/><path fill="#FFF" d="M36.85757,34.63551c0,0,1.40724,1.27401,3.13704,1.27401c1.73451,0,3.13707-1.27401,3.13707-1.27401
				s-1.40256-1.27398-3.13707-1.27398C38.26481,33.36153,36.85757,34.63551,36.85757,34.63551z"/><path fill="#172540" d="M39.99493,36.6593c-1.99609,0-3.5752-1.4082-3.64063-1.46777
				c-0.15723-0.14209-0.24707-0.34424-0.24707-0.55615s0.08984-0.41406,0.24707-0.55615
				c0.06543-0.05957,1.64453-1.46777,3.64063-1.46777c2.00098,0,3.5752,1.40869,3.64063,1.46875
				c0.15723,0.14209,0.24609,0.34375,0.24609,0.55518s-0.08887,0.41309-0.24609,0.55518
				C43.57013,35.25061,41.99591,36.6593,39.99493,36.6593z M38.17657,34.63586c0.47949,0.26465,1.125,0.52344,1.81836,0.52344
				s1.33984-0.25977,1.81934-0.52441c-0.47852-0.26416-1.12402-0.52344-1.81934-0.52344
				C39.30353,34.11145,38.65704,34.37122,38.17657,34.63586z"/><path fill="#172540" d="M34.93536 34.06262c-.25977 0-.51172-.13428-.65039-.375-.20703-.35889-.08398-.81738.27441-1.02441.46289-.26709 4.63281-2.58789 6.70898-2.49658 1.10352.06055 2.55762 1.48047 2.97656 1.91406.28809.29785.28027.77246-.01758 1.06055-.29688.28809-.77148.27979-1.06055-.01758-.72266-.74658-1.66699-1.44189-1.97949-1.45898-1.24609-.06543-4.27441 1.37207-5.87793 2.29736C35.19122 34.0304 35.06232 34.06262 34.93536 34.06262zM36.7049 38.68225c-.23633-.33594-.69824-.41602-1.03809-.18164-.33887.23438-.42285.70068-.19141 1.04102.10406.15308.49048.80853.19257 1.5105-.18677-.26892-.52716-.40106-.85077-.29077-.3718.16095-.99106.21714-1.49609.83545-.07129.08643-.16699.14844-.27441.17725h-.26758c-.10742-.02881-.20313-.09033-.27441-.17822-.51032-.61967-1.11473-.66942-1.49609-.83447-.32147-.11041-.66315.02216-.85071.29156-.29834-.70154.08765-1.35693.1925-1.5108.23438-.33838.15332-.80273-.18359-1.04053-.34082-.23975-.80762-.15723-1.0459.18066-.54883.77783-1.15527 2.63428.47654 4.09033.30691.2743.78095.25049 1.05861-.06006.10974-.12317.15826-.27374.17334-.42639.20024.08196.37423.08927.51514.26038.30957.37939.74609.63379 1.22949.7168.07907.01379.55964.0206.67773 0 .48242-.08252.91895-.33691 1.23047-.71631.14287-.17575.32529-.1837.51416-.26105.01501.15271.06354.30334.17334.42657.27764.31052.75168.33439 1.05859.06006C37.86017 41.31653 37.25372 39.46008 36.7049 38.68225zM32.9129 47.44055c-.41504 0-.8252-.20801-1.25977-.42822-.1748-.08887-.46875-.2373-.57031-.25488-.42285-.0332-1.81934.18604-2.67285.3501-.40918.0791-.80078-.18799-.87793-.59473-.07813-.40674.18848-.7998.59473-.87793.37598-.07227 2.2832-.43848 3.0752-.37256.36719.02588.7373.21338 1.12988.41211.18457.09375.49512.25098.60352.26709.06348-.01611.37402-.17334.55859-.26709.39258-.19873.7627-.38623 1.13184-.41211.79102-.06006 2.69727.30029 3.07324.37256.40625.07813.67285.47119.59473.87793s-.46973.67383-.87793.59473c-.79395-.15283-2.23926-.37646-2.68262-.34912-.0918.0166-.38576.16504-.56055.25391C33.7381 47.23254 33.32794 47.44055 32.9129 47.44055z"/><path fill="#F0523C" d="M32.9869,10.0354c-10.15602,0-18.40271,2.5493-18.40271,16.50358
				c0,9.65974,12.41418,22.81339,9.75449,29.0838h0c-2.62031,0-5.01063-1.44393-6.28-3.73625
				c-4.79568-8.66033-7.83-20.32241-7.83-29.73406c0-17.25701,10.19735-20.40503,22.75823-20.40503h0.0109
				c12.56088,0,22.75822,3.14802,22.75822,20.40503c0,9.41165-3.03432,21.07373-7.82999,29.73406
				c-1.26938,2.29232-3.65969,3.73625-6.28,3.73625h-0.00001c-2.65969-6.27041,9.75449-19.42406,9.75449-29.0838
				c0-13.95428-8.24669-16.50358-18.40271-16.50358H32.9869z"/><path fill="#172540" d="M53.32996,8.88995C49.02997,2.17999,40.94995,1,32.98999,1c-7.96002,0-16.04004,1.17999-20.34003,7.89996
				C5.67999,14.72998,1.25,23.47998,1.25,33.25C1.25,50.43994,15.33997,65,33,65c0.00995,0,0.00995,0,0.01996,0
				C50.96997,65,64.75,50.29999,64.75,33.25C64.75,23.46997,60.31,14.70996,53.32996,8.88995z M13.81995,9.87994
				C17.71997,3.62,25.15997,2.5,33,2.5c7.81995,0,15.23999,1.10999,19.13995,7.34998c1.81,2.87,2.87,6.83997,2.87,12.29999
				c0,13.34003-6.12,27.67999-8.51996,30.48999c-1.11005,1.27002-2.65002,2.07001-4.32001,2.21002
				c-0.10004-0.37-0.15002-0.77002-0.15002-1.20001c0-0.5,0.06-1.03998,0.17999-1.60999
				c0.55005-2.78998,2.40002-6.31,4.32001-9.97003c2.77002-5.26996,5.63-10.70996,5.63-15.52997
				c0-9.70001-3.94-14.03998-9.26001-15.91998c-1.33997-0.48004-2.77997-0.79004-4.26001-0.99005
				C36.78998,9.37,34.88995,9.28998,32.98999,9.28998c-1.95001,0-3.92004,0.08997-5.79999,0.35999
				c-1.52002,0.22003-2.99005,0.54999-4.36005,1.07001c-5.17999,1.91998-9,6.28003-9,15.82001
				c0,4.82001,2.87,10.26001,5.63,15.52997c1.92999,3.66003,3.77002,7.17004,4.32001,9.96002
				c0.13,0.57001,0.19,1.10999,0.17999,1.60999c0,0.42999-0.03998,0.83002-0.14996,1.21002
				c-1.67004-0.14001-3.21002-0.94-4.31-2.20001c-2.72003-3.08002-8.52002-17.71002-8.52002-30.5
				C10.97998,16.70996,12.02997,12.75,13.81995,9.87994z M50.64996,26.53998c0,3.73999-1.95001,8.06-4.16998,12.37
				c0.21997-0.75,0.42999-1.53003,0.60999-2.33002c0.06-0.06,0.10999-0.13,0.14001-0.20001
				c0.14996-0.34998,2.66998-6.29999,3.35999-11.69C50.62994,25.27997,50.64996,25.89996,50.64996,26.53998z M48.72998,19.08997
				C49.89996,21.65997,49,26.22998,47.90997,29.94995c-0.10999-0.97998-0.37-1.94-0.77002-2.85999l-2.31-5.33002
				c-0.01001-0.02997-0.01996-0.04999-0.03998-0.07996c0.07001-0.20001,0.13-0.40002,0.17999-0.61005
				c0.65002-2.66998,0.02002-5.64996-1.65002-7.76996c-0.25995-0.33002-0.72998-0.38-1.06-0.13
				c-0.31995,0.26001-0.38,0.72998-0.12,1.06c1.42004,1.82001,1.91003,4.33002,1.37,6.47998
				c-0.08997,0.35999-0.20996,0.72003-0.35999,1.06C42.67999,22.90997,41.94,23.90997,41,24.64996
				c0.37-1.39001,0.51996-2.70001,0.42999-3.92999c-0.11005-1.10999-0.27002-1.77002-0.51001-2.40997
				c-0.44-1.19-1.12-2.21002-2.01001-2.95001c-0.20001-0.92999-0.57001-1.81-1.12-2.60004
				C37.56,12.41998,37.08997,12.32996,36.75,12.56c-0.34003,0.23999-0.43005,0.69995-0.20001,1.04999
				c0.83997,1.21997,1.17999,2.72998,0.98999,4.26996c-0.09003,0.76001-0.29999,1.5-0.66003,2.28003
				c-0.56,1.21997-1.32996,2.23999-1.83997,3.5c-0.32001,0.76001-0.47003,1.5-0.45001,2.15997
				c-0.81-0.83997-1.01001-2.08997-1.04999-2.56995c-0.13-1.26001,0.04999-2.63-0.03998-4.07001
				c-0.02002-0.49005-0.09003-0.98004-0.20001-1.47003c0-0.01001-0.01001-0.02997-0.01001-0.03998
				c-0.12-0.39001-0.51001-0.60999-0.90002-0.52002c-0.26996,0.07001-0.46997,0.28003-0.53998,0.53003
				c-1.14001,0.02997-2.28003,0.08997-3.40997,0.19c-1.05005,0.28998-5.56006-0.47003-7.45001,3.88995L18.69,27.08997
				c-0.33002,0.75-0.56006,1.53003-0.69,2.32001c-1.03003-4.06-1.76001-8.44-0.91003-10.32001
				c0.91003-1.97998,3.51001-4.75,6.52002-7.04999c2.78998-0.98999,6.03998-1.25,9.39001-1.25
				c3.23999,0,6.39996,0.23999,9.12,1.15997C45.17999,14.27997,47.81995,17.12,48.72998,19.08997z M39.13995,18.02997
				l-0.09998-0.01001c0-0.04999,0.01001-0.09998,0.01001-0.15997C39.08997,17.91998,39.12,17.96997,39.13995,18.02997z
				 M15.41998,24.19995c0.67999,5.31,2.92999,11.79004,3.28998,12.79004c0.04004,0.12,0.12,0.22998,0.21002,0.31
				c0.07001,0.32001,0.14996,0.63,0.23999,0.94c-2.07001-4.09003-3.83002-8.16003-3.83002-11.70001
				C15.32996,25.71997,15.35999,24.93994,15.41998,24.19995z M20.20996,36.27997c-0.31-1.25-0.56-2.53998-0.76001-3.79999
				c-0.25-1.62-0.03998-3.28003,0.61005-4.79004l2.31-5.32996c1.46997-3.40002,5.17999-2.73999,6.19995-3
				c1.14001-0.10004,2.29004-0.16003,3.43005-0.17999c0.08997,1.44-0.10004,2.76996,0.04999,4.20996
				c0.19,1.97003,1.26996,4.23004,3.72998,4.69c0.04999,0,0.09003,0.01001,0.14001,0.01001
				c0.27002,0,0.52002-0.15002,0.65997-0.39001c0.15002-0.27997,0.11005-0.63-0.10999-0.87
				c-0.71997-0.77997-0.21997-2.19-0.04999-2.59998c0.46997-1.13,1.29999-2.29999,1.83002-3.42999
				c0.19995-0.42999,0.35999-0.87,0.47998-1.31c1.06,0.09998,0.91998,0.07996,1.01001,0.09998
				c0.08997,0.40002,0.15997,0.81,0.19,1.23999c0.12,1.56-0.21002,3.29999-0.96002,5.17999
				c-0.10999,0.27002-0.04999,0.59003,0.15997,0.80005c0.15002,0.14996,0.34003,0.22998,0.53003,0.22998
				c0.09998,0,0.19-0.02002,0.28003-0.06c1.64996-0.66003,3.06995-1.90002,4.00995-3.46002l1.81,4.16998
				c0.66003,1.51001,0.87,3.17004,0.61005,4.79004c-0.16003,1.04999-0.37,2.10999-0.60004,3.14996
				c-0.14996,0.65002-0.31,1.30005-0.47998,1.93005c-0.72003,2.70996-1.62,5.16998-2.52002,6.77997
				C41.87,45.93994,37.69,49.53998,36.09998,50.82996c-0.85999,0.84003-1.98999,1.31-3.19,1.31s-2.33002-0.46997-3.23999-1.34998
				c-1.54004-1.25-5.72003-4.85004-6.60999-6.45001c-0.84003-1.48999-1.67004-3.71002-2.37-6.17999
				C20.51996,37.54999,20.35999,36.91998,20.20996,36.27997z M10.53998,53.47998C5.69,48.12,2.75,41.01996,2.75,33.25
				c0-7.94,3.06995-15.17004,8.09998-20.57001c-0.88,2.57001-1.37,5.69-1.37,9.46997c0,9.53998,3.08002,21.28998,7.84998,29.97003
				c-1.89996,0.82996-4.09998,1.06995-6.39996,1.31995L10.53998,53.47998z M31.75995,63.46997
				c-6.75995-0.16998-14.34998-3.14001-19.90997-8.62c2.15997-0.25,4.34998-0.56,6.32001-1.47003
				c1.48999,1.87006,3.75,2.99005,6.16998,2.99005c0.29999,0,0.57001-0.18005,0.69-0.45001
				c0.25-0.59003,0.38-1.23004,0.41003-1.91998c0.62994,0.12994,1.27997,0.23999,1.95996,0.33997l4.39001,9.13H31.75995z
				 M33,62.50995l-4.43005-9.19C28.45996,53.08997,28.25,52.93994,28,52.89996c-0.92004-0.13-1.80005-0.27997-2.63-0.46997
				c-0.20001-1.48004-0.75-3.10004-1.49005-4.82001c2.04004,2.04999,4.67004,4.19,4.79004,4.28998
				c1.14001,1.12,2.64996,1.73999,4.23999,1.73999s3.09998-0.62,4.17999-1.69c0.16998-0.13995,3.07001-2.5,5.14001-4.63
				c-0.79999,1.82001-1.39001,3.54004-1.60999,5.11005c-0.83002,0.19-1.71002,0.34998-2.62,0.46997
				c-0.25,0.03998-0.47003,0.19-0.58002,0.41998L33,62.50995z M34.22998,63.46997h-0.03003l4.40002-9.13
				c0.66998-0.09998,1.33002-0.21002,1.95001-0.33997c0.01996,0.67999,0.15997,1.32996,0.40997,1.91998
				c0.10999,0.26996,0.39001,0.45001,0.69,0.45001c2.41998,0,4.67999-1.12,6.16998-3
				c1.97003,0.90997,4.16003,1.22998,6.33002,1.47998C49.41998,59.57996,42.44,63.06995,34.22998,63.46997z M55.45996,53.48999
				l-0.35999-0.04004c-2.29999-0.25-4.5-0.5-6.44-1.34998c4.78003-8.66998,7.84998-20.41003,7.84998-29.95001
				c0-3.78998-0.48999-6.90997-1.37-9.47998C60.17999,18.06995,63.25,25.31,63.25,33.25
				C63.25,41.02997,60.29999,48.12,55.45996,53.48999z"/></svg>