<svg xmlns="http://www.w3.org/2000/svg" enable-background="new 0 0 66 66" viewBox="0 0 66 66"><circle cx="32.998" cy="33.245" r="31" fill="#3590CE"/><path fill="#575E85" d="M55.99241,54.03909c-5.66998,6.27002-13.87,10.21002-22.98999,10.21002s-17.32001-3.94-23-10.21002
				c5.81-6.01996,13.96997-9.75995,23-9.75995C42.03239,44.27914,50.18242,48.01913,55.99241,54.03909z"/><path fill="#F1AD7E" d="M48.80229 35.76448c0 0 1.61039 2.73893 2.47249 2.58809 1.91687-.33541 2.0103-5.36199 2.69055-7.11071.53044-1.3636 1.86472-4.66532.83652-5.77317-.70982-.7648-3.45293-.61755-4.13969.10569C48.91331 27.4161 48.80229 35.76448 48.80229 35.76448zM17.19318 35.76448c0 0-1.61039 2.73893-2.47249 2.58809-1.91687-.33541-2.0103-5.36199-2.69055-7.11071-.53044-1.3636-1.86472-4.66532-.83652-5.77317.70982-.7648 3.45293-.61755 4.13969.10569C17.08215 27.4161 17.19318 35.76448 17.19318 35.76448z"/><path fill="#F1AD7E" d="M50.35605,19.70622c0,0,0.2367,20.37557-1.71347,26.79968
				c-1.18357,3.89884-6.31096,10.88032-9.75642,13.05529c-1.26854,0.80078-4.3867,1.75184-5.88432,1.66491
				c-1.49912-0.08702-4.63934-0.83447-5.89046-1.66491c-3.39477-2.25329-8.55993-9.1604-9.75642-13.05529
				c-1.97147-6.41761-1.71347-26.79968-1.71347-26.79968H50.35605z"/><path fill="#575E85" d="M52.91008,20.88918v2.35373c0,1.20128-0.36796,2.38425-1.05318,3.39036
				c-0.71693,1.04883-1.08493,2.28059-1.05318,3.53063l0.06978,2.89644c0.05708,2.27446-0.7677,4.48795-2.30943,6.20752
				l-1.96679,2.20129c-0.83113,0.92687-2.07468,1.40858-3.34359,1.28662l-5.75451-0.54267
				c-0.38701-0.03659-0.76131-0.12807-1.12296-0.27441c0,0-1.57395-1.35373-3.38165-1.35373
				c-2.03992,0-3.3753,1.35373-3.3753,1.35373c-0.36164,0.14634-0.7423,0.23782-1.12931,0.27441l-5.75451,0.54267
				c-1.2626,0.12196-2.5061-0.35975-3.33724-1.28662l-1.97314-2.20129c-1.54176-1.71957-2.36654-3.93306-2.30942-6.20752
				l0.06978-2.89644c0.03172-1.25003-0.33624-2.48179-1.04687-3.53063c-0.69153-1.00611-1.05318-2.18908-1.05318-3.39036v-2.35373
				c0-10.56744,8.91408-19.14089,19.90919-19.14089C43.99599,1.74829,52.91008,10.32175,52.91008,20.88918z"/><path fill="#6C8CAB" d="M41.31264 3.50533c4.11248 7.67945 4.70671 17.06201 3.38307 27.37296 0 0-5.66151-.22284-7.75072 1.44854-.86199.68959-3.19564 3.15836-3.69096 2.7149V1.75014C36.03051 1.79467 38.7228 2.34328 41.31264 3.50533zM25.19541 3.50533c-4.11248 7.67945-4.70671 17.06201-3.38307 27.37296 0 0 5.66151-.22284 7.75073 1.44854.86199.68959.57821 2.98719 3.69096 2.7149V1.75014C30.47754 1.79467 27.78525 2.34328 25.19541 3.50533z"/><path fill="#F1AD7E" d="M35.61972 34.62762c-.30596.9134 1.5167 2.5732 2.35303 3.05118 1.25157.71531 4.43597.55544 5.76622 0 1.41145-.58934 3.60333-3.64453 3.30976-5.14564-.13803-.7058-1.31731-1.69082-2.35303-1.65488C37.68336 31.12159 36.39948 32.29976 35.61972 34.62762zM30.37574 34.62762c.30596.9134-1.51671 2.5732-2.35303 3.05118-1.25157.71531-4.43597.55544-5.76622 0-1.41145-.58934-3.60333-3.64453-3.30976-5.14564.13803-.7058 1.31731-1.69082 2.35303-1.65488C28.3121 31.12159 29.59599 32.29976 30.37574 34.62762z"/><path fill="#D6EBF7" d="M27.70935,28.5703l3.74658-11.3785h3.03735l3.79283,11.3785h-2.42834l-0.63985-2.16623h-4.45581
				l-0.66298,2.16623H27.70935z M31.21695,24.87769h3.56156l-1.74994-5.98219L31.21695,24.87769z"/><path fill="#231F20" d="M52.91185,20.88976v2.35169c0,1.19872-0.36604,2.38828-1.05233,3.39487
				c-0.72287,1.04312-1.08892,2.27847-1.05228,3.53209l0.06406,2.89154c0.0549,2.27853-0.76867,4.48378-2.30595,6.20409
				l-1.96739,2.20525c-0.83267,0.92421-2.07713,1.40922-3.33991,1.29026l-5.75572-0.54906
				c-0.28366-0.02742-0.55817-0.08232-0.82352-0.1647l0.30193-0.13723c2.15041,0.38431,4.41972,0,6.31389-1.07976
				c1.89417-1.07981,3.38571-2.84586,4.13606-4.89557c0.68629-1.86669,0.75946-3.89814,1.06144-5.87463
				c0.39347-2.61704,1.19872-5.16091,1.51902-7.77795c0.69539-5.83805-1.18045-11.93233-5.05111-16.36116
				c0,0-0.00916-0.11896-0.01832-0.33857C49.78238,9.06729,52.91185,14.63083,52.91185,20.88976z" opacity=".1"/><path fill="#172540" d="M64.75,33.25c0-14.85004-10.25-27.35004-24.04004-30.80005C38.33002,1.50995,35.71997,1,32.98999,1
				s-5.34003,0.50995-7.71997,1.44995C11.48999,5.90997,1.25,18.39996,1.25,33.25C1.25,50.20646,14.909,65,33,65
				C50.34541,65,64.75,50.51441,64.75,33.25z M25.66998,3.89996C28.02002,3.31,30.46997,3,33,3
				c2.52002,0,4.95996,0.31,7.29999,0.88995c0.15997,0.06,0.32001,0.13,0.47998,0.20001
				c2.52002,4.17999,3.46002,9.48999,3.65002,14.87c0.15002,3.66003-0.09998,7.60999-0.44,11.20001
				c-5.34003,0.25-7.38,1.10999-8.42999,2.83002c-0.12,0.19-0.84003,0.97998-1.06,1.09998
				c-0.65002,0.27002-2.35999,0.27002-2.98999,0.01001c-0.25-0.13-0.96002-0.95001-1.07001-1.10999
				c-1.04999-1.71002-3.09003-2.58002-8.44-2.83002c-0.33002-3.52002-0.58002-7.64001-0.44-11.20001
				c0.20001-5.38,1.14996-10.67999,3.64996-14.87C25.35999,4.01996,25.52002,3.95996,25.66998,3.89996z M36.83002,33.77997
				c0.76996-1.21002,2.45996-1.95001,7.84998-2.15002H44.75c0.70996,0,1.51001,0.75,1.56,1.05005
				c0.20001,1.01996-1.64001,3.79999-2.85999,4.31c-0.60004,0.25-1.74005,0.41998-2.83002,0.41998
				c-1.01001,0-1.85999-0.14001-2.28003-0.38C37.48999,36.53998,36.31,35.25995,36.33002,34.87
				c0.08997-0.27002,0.31-0.88,0.50995-1.08002L36.83002,33.77997z M29.65997,34.84998
				c0.03003,0.40997-1.14996,1.69-2.01001,2.17999c-0.41998,0.23999-1.25995,0.38-2.26996,0.38
				c-1.09003,0-2.23004-0.16998-2.83002-0.41998c-1.21997-0.51001-3.07001-3.29004-2.87-4.31
				c0.06-0.30005,0.84998-1.05005,1.59003-1.05005h0.04999c5.39996,0.19,7.07996,0.94,7.84998,2.15002l-0.01001,0.01001
				C29.22998,33.88995,29.34998,33.92999,29.65997,34.84998z M22.88,5.26996c-1.89001,4.08002-2.65002,8.87-2.82001,13.69
				c-0.14001,3.57001,0.10999,7.73999,0.44,11.28003c-1.12,0.32001-2.13,1.31-2.29004,2.14996
				C17.82001,34.37,20.37,37.70996,21.96997,38.37c0.79004,0.32996,2.10004,0.53998,3.41003,0.53998
				c0.90997,0,2.17999-0.09998,3.01001-0.58002c0.40997-0.22998,2.14996-1.48999,2.63995-2.81
				c0.51001,0.17999,1.23004,0.27002,1.97003,0.27002c0.72998,0,1.46997-0.09003,1.96997-0.28003
				c0.48004,1.32001,2.23004,2.59003,2.63,2.82001C38.44,38.81,39.70001,38.90997,40.62,38.90997
				c1.31,0,2.62-0.21002,3.40997-0.53998c1.59003-0.66003,4.14001-4,3.75-5.98004c-0.09998-0.51001-0.5-1.07996-1.07001-1.51001
				c-0.35999-0.26996-0.76996-0.5-1.21997-0.62994c0.33002-3.53003,0.58002-7.72003,0.44-11.29004
				c-0.16998-4.82001-0.91998-9.60999-2.83002-13.69c5.42999,3.25,9.06,9.04004,9.06,15.62v2.35004
				c0,1.65997-1.01996,3.39996-1.07996,3.01001c-1.5,2.10999-0.89001,6.06995-0.96002,6.82996
				c0.07001,2.07001-0.73999,4.17004-2.10999,5.69l-1.97003,2.20001c-0.66998,0.75-1.66998,1.14001-2.71997,1.03998l-5.75-0.53998
				c-0.28003-0.03003-0.54999-0.09003-0.81-0.19c-0.42004-0.33002-1.97003-1.44-3.77002-1.44
				c-1.96002,0-3.34998,1.08002-3.77002,1.45001c-0.26001,0.08997-0.52997,0.14996-0.79999,0.17999l-5.76001,0.53998
				c-1.01996,0.10004-2.02997-0.28998-2.70001-1.03998c-1.10999-1.37-2.96997-2.81-3.67999-5.15002
				c-0.29999-0.87-0.44-1.79999-0.40997-2.73999L15.94,30.17999c0-0.82001-0.10999-1.58002-0.35999-2.30005
				c-0.52002-1.92999-1.25-1.64996-1.64001-3.60999c-0.07001-0.33997-0.10004-0.67999-0.10004-1.02997v-2.35004
				C13.83997,14.31,17.45001,8.52997,22.88,5.26996z M52.47998,27.06C52.77002,26.63995,53,26.18994,53.19,25.71997
				c0.64001,0.03003,0.98999,0.17999,1.06,0.26001c0.76001,0.81-0.95001,4.88-0.97998,4.98999
				c-0.24005,0.59998-0.39001,1.45001-0.57001,2.44c-0.27002,1.46997-0.71002,3.91998-1.48004,4.19
				c-0.10999-0.06-0.26996-0.19-0.44-0.38c0.59003-1.31,0.88-2.72998,0.84003-4.17999
				C51.70996,30.98999,51.06,29.09998,52.47998,27.06z M47.07001,48.37c-1.91003,3.84998-5.88,8.83997-8.58002,10.56
				c-1.08002,0.67999-3.83002,1.54999-5.28998,1.54999h-0.15002c-1.39001-0.08002-4.40997-0.81-5.52002-1.54004
				c-2.72998-1.81-6.69-6.79999-8.58997-10.57996c-1.23036-2.3625-1.57315-4.87235-1.90002-8.40002l1.79999,2.01001
				C19.83002,43.06995,21.32001,43.64996,22.81,43.5l5.75-0.54004c0.63-0.04999,1.03998-0.17999,1.58997-0.48999
				c0.01001-0.01001,1.16003-1.13,2.84003-1.13c1.5,0,2.88,1.16003,2.90002,1.16998l0.19995,0.12
				c1.05005,0.44,1.39001,0.28003,7.09003,0.87006c0.15997,0.01996,0.31,0.01996,0.46002,0.01996
				c1.34998,0,2.63-0.56,3.51996-1.54999l1.79004-2.01001C48.58508,43.89742,48.25572,45.99827,47.07001,48.37z M15.20996,37.21997
				c-0.16998,0.19-0.31995,0.32001-0.42999,0.38c-0.76996-0.27002-1.20996-2.72003-1.47998-4.19
				c-0.42999-2.34003-0.57001-2.38-0.62-2.57001c-1.33002-3.41998-1.25-4.52997-0.94-4.85999
				c0.07001-0.08002,0.41998-0.22998,1.06-0.26001c0.53003,1.31,1.67999,2.21997,1.64001,4.42999L14.37,33.03998
				C14.33002,34.48999,14.62,35.90997,15.20996,37.21997z M2.75,33.25c0-11.45001,6.39996-21.44,15.79999-26.57001
				c-3.83002,3.60999-6.21002,8.64996-6.21002,14.20996v2.35004c0,0.33997,0.02002,0.67999,0.07001,1.01001
				c-0.60999,0.06-1.32996,0.23999-1.76996,0.70996c-1.15002,1.23999-0.37,3.82001,0.63995,6.41998l0.05005,0.13
				c0.17999,0.47003,0.32996,1.30005,0.48999,2.17004c0.44,2.38,0.92999,5.08997,2.76996,5.40997l0.20001,0.02002
				c0.21002,0,0.42999-0.06,0.65002-0.17999c0.26996,3.16998,0.64996,6,1.20001,7.79999c0.08997,0.31,0.20996,0.63,0.34998,0.96997
				c-2.5,1.40002-4.83002,3.15002-6.92999,5.23004C5.5,47.63995,2.75,40.75995,2.75,33.25z M33,63.5
				c-8.70431,0-16.74306-3.85571-21.94-9.46002c1.98999-1.96002,4.19-3.63,6.56-4.97003
				c2.03998,4.02002,6.14001,9.17004,9.08002,11.12c1.40997,0.94,4.69995,1.69,6.25995,1.78003
				c0.08002,0.01001,0.16003,0.01001,0.24005,0.01001c1.75995,0,4.81-0.97998,6.08997-1.78003
				c2.91998-1.84998,7.04999-7.01996,9.10004-11.12c2.37,1.33002,4.56,3,6.54999,4.96002C49.01976,60.31294,41.0177,63.5,33,63.5z
				 M49.01001,47.69995c0.13995-0.33997,0.26001-0.66998,0.34998-0.97998c0.54999-1.79999,0.92999-4.63,1.19-7.79999
				c0.22003,0.12,0.44,0.19,0.65002,0.19l0.19995-0.02002c1.85004-0.32001,2.34003-3.02997,2.77002-5.40997
				c0.42999-2.36005,0.47003-2.06,0.53998-2.30005c1.02002-2.59998,1.80005-5.16998,0.64001-6.41998
				C54.91998,24.48999,54.19,24.31,53.58002,24.25c0.04999-0.33002,0.07996-0.67004,0.07996-1.01001v-2.35004
				c0-5.57001-2.38995-10.60999-6.23999-14.21997C56.83997,11.78998,63.25,21.78998,63.25,33.25
				c0,7.51996-2.75,14.39996-7.31,19.68994C53.83997,50.84998,51.51001,49.09998,49.01001,47.69995z"/><ellipse cx="29.793" cy="8.638" fill="#FFF" opacity=".2" rx="3.215" ry="5.55" transform="rotate(35.011 29.794 8.638)"/><circle cx="25.136" cy="15.287" r="1.446" fill="#FFF" opacity=".2"/><line x1="34.522" x2="34.992" y1="46.771" y2="45.725" fill="#F1AD7E"/><path fill="#172540" d="M34.52173,47.52112c-0.10254,0-0.20703-0.021-0.30713-0.06592
				c-0.37793-0.16992-0.54639-0.61377-0.37646-0.9917l0.47021-1.0459c0.16992-0.37744,0.61279-0.5459,0.9917-0.37646
				c0.37793,0.16992,0.54639,0.61377,0.37646,0.9917l-0.47021,1.0459C35.0813,47.35657,34.80786,47.52112,34.52173,47.52112z"/><line x1="31.473" x2="31.003" y1="46.771" y2="45.725" fill="#F1AD7E"/><path fill="#172540" d="M31.47388 47.52112c-.28613 0-.55957-.16455-.68457-.44238l-.47021-1.0459c-.16992-.37793-.00146-.82178.37646-.9917.37939-.16943.82178-.00098.9917.37646l.47021 1.0459c.16992.37793.00146.82178-.37646.9917C31.68091 47.50012 31.57642 47.52112 31.47388 47.52112zM39.45581 35.41614c-.21875 0-.43555-.09521-.58398-.27881-.26025-.32227-.20996-.79443.1123-1.05469 1.15332-.93164 2.69775-1.26611 4.13086-.89551.03564.00928.08301.02637.12354.04346.3584.13574.56006.5249.45557.90137-.11133.39893-.52539.63232-.92334.52197-.02295-.00635-.05127-.01611-.07959-.02686-.95068-.23535-1.98682-.00635-2.76465.62256C39.78784 35.36145 39.62134 35.41614 39.45581 35.41614zM26.53979 35.41614c-.16553 0-.33203-.05469-.4707-.1665-.77441-.625-1.80371-.854-2.76855-.62158-.02539.00977-.05029.01855-.07031.02441-.39746.11084-.81348-.1167-.92725-.51514-.10791-.37744.09375-.77051.45459-.90723.03516-.01465.07568-.02979.10498-.03809 1.45068-.375 2.99561-.04102 4.14893.89063.32227.26025.37256.73242.1123 1.05469C26.97534 35.32092 26.75854 35.41614 26.53979 35.41614z"/><path fill="#FFF" d="M38.91623,52.19681c-1.08799-1.72709-2.98757-0.19044-5.9185-0.19044
				c-2.93086,0-4.83042-1.5366-5.91842,0.19035c-0.13745,0.21818,1.05708,0.82048,1.05708,0.82048
				c0.70874,0.50765,1.62083,1.12306,2.10819,1.29969c0.65139,0.23608,2.0603,0.31766,2.75315,0.31766
				c0.69286,0,2.10175-0.08158,2.75315-0.31766c0.48739-0.17663,1.39946-0.79204,2.10819-1.29969
				C37.85907,53.01721,39.05366,52.41497,38.91623,52.19681z"/><path fill="#010101" d="M49.08439 37.10128c-.99501 7.08947-4.06238 6.46091-5.09638 17.24814l4.54552-6.8787.67298-5.12909L49.08439 37.10128zM16.69879 37.10128c.99501 7.08947 4.06238 6.46091 5.09638 17.24814l-4.54552-6.8787-.67297-5.12909L16.69879 37.10128z" opacity=".1"/><path fill="#172540" d="M35.63501,50.89514c-0.7749,0.16943-1.65283,0.36133-2.63721,0.36133s-1.8623-0.19189-2.63721-0.36133
				c-1.62793-0.35596-3.47412-0.75928-4.36572,1.88232c-0.13281,0.39258,0.07813,0.81787,0.4707,0.9502
				c0.34686,0.1178,0.70984-0.04413,0.88257-0.35394c0.77228,0.5675,1.97205,1.40607,2.64087,1.64838
				c0.98877,0.3584,2.98877,0.3623,3.00879,0.3623s2.01953-0.00391,3.0083-0.3623c0.66791-0.24188,1.86444-1.0777,2.6369-1.6452
				c0.133,0.2392,0.3786,0.39032,0.64728,0.39032c0.07959,0,0.16016-0.0127,0.23975-0.03955
				c0.39258-0.13232,0.60352-0.55762,0.4707-0.9502C39.11011,50.13684,37.26489,50.53967,35.63501,50.89514z M35.49536,53.61194
				c-0.46484,0.16846-1.65869,0.27246-2.49756,0.27246c-0.83936,0-2.0332-0.104-2.49805-0.27246
				c-0.43127-0.15643-1.44452-0.84796-2.26251-1.44733c0.37677-0.10272,0.91846,0.00232,1.80304,0.19586
				c0.80713,0.17676,1.81152,0.396,2.95752,0.396s2.15039-0.21924,2.95752-0.396c0.88391-0.19312,1.42554-0.29822,1.80249-0.19543
				C36.94012,52.76416,35.92731,53.45551,35.49536,53.61194z"/></svg>