<svg xmlns="http://www.w3.org/2000/svg" enable-background="new 0 0 66 66" viewBox="0 0 66 66"><path fill="#3590CE" d="M63.99761,33.25047c0,17.11822-13.87907,30.99728-30.99728,30.99728
				c-17.12365,0-31.00272-13.87907-31.00272-30.99728c0-17.12365,13.87907-31.00272,31.00272-31.00272
				C50.11855,2.24776,63.99761,16.12682,63.99761,33.25047z"/><path fill="#6C8CAB" d="M55.77872,54.27476c-5.66998,6.13-13.77997,9.97003-22.77997,9.97003s-17.10999-3.84003-22.78003-9.97003
				c3.42004-0.39001,6.92004-0.62,9.58002-2.76001c3.35999-2.69,2.40002-8.27997,2.40002-12.63995h21.58997
				c0,4.34998-0.94,9.94995,2.40002,12.63C48.85873,53.64475,52.35873,53.88474,55.77872,54.27476z"/><path fill="#6C8CAB" d="M16.32688,7.63519L16.32688,7.63519c-1.18396,1.93492-1.81048,4.15924-1.81048,6.42764
				c0,0-0.34174,9.86952,0,13.13559c0.33686,3.21935,1.57041,9.62654,2.68022,12.66726
				c1.50423,4.12141,6.86781,12.83241,10.23011,14.2592c1.29071,0.54771,4.16847-0.65058,5.57053-0.65058
				c1.40211,0,4.27987,1.19829,5.57058,0.65058c3.36231-1.4268,8.72588-10.13779,10.23011-14.2592
				c1.10981-3.04073,2.34336-9.44791,2.68021-12.66726c0.34175-3.26607,0-13.13559,0-13.13559
				c0-2.2684-0.62653-4.49272-1.81047-6.42763l0-0.00001c-2.23788-3.65733-6.21691-5.88743-10.50459-5.88743H26.83146
				C22.54379,1.74776,18.56475,3.97786,16.32688,7.63519z"/><path fill="#FFF" d="M49.47859 22.52932c-.3949 1.26398-.65607 2.74451-1.3028 3.90009-1.14075 2.03851-2.89716 3.72717-4.97888 4.78693-2.08179 1.05976-4.48059 1.48639-6.80011 1.20947.64215 1.16443 1.2901 2.34271 1.63965 3.62573.24968.9164.33503 1.90162.15348 2.82658-.20487 1.04383.07966 2.18192.98202 2.74521 2.3494 1.46661 5.99648-2.10828 10.45117-8.82088C50.84211 29.54519 50.29963 25.9089 49.47859 22.52932zM16.51596 22.52932c.3949 1.26398.65607 2.74451 1.3028 3.90009 1.14075 2.03851 2.89716 3.72717 4.97888 4.78693 2.08179 1.05976 4.48059 1.48639 6.80011 1.20947-.64215 1.16443-1.2901 2.34271-1.63965 3.62573-.24968.9164-.33503 1.90162-.15348 2.82658.20487 1.04383-.07966 2.18192-.98202 2.74521-2.3494 1.46661-5.99648-2.10828-10.45117-8.82088C15.15244 29.54519 15.69492 25.9089 16.51596 22.52932z" opacity=".2"/><path fill="#FFF" d="M21.55818,26.99769c0,0,3.30775,6.18594,10.78242,2.9641
				C28.98588,26.90778,25.3812,26.01067,21.55818,26.99769z"/><path fill="#E1C123" d="M32.34061,29.26258c-2.98548-2.30828-6.06627-4.66313-9.53006-5.42258
				c-0.57878-0.1269-1.17377-0.2114-1.70778-0.51609c-0.53401-0.30469-1.00951-0.88563-1.07764-1.61014
				c-0.32974,0.77861-0.51679,1.62377-0.39725,2.49078c0.11953,0.867,0.55597,1.68521,1.19942,2.05396
				c0.53486,0.30652,1.1476,0.28637,1.73652,0.30602c3.35365,0.11193,6.54869,1.68843,9.66104,3.2427
				C32.25534,29.6575,32.31012,29.41229,32.34061,29.26258z"/><path fill="#FFF" d="M44.43637,26.99769c0,0-3.30775,6.18594-10.78242,2.9641
				C37.00867,26.90778,40.61335,26.01067,44.43637,26.99769z"/><path fill="#E1C123" d="M33.65393,29.26258c2.98549-2.30828,6.06627-4.66313,9.53006-5.42258
				c0.57877-0.1269,1.17377-0.2114,1.70778-0.51609c0.53401-0.30469,1.00951-0.88563,1.07764-1.61014
				c0.32974,0.77861,0.51679,1.62377,0.39726,2.49078c-0.11953,0.867-0.55597,1.68521-1.19942,2.05396
				c-0.53486,0.30652-1.1476,0.28637-1.73652,0.30602c-3.35365,0.11193-6.54869,1.68843-9.66104,3.2427
				C33.73921,29.6575,33.68443,29.41229,33.65393,29.26258z"/><path fill="#F0523C" d="M51.47785,14.06659c0-2.27478-0.62537-4.49487-1.80579-6.43353L32.99805,25.83923L16.32404,7.63305
				c-1.18042,1.93866-1.80579,4.15875-1.80579,6.43353c0,0-0.34393,9.8653,0,13.13287
				c0.23456,2.22009,0.89117,5.94885,1.6416,9.04443v0.00781l0.0686-0.21984c0.5409-1.73335,0.6767-3.5583,0.4892-5.36437
				c-0.25695-2.475-0.05358-6.87339,2.85834-12.7314c0,0,6.39441,7.80151,10.56097,9.21649c0,0,0.84424,5.73779,2.86108,9.5838
				c2.01685-3.84601,2.86108-9.5838,2.86108-9.5838c4.1665-1.41498,10.56104-9.21649,10.56104-9.21649
				c2.91187,5.858,3.11524,10.25638,2.85828,12.73138c-0.18751,1.80608-0.05171,3.63104,0.4892,5.36439l0.0686,0.21983v-0.00781
				c0.75043-3.09558,1.4071-6.82434,1.6416-9.04443C51.82178,23.93188,51.47785,14.06659,51.47785,14.06659z"/><path fill="#F0523C" d="M28.76896 15.53623L19.5916 4.0997c1.67284-1.21165 3.63496-2.00119 5.71435-2.25913L28.76896 15.53623zM37.22559 15.53623L46.40295 4.0997c-1.67284-1.21165-3.63496-2.00119-5.71436-2.25913L37.22559 15.53623z"/><path fill="#172540" d="M30.07684,49.99749c-0.66357,0-1.31543-0.1582-1.93262-0.47266
				c-0.36914-0.1875-0.51611-0.63965-0.32813-1.00879s0.64111-0.51465,1.00879-0.32715
				c0.72168,0.36719,1.52246,0.40527,2.31543,0.10547c1.26318-0.47656,2.53613-0.49707,3.67773-0.05859
				c0.81494,0.31152,1.62793,0.28223,2.35205-0.08691c0.36963-0.18555,0.82031-0.04102,1.0083,0.3291
				c0.18799,0.36914,0.04102,0.82031-0.32861,1.00879c-1.11182,0.56445-2.34668,0.61719-3.56787,0.14941
				c-0.80615-0.30762-1.68604-0.28809-2.61279,0.0625C31.13837,49.89788,30.60419,49.99749,30.07684,49.99749z"/><path fill="#FFF" d="M35.06155,42.10514c-0.53088,0.08923-1.52972,0.89838-2.06427,0.89838
				c-0.53461,0-1.53345-0.80914-2.06433-0.89838c-2.71539-0.45514-4.47632,3.26025-4.47632,3.26025s3.03168-0.58301,4.05463-0.50867
				c0.63812,0.04462,1.84601,0.95782,2.48602,0.95782s1.8479-0.91321,2.48602-0.95782
				c1.02289-0.07434,4.05463,0.50867,4.05463,0.50867S37.777,41.65,35.06155,42.10514z"/><path fill="#172540" d="M32.99725,46.56488c-0.51172,0-1.05762-0.27734-1.63574-0.57031
				c-0.27881-0.1416-0.74609-0.37793-0.90283-0.38965c-0.80518-0.05273-3.09033,0.34961-3.86035,0.49707
				c-0.27686,0.05371-0.56104-0.05371-0.73438-0.27734c-0.17334-0.22266-0.20605-0.52441-0.08496-0.78027
				c0.07715-0.16211,2.06494-4.22949,5.27783-3.67871c0.37061,0.0625,0.7583,0.2793,1.16895,0.50879
				c0.24072,0.13574,0.64404,0.36133,0.78711,0.37988c0.11182-0.01855,0.51514-0.24414,0.75586-0.37988
				c0.41064-0.22949,0.79834-0.44629,1.16797-0.50879c3.23145-0.55957,5.20117,3.5166,5.27881,3.67871
				c0.12109,0.25586,0.08838,0.55762-0.08496,0.78027c-0.17334,0.22363-0.45752,0.32813-0.73438,0.27734
				c-0.77002-0.14844-3.07275-0.55176-3.85889-0.49707c-0.1582,0.01172-0.625,0.24805-0.90381,0.38965
				C34.05487,46.28753,33.50897,46.56488,32.99725,46.56488z M30.30731,44.10003c0.09424,0,0.18066,0.00293,0.2583,0.00879
				c0.45654,0.03223,0.95117,0.2832,1.47461,0.54785c0.29443,0.14941,0.7876,0.39941,0.95703,0.4082
				c0.16943-0.00879,0.6626-0.25879,0.95752-0.4082c0.52344-0.26465,1.01758-0.51563,1.47559-0.54785
				c0.54834-0.04297,1.62695,0.08789,2.56055,0.23047c-0.69482-0.8584-1.67822-1.67578-2.80518-1.49512
				c-0.11914,0.02344-0.45898,0.21387-0.68359,0.33984c-0.52344,0.29297-1.01758,0.56934-1.50488,0.56934
				s-0.98145-0.27637-1.50488-0.56934c-0.22461-0.12598-0.56445-0.31641-0.68506-0.33984
				c-1.14844-0.18945-2.13916,0.66699-2.80029,1.49512C28.81073,44.21624,29.72089,44.10003,30.30731,44.10003z"/><path fill="#172540" d="M49.59003,6.19c-0.77002-1.02002-1.69-1.91003-2.70001-2.65002
					C46.87,3.52997,46.85999,3.51001,46.84003,3.48999c-1.79004-1.29999-3.89001-2.12-6.06-2.39001
					c-0.03003-0.01001-0.05005,0-0.08002,0C40.19,1.03998,39.67999,1,39.16003,1H26.83002
					C26.31,1,25.78998,1.03998,25.28003,1.09997c-0.02002,0-0.04004-0.01001-0.07001,0
					C23.03998,1.36999,20.94,2.19,19.15002,3.48999c-0.02002,0.02002-0.03003,0.04999-0.06,0.06
					c-1,0.73999-1.91003,1.62-2.67004,2.63C7.32001,11.76996,1.25,21.81,1.25,33.25C1.25,50.7321,15.45454,65,33,65
					c17.47355,0,31.75-14.19954,31.75-31.75C64.75,21.82001,58.67999,11.77997,49.59003,6.19z M47.09003,17.59997
					c-0.11005-0.22998-0.33002-0.38-0.59003-0.40997c-0.25-0.03003-0.5,0.07001-0.65997,0.26996
					c-0.06,0.08002-6.30005,7.65002-10.22003,8.98004c-0.26996,0.08997-0.45996,0.32996-0.5,0.59998
					c0,0-0.01001,0.07001-0.02997,0.17999C34.89137,28.80804,33.98859,32.54389,33,34.95001
					C32.46002,33.64996,32.03003,32.25,31.71002,31c-1.02656-4.10624-0.64541-4.32312-1.33002-4.56
					c-3.91998-1.33002-10.15997-8.90002-10.21997-8.98004C20.01001,17.28998,19.79999,17.19,19.58002,17.19h-0.09003
					c-0.25,0.02997-0.46997,0.17999-0.58997,0.40997c-2.92999,5.91003-3.21002,10.41003-2.92999,13.14001
					c0.04999,0.47998,0.07996,0.94,0.07996,1.39996c-0.01996-0.12-0.04999-0.22998-0.07001-0.34997
					c-0.24153-1.2737-0.55308-3.16811-0.71997-4.66998c-0.33002-3.17999,0-12.92999,0.01001-13.04999
					c0-1.55408,0.31686-3.36382,1.20996-5.15002L32.44,26.34997c0.28998,0.31,0.83002,0.31,1.10999,0L49.51001,8.91998
					c0.80718,1.616,1.21997,3.33517,1.21997,5.16998c0,0.10004,0.34003,9.85004,0,13.03003
					c-0.23669,2.01588-0.17576,1.54414-0.77997,5.01996C49.95001,30.1655,51.05714,25.57471,47.09003,17.59997z M25.14001,45.15997
					c-2.82001-5.70001-6.23999-8.95996-7.85004-10.28998c0.17004-0.87,0.26001-1.76001,0.26001-2.66998
					c0-0.53003-0.02997-1.07001-0.08997-1.61004C17.22003,28.20996,17.44,24.38,19.75,19.31
					c0.79999,0.91998,2.15002,2.41998,3.71002,3.91998c-0.54055-0.16885-1.43923-0.24524-1.98999-0.56
					c-0.31-0.16998-0.65002-0.53998-0.70001-1.03003c-0.03003-0.33997-0.29004-0.62-0.63-0.66998
					c-0.33002-0.04999-0.66998,0.13-0.81,0.45001c-0.41998,1-0.57001,1.96997-0.45001,2.89001
					c0.15997,1.14001,0.76001,2.13,1.57001,2.59998c0.12,0.07001,0.25,0.13,0.37,0.16998c0,0.09003,0.03003,0.18005,0.08002,0.27002
					c0.08997,0.17999,2.34998,4.28998,7.32996,4.28998c0.66003,0,1.33002-0.06995,2.03003-0.21997
					c0.46997,1.81,1.15002,3.91998,2.07001,5.66998c0.13,0.23999,0.39001,0.40002,0.66998,0.40002
					c0.28003,0,0.53003-0.16003,0.66003-0.40002c0.91998-1.75,1.59998-3.85999,2.06995-5.66998
					c0.69,0.15002,1.37006,0.21997,2.03003,0.21997c4.98999,0,7.23999-4.10999,7.34003-4.28998
					c0.04999-0.08997,0.07996-0.17999,0.07996-0.27002c0.12-0.03998,0.23999-0.09998,0.35999-0.16998
					c0.82001-0.46997,1.41003-1.44,1.57001-2.59998c0.13-0.92004-0.02997-1.89001-0.44995-2.89001
					c-0.13-0.32001-0.47003-0.5-0.80005-0.45001c-0.33997,0.04999-0.59998,0.33002-0.63995,0.66998
					C45.17999,22.13,44.83002,22.5,44.52002,22.66998c-0.34003,0.20001-0.76001,0.28003-1.20001,0.38l-0.29999,0.06
					c-0.16003,0.02997-0.32001,0.07001-0.47003,0.12c1.55005-1.51001,2.90002-3,3.69-3.91998
					C48.56,24.38,48.78003,28.20996,48.53003,30.58996C48.38,32.07,48.44,33.51001,48.71002,34.86999
					c-1.60999,1.32001-5.03003,4.58002-7.85004,10.28998c-0.19,0.37-0.03998,0.82001,0.33002,1
					c0.33227,0.18126,0.81753,0.05495,1.01001-0.33002c2.33997-4.72998,5.08002-7.67999,6.76001-9.19995
					c-0.29004,1.16998-0.59003,2.19995-0.87,2.97998c-0.67004,1.83002-2,4.37-3.54004,6.78998
					c-0.38995,0.61005-0.78998,1.21002-1.19,1.79004c-1.78998,2.52997-3.67999,4.64996-5.07996,5.23999
					C37.26517,53.83556,34.37596,52.71997,33,52.71997c-1.39556,0-4.32829,1.13292-5.27997,0.71002
					c-1.40002-0.59003-3.30005-2.70001-5.08002-5.22998c-0.40002-0.58002-0.79999-1.18005-1.19-1.78003
					c-1.53998-2.41998-2.88-4.97998-3.54999-6.81c-0.28003-0.78003-0.58002-1.81-0.87-2.97998c0.83997,0.75995,1.94,1.87,3.13,3.38
					c1.19,1.52997,2.45996,3.44995,3.63995,5.81995c0.19664,0.39327,0.67633,0.50658,1,0.33002
					C25.16998,45.97998,25.32001,45.52996,25.14001,45.15997z M23.62,25.89996c-0.72673-0.10686-1.12995-0.08547-1.22998-0.08997
					c-0.47003-0.01001-0.88-0.02002-1.19-0.20001c-0.54809-0.31511-0.85999-1.19728-0.85999-1.90002
					c1.29252,1.07754,2.39136,0.33998,6.03998,2.33002c0.58002,0.32001,1.15002,0.66003,1.71002,1.03003
					C26.64001,26.51001,25.15002,26.07001,23.62,25.89996z M29.79999,29.45001c0.04004,0.15997,0.07001,0.32996,0.12,0.5
					c-0.57996,0.12994-1.13995,0.18994-1.69,0.18994c-2.81,0-4.56995-1.59998-5.41998-2.63995
					c0.27002-0.04004,0.54999-0.08002,0.82001-0.10004c0,0,0,0,0.01001,0C25.73999,27.67999,27.78998,28.51001,29.79999,29.45001z
					 M42.35004,27.39996c0.00995,0,0.00995,0,0.00995,0c0.27002,0.02002,0.54004,0.06,0.82001,0.10004
					c-0.83997,1.03998-2.60999,2.63995-5.41998,2.63995c-0.53998,0-1.09998-0.06-1.67999-0.17999
					c0.03998-0.17999,0.08002-0.34998,0.12-0.50995C38.20001,28.5,40.25,27.67999,42.35004,27.39996z M37.91003,27.07001
					c0.56-0.37,1.12994-0.71002,1.70996-1.03003c1.20001-0.65997,2.44-1.19,3.72003-1.46997
					c0.6357-0.12994,1.28509-0.23218,1.91998-0.59003c0.14001-0.08002,0.27002-0.16998,0.39001-0.27002
					c0,0.13-0.01001,0.26001-0.03003,0.39001c-0.08997,0.66998-0.41998,1.28003-0.83002,1.51001
					c-0.18934,0.10993-0.33713,0.1805-1.37994,0.20001c-0.34003,0.01001-0.69,0.03998-1.03003,0.08997
					C40.85004,26.07001,39.35004,26.51001,37.91003,27.07001z M49.33563,7.35687L33,24.72998L17.28003,7.55999
					c0.06-0.09003,0.12-0.17004,0.19995-0.26001c0,0,0-0.01001,0.01001-0.01001c0.57001-0.79999,1.23999-1.5,2-2.12l0.59003,0.73999
					l8.09998,10.10004c0.15002,0.17999,0.37,0.27997,0.59003,0.27997c0.01001,0,0.01001,0,0.01996,0
					c0.41003,0,0.75-0.33997,0.75-0.75c0-0.13-0.02997-0.25-0.07996-0.34998c-0.3272-1.29346,1.1853,4.68563-3.20001-12.65002
					c1.07841-0.05681,12.45454-0.05402,13.47998,0c-4.4401,17.55488-2.9087,11.50018-3.23999,12.81
					c-0.08997,0.34003,0.08002,0.70001,0.39001,0.85999c0.36093,0.16424,0.70405,0.05922,0.91998-0.19995l8.90063-11.10626
					l2.42499,2.19312C49.21564,7.18683,49.27563,7.26684,49.33563,7.35687z M20.71002,4.28998
					c1.01001-0.64001,2.12-1.13,3.28998-1.42999c0.03003-0.01001,0.06-0.01001,0.09003-0.02002
					c0.20996-0.04999,0.44-0.07996,0.65997-0.13c0.02537,0.10015,2.6137,10.3161,2.45001,9.67004L21.5,5.27997L20.71002,4.28998z
					 M38.79999,12.38c0.02528-0.10017,2.60306-10.31626,2.44-9.67004c0.23004,0.05005,0.46002,0.08002,0.69,0.13
					c0.10007,0.10007,1.3976,0.2306,3.35999,1.45001C36.39606,15.37659,39.46359,11.5528,38.79999,12.38z M2.75,33.25
					c0-9.82001,4.70001-18.56,11.97003-24.08002c-0.07001,0.16998-0.13,0.33002-0.19,0.5
					c-0.10004,0.28003-0.19,0.56-0.27002,0.84998c-0.15997,0.57001-0.28998,1.16003-0.37,1.74005
					c-0.08002,0.58997-0.12,1.17999-0.12,1.77997c-0.02002,0.41003-0.34003,9.96002,0,13.23999
					c0.01996,0.20001,0.03998,0.40002,0.07001,0.62c0.14026,1.05202,0.22917,1.72499,0.52997,3.42999
					c0.23999,1.36004,0.53003,2.79004,0.83002,4.12005c0.07001,0.31995,0.15002,0.62994,0.21997,0.92999
					c0.34003,1.42999,0.71002,2.73999,1.07001,3.73999C17.26001,42.23999,19,45.51001,21,48.45001
					c-0.33002,0.97998-0.85999,1.82996-1.66998,2.47998c-2.28003,1.83997-5.25,2.15997-8.40002,2.51001l-0.39001,0.03998
					C5.69,48.11999,2.75,41.01995,2.75,33.25z M33,63.48999c-7.45253,0-15.44027-2.92903-21.14996-8.64001
					c2.97998-0.33997,6-0.81,8.41998-2.75c0.76996-0.62,1.33997-1.37,1.76001-2.21002
					c1.72998,2.34003,3.57001,4.28003,5.09998,4.92004c1.67657,0.71131,4.49547-0.59003,5.87-0.59003
					c1.30677,0,4.26311,1.28872,5.85999,0.59003c1.54004-0.64001,3.37-2.58002,5.11005-4.92004
					c0.40997,0.84003,0.97998,1.58002,1.75,2.20001c2.41998,1.95001,5.44995,2.42004,8.42999,2.76001
					C48.53414,60.28156,41.24667,63.48999,33,63.48999z M55.10999,53.44c-3.15997-0.34003-6.14996-0.67004-8.44995-2.52002
					c-0.80005-0.64001-1.33002-1.48999-1.67004-2.46997C47,45.51001,48.72998,42.23999,49.5,40.11999
					c1.1552-3.17691,2.37768-9.5483,2.72003-12.84002C52.57001,24,52.23999,14.45001,52.22998,14.07
					c0-1.69-0.32996-3.36005-0.95996-4.91003C58.54999,14.69,63.25,23.42999,63.25,33.25c0,7.76996-2.94,14.87-7.78998,20.22998
					L55.10999,53.44z"/><path fill="#172540" d="M30.25262,39.52191c0.20654,0,0.41162-0.08496,0.56006-0.25
					c0.104-0.1167,0.15118-0.25812,0.17023-0.4021c0.00616,0.00195,0.01257,0.00464,0.01874,0.00659
					c0.2627,0.08301,0.3584,0.11816,0.45264,0.23242c0.30518,0.37305,0.73486,0.62402,1.20996,0.70508
					c0.0415,0.00684,0.08398,0.01074,0.12646,0.01074h0.41309c0.04248,0,0.08447-0.00391,0.12646-0.01074
					c0.4751-0.08105,0.90479-0.33203,1.20898-0.70313c0.0957-0.11719,0.19141-0.15137,0.45361-0.23438
					c0.0061-0.00195,0.01257-0.00464,0.01874-0.00659c0.01904,0.14398,0.06622,0.2854,0.17023,0.4021
					c0.14844,0.16504,0.35352,0.25,0.56006,0.25c0.17773,0,0.35596-0.0625,0.49902-0.19043
					c1.59912-1.42871,1.00488-3.24805,0.4668-4.01074c-0.23828-0.33984-0.70703-0.4209-1.04492-0.18164
					c-0.33838,0.23926-0.41943,0.70703-0.18066,1.04492c0.06201,0.0885,0.47229,0.72375,0.19513,1.41895
					c-0.20032-0.26282-0.5498-0.37823-0.87286-0.24805c-0.08887,0.03711-0.17725,0.06348-0.26318,0.09082
					c-0.32813,0.10352-0.77734,0.24512-1.16211,0.71387c-0.06592,0.08008-0.1543,0.1377-0.25342,0.16504h-0.25684
					c-0.09912-0.02734-0.18799-0.08496-0.25439-0.16602c-0.38232-0.46582-0.83203-0.6084-1.16016-0.71191
					c-0.08643-0.02734-0.17432-0.05469-0.26318-0.09082c-0.32178-0.13483-0.67383-0.01721-0.87482,0.24866
					c-0.26361-0.66351,0.10034-1.27771,0.19952-1.42444c0.23486-0.33789,0.15283-0.80273-0.18408-1.04102
					c-0.33936-0.24023-0.80664-0.15918-1.04492,0.18164c-0.53809,0.7627-1.13232,2.58203,0.4668,4.01074
					C29.89667,39.45941,30.07489,39.52191,30.25262,39.52191z"/></svg>