<svg xmlns="http://www.w3.org/2000/svg" enable-background="new 0 0 66 66" viewBox="0 0 66 66"><path fill="#3590CE" d="M63.99775,33.24635c0,17.11822-13.87907,30.99728-30.99728,30.99728
				c-17.12365,0-31.00272-13.87907-31.00272-30.99728c0-17.12365,13.87907-31.00272,31.00272-31.00272
				C50.11868,2.24364,63.99775,16.1227,63.99775,33.24635z"/><path fill="#F1AD7E" d="M55.46846,54.61477c-2.97998,3.10999-6.58997,5.62-10.63,7.28998
				c-3.64996,1.51001-7.64996,2.34002-11.83997,2.34002s-8.19-0.83001-11.84003-2.35003
				c-4.03998-1.65997-7.65997-4.16998-10.64001-7.28998l3.23004-2.17999c4.51996-3.03003,7.56-7.80005,8.38-13.17999
				l2.52997-16.42004h16.65002l2.51996,16.42004c0.82001,5.37994,3.85004,10.14996,8.37006,13.17999L55.46846,54.61477z"/><path fill="#575E85" d="M56.80848 53.10476c-3.20001 3.82001-7.29999 6.87-11.97003 8.79999l5.27002-12.73999 6.57001 3.85999L56.80848 53.10476zM21.15846 61.89473c-4.66998-1.91998-8.77002-4.96997-11.96997-8.78998l.13-.08002 6.56-3.85999L21.15846 61.89473z"/><path fill="#F1AD7E" d="M19.08484,31.54391L19.08484,31.54391c0,2.67279,0.55395,5.31657,1.62691,7.76454l5.40901,12.34074
				c0.54733,1.24873,1.88331,1.95529,3.22352,1.7048l0.00002,0c2.41471-0.45131,4.89213-0.45131,7.30684,0l0.00001,0
				c1.34021,0.25048,2.6762-0.45607,3.22353-1.7048l5.40905-12.34074c1.07297-2.44797,1.62693-5.09175,1.62693-7.76454v-0.00001
				H19.08484z"/><path fill="#575E85" d="M30.97137 8.34425L19.9375 6.96502c0 0-4.30189-2.85698-5.25422-5.22138 0 0-1.14384 11.21327 4.12811 25.65978l12.15998-.8216V8.34425zM34.70726 8.34425l11.03386-1.37923c0 0 4.3019-2.85698 5.25422-5.22138 0 0 1.14384 11.21327-4.12811 25.65978l-12.15998-.8216V8.34425z"/><path fill="#575E85" d="M47.17996,20.59773v7.24477C46.88208,36.57691,43.93,43.00921,43.93,43.00921l-0.97504-4.55007
				l-7.46148-6.06665l-2.65412-0.23019l-2.6542,0.23019l-7.44793,6.06665l-0.98852,4.55007c0,0-2.95208-6.4323-3.25004-15.16671
				v-7.24477c0-7.29899,5.91771-13.20315,13.2167-13.20315h2.26144C41.26225,7.39458,47.17996,13.29874,47.17996,20.59773z"/><path fill="#FFF" d="M30.24148,20.90927c1.71758-1.44563,1.59296-4.42046-0.27592-6.6409
				c-1.8754-2.22818-4.78526-2.85865-6.50284-1.41302s-1.593,4.42041,0.2824,6.64859
				C25.614,21.72438,28.52391,22.3549,30.24148,20.90927z" opacity=".2"/><ellipse cx="32.54" cy="23.64" fill="#FFF" opacity=".2" rx="2.978" ry="2.3" transform="rotate(49.914 32.54 23.64)"/><path fill="#6C8CAB" d="M44.24144,37.75503c-1.35417,0.81247-3.08754,0.94793-4.4823,0.1896
				c-1.88231-1.02918-3.16879-2.76256-3.98126-4.23856c-0.0948,0.02703-0.18961,0.04058-0.2844,0.04058h-0.12183l-2.53229-0.23018
				l-2.53229,0.23018h-0.10836c-0.81255,1.46253-2.09895,3.18235-3.9677,4.19798c-1.38128,0.75833-3.12813,0.62287-4.4823-0.1896
				c-3.23648-1.96356-9.00526-7.29899-8.27404-20.1636l2.08547,3.04688c0.79891,1.16457,2.04481,1.95001,3.45312,2.1125
				c2.66776,0.29796,7.44793,1.62502,11.48333,7.00103c0.27085,0.3521,0.4469,0.77189,0.51459,1.20523l1.70627-0.14894h0.24374
				l2.0177,0.17605c0.06777-0.4469,0.23027-0.86669,0.51459-1.23234c4.04895-5.37601,8.82921-6.70307,11.48341-7.00103
				c1.40831-0.16249,2.65412-0.94794,3.45311-2.1125l2.08539-3.04688C53.26017,30.45604,47.49148,35.79147,44.24144,37.75503z"/><path fill="#172540" d="M51.76996,7.66613c0.20001-3.60004-0.01001-5.79004-0.02997-6
				c-0.03003-0.34003-0.30005-0.62-0.64001-0.67004c-0.35999-0.03998-0.66998,0.15002-0.79999,0.47003
				c-0.44,1.08997-1.79004,2.39996-3.03003,3.41998C42.97998,2.71612,38.12994,1.49609,33,1.49609
				c-5.21002,0-10.13,1.26001-14.46002,3.48999c-1.27002-1.02997-2.71002-2.39996-3.16003-3.51996
				C15.25,1.14611,14.91998,0.95611,14.57996,0.99609c-0.33997,0.05005-0.60999,0.33002-0.64001,0.67004
				c-0.01996,0.20996-0.23999,2.48999-0.01996,6.21997C6.22998,13.68609,1.25,22.89611,1.25,33.24609
				c0,16.8458,13.12728,30.68946,30.12,31.71002h0.06C49.81189,66.01556,64.75,51.06705,64.75,33.24609
				C64.75,22.7561,59.63995,13.43609,51.76996,7.66613z M63.25,33.24609c0,7.13-2.48004,13.70001-6.64001,18.87l-6.12-3.59998
				c-0.19-0.10999-0.42004-0.13-0.62-0.06c-0.21002,0.07001-0.37,0.21997-0.45001,0.41998l-0.06,0.14001
				c-1.97003-2.10999-3.42999-4.65997-4.25-7.45001l0.84998-1.94c0-0.01001,0-0.01001,0.01001-0.01996l1.03998-2.98004
				c3.28003-2.95996,6.85004-8.62,6.25-19.07996c-0.00995-0.32001-0.22998-0.59003-0.53998-0.68005
				c-0.31-0.07996-0.64001,0.04004-0.82001,0.30005L49.87,20.1361c1.00995-4.10999,1.52997-7.73999,1.77997-10.67999
				C58.70996,14.99609,63.25,23.59612,63.25,33.24609z M34.40997,30.18609l-1.45001-0.13l-1.39001,0.10004
				c-0.12-0.31-0.27997-0.60004-0.46997-0.85004c-1.90949-2.55948-4.30699-4.63722-7.27002-5.98999
				c-1.78998-0.79999-3.39996-1.14996-4.57996-1.28998c0-0.84003,0-1.42999,0-1.42999c0-6.94,5.68994-12.45001,12.43994-12.45001
				h2.30005c6.79999,0,12.44,5.53998,12.44,12.45001v1.46997c-1.98512,0.29599-3.89588,0.97073-5.69,1.98004
				c-1.92999,1.09998-3.96002,2.75995-5.84003,5.25C34.68994,29.55609,34.52997,29.85613,34.40997,30.18609z M23.58997,24.86608
				c2.05581,0.96237,4.40909,2.79246,6.31,5.34003c0.18361,0.25421,0.33534,0.55831,0.37,0.87
				c0.07001,0.39001,0.42999,0.67999,0.81,0.63l1.64001-0.15002h0.17999l2.01001,0.17999
				c0.39001,0.02002,0.73999-0.22998,0.81-0.63995c0.06995-0.34952,0.13868-0.58757,0.37-0.89001
				c1.58002-2.10999,3.28003-3.56,4.90002-4.56c4.19714-2.58969,6.09156-1.64427,8.15997-2.84003
				c0.75-0.41998,1.40002-1.00995,1.90002-1.73999l0.77997-1.14996c-0.01996,6.91998-2.06,11.28998-4.32001,14.01996
				c-1.08726,1.32994-3.07943,3.12732-4.69995,3.60004c-0.87006,0.27997-1.78003,0.26996-2.69-0.25
				c-1.06-0.58002-1.92004-1.42004-2.58002-2.27002c-0.46002-0.58002-0.83002-1.15997-1.10999-1.66998
				c-0.13-0.23999-0.42999-0.38-0.71002-0.38c-0.08002,0-0.15997,0.01001-0.22998,0.02997h-0.05005l-2.52997-0.22998h-0.14001
				L30.31,32.99609h-0.11005c-0.26996,0-0.51996,0.15002-0.65997,0.39001c-0.16998,0.31-0.37,0.64001-0.60004,0.98999
				c0,0-0.00995,0-0.00995,0.01001c-0.72003,1.03998-1.73004,2.16998-3.06,2.90002c-0.69,0.39996-1.70001,0.51996-2.72003,0.25
				c-0.97578-0.2584-2.04102-1.06961-2.82001-1.73004c-0.65997-0.56-1.28998-1.19995-1.83997-1.88995
				c-0.05005-0.05005-0.10004-0.11005-0.14001-0.16003c-2.21002-2.75-4.16003-7.08002-4.19-13.83002l0.77997,1.14001
				c0.92004,1.31,2.35004,2.25,3.99005,2.42999C20.44995,23.65612,22.03998,24.09612,23.58997,24.86608z M21.91998,38.68609
				c-0.02184,0.10033-0.39303,1.80583-0.37,1.70001c-0.2485-0.71422-0.51119-1.56458-0.71002-2.32001
				C21.0169,38.19876,21.47797,38.47983,21.91998,38.68609z M23.35999,39.10614c1.12,0.17999,2.27997,0.01996,3.22998-0.5
				c1.91998-1.05005,3.23999-2.76001,4.06-4.14001l2.19-0.20001L35.37,34.49609c0.81,1.37,2.13,3.07001,4.02997,4.11005
				c0.86253,0.46155,1.87861,0.67149,2.94,0.56L43.06,42.51611l-3.87006,8.83002c-0.39996,0.91998-1.38995,1.45996-2.39996,1.26996
				c-1.25-0.22998-2.52002-0.34998-3.78998-0.34998c-1.27002,0-2.55005,0.12-3.79004,0.34998
				c-1.02002,0.19-2-0.34998-2.39996-1.26996l-4.08002-9.32001L23.35999,39.10614z M43.79999,38.80609
				c0.44938-0.17579,0.81741-0.40835,0.96997-0.5c-0.19685,0.70297-0.17762,0.64155-0.64001,2.07001
				C44.1089,40.27596,43.77891,38.70577,43.79999,38.80609z M50.33997,4.03613c0.0662,4.69513-0.64561,11.13407-2.40997,17.54999
				v-0.98999c0-5.27002-2.94-9.86005-7.26001-12.23999l5.15997-0.65002c0.12-0.01001,0.23004-0.04999,0.33002-0.12
				C46.26001,7.50611,48.74314,5.85195,50.33997,4.03613z M33,2.99609c4.62994,0,9.01996,1.04004,12.93994,2.92004
				c-0.16998,0.13-0.32996,0.23999-0.46997,0.32996l-7.63,0.95001c-1.22998-0.35999-2.52002-0.54999-3.85999-0.54999h-2.26001
				c-1.34998,0-2.65002,0.19-3.88,0.54999l-7.63-0.95001c-0.09998-0.07001-0.21997-0.14996-0.34998-0.23999
				C23.82996,4.07611,28.28998,2.99609,33,2.99609z M15.33997,4.03613c1.26203,1.42268,3.48971,3.13531,4.17999,3.54999
				c0.10004,0.07001,0.21002,0.10999,0.32001,0.12l5.16998,0.65002C20.68994,10.73608,17.75,15.32611,17.75,20.59612v0.96997
				C16.03541,15.33249,15.27407,9.03979,15.33997,4.03613z M14.04999,9.6961c0.23999,2.72003,0.70996,6.03003,1.58997,9.73999
				l-1.54999-2.26996c-0.17999-0.26001-0.51001-0.38-0.82001-0.30005c-0.31,0.09003-0.52997,0.36005-0.53998,0.68005
				c-0.59003,10.37,2.91998,16.01996,6.16998,18.98999v0.01001c0.60004,2.59998,1.28998,4.58997,1.72998,5.71997
				c-0.84998,2.5-2.21997,4.79999-4.00995,6.72998l-0.05005-0.12c-0.07996-0.20001-0.25-0.34998-0.44995-0.41998
				c-0.21002-0.07001-0.44-0.04999-0.62,0.06l-6.11005,3.59998C5.22998,46.9461,2.75,40.37609,2.75,33.24609
				C2.75,23.73608,7.15997,15.23608,14.04999,9.6961z M10.37,53.28613l4.60999-2.72003l0.53998-0.32001l0.56,1.35004
				l3.65002,8.82001C18.55173,60.02338,13.76721,57.15797,10.37,53.28613z M31.44995,63.45611
				c-3.19751-0.12551-6.7239-0.94784-9.67999-2.13c-0.01996-0.01001-0.02997-0.01001-0.04999-0.02002L17.23999,50.5061
				c1.91998-1.92999,3.42999-4.23999,4.42999-6.76001c0.04999,0.01001,0.09998,0.02002,0.15997,0.01001h0.01001l3.59003,8.19
				c0.67999,1.54999,2.34998,2.46002,4.04999,2.15002c2.31-0.44,4.71997-0.44,7.02997,0c0.23004,0.03998,0.46002,0.06,0.67999,0.06
				c1.46002,0,2.78003-0.87,3.37006-2.21002l3.60999-8.22998l0.04999-0.12c1.01001,2.59998,2.53998,4.95996,4.51001,6.92999
				l-4.46002,10.77997C40.03373,63.07298,35.19446,63.67614,31.44995,63.45611z M46.25,60.42608l3.64996-8.81l0.57001-1.37
				l0.41998,0.25l4.73999,2.79004C52.8887,56.41035,49.78813,58.65779,46.25,60.42608z"/><path fill="#FFF" d="M23.46346,33.56683c-0.21857,0-0.44588-0.06478-0.63982-0.18201
				c-1.31302-0.79401-3.26546-2.57914-3.96449-6.35645c0.40932,0.18042,0.84607,0.30004,1.29712,0.35051
				c1.26414,0.14187,3.69584,0.79361,5.78141,3.56589c-0.30719,0.72248-0.97523,1.93575-2.04464,2.52032
				C23.77145,33.53185,23.62282,33.56683,23.46346,33.56683z"/><path fill="#172540" d="M23.46313,34.31677c-0.35254,0-0.7168-0.10303-1.02734-0.29004
				c-1.28125-0.7749-3.54395-2.69629-4.31348-6.86231c-0.05078-0.27344,0.05371-0.55225,0.27246-0.72461
				s0.51465-0.21045,0.76758-0.09766c0.34473,0.15186,0.70703,0.25,1.07715,0.29102
				c1.38477,0.15576,4.04296,0.86426,6.29785,3.86035c0.16113,0.21436,0.19531,0.49805,0.09082,0.74512
				c-0.3291,0.77197-1.0752,2.17383-2.37598,2.88477C24.02173,34.24987,23.74927,34.31677,23.46313,34.31677z M19.88306,28.09948
				c0.7627,2.60547,2.19141,3.95557,3.32813,4.64356c0.11523,0.06787,0.30371,0.07031,0.32227,0.06396
				c0.7334-0.40088,1.24512-1.20313,1.5293-1.76172c-1.84863-2.25244-3.90039-2.79883-4.99023-2.92139
				C20.00903,28.11706,19.94556,28.10876,19.88306,28.09948z"/><path fill="#FFF" d="M42.52887,33.56683c0.21857,0,0.44588-0.06478,0.63982-0.18201
				c1.31302-0.79401,3.26546-2.57914,3.96449-6.35645c-0.40932,0.18042-0.84607,0.30004-1.29712,0.35051
				c-1.26414,0.14187-3.69584,0.79361-5.78141,3.56589c0.30719,0.72248,0.97522,1.93575,2.04463,2.52032
				C42.22088,33.53185,42.36951,33.56683,42.52887,33.56683z"/><path fill="#172540" d="M42.52856,34.31677c-0.28418,0-0.55664-0.06689-0.78809-0.19287
				c-1.30469-0.71289-2.04883-2.11426-2.37598-2.88623c-0.10449-0.24658-0.07031-0.52979,0.09082-0.74365
				c2.25391-2.99658,4.91309-3.70508,6.29688-3.86035c0.37109-0.0415,0.7334-0.13965,1.07813-0.2915
				c0.25293-0.11279,0.5498-0.07471,0.76758,0.09766c0.21875,0.17236,0.32324,0.45166,0.27246,0.7251
				c-0.77148,4.16748-3.03418,6.08789-4.31445,6.86182C43.24731,34.21374,42.88208,34.31677,42.52856,34.31677z M40.92896,31.04577
				c0.28418,0.55762,0.79492,1.35938,1.5293,1.76123l0.07031,0.00977c0.08105,0,0.1748-0.02734,0.25098-0.07373
				c1.1377-0.6875,2.56641-2.03662,3.33008-4.64356c-0.06348,0.00928-0.12695,0.01758-0.19043,0.0249
				C44.83032,28.24645,42.77759,28.79284,40.92896,31.04577z"/><path fill="#FFF" d="M39.46033,45.23206c0,0-2.25948,0.22293-3.61948-0.15129c0,0-1.09222-0.35832-2.84843,0.56531
				c-1.75621-0.92363-2.8485-0.56531-2.8485-0.56531c-1.35994,0.37422-3.60876,0.15129-3.60876,0.15129
				c2.3875,1.71181,2.99806,2.71672,4.98422,3.16512l0.00702,0.00158c0.96271,0.21735,1.99059,0.21693,2.95298-0.00119v0
				C36.45242,47.9504,37.03599,46.97087,39.46033,45.23206z"/><path fill="#172540" d="M33.00024 49.3114L33.00024 49.3114c-.55566 0-1.10645-.06104-1.63867-.18115-1.55762-.35156-2.38086-1.01855-3.51953-1.94141-.47754-.38721-1.0293-.83496-1.74316-1.34717-.27637-.19775-.38477-.55566-.26563-.87354.12012-.31738.44629-.51514.77539-.48242.00684.00098.6416.0625 1.41602.0625.80371 0 1.46777-.06592 1.91992-.19043.08691-.02979 1.1875-.40625 3.04785.45215 1.86133-.8584 2.9248-.49219 3.08203-.44189.41797.11426 1.08398.18018 1.89063.18018.77734 0 1.41504-.06152 1.42188-.0625.33984-.03174.65527.16504.77539.48242.11914.31738.01074.67578-.26465.87354-.72754.52148-1.28516.97363-1.76563 1.3623-1.12988.91504-1.94727 1.57617-3.48633 1.9248C34.1106 49.24987 33.55688 49.3114 33.00024 49.3114zM28.79224 46.02819c1.08594.87988 1.68555 1.36475 2.89258 1.6377.43066.09717.87109.14551 1.31543.14551l0 0c.44531 0 .8877-.04883 1.31348-.14551 1.19922-.27148 1.79395-.75342 2.87402-1.62744.00488-.00342.00879-.00684.0127-.00977-.61328-.0332-1.13574-.1084-1.55859-.22461-.05273-.01563-.9209-.22021-2.30078.50537-.2168.11523-.48047.11523-.69727 0-1.37988-.72559-2.2793-.51172-2.28223-.51074C29.927 45.91833 29.40356 45.9945 28.79224 46.02819zM36.27466 37.55212c-.26367-.32178-.73633-.36621-1.05566-.10498-.32031.26221-.36719.73486-.10449 1.05518.32422.39697.3584.9541.08398 1.3877l-.4082.64551c-.00739.01172-.00757.02527-.01422.03717-.02423-.03394-.03821-.07269-.06879-.10309-.29199-.29297-.76855-.29199-1.06055.00098-.17285.17383-.4043.26953-.64941.26953-.24609 0-.47559-.09521-.64941-.26855-.29199-.29199-.7666-.29346-1.06055-.00049-.03009.03009-.04376.06842-.06769.10193-.00671-.01202-.0069-.0257-.01434-.03748l-.4082-.646c-.27441-.43311-.24121-.99072.08398-1.3877.26172-.3208.21387-.79346-.10645-1.05518-.32129-.26221-.79297-.21484-1.05566.10596-.73438.89844-.80957 2.16016-.18945 3.13916l.4082.64551c.22116.34991.68486.45433 1.03418.23291.08478-.05347.15369-.12225.20856-.19904.0321.05554.05939.11346.10687.16095.45605.45654 1.06348.7085 1.70996.7085v-.00049c.64746 0 1.25488-.25244 1.71191-.70996.04688-.04712.07367-.10455.10547-.15948.05493.07703.12396.14587.20898.19952.34953.22155.81318.11676 1.03418-.23291l.4082-.64502C37.08716 39.71228 37.01001 38.45056 36.27466 37.55212z"/></svg>