<svg xmlns="http://www.w3.org/2000/svg" enable-background="new 0 0 66 66" viewBox="0 0 66 66"><path fill="#3590CE" d="M63.99775,33.25047c0,17.11822-13.87907,30.99728-30.99728,30.99728
				c-17.12365,0-31.00272-13.87907-31.00272-30.99728c0-17.12365,13.87907-31.00272,31.00272-31.00272
				C50.11868,2.24776,63.99775,16.12682,63.99775,33.25047z"/><path fill="#575E85" d="M55.77774,54.27773c-5.66998,6.13-13.77997,9.97003-22.77997,9.97003s-17.10999-3.84003-22.78003-9.97003
				c3.42004-0.39001,6.92004-0.62,9.58002-2.76001c3.35999-2.69,2.40002-8.27997,2.40002-12.63995h21.58997
				c0,4.34998-0.94,9.94995,2.40002,12.63C48.85776,53.64772,52.35776,53.88771,55.77774,54.27773z"/><path fill="#F1AD7E" d="M48.60725,40.33876c-0.08317,1.9744-0.81538,3.86369-2.08675,5.37656
				c-1.79085,2.13103-4.31922,5.16586-5.39116,6.57717c-3.21919,4.23837-5.94532,3.18214-8.1273,3.18174
				c-2.18196-0.0004-4.91265,1.05392-8.12725-3.18174c-1.07164-1.41203-3.60227-4.44543-5.39557-6.57602
				c-1.27406-1.5137-2.0079-3.40506-2.09117-5.38182l-0.89993-21.36399c-0.39774-9.38959,7.11567-17.2229,16.51392-17.2229
				c9.3983,0,16.90306,7.83331,16.50532,17.2229L48.60725,40.33876z"/><path fill="#575E85" d="M49.50736,18.97066l-0.89917,21.36439c-0.08649,1.97993-0.81273,3.86476-2.08372,5.37782
				c-0.44096,0.52739-0.92514,1.10672-1.42657,1.69464h-0.12971V35.5192c0,0-8.47145-6.95951-11.92287-6.96006
				c-3.4533-0.00055-11.93158,6.96006-11.93158,6.96006v11.88831h-0.21615c-0.49278-0.58792-0.97696-1.16725-1.41791-1.69464
				c-1.271-1.51306-2.00589-3.39789-2.09238-5.37782l-0.89917-21.36439c-0.39774-9.38959,7.11567-17.2229,16.51392-17.2229
				C42.40034,1.74776,49.90509,9.58107,49.50736,18.97066z"/><path fill="#FFF" d="M34.71196 25.39646c0 0 2.25001-5.76327 7.49337-7.40255 2.83945-.88772 8.00042 1.34135 5.60144 4.67992C44.69903 21.30108 36.70377 27.30186 34.71196 25.39646zM31.28353 25.39646c0 0-2.25001-5.76327-7.49338-7.40255-2.83945-.88772-8.00042 1.34135-5.60144 4.67992C21.29646 21.30108 29.29172 27.30186 31.28353 25.39646z" opacity=".2"/><path fill="#575E85" d="M48.02248 25.39647c1.00526 1.70636.89587 3.73211.19333 5.45797-.70255 1.72586-1.94141 3.21321-3.16541 4.67636M17.97301 25.39647c-1.00525 1.70636-.89587 3.73211-.19333 5.45797.70254 1.72586 1.94141 3.21321 3.16541 4.67636"/><path fill="#172540" d="M37.3938,36.06683c-0.23828-0.33691-0.70508-0.41699-1.0459-0.18066
				c-0.33789,0.23926-0.41895,0.70703-0.18066,1.0459c0.03717,0.05151,0.7724,1.13031,0.10217,2.19843
				c-0.00909-0.0379-0.00671-0.07629-0.02209-0.11346c-0.1582-0.38281-0.59766-0.56152-0.97949-0.40723
				c-0.11328,0.04688-0.22461,0.08105-0.33398,0.11621c-0.40234,0.12695-0.90332,0.28516-1.34082,0.81836
				c-0.10742,0.13086-0.25391,0.22266-0.41797,0.2627h-0.35449c-0.16406-0.04004-0.31055-0.13184-0.41797-0.26367
				c-0.4375-0.53223-0.9375-0.69043-1.33984-0.81738c-0.10938-0.03516-0.22168-0.06934-0.33398-0.11621
				c-0.38184-0.1543-0.8213,0.02344-0.98047,0.40625c-0.01508,0.03656-0.01276,0.07434-0.02179,0.11163
				c-0.64178-1.02618,0.01068-2.06274,0.10382-2.19952c0.23633-0.33789,0.1543-0.80371-0.18262-1.04199
				c-0.34082-0.24023-0.80664-0.15723-1.0459,0.18066c-0.62695,0.89063-1.32031,3.01367,0.54492,4.67969
				c0.30818,0.27464,0.78119,0.24995,1.05957-0.05957c0.15503-0.17432,0.20416-0.39874,0.17139-0.61255
				c0.0777,0.02667,0.15662,0.05737,0.23291,0.0813c0.33203,0.10547,0.48438,0.15918,0.63184,0.33789
				c0.34668,0.4248,0.83496,0.70898,1.375,0.80273c0.04297,0.00684,0.08496,0.01074,0.12793,0.01074h0.50488
				c0.04297,0,0.08496-0.00391,0.12793-0.01074c0.54004-0.09375,1.02832-0.37793,1.375-0.80176
				c0.14746-0.17969,0.30078-0.2334,0.63184-0.33887c0.07648-0.02399,0.15515-0.05475,0.23291-0.08148
				c-0.03284,0.21387,0.0163,0.43835,0.17139,0.61273c0.27826,0.30938,0.75126,0.33433,1.05957,0.05957
				C38.71411,39.0805,38.02075,36.95745,37.3938,36.06683z"/><path fill="#FFF" d="M38.63063,46.35631v0.08644c0,1.79839-11.26577,1.79839-11.26577,0v-0.08644
				c0.70033-0.64845,1.99723-1.54768,3.66591-1.36609c0.51014,0.05187,1.45253,0.55336,1.96267,0.55336
				c0.51009,0,1.46118-0.50149,1.96262-0.55336C36.6334,44.80864,37.9303,45.70786,38.63063,46.35631z"/><path fill="#172540" d="M32.99829,48.54144c-2.91211,0-6.38379-0.36426-6.38379-2.09863
				c0-0.20898,0.08691-0.49512,0.24121-0.6377c0.8623-0.79785,2.33984-1.77441,4.25586-1.55957
				c0.32227,0.03223,0.68555,0.16406,1.06934,0.30371c0.25,0.0918,0.66895,0.24414,0.8125,0.24414
				c0.14551,0,0.56934-0.1543,0.82324-0.24609c0.38184-0.13867,0.74121-0.26953,1.0625-0.30273
				c1.87891-0.2041,3.39844,0.76172,4.26074,1.56055c0.1543,0.14258,0.24121,0.3418,0.24121,0.55078
				C39.3811,48.17718,35.90942,48.54144,32.99829,48.54144z M28.40845,46.47113c0.66406,0.26172,2.21387,0.57031,4.58984,0.57031
				c2.375,0,3.92383-0.30859,4.58887-0.57031c-0.64355-0.45605-1.52148-0.85254-2.5498-0.73438
				c-0.1416,0.01367-0.45605,0.12793-0.70801,0.21973c-0.45605,0.16602-0.92676,0.33691-1.33594,0.33691
				c-0.4082,0-0.87402-0.16992-1.32617-0.33398c-0.25391-0.09277-0.57031-0.20801-0.71191-0.22266
				C29.87524,45.62054,29.05005,46.01605,28.40845,46.47113z"/><path fill="#172540" d="M39.81763 46.54535c-.0791-.10742-1.95117-2.61523-4.93945-2.2998-.49055.05417-1.6189.5459-1.88086.5459-.28072 0-1.31844-.4839-1.87988-.5459-2.98438-.31055-4.86133 2.19238-4.94043 2.2998-.24512.33398-.17383.80371.16016 1.04883.26308.19395.61209.21166.92078-.05273.56781.39935 1.35779.57111 1.71204.64648 1.07129.22754 2.50195.35254 4.02832.35254 2.14587 0 4.59131-.19952 5.73102-.99713.25842.22461.63873.26349.92815.05084C39.99048 47.34906 40.06274 46.87933 39.81763 46.54535zM28.40509 46.47107c.62286-.44464 1.49957-.85187 2.55023-.73334.4213.04419 1.33888.55371 2.04199.55371.68815 0 1.65744-.51327 2.04297-.55371 1.03845-.11914 1.91803.28943 2.54474.73541-.67651.27502-2.2525.56732-4.58673.56732C30.65741 47.04046 29.07874 46.7467 28.40509 46.47107zM30.4729 51.69867c-.58887 0-1.16797-.14063-1.7168-.41895-.36914-.18848-.5166-.63965-.3291-1.00879s.64063-.51465 1.00879-.3291c.60645.30957 1.25098.33984 1.91992.08691 1.11914-.41992 2.24316-.43652 3.25293-.0498.68457.26172 1.34277.23828 1.95117-.07031.36816-.18848.82129-.04199 1.00781.32813.18848.36914.04102.82031-.32813 1.00781-.98633.50293-2.08398.5498-3.16699.13477-.6748-.25684-1.40918-.23926-2.18848.05371C31.41431 51.6098 30.94067 51.69867 30.4729 51.69867z"/><path fill="#FFF" d="M40.67688 39.59442c.53771 2.13856.484 4.38266.25681 6.57605 1.12607-1.24991 1.84507-2.86082 2.02353-4.53368.17846-1.67286-.18454-3.39919-1.02159-4.85852.83621.0211 1.67669-.2701 2.3206-.80403-1.45638-.57883-2.86734-1.27188-4.21566-2.0707-.36789-.21796-.7353-.44572-1.14161-.57899s-.86348-.16419-1.25354.01105c-.41981.18862-.77263.61813-.37452.97646.38314.34485.80446.6226 1.16144 1.00481.71641.76706 1.27704 1.67259 1.69085 2.63506C40.35163 38.48326 40.53586 39.03357 40.67688 39.59442zM25.31861 39.59442c-.53771 2.13856-.484 4.38266-.25681 6.57605-1.12607-1.24991-1.84507-2.86082-2.02353-4.53368-.17846-1.67286.18454-3.39919 1.02159-4.85852-.83621.0211-1.67669-.2701-2.3206-.80403 1.45638-.57883 2.86734-1.27188 4.21566-2.0707.36789-.21796.7353-.44572 1.14161-.57899.40631-.13327.86348-.16419 1.25354.01105.41981.18862.77263.61813.37451.97646-.38314.34485-.80446.6226-1.16144 1.00481-.71641.76706-1.27704 1.67259-1.69085 2.63506C25.64386 38.48326 25.45963 39.03357 25.31861 39.59442z" opacity=".2"/><path fill="#FFF" d="M29.03352 26.15951c0 0-6.95577-3.21462-9.64386-1.66273 0 0 1.91815 2.65641 2.90978 2.96521C23.93662 27.97181 29.03352 26.15951 29.03352 26.15951zM36.96197 26.15951c0 0 6.95578-3.21462 9.64386-1.66273 0 0-1.91815 2.65641-2.90979 2.96521C42.05887 27.97181 36.96197 26.15951 36.96197 26.15951z"/><path fill="#172540" d="M30.94946 24.84027c-1.0918.23145-2.35547.03613-3.86328-.60254-1.36304-.57658-2.58197-1.32837-4.02344-1.89551-1.79688-.70557-3.41699-.85303-4.81543-.43652-.39746.11816-.62305.53613-.50488.93311.11719.39697.53418.62451.93262.50439.72424-.21564 1.55792-.20697 2.47498-.00952-.85712.02478-1.57947.19226-2.13513.51343-.18359.10645-.31445.28516-.3584.49219-.04395.20801.00096.42383.125.59668.48438.66992 2.15332 2.88574 3.29492 3.24219.26855.08398.58594.125.96973.125.00098 0 0 0 .00098 0 2.17383 0 6.07227-1.37793 6.2373-1.43652.21375-.07635.37708-.24341.45258-.4494.09521.00415.19385.01776.28766.01776.42676 0 .83887-.04297 1.2373-.12793.40527-.08691.66406-.48535.57715-.88965C31.7522 25.01214 31.35571 24.7514 30.94946 24.84027zM23.04614 26.80316c-.2832 0-.44141-.03125-.52344-.05664-.34766-.1084-1.15625-.94922-1.90039-1.87305.22168-.0332.46777-.0498.73633-.0498 1.72461 0 3.92676.67871 5.4707 1.24902C25.60181 26.42816 24.06274 26.80316 23.04614 26.80316zM47.74829 21.9057c-1.39648-.41748-3.01758-.27002-4.81543.43652-.77637.30518-1.51758.6792-2.23438 1.04102-.61133.30859-1.18848.59961-1.79004.85449-1.50684.63867-2.77051.83398-3.8623.60254-.40625-.08984-.80371.17188-.88965.57715-.08691.4043.17188.80273.57715.88965.39941.08496.81055.12793 1.2373.12793.09381 0 .19244-.01361.28766-.01776.0755.20599.23883.37305.45258.4494.16504.05859 4.06445 1.43652 6.23828 1.43652.38379 0 .70117-.04102.9707-.125 1.14063-.35645 2.80957-2.57227 3.29395-3.24219.12402-.17285.16895-.38867.125-.59668-.04395-.20703-.1748-.38574-.3584-.49219-.55573-.32117-1.27808-.48871-2.13544-.51343.91656-.19745 1.74969-.20612 2.47528.00952.39844.12012.81445-.1084.93262-.50439C48.37134 22.44183 48.14575 22.02386 47.74829 21.9057zM43.47388 26.74652c-.08301.02539-.24121.05664-.52441.05664-1.01563 0-2.55469-.37598-3.78418-.73047 1.54395-.57031 3.74512-1.24902 5.47168-1.24902.26855 0 .51367.0166.73535.0498C44.63208 25.78851 43.81567 26.6391 43.47388 26.74652z"/><path fill="#A3C8EA" d="M34.73125,11.60421v3.98587h4.19336l-5.93117,8.12725l-5.92257-8.12725h4.20197v-3.98587h-5.47291
				V3.39913c1.08941-0.5274,2.24795-0.94239,3.45842-1.21907V8.1458h7.4788V2.1714c1.21046,0.27668,2.36901,0.69167,3.45842,1.21907
				v8.21374H34.73125z"/><path fill="#172540" d="M39.09998,2.09997C37.1127,1.35065,34.94658,1,33,1c-2.14872,0-4.25174,0.40807-6.09003,1.08997
				C12.29999,4.92999,1.25,17.82001,1.25,33.25C1.25,50.34761,15.06147,65,33,65c17.59747,0,31.75-14.32372,31.75-31.75
				C64.75,17.82995,53.69995,4.94,39.09998,2.09997z M63.25,33.25c0,7.77997-2.95001,14.87-7.79004,20.23999l-0.35999-0.03998
				c-3.16003-0.35004-6.14001-0.68005-8.44-2.53003c-0.75-0.59998-1.26001-1.38-1.59998-2.28003
				c0.23999-0.28998,0.47998-0.57996,0.70996-0.85999c1.29879-1.56435,2.18543-2.40046,2.94-4.29999
				c0.38-0.97998,0.60004-2.02997,0.65002-3.10999L50.25995,19c0.20001-4.75-1.5-9.25-4.78998-12.67999
				c-0.19-0.20001-0.39001-0.39001-0.59003-0.58002c-0.19995-0.19-0.39996-0.37-0.60999-0.54999
				C55.38995,9.65997,63.25,20.54999,63.25,33.25z M18.13995,40.29998l-0.32507-7.716
				c0.72577,1.23053,1.64368,2.33801,2.5451,3.41559v9.6004l-0.31-0.37c-0.73004-0.87-1.26001-1.87-1.58002-2.94
				C18.27997,41.63995,18.16998,40.97998,18.13995,40.29998z M37.44995,16.33996L32.98999,22.44l-4.44-6.10004h3.46997v-5.48999
				h-5.46997V3.88c0.10036-0.03349,1.28988-0.55354,1.95996-0.73004c0,0.14995,0,5.85069,0,5.75h8.98004c0-0.21471,0-5.89944,0-5.75
				c0.64658,0.16168,0.93407,0.32557,1.95996,0.72003v6.97998h-5.46997v5.48999H37.44995z M35.98999,2.78998
				c0,0.31553,0,4.71422,0,4.60999h-5.98004v-4.25V2.78998C32.07496,2.3855,34.22082,2.42147,35.98999,2.78998z M25.04999,4.65997
				v7.69h5.46997v2.48999h-4.91998l7.39001,10.15003l7.40997-10.15003h-4.91998v-2.48999h5.46997V4.64996
				c1.23468,0.7287,2.46114,1.68421,3.44,2.71002c3,3.13,4.54999,7.23999,4.37,11.58002l-0.2486,5.90002
				c-0.23651-0.20746-0.58228-0.25867-0.86951-0.0896c-0.35645,0.21094-0.47559,0.66992-0.26563,1.02734
				c0.78809,1.33691,0.84082,3.08398,0.14551,4.79395c-0.58215,1.42719-1.58142,2.70868-2.60535,3.94348
				C42.90521,32.9035,36.27393,27.81,33.04999,27.81c-3.263,0-9.98651,5.18701-11.93604,6.74725
				c-1.03607-1.24762-2.05133-2.54211-2.64008-3.98456c-0.69531-1.71094-0.64258-3.45801,0.14551-4.79492
				c0.20996-0.35742,0.09082-0.81641-0.26563-1.02734c-0.2868-0.16791-0.62933-0.11908-0.86536,0.08478L17.23999,18.94
				c-0.19-4.33002,1.37-8.45001,4.37-11.58002C22.64273,6.28589,23.8495,5.34593,25.04999,4.65997z M47.31,42.92999
				c-0.37628,0.96124-0.91307,1.79626-1.59003,2.57001v-9.6026c0.87616-1.04779,1.76166-2.12555,2.46545-3.32092l-0.32544,7.72351
				C47.81952,41.22979,47.63242,42.08352,47.31,42.92999z M21.85999,38.21997V35.88C24.37,33.84997,30.52997,29.31,33.04999,29.31
				c2.51001,0,8.65997,4.53998,11.16998,6.57001v2.38995v9.03003c-1.2124,1.4719-2.8144,3.37727-3.69,4.53998
				c-2.59998,3.42004-4.66998,3.07001-6.38,2.94c-1.04355-0.07819-1.22562-0.08178-2.28998,0
				c-0.39001,0.03003-0.79004,0.06-1.21002,0.06c-1.42999,0-3.16998-0.35999-5.17999-3
				c-0.83337-1.10662-3.47796-4.28765-3.60999-4.44V38.21997z M21.72998,5.19C21.51996,5.36999,21.31995,5.54998,21.12,5.73999
				c-0.20001,0.17999-0.40002,0.38-0.59003,0.58002C17.23999,9.75,15.53998,14.26001,15.73999,19l0.89996,21.36999
				c0.02002,0.52997,0.09003,1.06,0.20001,1.58002c0.22484,1.06293,0.51148,1.68572,0.77002,2.25
				c0.33997,0.70996,0.76996,1.37994,1.28998,1.98999l1.41998,1.69995c0.20001,0.25,0.41003,0.49005,0.62,0.75
				c-0.33997,0.90002-0.84998,1.69-1.60999,2.29004c-2.28998,1.83997-5.25,2.16998-8.39996,2.51001l-0.39001,0.03998
				C5.68994,48.11999,2.75,41.01995,2.75,33.25C2.75,20.54999,10.62,9.65997,21.72998,5.19z M33,63.5
				c-8.52458,0-16.23857-3.73857-21.15002-8.65002c2.97998-0.33002,6-0.81,8.41998-2.75
				c0.77002-0.60999,1.33002-1.34998,1.73999-2.17999c0.91003,1.10999,1.76001,2.15997,2.27002,2.83002
				c2.41998,3.17999,4.66998,3.58997,6.37,3.58997c0.45001,0,0.90002-0.02997,1.32001-0.06c0.71002-0.06,1.34998-0.06,2.06,0
				c0.42999,0.03003,0.87,0.06,1.33002,0.06c1.69,0,3.95001-0.40997,6.37-3.58997c0.5-0.67004,1.34998-1.71002,2.26001-2.82001
				c0.40997,0.82001,0.96997,1.54999,1.72998,2.15997c2.41998,1.95001,5.45001,2.42004,8.42999,2.76001
				c-0.04836,0.04836-0.79908,0.7795-0.85999,0.81C48.28819,60.26122,41.06456,63.5,33,63.5z"/></svg>