<svg xmlns="http://www.w3.org/2000/svg" enable-background="new 0 0 66 66" viewBox="0 0 66 66"><path fill="#3590CE" d="M63.9977,33.25552c0,17.11822-13.87907,30.99728-30.99729,30.99728
				c-17.12365,0-31.00271-13.87907-31.00271-30.99728c0-17.12365,13.87907-31.00272,31.00271-31.00272
				C50.11864,2.2528,63.9977,16.13186,63.9977,33.25552z"/><path fill="#575E85" d="M57.93884,51.67348c-5.65002,7.63-14.72003,12.58002-24.94,12.58002
				c-10.22003,0-19.28998-4.95001-24.94-12.58002c5.64001-7.64001,14.71002-12.59003,24.94-12.59003
				S52.29883,44.03347,57.93884,51.67348z"/><path fill="#575E85" d="M50.59743 19.35251v17.93331c0 1.79751-.60057 3.54349-1.70634 4.96065l-6.93848 8.89237c-1.5281 1.95842-3.87352 3.10327-6.35757 3.10327h-5.19466c-2.48405 0-4.82947-1.14485-6.35757-3.10327l-6.93848-8.89237c-1.10577-1.41716-1.70634-3.16314-1.70634-4.96065V19.35251c0-9.72005 7.87966-17.59971 17.59972-17.59971h.00003C42.71777 1.7528 50.59743 9.63246 50.59743 19.35251zM15.40374 30.0028c-.07466 1.70183 1.19513 4.89171 2.46497 7.62274M50.59166 30.0028c.07467 1.70183-1.19512 4.89171-2.46497 7.62274"/><path fill="#D6EBF7" d="M44.94923,34.49997c-1.55813-1.09776-4.3114-1.22172-4.3114-1.22172
				c2.90375,4.74519,3.60312,11.10162,3.76252,14.73138l-2.44343,3.12508c-1.5316,1.96539-3.87761,3.1074-6.3653,3.1074h-5.18789
				c-2.48769,0-4.83369-1.14201-6.36524-3.1074l-2.76218-3.55006c0.18593-3.69168,0.94728-9.73828,3.73599-14.3064
				c0,0-2.75327,0.12395-4.3114,1.22172l-5.30293-9.73828l5.97576-8.08278l0.30983,4.53272l7.31257,4.9931l3.83336-3.55892
				l3.82449,3.55892l7.32138-4.9931l0.30103-4.53272l5.97576,8.08278L44.94923,34.49997z"/><path fill="#F0523C" d="M21.32745 23.68724l8.65978 6.05481c0 0-10.10248 5.31712-11.17973-4.57935-.07567-.69516.32504-1.35988.96777-1.63534l0 0C20.28551 23.30869 20.87251 23.36915 21.32745 23.68724zM44.32267 23.68724l-8.65978 6.05481c0 0 10.10248 5.31712 11.17973-4.57935.07567-.69516-.32504-1.35988-.96777-1.63534v0C45.36462 23.30869 44.77762 23.36915 44.32267 23.68724z"/><path fill="#FFF" d="M39.94677,43.56421v0.12348c0,2.56911-14.24341,2.56911-14.24341,0v-0.12348
				c0.88543-0.92635,2.52512-2.21095,4.63485-1.95154c0.64497,0.0741,1.83645,0.7905,2.48142,0.7905
				c0.64491,0,1.84739-0.7164,2.48135-0.7905C37.42165,41.35327,39.06134,42.63786,39.94677,43.56421z"/><path fill="#172540" d="M39.39001,2.156c0,0-0.01001-0.01001-0.01996,0c-4.04784-1.53324-8.68613-1.53554-12.74005,0
					c-0.00995-0.01001-0.01996,0-0.01996,0C12.15002,5.11602,1.25,17.93603,1.25,33.25604c0,7.00995,2.29004,13.5,6.16003,18.75995
					c0.86675,3.467,13.07162,13.31361,26.79999,12.97003c9.68269-0.44048,18.29465-4.73474,24.33002-12.86999
					c0.02002-0.03003,0.03998-0.06,0.04999-0.10004c3.87-5.25995,6.15997-11.75,6.15997-18.75995
					C64.75,17.93603,53.85004,5.11602,39.39001,2.156z M63.25,33.25604c0,6.35999-1.96997,12.26996-5.33997,17.13995
					c-2.40002-3.02997-5.32001-5.57001-8.57001-7.51001l0.14001-0.17999c3.12035-4.00435,1.3774-7.31459,1.87-23.34998
					c0-5.53003-2.46002-10.48999-6.34003-13.85999C55.73004,10.14599,63.25,20.846,63.25,33.25604z M45.02002,45.98602
					c-0.32517-3.93559-1.20542-8.24372-3.01001-11.78003c4.61036,0.84349,1.66149,3.95949,7.84003-7.13995v2.78998
					c-0.01001,0.06-0.01001,0.12-0.01001,0.17999c0.06,1.25-0.78998,3.83002-2.39001,7.27002
					c-0.42811,0.90384,0.92797,1.53736,1.36005,0.63995c0.38995-0.84998,0.73999-1.63995,1.03998-2.37994
					c-0.10528,0.94559,0.48825,3.61109-1.54999,6.21997l-0.27002,0.34998C47.95174,42.23612,44.82183,46.23952,45.02002,45.98602z
					 M17.70001,41.78601c-2.05649-2.63224-1.44726-5.28915-1.54999-6.21002c0.654,1.59156,1.06527,3.17304,2.03998,2.73004
					c0.37006-0.17004,0.53003-0.62,0.36005-1c-1.56-3.34003-2.40002-5.88-2.40002-7.16003v-0.14996v-2.29004
					c5.76487,10.34092,2.93468,7.33342,7.48999,6.5c-1.75336,3.4381-2.63991,7.57461-2.96997,11.39001
					C20.59094,45.49452,17.62092,41.68451,17.70001,41.78601z M38.99005,3.60601c6.33997,2.41998,10.85999,8.57001,10.85999,15.75
					v3.59998L44.88,16.23602c-0.19-0.26001-0.50995-0.37-0.81-0.28003c-0.31,0.09003-0.51996,0.36005-0.53998,0.67004
					L43.25,20.79602l-6.51996,4.45001L33.34003,22.096c-0.28998-0.27002-0.72998-0.27002-1.02002,0l-3.38995,3.15002
					l-6.52002-4.45001l-0.28998-4.16998c-0.02002-0.31-0.23004-0.58002-0.54004-0.67004c-0.29999-0.08997-0.62,0.02002-0.81,0.28003
					l-4.62,6.25v-3.13c0-7.17999,4.52002-13.33002,10.85999-15.75C30.78406,2.82781,35.00068,2.78341,38.99005,3.60601z
					 M25.66003,32.89599c-0.14001-0.23999-0.41003-0.39996-0.67999-0.37c-0.10999,0.01001-2.29004,0.12-3.98999,0.94
					l-4.70001-8.64001l4.46997-6.06l0.17999,2.5c0.01001,0.23004,0.13,0.44,0.32001,0.56l7.31,5
					c0.29004,0.20001,0.67999,0.17004,0.94-0.06995l3.32001-3.09003l3.31,3.09003c0.26001,0.23999,0.65002,0.26996,0.94,0.06995
					l7.32001-5c0.19-0.12,0.31-0.33997,0.32001-0.56l0.16998-2.5l4.47003,6.06L44.66003,33.466
					c-1.70001-0.82001-3.88-0.92999-3.98999-0.94c-0.28003-0.02997-0.54004,0.13-0.67999,0.37
					C39.85004,33.13598,39.85004,33.43603,40,33.66601c3.25162,5.33372,3.42158,12.26703,3.64001,14.09998l-2.27997,2.91003
					c-1.39001,1.78998-3.48999,2.82001-5.77002,2.82001h-5.19c-2.27002,0-4.37-1.03003-5.77002-2.82001L22.04004,47.346
					C22.73684,35.72833,26.35708,34.09076,25.66003,32.89599z M20.99005,5.49603c-3.88,3.36999-6.34003,8.32996-6.34003,13.85999
					V29.966v0.16003c0.32634,5.45844-0.96606,8.9531,1.85999,12.57996l0.14001,0.17999c-3.25,1.95001-6.15997,4.48004-8.56,7.51001
					C4.72003,45.526,2.75,39.61602,2.75,33.25604C2.75,20.846,10.27002,10.14599,20.99005,5.49603z M52.23004,56.58599
					c-0.09062,0.13593-1.71548,1.34389-2.73999,2.01001c-5.61823,3.50978-8.41159,4.04197-14.98004,4.87
					c-8.94343,0.53713-19.38478-4.84718-20.73999-6.88c-1.3579-1.07197-3.1893-2.89101-4.75-4.92999
					c2.35999-3.08002,5.28003-5.64001,8.56-7.58002c0.07913,0.10137,6.25849,8.01772,5.87,7.52002
					c1.67999,2.16003,4.21002,3.40002,6.95001,3.40002h5.19c2.39001,0,4.63-0.95001,6.28003-2.63
					c0.12-0.12,0.23999-0.23999,0.34998-0.37c0.20452-0.22159,6.26828-8.02022,6.19-7.92004
					c3.27997,1.94,6.21002,4.5,8.57001,7.58002C55.41504,53.70061,53.57671,55.5229,52.23004,56.58599z"/><path fill="#172540" d="M30.74005 29.78601C30.75 29.526 30.63 29.276 30.42004 29.12603l-8.66003-6.05005c-.65997-.45996-1.53998-.54999-2.27997-.23999-.95001.41003-1.53003 1.40002-1.41998 2.41003.77927 7.15659 6.48719 8.05636 12.27997 5.15997C30.57001 30.28601 30.72003 30.04602 30.74005 29.78601zM24.51001 30.41601c-2.94 0-4.57001-1.73999-4.95996-5.33002-.04004-.37.17999-.71997.51996-.87.11005-.04999.22003-.07001.34003-.07001.16998 0 .33997.04999.48999.16003l7.56 5.27997C27.47003 29.966 25.99005 30.41601 24.51001 30.41601zM35.31006 30.406c.12.06 2.90997 1.51001 5.82996 1.51001 2.60999 0 5.85004-1.15997 6.45001-6.66998.10999-1.01001-.47998-2-1.41998-2.41003-.73999-.32001-1.62-.22998-2.28003.23999l-8.65997 6.05005c-.21002.14996-.33002.39996-.32001.65997C34.93005 30.04602 35.08002 30.28601 35.31006 30.406zM44.75 24.30603c.24005-.17004.56006-.21002.83002-.09003.34003.15002.56.5.52002.87-.39001 3.59003-2.02002 5.33002-4.96002 5.33002-1.47998 0-2.95996-.45001-3.95001-.83002L44.75 24.30603zM25.56006 44.91412v.00189c2.84862 1.90295 12.05619 2.0024 14.52997 0 .0014-.0014.00171-.0014.00275-.00275.5865.7714 1.73918-.05326 1.21997-.85291-1.4908-2.27653-4.46759-3.91201-6.94934-2.94519-1.87156.7121-1.24376.69672-3.07745-.00031-3.35346-1.30584-8.35675 2.91553-6.73004 3.98163C24.88898 45.31573 25.32434 45.22735 25.56006 44.91412zM32.82001 43.156c1.59782 0 3.18367-2.26717 6.27466.6286-1.59772 1.47888-11.04953 1.36243-12.53522.00208C29.60658 40.9572 31.39469 43.156 32.82001 43.156zM29.42004 37.596c-.75-1.10999-.02002-2.23999.07996-2.38.23004-.33997.15002-.79999-.17999-1.03998-.33997-.23999-.81-.16003-1.04999.17999-2.33897 3.29068 1.79004 6.70467 1.79004 4.10999.00995.01001.00995.01001.01996.01001.47029.15687.73137.20222.94.45001.4322.52826 1.12803.83997 1.54004.83997 2.18737-.03568 1.22894-.74901 3.02997-1.28998-.10595.46622.25213.90002.72998.90002.9318 0 2.72454-2.63802 1.06-5.02002-.23999-.34003-.69995-.41998-1.03998-.17999-1.06906.72307 1.02314 1.75299-.10999 3.42999-.196-1.1748-2.09032-.43357-2.76001.37-.32922.41161-.69843.26404-.83002.28998-.55355-.12295-.44007-.69667-1.83997-1.13-.11005-.03998-.23004-.06995-.35004-.12C30.00739 36.8344 29.50443 37.09018 29.42004 37.596z"/></svg>