<svg xmlns="http://www.w3.org/2000/svg" enable-background="new 0 0 66 66" viewBox="0 0 66 66"><path fill="#3590CE" d="M63.99793,32.99976c0,17.11822-13.87907,30.99729-30.99729,30.99729
				c-17.12365,0-31.00271-13.87907-31.00271-30.99729c0-17.12365,13.87907-31.00271,31.00271-31.00271
				C50.11886,1.99705,63.99793,15.87611,63.99793,32.99976z"/><path fill="#27B14B" d="M49.10736,53.01344c-2.81086-3.07906-4.52103-7.09701-4.54286-11.44028
				c-0.00027-0.0515-0.00044-0.103-0.00044-0.15451H21.43972L21.43937,41.568c-0.02112,4.34754-1.73476,8.36959-4.55088,11.45017
				c2.74804,2.14846,8.91936,3.64835,16.1061,3.64835C40.18676,56.66651,46.36235,55.16449,49.10736,53.01344z"/><path fill="#D6EBF7" d="M53.31794,56.4171c-5.44,4.71997-12.54999,7.57996-20.32001,7.57996s-14.88001-2.85999-20.32001-7.57996
				c1.58002-0.92004,2.98999-2.08002,4.21002-3.40002c2.75,2.15997,8.91998,3.64001,16.12,3.64001
				c7.17999,0,13.34998-1.5,16.09998-3.64001C50.32795,54.33708,51.73792,55.49705,53.31794,56.4171z"/><path fill="#444A88" d="M51.1925,30.24752c-0.58456,2.93485-1.14532,5.08226-1.14532,5.08226L32.999,43.22755l-17.03631-7.89776
				c0,0-3.96082-14.99623-1.80147-19.74441C16.10584,11.3263,24.25001,2.1043,32.999,2.1043
				c6.16787,0,16.58289,8.53003,18.8377,13.48107C53.17287,18.53217,52.15884,25.4397,51.1925,30.24752z"/><path fill="#27B14B" d="M49.3067 29.12667c2.07603-1.48529 3.75115-4.6541 7.90412-6.46381 0 0-4.31437 9.81908-4.1506 13.06131.11108 2.19922.26666 5.22992-5.14506 7.14919l-2.33677-.7564.67171-11.87586C46.25011 30.24109 48.64521 29.59993 49.3067 29.12667zM16.68915 29.12667c-2.07604-1.48529-3.75115-4.6541-7.90412-6.46381 0 0 4.31437 9.81908 4.1506 13.06131-.11108 2.19922-.26666 5.22992 5.14506 7.14919l2.33676-.7564-.67171-11.87586C19.74575 30.24109 17.35064 29.59993 16.68915 29.12667z"/><path fill="#27B14B" d="M45.20891,19.45474c2.51086-0.60978,4.88005,1.41655,4.68189,3.99279l-0.42656,5.54545l-1.50486,12.61909
				c-0.08832,0.86603-0.35292,1.70119-0.77789,2.46093c-1.71249,3.06155-6.40774,11.12068-8.96128,12.20528
				c-1.20863,0.51266-3.90672,0.45818-5.22519,0.45818c-1.30631,0-4.01663,0.05448-5.22526-0.45818
				c-2.54433-1.08488-7.23944-9.14789-8.95047-12.20765c-0.424-0.75821-0.68838-1.5916-0.77716-2.45576l-1.51632-12.6219
				l-0.4211-5.55119c-0.19531-2.57467,2.17307-4.59872,4.68202-3.98865c1.8414,0.44775,3.73441,0.67648,5.64012,0.67648h13.14847
				C41.47882,20.12962,43.36959,19.90143,45.20891,19.45474z"/><path fill="#172540" d="M33,1.25C15.48999,1.25,1.25,15.48999,1.25,33c0,17.42999,14.17999,31.75,31.75,31.75
				c0.01001,0,0.01001,0,0.02002,0C50.56,64.73999,64.75,50.45001,64.75,33C64.75,15.48999,50.51001,1.25,33,1.25z M48.69,41.76001
				c0.01001-0.02002,0.01001-0.04004,0.01001-0.06c0.01238-0.10359,1.48206-12.40033,1.47003-12.29999
				c0.72301-0.56242,1.97514-1.97521,2.35999-2.36005c0.89001-0.92999,1.88-1.88995,3.16998-2.71997
				c-1.27002,3.08997-3.51001,8.95001-3.39001,11.44C52.41003,37.78997,52.53003,40.05999,48.69,41.76001z M18.02002,52.89001
				c-0.01001,0-0.01001,0-0.02002-0.01001c1.08002-1.29999,1.97003-2.71002,2.64001-4.22003
				c1.51001,2.46002,3.22998,5.01001,4.76001,6.65002C23.28357,54.86916,20.05635,54.24757,18.02002,52.89001z M40.60004,55.29998
				c1.52997-1.64996,3.25-4.17999,4.75995-6.64001c0.67004,1.51001,1.56006,2.92999,2.63,4.22003
				C46.11797,54.1026,42.82923,54.92864,40.60004,55.29998z M44.67999,46.89001c-1.09266,1.82109-4.99345,8.24123-7.03998,8.79999
				c-1.47998,0.14996-3.03998,0.21997-4.63,0.21997c-1.59998,0-3.16998-0.07996-4.65997-0.21997
				c-0.11005-0.03003-0.20001-0.06-0.29004-0.10004c-2.26694-0.97653-9.02904-11.63746-9.26996-14.06
				c-0.01214-0.10058-1.62291-13.44178-1.52002-12.58996c-0.00775-0.10239-0.44764-5.91552-0.41998-5.54999
				c-0.14925-2.16415,1.82664-3.67984,3.75995-3.21002c1.90002,0.46002,3.86005,0.70001,5.82001,0.70001h13.15002
				c1.95001,0,3.90002-0.22998,5.81-0.70001c2.00257-0.48662,3.9179,1.14739,3.75,3.21002
				c-0.0078,0.10239-0.44228,5.1825-0.59003,6.90997c-0.31881,2.66197-1.37826,11.53152-1.37994,11.53998
				c-0.07001,0.5-0.22003,0.98004-0.43005,1.44c-0.14291,0.35736-0.86409,1.57689-1.00995,1.82001
				C45.38,45.71997,45.03003,46.32,44.67999,46.89001z M10.29999,24.32001c2.57458,1.66945,3.90512,3.74983,5.52002,5.08002
				c0.01205,0.10038,0.9071,7.55525,0.85004,7.07995L17.29999,41.69c0,0.02002,0,0.04999,0.01001,0.07001
				c-3.83997-1.70001-3.71997-3.97003-3.63-6C13.81,33.27002,11.56,27.40002,10.29999,24.32001z M51.13,26.33996
				c-0.18793,0.21144-0.04999,0.05785-0.77002,0.82001l0.28003-3.64996c0.24123-3.11271-2.63353-5.50558-5.60999-4.78003
				C43.25,19.15997,41.41003,19.38,39.58002,19.38H26.42999c-1.83997,0-3.67999-0.22003-5.46997-0.66003
				c-2.94577-0.70402-5.84365,1.6609-5.60004,4.78003l0.28003,3.65002c-0.24526-0.2317-0.50927-0.5393-0.76001-0.79004
				c-0.64001-4.15997-0.95001-8.45996-0.03998-10.45996C16.54004,12.17999,24.42999,2.84997,33,2.84997
				c5.92999,0,16.08002,8.48999,18.15002,13.05005C51.94,17.61999,51.92004,21.27002,51.13,26.33996z M2.75,33
				C2.75,19.39001,11.78003,7.85998,24.16003,4.07c-5.36005,3.21997-9.44,8.47998-10.67999,11.20001
				C12.56,17.28998,12.66003,20.94,13.10999,24.59997c-1.06-0.95996-2.35999-1.89996-4.02997-2.62
				C8.79999,21.84997,8.47003,21.90997,8.25,22.13c-0.20996,0.21997-0.27997,0.54999-0.14996,0.83002
				C9.28003,25.65002,12.31,33.16998,12.19,35.69c-0.12,2.28998-0.29999,5.75,5.57001,7.85999
				c0.23524,0.66303,0.82471,1.65524,1.91003,3.51001C18.94,49.03997,17.81,50.90002,16.33002,52.51001
				c-0.01001,0.01001-0.02002,0.02997-0.03003,0.03998c-1.06995,1.14001-2.25995,2.12-3.52997,2.91998
				C6.62,49.92999,2.75,41.90997,2.75,33z M33,63.25c-6.82996,0-13.54999-2.31-19.02997-6.76001
				c1.07001-0.71002,2.07996-1.53998,3.01001-2.47998c2.70027,1.71876,6.3922,2.49234,8.42999,2.82001
				c1.22453,0.20676,4.45659,0.65997,6.78998,0.65997h1.59998c0.6335,0,3.5152-0.0376,4.08002-0.32001
				c3.09531-0.30887,9.53574-1.57571,11.13-3.16998c0.92999,0.95001,1.94,1.77997,3.01001,2.48999
				C46.79999,60.73999,40.09003,63.25,33,63.25z M53.22003,55.46997c-1.28003-0.81-2.48999-1.79999-3.56-2.95996
				C48.19,50.90002,47.06,49.03997,46.33002,47.05999c1.08763-1.82568,1.69366-2.8721,1.91998-3.51001
				c5.85004-2.10999,5.67999-5.57001,5.56-7.85999c-0.13-2.52002,2.91003-10.03998,4.09003-12.72998
				c0.12-0.28003,0.06-0.61005-0.16003-0.83002c-0.21997-0.22003-0.54999-0.28003-0.82996-0.15002
				c-1.67004,0.72003-2.96002,1.66003-4.02002,2.62c0.46002-3.70996,0.53998-7.32001-0.37-9.32996
				c-1.59003-3.49005-7.01001-8.72003-12.41998-11.67004C53.37,6.79998,63.25,18.77002,63.25,33
				C63.25,41.90997,59.37,49.92999,53.22003,55.46997z"/><path fill="#172540" d="M37.12341,38.01684c-0.33789,0.23584-0.42188,0.70264-0.1875,1.04248
				c0.12756,0.1853,1.14539,1.7724-0.16333,3.2074c0.06445-0.17181,0.0705-0.36639-0.00562-0.54919
				c-0.1582-0.3833-0.59766-0.56396-0.97949-0.40576c-0.57086,0.23588-1.3116,0.29473-1.95508,1.08008
				c-0.1543,0.18848-0.36719,0.31885-0.60352,0.37207h-0.46191c-0.23633-0.05322-0.44922-0.18359-0.60352-0.37305
				c-0.49609-0.60449-1.0752-0.7876-1.53906-0.93457c-0.13672-0.04297-0.27539-0.08643-0.41602-0.14453
				c-0.38088-0.1582-0.82129,0.02246-0.97949,0.40527c-0.07617,0.18317-0.07007,0.37793-0.00549,0.54987
				c-1.30658-1.43213-0.29474-3.01624-0.16443-3.2066c0.2373-0.33838,0.15527-0.80469-0.18262-1.04297
				c-0.33789-0.23877-0.80664-0.15771-1.04492,0.18115c-0.72754,1.03271-1.53125,3.49609,0.63281,5.4292
				c0.30946,0.27472,0.78233,0.25001,1.05957-0.06006c0.23206-0.26044,0.23743-0.63147,0.05261-0.909
				c0.02094,0.01111,0.0354,0.0296,0.05774,0.03888c0.18066,0.0752,0.36035,0.13281,0.53711,0.18896
				c0.41797,0.13232,0.62793,0.20703,0.83203,0.45557c0.39453,0.48242,0.9502,0.80615,1.56445,0.91113
				c0.08232,0.01436,0.74454,0.0202,0.86035,0c0.61426-0.10498,1.16992-0.42871,1.56445-0.91064
				c0.31091-0.38008,0.76297-0.39408,1.36914-0.64502c0.02234-0.00928,0.03674-0.02771,0.05768-0.03882
				c-0.18469,0.2774-0.17932,0.6485,0.05267,0.90894c0.27684,0.30963,0.74968,0.33517,1.05957,0.06006
				c2.16406-1.93311,1.36035-4.39648,0.63281-5.4292C37.92712,37.86157,37.46326,37.781,37.12341,38.01684z"/><path fill="#FFF" d="M25.44068,46.42825c0,0,1.03735,1.05133,1.65327,2.41416c0,0,1.2952,3.09945,5.90401,3.09945
				s5.90401-3.09945,5.90401-3.09945c0.61592-1.36283,1.65327-2.41416,1.65327-2.41416l0.33701-0.30833
				c0,0-1.52837,1.43792-6.14774,0.4788c-0.34588-0.07182-3.14722-0.07182-3.4931,0c-4.61937,0.95912-6.14774-0.4788-6.14774-0.4788
				"/><path fill="#172540" d="M32.99841 52.69165c-5.05078 0-6.53516-3.41455-6.59668-3.56006-.5459-1.20654-1.48535-2.16699-1.49512-2.17627-.03516-.03564-.06543-.07373-.0918-.11377-.12207-.08252-.19434-.14697-.22461-.17529-.30176-.28418-.31641-.75879-.03223-1.06055.28418-.30225.75879-.31543 1.05957-.03223l0 0c.00098-.00049 1.41113 1.13477 5.48145.29102.44238-.09229 3.35349-.09229 3.79785 0 4.01563.83301 5.43945-.25879 5.49414-.30322.30469-.27197.77148-.25293 1.05078.04834.26563.28564.26563.72363.00977 1.00928 0 0 0 .00049 0 .00098h-.00098c-.01563.01807-.03223.03516-.0498.05127-.00293.00195-.00488.00391-.00684.00586l-.33203.3042 0 0c.00195 0-.93164.96436-1.47656 2.17041C39.53259 49.2771 38.04822 52.69165 32.99841 52.69165zM27.29529 47.62817c.1709.27979.33691.58398.48242.90527.05371.12256 1.20703 2.6582 5.2207 2.6582 4.0127 0 5.16602-2.53564 5.21387-2.64355.14746-.32764.31641-.63721.49021-.92139-1.02048.10742-2.36619.06836-4.11033-.29346-.34766-.05273-2.8418-.05127-3.20215.00244C29.65271 47.69604 28.30994 47.73462 27.29529 47.62817zM45.29333 31.78882c-.22363 0-.44434-.09912-.59277-.28857-.62207-.79834-1.34863-1.51563-2.15723-2.13232-.34668-.26318-.75586-.53955-1.15527-.58936-.33203-.04053-.7168.06006-1.09277.15674l-5.10742 1.3125c-.39648.10107-.80957-.1377-.91309-.54004-.10254-.40088.13867-.80957.54004-.91309l5.10645-1.31201c.46289-.11914 1.03613-.26953 1.65137-.19238.75293.09277 1.37207.49902 1.87891.88379.91211.69531 1.73047 1.50391 2.43262 2.40332.25391.32666.19629.79785-.13086 1.05273C45.61658 31.73706 45.45447 31.78882 45.29333 31.78882z"/><path fill="#FFF" d="M35.82148,33.04272c0,0,1.71515,1.75898,3.83175,1.75898s3.82444-1.75898,3.82444-1.75898
				s-0.54009-1.75893-2.65669-1.75893C38.70442,31.28379,35.82148,33.04272,35.82148,33.04272z"/><path fill="#172540" d="M39.65369 35.55151c-2.40527 0-4.29004-1.9043-4.36914-1.98535-.15918-.16309-.23535-.39063-.20705-.61719.02834-.22656.15823-.42773.35354-.54639.125-.07617 3.08887-1.86865 5.38965-1.86865 2.11328 0 3.13086 1.49707 3.37402 2.28857.08008.26172.01172.54639-.17871.74268C43.93689 33.64624 42.05896 35.55151 39.65369 35.55151zM37.1615 33.16674c.6123.41846 1.51367.88477 2.49219.88477 1.22168 0 2.33203-.73926 2.89648-1.19043-.25195-.36035-.76465-.82715-1.72949-.82715C39.63708 32.03393 38.12439 32.68286 37.1615 33.16674zM20.70249 31.78882c-.16111 0-.32322-.05176-.45994-.15869-.32715-.25488-.38477-.72607-.13086-1.05273.70215-.89941 1.52051-1.70801 2.43262-2.40283.50684-.38525 1.12598-.7915 1.87988-.88428.60254-.07764 1.18652.07275 1.65137.19287l5.10547 1.31152c.40137.10352.64258.51221.54004.91309-.10254.40283-.51367.64307-.91309.54004l-5.10645-1.31201c-.37793-.09717-.76758-.19775-1.09277-.15723-.40039.0498-.80957.32617-1.15627.58984-.80857.61621-1.53513 1.3335-2.1572 2.13184C21.14685 31.6897 20.92615 31.78882 20.70249 31.78882z"/><path fill="#FFF" d="M30.17437,33.04272c0,0-1.71514,1.75898-3.83175,1.75898s-3.82444-1.75898-3.82444-1.75898
				s0.54009-1.75893,2.65669-1.75893C27.29143,31.28379,30.17437,33.04272,30.17437,33.04272z"/><path fill="#172540" d="M26.34216,35.55151c-2.40527,0-4.2832-1.90527-4.3623-1.98633
				c-0.19043-0.19629-0.25879-0.48096-0.17871-0.74268c0.24316-0.7915,1.26074-2.28857,3.37402-2.28857
				c2.30078,0,5.26465,1.79248,5.38965,1.86865c0.19531,0.11865,0.3252,0.31982,0.35352,0.54639s-0.04785,0.4541-0.20703,0.61719
				C30.6322,33.64721,28.74744,35.55151,26.34216,35.55151z M23.44568,32.86255c0.5625,0.45215,1.66797,1.18896,2.89648,1.18896
				c0.97266,0,1.87598-0.46729,2.49023-0.88574c-0.96289-0.48389-2.47461-1.13184-3.65723-1.13184
				C24.2113,32.03393,23.69861,32.49975,23.44568,32.86255z"/></svg>