<svg xmlns="http://www.w3.org/2000/svg" enable-background="new 0 0 66 66" viewBox="0 0 66 66"><path fill="#27B14B" d="M63.99785,33.28109c0,17.11822-13.87907,30.99728-30.99728,30.99728
				c-17.12365,0-31.00272-13.87906-31.00272-30.99728c0-17.12365,13.87907-31.00272,31.00272-31.00272
				C50.11879,2.27837,63.99785,16.15743,63.99785,33.28109z"/><path fill="#F0523C" d="M60.51783,47.55911c-5.16003,9.94006-15.55005,16.71997-27.52002,16.71997
				c-11.97003,0-22.35999-6.77991-27.52002-16.71997c0.42004-0.51001,0.88-0.98999,1.38-1.42993
				c2.20001-1.92993,5.10004-3.04004,6.94-5.31006c1.35004-1.6499,1.97998-3.75,2.59003-5.79004
				c1.38995-4.67993,2.78998-9.36987,4.17999-14.05993H45.4278c1.39001,4.69006,2.78998,9.38,4.17999,14.05993
				c0.60999,2.04004,1.23999,4.14014,2.59003,5.79004c1.83997,2.27002,4.73999,3.38013,6.94,5.31006
				C59.63782,46.56912,60.09778,47.0491,60.51783,47.55911z"/><path fill="#F1AD7E" d="M41.92034,52.32494c-0.08154-0.56738-0.13898-1.1413-0.14252-1.72656v-7.46002h-17.56v7.46002
				c-0.00177,0.58569-0.05823,1.16003-0.13916,1.72784c2.77185,1.05206,5.77991,1.63385,8.91919,1.63385
				C36.13842,53.96007,39.14763,53.3778,41.92034,52.32494z"/><path fill="#3590CE" d="M45.21782 59.27837h.01001c-1.75934-1.92377-2.93048-4.33112-3.3075-6.95343-2.77271 1.05286-5.78192 1.63513-8.92249 1.63513-3.13928 0-6.14734-.58179-8.91919-1.63385-.37378 2.62183-1.55005 5.02869-3.30084 6.95215h-.00995c-.55005.59998-1.15002 1.15997-1.81 1.65002 4.20996 2.13995 8.98999 3.34997 14.03998 3.34997s9.83002-1.21002 14.03998-3.34997C46.38787 60.43834 45.77782 59.87835 45.21782 59.27837zM26.59783 19.20947c0 0-4.77-4.77-6.53666-17.4311 0 0-5.00555 8.77444-1.29556 31.62246M47.23009 33.40083c3.71-22.84802-1.29556-31.62246-1.29556-31.62246-1.76667 12.6611-6.53666 17.4311-6.53666 17.4311"/><path fill="#F1AD7E" d="M47.56495,29.55235c0,0-0.72467,12.56796-2.21503,16.43735
				c-0.87926,2.28281-4.15879,6.79136-6.43333,9.77553c-1.40695,1.8459-3.59461,2.92278-5.91557,2.92278h-0.00001
				c-2.32096,0-4.50862-1.07688-5.91557-2.92278c-2.27454-2.98417-5.55407-7.49272-6.43333-9.77553
				c-1.49035-3.8694-2.21498-16.43739-2.21498-16.43739c-0.63465-8.47205,6.06811-15.69569,14.56389-15.69569h0.00003
				C41.49686,13.85661,48.19962,21.08028,47.56495,29.55235z"/><path fill="#FFF" d="M36.26558 33.56703c0 0 5.38569 2.2985 7.70672-3.15482C42.03436 31.24599 37.84298 28.33907 36.26558 33.56703zM29.73652 33.56703c0 0-5.38569 2.2985-7.70672-3.15482C23.96774 31.24599 28.15912 28.33907 29.73652 33.56703z"/><path fill="#3590CE" stroke="#172540" stroke-linecap="round" stroke-linejoin="round" stroke-miterlimit="10" stroke-width="1.5" d="
				M32.99949,13.85484c-8.49091,0-15.19379,7.22707-14.56652,15.69918c0,0,0.22467,3.89454,0.69274,8.02289
				c1.45103,2.18131,3.58548,3.87569,6.38457,5.12073c0,0,5.07393-6.1131,7.48922-6.1131c2.41529,0,7.48922,6.1131,7.48922,6.1131
				c2.79908-1.24504,4.93348-2.93942,6.38456-5.12073c0.46807-4.12835,0.69275-8.02289,0.69275-8.02289
				c0.02805-0.37437,0.03743-0.74885,0.03743-1.11397C47.60344,20.45465,41.12528,13.85484,32.99949,13.85484z M26.29661,36.99649
				c-3.09866-0.03737-4.55906-4.18457-5.04582-7.24581l-0.08428-0.54293l2.19062-2.74298
				c1.74123,0.60852,3.29522,1.61953,4.53094,2.93016c1.2451,1.30127,2.17188,2.90205,2.69612,4.67139
				C30.5842,34.06633,27.56045,37.01524,26.29661,36.99649z M44.73882,29.75069c-0.47745,3.06124-1.94721,7.20844-5.04588,7.24581
				c-1.25441,0.01874-4.27816-2.93016-4.27816-2.93016c0.52424-1.76934,1.45102-3.37012,2.68675-4.67139
				c1.24504-1.31063,2.78971-2.32164,4.54031-2.93016l2.18125,2.74298L44.73882,29.75069z"/><path fill="#FFF" d="M26.67131,48.4239c0,0,0.86885,0.73309,1.38473,1.6834c0,0,1.08482,2.16125,4.94501,2.16125
				s4.94501-2.16125,4.94501-2.16125c0.51588-0.95031,1.38473-1.6834,1.38473-1.6834l0.28227-0.215
				c0,0-1.28011,1.00267-5.14915,0.33387c-0.2897-0.05008-0.58941-0.00427-0.84581,0.13957h0
				c-0.38327,0.215-0.85082,0.215-1.23409,0l0,0c-0.2564-0.14384-0.55612-0.18965-0.84581-0.13957
				c-3.86904,0.6688-5.14915-0.33387-5.14915-0.33387"/><path fill="#172540" d="M47.98999,5.29354c-0.66003-2.53998-1.33002-3.76001-1.40002-3.89001
				c-0.15997-0.27997-0.47998-0.42999-0.79999-0.35999c-0.69311,0.13415-0.56741,0.63752-0.94,2.78003
				C41.19,2.33358,37.19,1.52352,33,1.52352s-8.20001,0.82001-11.86005,2.30005c-0.12-0.69-0.22998-1.41003-0.33997-2.15002
				c-0.04004-0.32001-0.28003-0.57001-0.60004-0.63c-0.32001-0.07001-0.63,0.08002-0.78998,0.35999
				c-0.07001,0.13-0.73999,1.35004-1.40002,3.89001C8.03998,10.65353,1.25,21.19357,1.25,33.28354
				c0,5.23004,1.26996,10.17004,3.52997,14.53003c0,0.35178,4.39611,9.00933,13.84003,13.77997
				c0.17999,0.09003,0.34998,0.17999,0.52997,0.25c0.06,0.04004,0.13,0.06,0.19,0.09003
				c0.03998,0.02997,0.08002,0.04999,0.13,0.07001c6.02408,2.6751,9.89505,2.96997,15.40002,2.96997
				c0.00995-0.01001,0.01996-0.01001,0.03998,0c0.63279-0.09109,3.18715-0.11189,7.02002-1.22998
				c0.01996,0,0.03998-0.01001,0.04999-0.02002c5.33375-1.55523,9.98742-4.43621,13.62-8.15997
				c0.34003-0.34003,0.65997-0.69,0.97998-1.04004c0.26001-0.25995,0.48004-0.51996,0.69-0.78998
				c0.51001-0.58997,0.98004-1.19,1.42004-1.81c0.12994-0.17999,0.25995-0.35999,0.37994-0.53998
				c0.23004-0.33002,0.46002-0.66003,0.67004-1c0.51996-0.79999,1-1.63,1.44-2.48004
				c0.01001-0.00995,0.01001-0.02997,0.01996-0.03998c2.27002-4.37,3.55005-9.33002,3.55005-14.58002
				C64.75,21.19357,57.95996,10.65353,47.98999,5.29354z M40.83997,51.91354h-0.01001
				C38.49196,55.18667,36.92608,57.93356,33,57.93356c-3.9583,0-5.53569-2.80803-7.83002-6.02002h-0.01001
				c-3.79858-5.69642-4.51799-5.08554-5.67999-18.29999c0.01159-0.02898-0.33002-3.7437-0.33002-5.22998
				c0-12.93582,16.75694-19.06151,25-8.16003c4.32377,5.82231,2.12199,12.72736,2.37,13.41003v0.01001
				C45.36565,46.7706,44.62175,46.2423,40.83997,51.91354z M18.89996,60.02353c-5.14293-2.70736-9.54248-6.92928-12.51001-12.37
				c2.34585-2.64838,5.7714-3.6058,7.98999-6.35999c1.75916-2.1474,2.40256-4.96059,3.51001-8.66998
				c0,0.53026,0.8008,10.35402,2.06,13.64001c0.53003,1.38995,1.89001,3.51996,3.42004,5.70996
				C22.96224,55.23306,21.291,58.06731,18.89996,60.02353z M18.37994,23.79354c-0.44544-6.12677-0.33831-13.22515,1.39001-19.14996
				c0.66598,3.74494,2.01905,8.18188,3.91003,11.62C21.14978,18.17024,19.32127,20.8452,18.37994,23.79354z M47.62994,23.80355
				c-0.98389-3.09642-2.89956-5.72357-5.31-7.53998c1.96029-3.56411,3.12634-7.63545,3.91003-11.64001
				C47.97339,10.31998,48.05433,17.85546,47.62994,23.80355z M44.54999,5.32357c-0.97003,4.64996-2.34003,7.94-3.48999,10.07996
				c-2.40002-1.48999-5.19-2.29999-8.06-2.29999c-2.87006,0-5.66003,0.81-8.06,2.29999
				c-1.16003-2.13995-2.53003-5.42999-3.5-10.07996C28.77128,2.27565,37.1237,2.23615,44.54999,5.32357z M17.56,7.27352
				c-0.87,4.38001-1.46002,11.43005-0.18005,21.78003c-3.12718,10.51395-2.83679,11.01282-8,14.35999
				c-1.21983,0.7774-2.71698,1.73665-3.70996,2.82001C3.79999,42.31356,2.75,37.91354,2.75,33.28354
				C2.75,22.24356,8.69995,12.56356,17.56,7.27352z M43.38995,61.68356c-5.76033,2.24046-13.84368,2.55571-20.77997,0h-0.01001
				c-0.60321-0.19641-1.69811-0.69526-2.23999-0.94c2.11642-1.90499,3.58409-4.36833,4.21997-7.08002
				c2.1903,3.04586,4.04361,5.77002,8.42004,5.77002c4.24967,0,6.10735-2.55404,8.41998-5.77002
				c0.67569,2.84322,2.26068,5.35812,4.21997,7.08002c-0.72998,0.34998-1.47998,0.65997-2.23999,0.94H43.38995z M58.31995,49.83358
				C55.5,54.10354,51.63995,57.63357,47.09998,60.02353c-2.44869-2.03055-4.06371-4.80188-4.47003-8.04999
				c1.53003-2.19,2.89001-4.32001,3.42004-5.70996c1.10191-2.84839,2.06-12.61169,2.06-13.64001l0.77997,2.62
				c0.63,2.09998,1.28003,4.27997,2.73004,6.04999c1.15997,1.44,2.69995,2.41998,4.19,3.38
				c1.01996,0.65002,1.97998,1.27002,2.82996,2.02002c0.34003,0.29999,0.66003,0.60999,0.97003,0.95996
				c-0.23999,0.44-0.48999,0.87-0.73999,1.30005C58.69,49.25357,58.50995,49.54354,58.31995,49.83358z M59.62994,45.56356
				c-0.93994-0.82001-1.98999-1.5-3.00995-2.15002c-1.45001-0.94-2.83002-1.82001-3.84003-3.07001
				c-1.26001-1.53998-1.87-3.57001-2.45001-5.52997L48.62,29.05355c0.0178-0.44883,1.75292-12.04874-0.17999-21.78003
				c8.85999,5.29004,14.81,14.97003,14.81,26.01001c0,4.63-1.05005,9.03003-2.92004,12.95001
				C60.09998,45.99356,59.87,45.77353,59.62994,45.56356z"/><path fill="#172540" d="M43.67999 29.72354c-1.48901.62044-6.39947-2.13071-8.13 3.63-.10999.35999.07001.75.41998.90002 3.28176 1.3103 6.98922.44214 8.69-3.54999C44.92718 30.08002 44.28929 29.46239 43.67999 29.72354zM37.22998 33.09353c1.12412-2.67947 3.01911-1.92442 5.39996-1.77997C41.72998 32.63357 39.40707 33.62476 37.22998 33.09353zM30.44995 33.35354c-1.73318-5.76999-6.66903-2.99528-8.12-3.63-.61065-.26173-1.26013.34963-.98999.98004 1.44 3.38 3.96002 4.08997 5.82001 4.08997C28.24104 34.79354 30.80663 34.52033 30.44995 33.35354zM23.37 31.31356c2.34419-.14223 4.2578-.9369 5.39996 1.77002-.40997.10999-.97998.20996-1.60999.20996C25.54999 33.29354 24.26996 32.63357 23.37 31.31356zM34.81 45.51358c.28998-.29004.57996-.58002.89996-.72003.78515-.34353 1.90623.16428 1.88-.90997v-.01001c-.00957-.39198-.31516-.73999-.77002-.73999-.48999.01996-1.12.02997-1.69995.27997-.62994.26062-2.1101 1.33438-1.37 2.10004C33.89996 45.65353 34.49621 45.8063 34.81 45.51358zM28.40997 43.87356v.01001c-.01001.40997.32001.73999.72998.75 2.08552.05091 1.71091 1.09998 2.58002 1.09998.6467 0 1.01579-.78746.53003-1.28998-.19-.17999-.38-.37-.61005-.56-.79411-.64978-1.45169-.70975-2.45996-.75C28.72998 43.15353 28.41998 43.45358 28.40997 43.87356zM39.16998 47.60354c-.06.04004-1.26001.77002-4.58002.20001-.46002-.08002-.94 0-1.33997.21997-.48581.29153-.71898-.41084-1.84003-.21997-3.43411.59715-4.45706-.18011-4.56-.19-.86719-.65693-1.80723.76669-.73999 1.29999.01996.03003.04999.06.08002.08002 0 .01001.76996.65997 1.19995 1.45001 1.47684 3.24544 9.21927 3.62328 11.22003.01996.42744-.79525 1.00655-1.28139 1.45996-1.65997.01001-.01001.03003-.02002.04004-.03998H40.12c.27997-.26001.32996-.70001.08997-1.01001C39.95996 47.42355 39.5 47.36355 39.16998 47.60354zM28.57996 49.50357c.79999.04999 1.82001 0 3.09003-.22003.12-.01996.23999 0 .34998.05005 1.15812.64546 1.87761-.11797 2.32001-.05005 1.26001.22003 2.28003.27002 3.09003.22003C35.85872 52.32802 29.88519 52.11205 28.57996 49.50357z"/></svg>