<svg xmlns="http://www.w3.org/2000/svg" enable-background="new 0 0 66 66" viewBox="0 0 66 66"><path fill="#3590CE" d="M63.99775,33.25237c0,17.11822-13.87907,30.99729-30.99728,30.99729
				c-17.12365,0-31.00272-13.87907-31.00272-30.99729c0-17.12365,13.87907-31.00271,31.00272-31.00271
				C50.11868,2.24966,63.99775,16.12872,63.99775,33.25237z"/><path fill="#575E85" d="M52.59525,57.26508c-5.33997,4.36005-12.15997,6.98004-19.58997,6.98004
				s-14.26001-2.61004-19.59998-6.98004c0.59998-2.02997,0.92999-4.15997,1.06995-6.25995c0.43005-6.69-0.90997-13.38-1-20.09003
				c-0.01996-3.39001,0.27002-6.78003,0.89001-10.09998c1-5.46002,2.85004-10.77002,5.48999-15.65002
				c0.63-1.16998,1.30005-2.31,2.02002-3.41998l0.21002,2.47998l0.70996,8.28003c5.84003-2.54004,12.40003-2.80005,18.38001-0.77002
				c0.67999,0.21997,1.35999,0.47998,2.02002,0.77002l0.71997-8.28003l0.21002-2.47998
				c0.71997,1.10999,1.40002,2.26001,2.03003,3.42999c2.62994,4.88001,4.47998,10.17999,5.47998,15.64001
				c0.63,3.31995,0.91998,6.70996,0.88,10.09998c-0.07001,6.71002-1.42004,13.40002-1,20.09003
				C51.6553,53.10511,51.99527,55.23511,52.59525,57.26508z"/><path fill="#010101" d="M45.60526 27.48511c-1.00421-6.70264-2.32013-12.4467-4.42999-15.75.67999.21997 1.35999.47998 2.02002.77002l.71997-8.28003.21002-2.47998C45.60526 10.32512 46.09854 18.90511 45.60526 27.48511zM20.39529 27.48511c1.00421-6.70264 2.32013-12.4467 4.42999-15.75-.67999.21997-1.35999.47998-2.02002.77002L22.08529 4.2251l-.21002-2.47998C20.39529 10.32512 19.90201 18.90511 20.39529 27.48511z" opacity=".1"/><path fill="#F1AD7E" d="M47.99583,38.4119l-0.50533,7.59311c-0.10641,1.66224-0.69152,3.258-1.71548,4.57447
				c-2.44677,3.17821-7.48671,8.51067-12.77924,6.96807c-5.29253,1.5426-10.33247-3.78986-12.77924-6.96807
				c-1.02396-1.31647-1.59576-2.91224-1.7154-4.57447l-0.4921-7.59311l14.98673,4.82713L47.99583,38.4119z"/><path fill="#FFF" d="M42.19039 18.2473c0 2.6384-4.11445 4.78035-9.19264 4.78035-5.07828 0-9.19264-2.14195-9.19264-4.78035 0-2.62428 4.11436-4.76624 9.19264-4.76624C38.07594 13.48107 42.19039 15.62302 42.19039 18.2473zM43.06716 25.72823c-2.43679 2.69662-6.57322 4.23472-10.22964 4.26571-3.68638-.02199-7.81387-1.58326-10.22964-4.26571 4.02398.97737 6.69806 1.55 10.22964 1.60694C36.43089 27.2879 39.15156 26.68639 43.06716 25.72823z" opacity=".2"/><path fill="#010101" d="M27.6024,31.92255c0,0-4.43974-2.64884-8.0067-0.85233c0,0-0.01739,2.76516,2.85901,4.48526
				c1.46233,0.87448,3.23954,1.17788,4.84909,0.61889c1.29348-0.44922,2.65725-1.47713,2.93842-3.79191L27.6024,31.92255z" opacity=".1"/><path fill="#FFF" d="M28.95443,32.41656c-2.12435,2.20113-5.57708,2.20113-7.70664,0
				c1.06479-1.10056,2.71272-1.46029,4.10829-1.46029"/><path fill="#010101" d="M38.39458,31.92255c0,0,4.43974-2.64884,8.0067-0.85233c0,0,0.01739,2.76516-2.85901,4.48526
				c-1.46233,0.87448-3.23954,1.17788-4.84909,0.61889c-1.29348-0.44922-2.65725-1.47713-2.93842-3.79191L38.39458,31.92255z" opacity=".1"/><path fill="#FFF" d="M37.04255,32.41656c2.12436,2.20113,5.57708,2.20113,7.70664,0
				c-1.0648-1.10056-2.71272-1.46029-4.10829-1.46029"/><line x1="45.476" x2="44.121" y1="27.317" y2="19.523" fill="#575E85"/><line x1="20.521" x2="21.876" y1="27.317" y2="19.523" fill="#575E85"/><path fill="#172540" d="M47.76587,37.69821l-14.77051,4.75293l-14.75684-4.75293
					c-0.23633-0.07617-0.49414-0.03125-0.69043,0.12207c-0.19629,0.15283-0.30371,0.39258-0.28711,0.64014l0.49219,7.59814
					c0.13281,1.85547,0.78027,3.57813,1.86914,4.97852c2.16602,2.81396,6.53514,7.53467,11.45215,7.53418
					c0.64941,0,1.29395-0.08252,1.9209-0.24609c0.62695,0.16357,1.27246,0.24609,1.92188,0.24609
					c4.91797,0,9.28613-4.7207,11.44922-7.53125c1.10742-1.42236,1.75488-3.14697,1.87207-4.98535l0.50488-7.59277
					c0.0166-0.24805-0.09082-0.48779-0.28613-0.64111C48.26099,37.66842,48.00122,37.62204,47.76587,37.69821z M46.74243,45.957
					c-0.09863,1.53857-0.6377,2.97754-1.5625,4.16504c-1.99707,2.59521-5.98633,6.94922-10.26367,6.94922
					c-0.5791,0-1.15527-0.08203-1.71094-0.24414c-0.06836-0.02002-0.13965-0.02979-0.20996-0.02979s-0.1416,0.00977-0.20996,0.02979
					c-0.55566,0.16211-1.13086,0.24414-1.71094,0.24414c-4.27441,0.00049-8.26563-4.35352-10.2666-6.95215
					c-0.9082-1.16797-1.44727-2.60938-1.55859-4.1626l-0.4209-6.49268l5.59924,1.80353
					c-0.26202,0.45496-0.53949,0.90057-0.84827,1.32147c-0.56393,0.7482-1.08079,1.3951-1.39844,2.16504
					c-0.44824,1.08496-0.36133,2.24707,0.22852,3.03174c0.24994,0.33187,0.7206,0.39702,1.0498,0.14893
					c0.33105-0.24902,0.39844-0.71924,0.14941-1.05029c-0.32619-0.43408-0.22656-1.10986-0.04102-1.55762
					c0.24651-0.59728,0.71236-1.17501,1.22168-1.85156c0.40344-0.54993,0.76099-1.13763,1.09198-1.7395l6.88458,2.21753
					c0.14844,0.04785,0.31055,0.04785,0.45898,0l6.89783-2.21967c0.33124,0.60242,0.6889,1.19049,1.09143,1.74115
					c0.51441,0.6825,0.97872,1.25914,1.22363,1.85254c0.18555,0.44678,0.28516,1.12305-0.04199,1.55664
					c-0.24902,0.33105-0.18262,0.80127,0.14844,1.05029c0.32867,0.2477,0.80107,0.18452,1.0498-0.14795
					c0.5918-0.78467,0.67969-1.94629,0.23047-3.03223c-0.32008-0.77316-0.83429-1.41524-1.39941-2.16504
					c-0.30853-0.42108-0.58655-0.86731-0.84924-1.32306l5.59827-1.80145L46.74243,45.957z"/><path fill="#172540" d="M46.70996,4.62167c-0.60999-1.12-1.27002-2.21997-1.95996-3.28003
					c-0.17004-0.26996-0.5-0.39996-0.81006-0.31995c-0.31,0.06995-0.53998,0.33997-0.56,0.65997L43.25,3.20169
					C40.03998,2.10165,36.58997,1.50167,33,1.50167c-3.59003,0-7.04004,0.59998-10.25,1.70001l-0.13-1.52002
					c-0.02002-0.32001-0.25-0.59003-0.56-0.65997c-0.31-0.08002-0.64001,0.04999-0.81,0.31995
					c-0.67004,1.03003-1.32001,2.12006-1.94,3.27002C8.62994,9.73165,1.25,20.64169,1.25,33.25167
					c0,17.53333,14.27631,31.75,31.75,31.75c17.71771,0,31.75-14.44098,31.75-31.75
					C64.75,20.6517,57.37994,9.74166,46.70996,4.62167z M33,3.00167c3.54999,0,6.95996,0.60999,10.12,1.75l-0.58002,6.66998
					c-6.72192-2.47675-13.26996-2.25891-19.08002,0l-0.58002-6.66998C26.03998,3.61166,29.44995,3.00167,33,3.00167z
					 M13.72998,50.95169c-0.12,1.76001-0.37,3.41998-0.73999,4.95001C6.70996,50.37167,2.75,42.26168,2.75,33.25167
					c0-11.27002,6.18994-21.12,15.35999-26.32001c-2.09003,4.33002-3.60004,8.94-4.48004,13.75
					c-0.62,3.31-0.92999,6.76001-0.90997,10.23999c0.03998,2.81,0.29999,5.64001,0.54999,8.39001
					C13.62,43.13168,13.96997,47.09164,13.72998,50.95169z M50.76996,51.05166c0.14001,2.10004,0.46002,4.09003,0.97003,5.91998
					c-4.2287,3.62524-11.30975,6.52002-18.73004,6.52002c-7.52045,0-14.54614-2.91602-18.75-6.52002
					c0.5-1.81,0.82001-3.79999,0.96002-5.91998c0.26001-3.97998-0.10999-7.98999-0.46002-11.88
					c-0.23999-2.70996-0.5-5.51996-0.53998-8.26001c-0.01001-3.38995,0.28003-6.73999,0.88-9.95996
					c0.99901-5.45392,2.91069-11.10887,6.21997-16.87c0.00868,0.10095,0.77867,9.05552,0.73004,8.48999
					c0.01996,0.23999,0.14996,0.45001,0.35999,0.58002c0.21002,0.12,0.46002,0.13995,0.67999,0.03998
					c3.14001-1.35999,6.47003-2.06,9.90002-2.06c3.46527,0,6.89996,0.74725,9.89996,2.06
					c0.45953,0.19971,1.00555-0.08545,1.04999-0.62c0.0088-0.10093,0.78934-9.05546,0.74005-8.48999
					c3.00342,5.14909,5.11451,10.8575,6.21997,16.87c0.60999,3.23999,0.90002,6.58997,0.85999,9.95996
					c-0.01996,2.79004-0.27997,5.63-0.52997,8.38C50.87994,43.14169,50.51996,47.11166,50.76996,51.05166z M53.01996,55.9017
					c-0.39001-1.55005-0.64001-3.21002-0.76001-4.94c-0.23999-3.82001,0.12-7.74005,0.46002-11.53003
					c0.25-2.77997,0.52002-5.65997,0.53998-8.51001c0.05005-3.45996-0.25-6.90997-0.88995-10.23999
					c-0.88-4.78998-2.38-9.40997-4.47003-13.73999C57.06,12.14169,63.25,21.99166,63.25,33.25167
					C63.25,42.26168,59.28998,50.36166,53.01996,55.9017z"/><path fill="#172540" d="M22.98419 30.55362c-.79437.24554-1.60944.65265-2.27594 1.34137-.28125.29053-.28125.75244 0 1.04297 1.17285 1.21191 2.7334 1.87939 4.39453 1.87939.00195 0 .00293 0 .00488 0 1.63354-.00098 3.1676-.65125 4.33026-1.82684.46918.09424.9516.18256 1.46368.25653.40137.06006.79102-.22412.84961-.63477.05957-.41016-.22461-.79053-.63477-.84961-6.59436-.95282-9.20483-3.83728-9.80347-4.6214l1.30249-7.49042c.07031-.4082-.20313-.79639-.61035-.86719-.40723-.07178-.79688.20166-.86816.61035l-1.32385 7.61316-4.00427 5.20667c-.25195.32813-.19043.79883.1377 1.05176.32709.25177.79962.19128 1.05176-.1377l3.52637-4.58594C21.01141 29.08102 21.80463 29.81405 22.98419 30.55362zM27.61163 32.55313c-.74316.4917-1.60291.76349-2.50592.76422-.00098 0-.00195 0-.00293 0-.97656 0-1.9082-.30762-2.69238-.87891.96643-.6015 2.15356-.71521 2.7934-.72906C25.91699 32.01425 26.71948 32.29983 27.61163 32.55313zM46.18335 27.0065l-1.32373-7.61249c-.07129-.40869-.45801-.68213-.86816-.61035-.40723.0708-.68066.45898-.61035.86719l1.30243 7.48999c-.60376.7901-3.21521 3.66992-9.80341 4.62183-.41016.05908-.69434.43945-.63477.84961.05957.41064.44727.6958.84961.63477.51208-.07397.99451-.16235 1.46368-.25659 1.16364 1.17603 2.69775 1.82593 4.33221 1.8269.00098 0 .00195 0 .00293 0 1.66113 0 3.22168-.66748 4.39453-1.87939.28125-.29053.28125-.75195 0-1.04297-.6662-.68884-1.4812-1.09601-2.2757-1.34155 1.17938-.7395 1.9726-1.47241 2.45929-2.01147l3.52734 4.58643c.25592.33081.72748.38751 1.05176.13672.32813-.25244.38965-.72314.1377-1.05176L46.18335 27.0065zM43.58618 32.43844c-.78418.57129-1.71582.87891-2.69238.87891-.00098 0-.00195 0-.00293 0-.90234-.00037-1.76245-.27234-2.50592-.76422.89215-.2533 1.6947-.53888 2.4079-.84375C41.43274 31.72323 42.61981 31.83694 43.58618 32.43844zM36.20044 53.83249c-.12109 0-.24414-.0293-.3584-.0918-1.91406-1.04395-3.77441-1.04395-5.68848 0-.36328.20117-.81934.06445-1.01758-.29883-.19824-.36377-.06445-.81934.29883-1.01758 2.36328-1.29004 4.76074-1.29004 7.12598 0 .36328.19824.49707.65381.29883 1.01758C36.72388 53.69137 36.46606 53.83249 36.20044 53.83249z"/><path fill="#FFF" d="M38.34722,46.34603c-0.73409,0.06023-1.47245,0.02158-2.20786-0.02015
				c-1.08748-0.06171-2.28303-0.1189-3.14159,0.62017c-0.85938-0.73977-2.07872-0.68048-3.14159-0.62017
				c-0.73541,0.04173-1.47376,0.08038-2.20786,0.02015s-2.1194-0.22282-2.1194-0.22282
				c2.50662,0.4877,3.18922,3.0971,7.46885,3.0071c4.27963,0.09,4.96223-2.51941,7.46885-3.0071
				C40.46662,46.12321,39.08131,46.2858,38.34722,46.34603z"/><path fill="#172540" d="M33.21118,49.88278l-0.22949-0.00244l-0.19824,0.00244c-2.70117,0-4.12012-1.04834-5.26074-1.89063
				c-0.70703-0.52246-1.31836-0.97363-2.1377-1.13281c-0.39551-0.07715-0.65918-0.45313-0.59766-0.85156
				c0.0625-0.39893,0.44141-0.67334,0.82813-0.62988c0.00293,0.00049,1.37012,0.16113,2.09473,0.2207
				c0.69824,0.05762,1.40332,0.01807,2.10254-0.02148c0.30469-0.01758,0.62109-0.03418,0.93848-0.03418
				c0.62109,0,1.47852,0.05811,2.24609,0.4917c0.7666-0.43408,1.61816-0.49219,2.23535-0.49219
				c0.31836,0,0.6377,0.0166,0.94824,0.03418c0.70313,0.04102,1.40625,0.07959,2.10449,0.02197
				c0.72559-0.05957,2.09473-0.2207,2.09473-0.2207c0.38867-0.04834,0.76563,0.23096,0.82813,0.62988
				c0.06152,0.39844-0.20215,0.77441-0.59766,0.85156c-0.81934,0.15918-1.43066,0.61035-2.1377,1.13281
				C37.33228,48.83444,35.91333,49.88278,33.21118,49.88278z M32.98169,48.38034l0.22949,0.00244
				c1.90332,0,2.94627-0.57617,3.91016-1.26123c-0.3418-0.00928-0.68359-0.02783-1.02539-0.04688
				c-0.28223-0.01611-0.57324-0.03223-0.86328-0.03223c-0.82813,0-1.36621,0.14551-1.74609,0.47217
				c-0.28223,0.24316-0.69824,0.24219-0.97852,0c-0.37891-0.32617-0.9209-0.47168-1.75684-0.47168
				c-0.28906,0-0.57617,0.01611-0.85352,0.03174c-0.33984,0.01904-0.68164,0.0376-1.02344,0.04688
				c0.96387,0.68506,2.00684,1.26123,3.90918,1.26123L32.98169,48.38034z"/></svg>