<svg xmlns="http://www.w3.org/2000/svg" enable-background="new 0 0 66 66" viewBox="0 0 66 66"><path fill="#3590CE" d="M63.99763,33.2525c0,17.11822-13.87907,30.99728-30.99729,30.99728
				c-17.12365,0-31.00271-13.87907-31.00271-30.99728c0-17.12365,13.87906-31.00272,31.00271-31.00272
				C50.11856,2.24979,63.99763,16.12885,63.99763,33.2525z"/><path fill="#E1C123" d="M54.22649,50.63559c-4.97095,6.37561-11.35956,4.60095-18.23978,0l1.59716-47.3538l0.06315-0.02343
				c6.22202-2.30877,13.15926,1.36091,14.53257,7.85382c0.2558,1.2094,0.46145,2.56372,0.60266,4.08024
				C53.60447,24.02238,54.22649,50.63559,54.22649,50.63559z"/><path fill="#E1C123" d="M37.49499,3.63497l-0.00001-0.00001C30.36306,0.2332,21.46665,1.40059,16.3466,7.41902
				C10.43613,14.36654,9.13075,21.436,8.6621,23.12044C5.46921,34.59628,6.17164,48.79546,6.17164,48.79546l10.12435,8.15601
				l21.199,0.5462V3.63497z"/><path fill="#F1AD7E" d="M55.77763,54.27975c-5.66998,6.13-13.77997,9.97003-22.77997,9.97003s-17.10999-3.84003-22.78003-9.97003
				c3.42004-0.39001,6.92004-0.62,9.58002-2.76001c3.35999-2.69,2.40002-8.27997,2.40002-12.63995h21.58997
				c0,4.34998-0.94,9.94995,2.40002,12.63C48.85764,53.64975,52.35764,53.88974,55.77763,54.27975z"/><path fill="#F0523C" d="M60.01878 48.45401c-3.10004 5.51001-7.84003 9.96997-13.56 12.72998-.30005-.89001-.47003-1.83002-.47003-2.79999 0-5.56 5.40002-10.07001 12.06-10.07001C58.71873 48.314 59.37877 48.36399 60.01878 48.45401zM5.97647 48.45401c3.10004 5.51001 7.84003 9.96997 13.56 12.72998.30005-.89001.47003-1.83002.47003-2.79999 0-5.56-5.40002-10.07001-12.06-10.07001C7.27652 48.314 6.61648 48.36399 5.97647 48.45401z"/><path fill="#F1AD7E" d="M18.13589,23.51649c2.31809-1.6604,4.99199-2.76015,7.37477-4.3343
				c2.31809-1.52024,4.3343-3.48253,6.69552-4.94886c2.35044-1.46633,5.23997-2.43669,7.90308-1.67118
				c1.53102,0.44205,3.16986,0.50675,4.24804,1.68197s1.72509,2.67389,2.2534,4.17257
				c3.15908,9.14299,1.90838,19.69841-3.29924,27.84948c-2.74937,4.29117-6.84647,8.73328-11.94627,8.73328
				s-9.1969-4.44212-11.94627-8.73328c-2.78116-4.35743-4.43161-9.39708-4.88365-14.53873
				c-0.27783-3.16007,0.99564-6.3131,3.55957-8.18112C18.10852,23.53634,18.1222,23.52641,18.13589,23.51649z"/><path fill="#FFF" d="M24.65217 44.18582c0 0 .92811.78309 1.47917 1.79821 0 0 1.1588 2.30865 5.28227 2.30865s5.28227-2.30865 5.28227-2.30865c.55106-1.01512 1.47917-1.79821 1.47917-1.79821l.30152-.22966c0 0-1.36742 1.07105-5.50034.35664-.30945-.05349-.6296-.00455-.9035.14909l0 0c-.40941.22967-.90885.22967-1.31826 0l0 0c-.27389-.15364-.59404-.20258-.9035-.14909-4.13292.71441-5.50034-.35664-5.50034-.35664M26.97754 34.08261c0 0-5.75301 2.45526-8.23234-3.36998C20.81532 31.60327 25.29256 28.49809 26.97754 34.08261zM35.84969 34.08261c0 0 5.75301 2.45526 8.23234-3.36998C42.01191 31.60327 37.53467 28.49809 35.84969 34.08261z"/><path fill="#172540" d="M51.56,7.51298c-2.50048-4.19595-7.53129-6.52722-12.53003-5.42999
					c-1.75-0.34003-3.56-0.54004-5.39996-0.57001c-6.01318-1.40042-12.66943,0.0684-17.08002,4.58997
					c-0.01001,0-0.02002,0.01001-0.02002,0.01001C7.37,11.69297,1.25,21.77299,1.25,33.25297
					c0,5.62,1.45996,10.89001,4.02997,15.46997c0.06724,0.26895,1.63053,2.77285,4.30005,5.94
					c0.14706,0.36877,2.8193,2.76447,3.23999,3.08002c0.01001,0.02002,0.01996,0.03003,0.02997,0.02002
					c0.17999,0.15997,0.37,0.31,0.56,0.45996c0,0.01001,0,0.01001,0.01001,0.01001c0.83596,0.66385,1.57786,1.16368,2.46002,1.75
					c0.01001,0,0.01001,0.01001,0.01996,0.01001c0.14213,0.14213,1.72554,1.05075,2.86005,1.63h0.00995
					c1.65253,1.10169,7.20586,3.02065,12.46002,3.33002c5.67261,0.28812,10.87457-0.84949,15.46002-3.06
					c0.05573,0,0.39186-0.19195,0.44-0.22003c2.20473-0.55202,9.57614-5.90871,13.53998-12.84998
					c0.01001-0.02002,0.02002-0.03003,0.02002-0.04999c2.58997-4.59003,4.06-9.88,4.06-15.52002
					C64.75,22.67295,59.54999,13.28294,51.56,7.51298z M51.45001,11.26298c0.25,1.21997,0.44995,2.57001,0.58997,4
					c0.66003,7.16998,1.20001,26.33997,1.38,33.03998c-2.17999,0.71002-4.08002,1.91998-5.48999,3.46002
					c-1.98694-1.08374-3.16678-2.46423-3.45001-5.98004c4.85004-8.16998,5.94-18.64996,2.84003-27.62
					c-2.09266-5.94941-4.16472-5.53211-7-6.32001c-0.66003-0.18994-1.36005-0.28998-2.08002-0.29999V6.19297l0.08002-2.36999
					c4.58115-1.52744,9.74082,0.46268,12.09998,4.71997C50.89996,9.38297,51.23999,10.29294,51.45001,11.26298z M38.27997,51.20298
					c-0.01996-0.01001-0.02997-0.02002-0.03998-0.03003v0.06c-0.39001,0.35004-0.78998,0.67004-1.20001,0.97003
					c-0.09998-0.06-0.20001-0.12-0.29999-0.17999v0.39996c-10.22368,7.00504-20.36657-8.36778-21.46002-20.76001
					c-0.63314-7.25647,5.74158-8.62852,10.64001-11.84998c3.46054-2.28641,8.82063-8.01806,13.97998-6.53003
					c2.81334,0.79381,4.16634,0.19754,6,5.38001C50.07951,30.76315,45.92413,44.37938,38.27997,51.20298z M6.89001,47.60294
					C6.79999,44.00297,6.77997,32.67295,9.38,23.32298c0.04999-0.16998,0.10999-0.39001,0.16998-0.66998
					c4.509-17.95906,16.14039-23.4858,27.19-18.54004c-0.00252,0.10063-0.20249,8.07816-0.19,7.58002
					c-5.50154,0.96063-7.2756,4.76011-14.78003,8.77997c-3.4866,1.89727-8.59455,4.38121-7.97998,11.32001
					c0.55307,6.28347,2.85868,12.44491,6.85999,17.48999c-0.47095,0.94209-1.14668,1.69829-2.57996,2.48004
					C15.28382,48.71488,10.87026,47.26212,6.89001,47.60294z M13.12,10.48295c-3.35999,5.13-4.52002,9.82001-5.02002,11.81
					c-0.06,0.26001-0.12,0.47003-0.15997,0.63c-2.26001,8.12-2.58002,17.66998-2.58002,22.60004
					C3.67999,41.77299,2.75,37.62296,2.75,33.25297C2.75,24.18296,6.76996,16.02299,13.12,10.48295z M11.84998,54.85294
					c0.19-0.01996,0.38-0.04999,0.56-0.07001l-1.64001-1.31995l-0.22998,0.01996c-1.15431-1.26437-2.30542-2.77528-3.31-4.39996
					c7.13577-0.44633,13.22178,5.00494,11.83002,11C16.80404,58.95386,13.96168,56.96465,11.84998,54.85294z M20.44,60.76298
					c0.69154-2.4837,0.28186-5.36518-1.42004-7.81c1.3627-0.79217,2.09819-1.54412,2.66003-2.44
					c7.33295,8.29308,15.33964,6.2861,21.57001-2.81c0.47796,2.36262,1.57092,4.06237,3.72998,5.23999
					c-1.69111,2.4351-2.11076,5.24934-1.42999,7.81C37.33134,64.51655,27.80086,64.34383,20.44,60.76298z M47.07001,60.01298
					c-0.04004,0.01996-0.09003,0.04999-0.14001,0.07001c-1.2248-5.27583,3.62906-11.32876,11.83997-11
					C55.41562,54.51235,51.50506,57.47829,47.07001,60.01298z M54.90997,47.89298c-0.19-7.03003-0.72998-25.69-1.38-32.77002
					c-0.13995-1.48999-0.34998-2.89001-0.62-4.16998c-0.03998-0.19-0.07996-0.38-0.14001-0.56
					C59.19,15.93296,63.25,24.12296,63.25,33.25297c0,5.21002-1.32001,10.10999-3.66003,14.40002
					C58.03127,47.47295,56.39143,47.57025,54.90997,47.89298z"/><path fill="#172540" d="M33.31 42.44297c.84082-.84082 1.03638-.92309 2.21997-.95001.9585 0 1.0092-1.5-.02997-1.5-1.5564.02939-2.14713.27713-3.25 1.38C31.56625 42.05656 32.57088 43.13277 33.31 42.44297zM26.56 40.72294c-.02669 1.09332 1.18342.59867 1.97998.94.63643.27277.93342.99005 1.51001.99005.66768 0 .99662-.81344.53003-1.28003-.38-.37-.84003-.83002-1.45001-1.09003C28.19903 39.88623 26.58413 39.71045 26.56 40.72294zM38.23999 43.24296c-.27775.07943-.21585.25967-1.27002.45001-2.90096.41478-4.0494-.56902-5.26001.10999-.5438.33229-.78446-.42685-1.98999-.22998-3.68974.63353-4.8086-.21002-4.90997-.21002-.77849-.60818-1.70241.58728-.91998 1.17999.00594.00595.17936.11922.27997.22003.01001 0 .83002.70996 1.28998 1.56 1.7819 3.26651 8.59437 3.67317 11.28003.82001.80228-.8035.26045-.61864 1.89001-2.36005.36063-.27575.90797-.6755.44-1.27997C38.87 43.24296 38.53998 43.15299 38.23999 43.24296zM35.38 46.36295c-2.24543 1.89467-7.38585 1.4287-8.59003-.73999-.06-.10999-.13-.22998-.20001-.33002.87.04999 1.99005 0 3.39001-.23999.14001-.02997.28998 0 .41003.06 1.23409.70522 1.96949-.16498 2.45996-.06 1.44488.26007 2.40667.27936 3.39001.23999C36.07574 45.51884 35.97267 45.87567 35.38 46.36295zM27.70001 33.86295c-1.57234-5.19626-5.21279-3.72998-7.92004-3.72998-.77403 0-1.12362-.40706-1.56.04999C18 30.39298 17.94 30.72294 18.06 31.00297c1.52002 3.58997 4.20001 4.33997 6.16998 4.33997C25.21292 35.34293 28.06476 35.08997 27.70001 33.86295zM20.08002 31.63297c2.74753-.14477 4.71061-1.0334 5.93994 1.96997C23.70741 34.21966 21.47781 33.72966 20.08002 31.63297z"/><path fill="#172540" d="M22.67999 28.14298c1.37.26001 5.02002 2.34998 6.32001 3.13.78654.52409 1.64765-.73461.77997-1.28003-6.69505-4.01687-7.19278-3.64685-11.06-2.98999-.39996.08002-.67999.46002-.59998.87C18.35784 29.26581 20.77293 27.78116 22.67999 28.14298zM44.76996 31.00297c.12006-.28003.06006-.60999-.15997-.82001-.53422-.53422-.46485.14535-2.88-.15997-3.44459-.42306-5.50351.22198-6.59998 3.83997-.11005.37.07001.76001.42999.91003C35.6603 34.77299 42.03603 37.46018 44.76996 31.00297zM37.31 33.71299l.03998-1.11005c1.30646-1.83862 3.32499-1.07648 5.40002-.96997C41.76996 33.10294 39.40047 34.16098 37.31 33.71299z"/><path fill="#172540" d="M37.45996,29.26298c2.4328-1.31006,2.99736-1.38192,6.38-0.78003
					c0.41003,0.07001,0.80005-0.20001,0.87-0.60999c0.07001-0.40997-0.19995-0.78998-0.60999-0.87
					c-3.55057-0.61476-4.26863-1.07948-11.04999,2.98999c-0.34998,0.22003-0.46997,0.67999-0.25,1.03003
					C33.44688,32.08554,34.56733,30.58864,37.45996,29.26298z"/><path fill="#FFF" d="M44.65203 37.08104c.62776 1.223-.43442 3.02035-2.36377 4.01067-1.92929.99029-3.99835.8002-4.62611-.4228-.62773-1.22294.42938-3.00434 2.35867-3.99464C41.95017 35.68395 44.02431 35.85811 44.65203 37.08104zM18.33813 37.26148c-.62776 1.223.43442 3.02034 2.36377 4.01067 1.92929.99029 3.99835.8002 4.62611-.4228.62773-1.22294-.42938-3.00434-2.35867-3.99464C21.04 35.86438 18.96585 36.03854 18.33813 37.26148z" opacity=".1"/></svg>