<svg xmlns="http://www.w3.org/2000/svg" enable-background="new 0 0 66 66" viewBox="0 0 66 66"><path fill="#3590CE" d="M63.99674,33.25588c0,17.11822-13.87907,30.99728-30.99728,30.99728
				c-17.12365,0-31.00272-13.87906-31.00272-30.99728c0-17.12365,13.87907-31.00272,31.00272-31.00272
				C50.11767,2.25317,63.99674,16.13223,63.99674,33.25588z"/><path fill="#3590CE" d="M63.99894,33.25874c0,7.89996-2.94995,15.09998-7.81,20.57001
				c-0.09998,0.10999-0.20996,0.22998-0.31,0.33997c-3.81,4.16003-8.71997,7.27002-14.27997,8.87
				c-2.73004,0.79004-5.62,1.21002-8.60004,1.21002c-2.95996,0-5.82996-0.41998-8.54999-1.20001
				c-5.57001-1.58997-10.51001-4.70996-14.33002-8.88c-0.09998-0.10999-0.19995-0.21997-0.29999-0.32996
				c-4.85999-5.47003-7.82001-12.68005-7.82001-20.58002c0-17.13001,13.88-31.01001,31-31.01001
				S63.99894,16.12874,63.99894,33.25874z"/><path fill="#575E85" d="M16.94618 50.2428c-4.28256-6.27024 4.8879-9.32405 4.8879-9.32405h1.91541v14.54623L16.94618 50.2428zM42.29822 55.46498V40.91872h1.9154c0 0 9.17042 3.05381 4.88787 9.32405L42.29822 55.46498z"/><path fill="#F1AD7E" d="M55.87894,54.16872c-3.81,4.16003-8.71997,7.27002-14.27997,8.87
				c-2.73004,0.79004-5.62,1.21002-8.60004,1.21002c-2.95996,0-5.82996-0.41998-8.54999-1.20001
				c-5.57001-1.58997-10.51001-4.70996-14.33002-8.88c3.49005-0.48999,7.25-0.44,10-2.65997
				c3.03003-2.42999,2.17004-9.73999,2.17004-13.67999h21.38995c0,3.94-0.84998,11.26001,2.18005,13.67999
				C48.61893,53.72871,52.38895,53.67873,55.87894,54.16872z"/><path fill="#6C8CAB" d="M24.44895 63.04872c-5.71997-1.63-10.77002-4.88-14.63-9.20996l4.22003-2.13c1.44-.73004 2.13-2.33002 1.83997-3.92004-.83997-4.71997 5.96002-7.32001 5.96002-7.32001l.45001 2.13c-8.98999 4.57001-.23999 8.11005-.23999 8.11005L24.44895 63.04872zM56.18894 53.82875c-3.84998 4.32996-8.88 7.57001-14.58997 9.20996l2.39996-12.32996c0 0 8.75-3.54004-.23999-8.11005l.45001-2.13c0 0 6.79999 2.60004 5.96002 7.32001-.29004 1.59003.39996 3.20001 1.83997 3.92004L56.18894 53.82875z"/><path fill="#575E85" d="M49.09309,18.65c0.46237,1.64306,0.71006,3.39346,0.71006,5.19344
				c0,10.18863-7.90158,18.46178-17.66091,18.46178c-9.75106,0-17.66912-8.27314-17.66912-18.46178
				c0-1.79999,0.24769-3.54212,0.71006-5.18518c-3.45126-4.93744-2.96415-11.45192,1.99809-16.90953
				c1.38711,2.45219,3.40999,4.61542,5.21819,6.6961c2.79074-1.94855,6.15119-3.07144,9.7428-3.07144
				c3.59987,0,6.95205,1.12289,9.74279,3.06317c1.8082-2.07242,3.82281-4.23565,5.20992-6.68784
				C52.05719,7.19808,52.54435,13.72082,49.09309,18.65z"/><path fill="#FFF" d="M23.81671,11.97146c-0.2373,0-0.46973-0.11182-0.61621-0.3208
				c-0.2373-0.33936-0.15332-0.80713,0.18555-1.04395c2.58691-1.80566,5.61426-2.76025,8.75586-2.76025
				c3.13672,0,6.16504,0.95166,8.75488,2.75244c0.34082,0.23633,0.4248,0.70361,0.18848,1.04395
				c-0.2373,0.33887-0.7041,0.42383-1.04395,0.1875c-2.33789-1.625-5.07031-2.48389-7.89941-2.48389
				c-2.83301,0-5.56348,0.86084-7.89648,2.48975C24.11456,11.92752,23.96417,11.97146,23.81671,11.97146z" opacity=".2"/><path fill="#010101" d="M42.24006 20.42519c.64003-4.74443 1.30056-9.50909-.35503-11.98862 1.8082-2.07242 3.82281-4.23565 5.20992-6.68784C47.09496 1.74873 48.91142 13.02724 42.24006 20.42519zM22.03618 20.42519c-.64003-4.74443-1.30055-9.50909.35503-11.98862-1.8082-2.07242-3.82282-4.23565-5.20992-6.68784C17.18129 1.74873 15.36483 13.02724 22.03618 20.42519z" opacity=".1"/><path fill="#F1AD7E" d="M47.93324,26.97626c1.13156,4.65548-2.65411,14.31849-4.98455,18.50453
				c-1.29652,2.32887-4.73879,7.00734-7.28968,7.78035c-0.86523,0.2622-2.61745-0.82255-3.52153-0.82255
				s-2.65631,1.08475-3.52153,0.82255c-2.55089-0.77301-5.99316-5.45148-7.28968-7.78035
				c-2.33044-4.18604-6.11604-13.84905-4.98448-18.50453c2.27477-0.87701,4.02999-2.35522,5.33384-4.35575
				c2.99405-4.59387,5.06451,2.24676,10.46189,3.21438C37.42175,26.78222,44.88829,20.54747,47.93324,26.97626z"/><path fill="#172540" d="M33.03351 42.68338c-.19238 0-.38477-.07373-.53125-.2207-.29199-.29346-.29102-.76855.00195-1.06055.25977-.2583.58203-.58008 1.0293-.771.44727-.19238.90625-.20361 1.27441-.21289.00684 0 .0127 0 .01855 0 .40625 0 .74023.32373.75.73145.00977.41406-.31738.7583-.73145.76855-.26465.00635-.53809.01318-.7207.09131-.18359.07861-.37598.27002-.56152.45508C33.41632 42.61062 33.22491 42.68338 33.03351 42.68338zM31.24152 42.68338c-.19141 0-.38281-.07275-.5293-.21875-.18555-.18506-.37793-.37646-.56055-.45459-.18359-.07861-.45703-.08545-.72168-.0918-.41406-.01025-.74121-.35449-.73145-.76855.01074-.41357.32031-.70996.76855-.73145.36816.00928.82715.02051 1.27537.21338.44631.19043.76857.51221 1.02834.77051.29297.29199.29395.76709.00195 1.06055C31.62628 42.60965 31.4339 42.68338 31.24152 42.68338z"/><path fill="#FFF" d="M26.55485,43.91436c0,0,0.7663,0.64657,1.2213,1.48471c0,0,0.95678,1.90617,4.36137,1.90617
				s4.36137-1.90617,4.36137-1.90617c0.45499-0.83815,1.2213-1.48471,1.2213-1.48471l0.24895-0.18962
				c0,0-1.12903,0.88432-4.54142,0.29446c-0.2555-0.04416-0.51984-0.00376-0.74598,0.1231l0,0
				c-0.33804,0.18962-0.7504,0.18962-1.08844,0l0,0c-0.22614-0.12686-0.49048-0.16726-0.74598-0.1231
				c-3.41239,0.58986-4.54142-0.29446-4.54142-0.29446"/><path fill="#172540" d="M32.138,48.05545c-3.82422,0-4.98535-2.2251-5.03223-2.31982
				c-0.36719-0.67676-1.02832-1.24316-1.03516-1.24902c-0.02539-0.02148-0.04883-0.04395-0.07031-0.06787
				c-0.08398-0.04883-0.13477-0.08643-0.15723-0.10352c-0.32617-0.25537-0.38281-0.72656-0.12793-1.05273
				c0.25488-0.32568,0.72559-0.38428,1.05371-0.12793c-0.00098,0-0.00098,0-0.00098,0c0.00391,0,1.03906,0.64697,3.95117,0.14551
				c0.42969-0.07227,0.87012-0.00049,1.24219,0.2085c0.1084,0.06201,0.24512,0.06055,0.35352-0.00049
				c0.37012-0.2085,0.81348-0.28223,1.24121-0.20752c2.86719,0.49512,3.91406-0.12598,3.96973-0.16064
				c0.33008-0.24023,0.78906-0.17529,1.03711,0.14648c0.24219,0.31445,0.19727,0.76123-0.09668,1.02051
				c-0.00098,0.00049-0.00098,0.00049-0.00098,0.00049v0.00049c-0.01367,0.01172-0.02734,0.02295-0.04199,0.03369l-0.24805,0.18945
				l0,0c0.00195,0-0.64453,0.55957-1.0166,1.24561C37.12238,45.83035,35.96124,48.05545,32.138,48.05545z M28.39191,44.96463
				c0.01465,0.02588,0.0293,0.05127,0.04297,0.07715c0.03906,0.07178,0.85742,1.51367,3.70313,1.51367
				c2.84473,0,3.66309-1.44189,3.69629-1.50342c0.0166-0.0293,0.03223-0.05859,0.04883-0.0874
				c-0.69531,0.02441-1.54297-0.02686-2.58301-0.20605c-0.0918-0.01758-0.18164-0.00244-0.25,0.0376
				c-0.56348,0.31543-1.26074,0.31592-1.82422,0.00049c-0.07031-0.04053-0.15527-0.05322-0.25098-0.03857
				C29.93585,44.93777,29.08722,44.98953,28.39191,44.96463z"/><path fill="#FFF" d="M28.47482,37.74777c0,0-4.75004,2.02722-6.79712-2.78246
				C23.38691,35.70068,27.0836,33.13684,28.47482,37.74777z"/><path fill="#172540" d="M26.20734,38.92215c-1.66992,0-3.93066-0.63525-5.21973-3.66357
				c-0.12013-0.28174-0.05566-0.6084,0.16113-0.82471c0.21777-0.2168,0.54492-0.27783,0.82617-0.15771
				c0.12891,0.05566,0.31152,0.08252,0.55664,0.08252l0,0c0.3125,0,0.68066-0.04395,1.07129-0.09082
				c0.47461-0.05713,0.96484-0.11572,1.47656-0.11572c2.08203,0,3.42773,1.10498,4.11328,3.37891
				c0.11035,0.36621-0.07227,0.75684-0.42383,0.90674C28.72296,38.4573,27.61847,38.92166,26.20734,38.92215z M23.02179,35.83816
				c0.77637,1.05225,1.84277,1.58398,3.18457,1.58398c0.49707,0,0.94824-0.07471,1.29395-0.15674
				c-0.62207-1.40039-1.52441-1.61328-2.4209-1.61328c-0.42285,0-0.86719,0.05322-1.29785,0.10498
				C23.52081,35.78836,23.26886,35.81863,23.02179,35.83816z"/><path fill="#FFF" d="M35.80021,37.74777c0,0,4.75004,2.02722,6.79712-2.78246
				C40.88812,35.70068,37.19143,33.13684,35.80021,37.74777z"/><path fill="#172540" d="M38.06769,38.92215c-1.41113,0-2.51563-0.46484-2.56152-0.48438
				c-0.35156-0.15039-0.53418-0.54053-0.42383-0.90674c0.68555-2.27393,2.03125-3.37891,4.11328-3.37891
				c0.5127,0,1.00293,0.05859,1.47656,0.11572c0.69727,0.0835,1.33496,0.13525,1.62793,0.0083
				c0.28125-0.11963,0.6084-0.05908,0.82617,0.15771c0.2168,0.21631,0.28125,0.54297,0.16113,0.82471
				C41.99835,38.2864,39.73761,38.92215,38.06769,38.92215z M36.77374,37.26541c0.3457,0.08203,0.79785,0.15674,1.29395,0.15674
				c1.34277,0,2.40918-0.53174,3.18555-1.58447c-0.24707-0.01904-0.49902-0.04932-0.75977-0.08057
				c-0.43066-0.05176-0.875-0.10498-1.29785-0.10498C38.29913,35.65213,37.39679,35.86453,36.77374,37.26541z"/><path fill="#6C8CAB" d="M51.24898,22.4379c-0.54854,6.55006-7.10514,11.05611-13.33525,8.96635
				c-1.54119-0.51809-2.53962-1.27997-3.17719-2.10571c-0.59518-0.77083-1.47891-1.26401-2.45278-1.26401h-0.30204
				c-0.97223,0-1.85436,0.49265-2.44805,1.26256c-0.63563,0.82429-1.63116,1.58471-3.17238,2.10716
				c-6.23007,2.08976-12.78671-2.41629-13.33525-8.96635c-0.16326-1.95915-0.04572-4.31015,0.47018-7.14436
				c0,0,8.95179,0,15.94912,8.1811c0.57036,0.66685,1.40483,1.05303,2.28233,1.05303h0.81392
				c0.87708,0,1.71121-0.38577,2.28154-1.05209c7.00324-8.18203,15.95567-8.18203,15.95567-8.18203
				C51.2947,18.12776,51.41224,20.47876,51.24898,22.4379z"/><path fill="#F0523C" d="M41.05454,28.65526c-3.10227,0-4.5723-2.25697-4.5723-2.25697
				c2.01631-2.4783,6.10017-5.43973,8.47413-6.43855c1.49968-0.63097,3.1731,0.55431,3.04098,2.17595
				c-0.00085,0.0104-0.00171,0.02079-0.00257,0.03118C47.69025,25.80455,44.64153,28.65526,41.05454,28.65526z"/><path fill="#172540" d="M41.05499,29.40506c-3.46973,0-5.13184-2.4917-5.20117-2.59766
				c-0.17773-0.27295-0.1582-0.62939,0.04688-0.88232c2.16309-2.65967,6.35547-5.64258,8.76465-6.65674
				c1.13574-0.47705,2.49023-0.16992,3.32227,0.73193c0.55469,0.60205,0.82324,1.38184,0.75684,2.1958
				C48.40558,26.2532,45.0296,29.40506,41.05499,29.40506z M37.46027,26.40847c0.54199,0.56445,1.7207,1.49658,3.59473,1.49658
				c3.2002,0,5.9209-2.54785,6.19238-5.80078c0.03418-0.42139-0.0957-0.79688-0.36328-1.08691
				c-0.41211-0.44727-1.07129-0.604-1.63672-0.36621C43.14777,21.53445,39.5257,24.10086,37.46027,26.40847z"/><path fill="#F0523C" d="M16.28025,22.16686c-0.00087-0.01038-0.00173-0.02077-0.00257-0.03118
				c-0.13212-1.62164,1.5413-2.80692,3.04098-2.17595c2.37396,0.99882,6.45782,3.96024,8.47413,6.43855
				c0,0-1.47003,2.25697-4.5723,2.25697C19.6335,28.65526,16.58477,25.80455,16.28025,22.16686z"/><path fill="#172540" d="M23.22003,29.40506c-3.97461,0-7.35059-3.15186-7.68652-7.17578
				c-0.06934-0.84717,0.19922-1.62695,0.75391-2.229c0.83301-0.90186,2.1875-1.20898,3.32227-0.73193
				c2.4082,1.01367,6.60059,3.99658,8.76563,6.65625c0.20508,0.25293,0.22461,0.60986,0.0459,0.8833
				C28.35284,26.91385,26.68878,29.40506,23.22003,29.40506z M18.47198,20.53738c-0.40625,0-0.7998,0.1748-1.08105,0.47998
				c-0.26758,0.29004-0.39746,0.66553-0.36621,1.05762c0.27441,3.28223,2.99512,5.83008,6.19531,5.83008
				c1.86914,0,3.05176-0.93359,3.59473-1.49756c-2.06641-2.30762-5.68848-4.87305-7.78711-5.75635
				C18.84796,20.57547,18.66144,20.53738,18.47198,20.53738z"/><path fill="#172540" d="M51.34998,7.36288c-0.70996-2.12006-1.95001-4.19-3.70001-6.12006
				c-0.15997-0.17999-0.38995-0.26996-0.63995-0.23999C46.77002,1.03286,46.56,1.17288,46.44,1.38284
				c-0.47003,0.83002-1.02002,1.63-1.60999,2.41003C41.17999,2.31283,37.17999,1.50284,33,1.50284
				c-4.67999,0-9.12,1.02002-13.12,2.84003C19.12,3.39285,18.40997,2.41287,17.83002,1.38284
				c-0.11005-0.20996-0.33002-0.34998-0.57001-0.38c-0.23999-0.02997-0.47003,0.06-0.63,0.23999
				c-2.22003,2.44-3.62,5.12006-4.16998,7.82001C5.59998,14.89285,1.25,23.57284,1.25,33.26284
				c0,17.76009,14.47748,31.73999,31.75,31.73999c17.62992,0,31.75-14.44248,31.75-31.73999
				C64.75,22.58285,59.45001,13.11288,51.34998,7.36288z M63.25,33.26284c0,7.20465-2.56824,14.14008-7.22321,19.59277
				c-2.37207-1.33942-5.6853-1.82922-5.11682-4.93274c0.67004-3.76001-2.72998-6.24005-4.83997-7.41003
				c1.42999-3.59998,2.70001-7.87,2.79999-11.17999c0.47998-0.5,0.91998-1.03998,1.29999-1.62v-0.01001
				C51.19,26.19284,51.83997,24.41287,52,22.50283c0.17999-2.08997,0.02002-4.5-0.45001-7.15997
				c0.56-1.83002,0.67999-3.75,0.38-5.66003C58.83002,15.23288,63.25,23.73288,63.25,33.26284z M45.99994,60.55502
				c1.58838-2.96234,3.58264-5.55865,4.84003-8.74219c0.51526,0.43597,3.68719,2.02844,4.11487,2.23273
				C52.33571,56.80835,49.4035,58.93235,45.99994,60.55502z M43.81354,61.49752c-0.25763,0.10052-0.51843,0.19427-0.77893,0.28894
				c-0.15247,0.05365-0.30798,0.0993-0.46149,0.15051l2.06689-10.60413l0.01996-0.09998
				c0.32001-0.14001,0.78003-0.38,1.28003-0.70001c1.17999-0.75,2.56-1.97998,2.63-3.60999c0.06-1.54004-1.06-3-3.35004-4.37
				c0.09003-0.21002,0.17999-0.41003,0.27002-0.63c1.78998,1.00995,4.42999,3,3.94,5.72998
				C49.25,48.62283,49.38,49.57284,49.76001,50.39285c-1.27972,3.89911-4.08862,7.09851-5.87866,11.07727
				C43.85858,61.47891,43.8363,61.4888,43.81354,61.49752z M25.08783,62.43185l-2.29785-11.86902
				c-0.04999-0.25-0.21997-0.44995-0.45996-0.54999c-0.06-0.02002-0.12-0.04999-0.19-0.07001
				c0.16998-0.38995,0.31-0.79999,0.41998-1.22998c1.64001,2.22998,3.88,4.66998,5.83997,5.27002
				c1.14001,0.33997,3.05005-0.79004,3.74005-0.79004c0.57001,0,2.17999,0.86005,3.20996,0.86005
				c0.19,0,0.37-0.03003,0.53003-0.07001c2.54999-0.78003,5.58997-4.69,7.15997-7.17999
				c0.14001,1.13995,0.40002,2.22998,0.79999,3.15997c-0.04999,0.02002-0.07996,0.03998-0.12,0.04999
				c-0.23999,0.10004-0.40997,0.29999-0.45996,0.54999l-2.30792,11.86938C35.61841,63.88072,30.07312,63.78214,25.08783,62.43185z
				 M22.10803,61.45889c-1.75012-3.88831-4.56848-7.1474-5.84802-10.99603c0.39996-0.84003,0.53998-1.81,0.35999-2.81
				c-0.37-2.07001,1.06-3.71002,2.54999-4.83002c0.10999,0.22003,0.21002,0.45001,0.31,0.66003
				c-1.38,1.08997-2.04999,2.23999-2,3.44c0.07001,1.60999,1.41998,2.82996,2.59003,3.57996
				c0.51996,0.34003,1,0.58002,1.32001,0.73004v0.01996l2.07574,10.68817C23.1705,61.84351,23.08793,61.83677,22.10803,61.45889z
				 M11.05536,54.05508c0.20612-0.10364,3.32483-1.68225,3.33466-1.68225c0.28998-0.14996,0.53998-0.33997,0.78998-0.53998
				c1.2865,3.25116,3.23907,5.79639,4.79694,8.70648C16.43238,58.84793,13.59864,56.72912,11.05536,54.05508z M13.87,17.97287
				c0.06-0.60999,0.15002-1.23999,0.25-1.89001c0.15002,0.01001,0.32001,0.03003,0.52002,0.06
				c2.25,0.27002,7.44995,1.37,12.20996,5.72998c0.69,0.62,1.37,1.32001,2.03003,2.09003c0.70996,0.84003,1.75,1.31,2.84998,1.31
				h0.81c0.27002,0,0.53003-0.03003,0.79004-0.09003c0.00995,0.01001,0.00995,0,0.01996,0
				c0.79004-0.16998,1.51001-0.58997,2.04004-1.21997c5.25-6.12,11.69-7.52002,14.25-7.82001
				c0.19-0.02997,0.35999-0.04999,0.50995-0.06c0.11005,0.65002,0.20001,1.28003,0.25,1.90002
				c0.18005,1.58997,0.21002,3.06,0.10004,4.38995c0,0.01001,0,0.01001,0,0.02002c-0.14001,1.75-0.77002,3.37-1.73999,4.72003
				c-0.01001,0.01996-0.02002,0.02997-0.03003,0.04999c-0.39001,0.56-0.83997,1.07001-1.33997,1.52997
				c-1.69,1.54004-3.92004,2.48004-6.33002,2.48004c-0.98999,0-1.96002-0.16003-2.91003-0.48004
				c-1.23999-0.41998-2.18994-1.03998-2.81995-1.84998c-0.76001-0.98999-1.87-1.56-3.05005-1.56h-0.29999
				c-1.16998,0-2.27997,0.57001-3.03998,1.56c-0.62,0.79999-1.57001,1.42999-2.82001,1.84998
				c-0.94,0.32001-1.91998,0.48004-2.90002,0.48004c-3.19746,0-6.04924-1.67852-7.67999-4.02002
				c-0.01001-0.01001-0.01996-0.03003-0.02997-0.03998c-0.96002-1.36005-1.59003-2.97003-1.73999-4.72003
				c0-0.01001,0-0.01001,0-0.02002C13.65997,21.04287,13.69,19.57284,13.87,17.97287z M21.03467,32.43869
				c-0.00702,0.06775-0.01752,0.13519-0.00507,0.20563c0.07129,0.4082,0.4668,0.68359,0.86719,0.60938
				c0.96875-0.16992,2.53809-0.36963,3.00586-0.28125c1.10742,0.20801,4.11035,1.92627,5.17383,2.57129
				c0.35071,0.21212,0.81277,0.10482,1.03027-0.25293c0.21484-0.354,0.10156-0.81543-0.25293-1.02979
				c-0.30682-0.18628-2.40021-1.44421-4.10706-2.20758c1.46454-0.52002,2.60059-1.28601,3.38324-2.3006
				c0.46997-0.60999,1.14996-0.96997,1.84998-0.96997h0.29999c0.71002,0,1.39001,0.35999,1.86005,0.96997
				c0.78204,1.01379,1.92615,1.78802,3.38953,2.29974c-1.70709,0.76343-3.80139,2.02209-4.10834,2.20844
				c-0.35449,0.21436-0.46777,0.67578-0.25293,1.02979c0.21784,0.35831,0.68094,0.46514,1.03027,0.25244
				c1.06348-0.64404,4.06543-2.3623,5.17383-2.57129c0.46582-0.08594,2.03711,0.11182,3.00586,0.28174
				c0.40234,0.07422,0.7959-0.20117,0.86719-0.60938c0.01245-0.07019,0.00189-0.13739-0.00507-0.2049
				c1.46143-0.30597,2.83063-0.9046,4.02966-1.74658C46.38,38.20285,40.40997,51.04287,35.44,52.54287
				c0,0-0.03003,0.01001-0.09003,0.01001c-0.70001,0-2.23999-0.86005-3.20996-0.86005c-1,0-2.41003,0.85004-3.28003,0.85004
				h-0.02997c-1.72003-0.52002-4.22003-3.40002-5.87-5.86005c-1.22003-1.75995-2.30005-4.10999-3.11005-6.09998
				c-1.27997-3.10999-2.48999-6.84998-2.85999-9.90002C18.19141,31.52652,19.56384,32.1304,21.03467,32.43869z M44.58997,43.91287
				c1.66003,1.01996,2.51001,2.02997,2.48004,2.95001c-0.04004,0.92999-0.98999,1.77997-1.91003,2.37994
				c-0.53998-1.31-0.75-3.03998-0.81-4.81995C44.42999,44.26284,44.51001,44.08285,44.58997,43.91287z M21.39001,47.03286
				c-0.12,0.79999-0.30005,1.53998-0.56,2.17999c-0.90002-0.59998-1.81-1.45001-1.85004-2.34998
				c-0.02997-0.64001,0.37-1.31,1.16998-2C20.53148,45.60445,20.88761,46.27069,21.39001,47.03286z M33,3.00284
				c3.82001,0,7.47998,0.71002,10.84998,2.02002C43.25,5.74283,42.62,6.45285,42.01001,7.15286l-0.25,0.29999
				C38.87,5.60287,35.56,4.62283,32.14001,4.62283c-3.42004,0-6.73004,0.98004-9.61005,2.83002l-0.31995-0.37
				c-0.44-0.5-0.89001-1.01001-1.34003-1.52997C24.58997,3.91287,28.69,3.00284,33,3.00284z M17.07001,3.02285
				c1.27817,2.0044,2.92185,3.8257,4.76001,5.90997c0.25995,0.29004,0.67999,0.35004,1,0.13c2.75-1.91998,5.96997-2.94,9.31-2.94
				c3.33997,0,6.56,1.01001,9.32001,2.93005c0.31,0.21997,0.73999,0.16998,0.98999-0.12006l0.69-0.78998
				c1.44407-1.64472,2.87854-3.26946,4.06-5.12c2.69321,3.29557,4.12176,7.4576,2.98999,11.53998
				c-2.16003,0.15002-9.75,1.19-15.94,8.42004c-0.42999,0.50995-1.04999,0.78998-1.71002,0.78998h-0.81
				c-0.65997,0-1.27997-0.28003-1.70996-0.78998c-6.19-7.23004-13.77002-8.27002-15.93005-8.42004
				C12.95658,10.43398,14.40515,6.30787,17.07001,3.02285z M12.20001,11.32284c-0.04004,1.35004,0.13,2.70001,0.52997,4
				c-0.47998,2.66998-0.63,5.08002-0.45001,7.17999c0.16003,1.91003,0.81,3.69,1.82001,5.20001
				c0.38,0.58002,0.82001,1.13,1.29999,1.62c0.11005,3.58002,1.59003,8.29999,3.16003,12.08002
				c-1.91998,1.34998-3.95001,3.53998-3.41998,6.52002c0.13,0.71997,0.00995,1.40997-0.30005,1.98999
				c-0.03998,0.04999-0.07996,0.10999-0.09998,0.17999c-0.26001,0.39996-0.60999,0.72998-1.03998,0.95001
				c-1.95856,1.04016-3.05902,1.54431-3.69659,1.85596C5.32587,47.42392,2.75,40.4783,2.75,33.26284
				C2.75,24.62283,6.38,16.82284,12.20001,11.32284z"/></svg>