<svg xmlns="http://www.w3.org/2000/svg" enable-background="new 0 0 66 66" viewBox="0 0 66 66"><path fill="#3590CE" d="M63.99782,33.24397c0,17.11822-13.87907,30.99729-30.99728,30.99729
				c-17.12365,0-31.00272-13.87907-31.00272-30.99729c0-17.12365,13.87907-31.00271,31.00272-31.00271
				C50.11876,2.24125,63.99782,16.12032,63.99782,33.24397z"/><path fill="#575E85" d="M52.00064,49.19331c-13.32346,16.97729-25.95978,16.14233-38.00565,0
				c2.89111-3.16815,1.54188-10.22719,1.54188-10.22719c-2.98742-15.11799,0.20484-22.57457,3.61385-29.04335
				c6.0472-11.49201,13.85308-7.51679,13.85308-7.51679s7.7939-3.97522,13.8411,7.51679
				c3.40901,6.46878,6.60127,13.92536,3.61385,29.04335C50.45876,38.96612,49.10959,46.02515,52.00064,49.19331z"/><path fill="#575E85" d="M55.77782,54.27122c-5.66998,6.13-13.77997,9.97004-22.77997,9.97004s-17.10999-3.84003-22.78003-9.97004
				c3.42004-0.39001,6.92004-0.62,9.58002-2.76001c3.35999-2.69,2.40002-8.27997,2.40002-12.63995h21.58997
				c0,4.34998-0.94,9.94995,2.40002,12.63C48.85784,53.64122,52.35784,53.88121,55.77782,54.27122z"/><path fill="#F1AD7E" d="M47.72799,21.39808c1.27552,4.32907,0,18.05227,0,18.05227H18.26756c0,0-1.2753-13.72314,0-18.05227
				c0.93448-3.1722,6.03959-9.36142,9.34657-9.36051c0.15862,0.00004,0.32814,0.03751,0.50564,0.10618
				c3.17531,1.22826,6.57471,1.24712,9.74423,0.00401c0.18182-0.07131,0.35533-0.11025,0.51742-0.11019
				C41.68839,12.0388,46.79334,18.22593,47.72799,21.39808z"/><path fill="#575E85" d="M47.72799,34.72188v5.00977l-1.85151,7.18727c-0.76467,2.96832-2.50684,5.59256-4.94555,7.44952
				c-2.74517,2.09031-3.94247,3.37846-6.30246,3.37846H31.365c-2.79042,0-6.40506-3.46025-6.30493-3.38388
				c-2.43067-1.85374-4.16819-4.47024-4.93382-7.42968l-1.86311-7.20169v-5.00977l3.4984,4.69053l8.3316-3.09681l1.38636-1.59372
				h3.03204l1.39941,1.59372l8.31855,3.09681L47.72799,34.72188z"/><path fill="#FFF" d="M28.87675 30.91191c0 0-5.3445 2.28092-7.64777-3.13068C23.1521 28.60863 27.31141 25.72394 28.87675 30.91191zM37.1189 30.91191c0 0 5.3445 2.28092 7.64777-3.13068C42.84355 28.60863 38.68423 25.72394 37.1189 30.91191z"/><path fill="#172540" d="M41.78003,2.73472c-3.75-2.47998-7.21002-1.69995-8.54999-1.23999c-0.10069,0-0.56071,0-0.46002,0
				c-1.34003-0.45996-4.81-1.23999-8.54999,1.23999C10.97003,6.54478,1.25,18.78477,1.25,33.24473
				c0,8.23999,3.16003,15.76001,8.32001,21.41003c0,0,0.01001,0,0.01001,0.01001c1.14525,1.52777,5.12438,4.91402,9.28998,7
				c4.49923,2.24931,9.32878,3.32996,14.13,3.32996c0.59003,0,1.17999-0.01996,1.76001-0.04999
				C51.84455,63.94085,64.75,49.8488,64.75,33.24473C64.75,18.78477,55.03003,6.54478,41.78003,2.73472z M33.34003,3.07474
				c5.66096-2.09136,10.04977,1.87791,12.83997,7.20001c10.58049,20.07876-0.80125,31.10833,4.86005,38.91998
				c-0.82001,1.03003-1.64001,1.98999-2.46002,2.88c-1.14061-0.5032-2.277-1.2612-2.96002-2.31
				c0.93677-1.89559,2.35874-8.07113,2.86005-10.23999c0.04999-0.57001,1.26996-13.91998-0.03003-18.34003
				c-1.0822-3.67489-7.31285-11.05363-10.85999-9.73999c-5.25761,2.07813-9.05591-0.15997-9.98004-0.15997
				c-3.83997,0-9.09998,6.63995-10.06,9.89996c-1.12913,3.82999-0.24625,18.02187-0.00995,18.73004
				c1.74724,6.50524,1.83037,7.80185,2.82996,9.84998c-0.68884,1.0826-1.87722,1.85447-3.04999,2.34998
				c-0.78998-0.89996-1.58002-1.85999-2.37-2.89996c5.65599-7.77417-5.72781-18.88508,4.87-38.94
				C25.74838-1.0332,32.56503,3.4806,33.34003,3.07474z M19.01001,36.98472c2.14961,2.82019,2.12392,2.9979,2.46002,3.11005v0.10999
				h1.5c0-0.15002,0-0.29999-0.01001-0.44c0.10191-0.03787,7.88408-2.92991,7.39996-2.75
				c0.29229-0.10618,0.27976-0.22855,1.46002-1.53998h2.34998c1.19147,1.31408,1.18314,1.44106,1.48004,1.53998
				c0.10021,0.03734,7.48238,2.78816,7.38,2.75c-0.01001,0.14001-0.01001,0.28998-0.02002,0.44h1.51001v-0.09998
				c0.35156-0.14663,0.31623-0.30751,2.46002-3.12006c0,0.50852,0,2.7735,0,2.65002l-0.15002,0.57001
				c-2.06508,7.94342-1.73474,9.93454-7.56,14.5c-1.88,1.47998-2.91003,2.28998-4.64001,2.28998H31.37
				c-2.33837,0-5.37265-2.87144-5.84998-3.22998c-2.18536-1.65837-3.86256-4.03188-4.66998-7.02002
				c-0.02588-0.10002-1.96286-7.58464-1.84003-7.10999C19.01001,39.0399,19.01001,36.86124,19.01001,36.98472z M18.64001,34.07475
				c-0.23999-4.28998-0.38-10.01001,0.34998-12.46002c1.03449-3.52861,6.74031-9.58501,8.86005-8.76996
				c5.81117,2.24836,10.14262-0.06,10.52997-0.06c2.84003,0,7.72998,5.76001,8.63,8.82996
				c0.72003,2.45001,0.58002,8.17004,0.34998,12.46002c-0.25218,0.14012-0.12481,0.09619-3.19,4.15997
				c-0.28139-0.17896-0.49505-0.08335-1.25995-0.10999l-6.56-2.45001c-1.13142-1.18726-1.25238-1.69995-1.84003-1.69995
				c-2.91823,0.0761-3.20738-0.18506-3.59998,0.25995l-1.26001,1.44l-6.57001,2.45001
				c-0.77294,0.02691-0.97997-0.06811-1.26001,0.10999C18.87693,34.32011,18.89504,34.21635,18.64001,34.07475z M10.54004,53.47477
				C5.69,48.11472,2.75,41.01475,2.75,33.24473c0-12.52997,7.66003-23.31,18.54999-27.88995c-0.95996,1.12-1.90997,2.5-2.81,4.21997
				c-3.50995,6.65003-6.67999,14.40997-3.69,29.53003c0.01001,0.06995,1.24005,6.72998-1.35999,9.57996
				c-0.49566,0.55769-0.22664,0.94261,2.35004,3.97003C14.1128,53.12126,12.25536,53.2913,10.54004,53.47477z M53.29004,55.65476
				c-5.25678,4.83583-12.69356,7.6008-18.26001,7.76001c-0.67999,0.06-1.35004,0.07996-2.03003,0.07996
				c-8.67933,0-16.24457-3.74458-21.14996-8.64996c3.14797-0.36821,7.15913-0.97997,9.31995-3.64001
				c0.91003,1.44,2.08002,2.71997,3.44,3.75v0.01001c0.02002,0.01001,0.04004,0.02997,0.07001,0.03998
				c1.11005,1.27002,4.5,3.48999,6.69,3.48999H34.63c2.62474,0,4.01342-1.42966,6.75-3.52997
				c1.37-1.04004,2.53998-2.32001,3.44-3.76001c2.188,2.59306,6.02134,3.26186,9.33002,3.64001
				C54.04484,54.9461,53.39643,55.60149,53.29004,55.65476z M55.46002,53.48472c-1.77329-0.19599-3.66267-0.381-5.35004-0.85999
				c2.41557-2.73956,3.01107-3.32321,2.44-3.94c-2.59998-2.84998-1.37-9.51001-1.35999-9.57001
				c2.98999-15.13-0.17999-22.88995-3.67999-29.53998c-0.90997-1.71997-1.85999-3.10998-2.83002-4.22998
				C55.58002,9.92472,63.25,20.70475,63.25,33.24473C63.25,41.02476,60.29999,48.11472,55.46002,53.48472z"/><path fill="#172540" d="M26.32001,32.13474c1.15305,0,3.61805-0.2692,3.27002-1.44c-1.50408-5.03366-5.50352-3.5-7.40002-3.5
				c-0.70356,0-1.0374-0.39259-1.48999,0.06c-0.21997,0.21002-0.28003,0.54004-0.15997,0.82001
				C21.97003,31.43473,24.47003,32.13474,26.32001,32.13474z M27.91003,30.43473c-2.12103,0.51747-4.08146,0.08831-5.34003-1.75
				C23.28588,28.64144,26.78362,27.74401,27.91003,30.43473z"/><path fill="#172540" d="M24.87482 25.44675c1.71599.32324 5.80041 3.01367 6.24121 3.01367.75753 0 1.03743-.999.38965-1.3916-6.0519-3.66666-6.70402-3.41866-10.30566-2.78223-.40723.07129-.68066.45996-.6084.86719C20.83016 26.5197 23.12485 25.10702 24.87482 25.44675zM44.47003 27.09476c-1.44353.61844-6.33854-2.11839-8.07001 3.59998-.36215 1.21829 2.39147 1.44 3.26996 1.44 1.85004 0 4.36005-.70001 5.79004-4.06.12-.27997.04999-.60999-.16003-.82001C45.08002 27.03477 44.75 26.96476 44.47003 27.09476zM38.08002 30.43473c1.13734-2.67979 3.07226-1.88778 5.34998-1.75C42.53003 29.98472 40.23893 30.96152 38.08002 30.43473z"/><path fill="#172540" d="M35.2674,28.35203c5.69691-3.45337,6.05486-3.14976,9.26855-2.58887
				c0.40918,0.0752,0.79688-0.20117,0.86816-0.60938c0.07227-0.40723-0.20117-0.7959-0.6084-0.86719
				c-0.48535-0.08496-2.95605-0.49805-3.95313-0.31445c-1.75293,0.33008-5.88672,2.81445-6.35254,3.09668
				c-0.35449,0.21484-0.46777,0.67578-0.25293,1.03027C34.45414,28.45532,34.91523,28.56503,35.2674,28.35203z"/></svg>