<svg xmlns="http://www.w3.org/2000/svg" enable-background="new 0 0 66 66" viewBox="0 0 66 66"><path fill="#3590CE" d="M63.99761,33.21609c0,17.11822-13.87907,30.99728-30.99728,30.99728
				c-17.12365,0-31.00272-13.87907-31.00272-30.99728c0-17.12365,13.87907-31.00272,31.00272-31.00272
				C50.11855,2.21337,63.99761,16.09244,63.99761,33.21609z"/><path fill="#27B14B" d="M55.78242,54.23935c-5.66998,6.12988-13.78003,9.96997-22.78003,9.96997
				s-17.10999-3.84008-22.77997-9.96997c3.41998-0.39014,6.91998-0.62012,9.58002-2.76001
				c3.35999-2.69006,2.39996-8.28003,2.39996-12.64014h21.59003c0,4.3501-0.94,9.95007,2.39996,12.63013
				C48.86243,53.60923,52.36243,53.84922,55.78242,54.23935z"/><path fill="#F1AD7E" d="M48.72242,60.03692c-4.60999,2.71997-9.98999,4.27996-15.71997,4.27996
				s-11.10999-1.55999-15.72003-4.27996c1.96002-1.59003,3.67004-3.19,4.40002-4.40002c2.28003-3.81,3.31-17.44995,3.31-17.44995h16
				c0,0,1.03998,13.62994,3.31,17.44C45.04243,56.84692,46.75245,58.45691,48.72242,60.03692z"/><path fill="#F1AD7E" d="M48.00827,20.98893l-0.75414,9.88857l-1.42281,13.88667l-7.04674,9.82207
				c-0.79248,1.10459-2.06865,1.75965-3.42811,1.75965h-4.71782c-1.35946,0-2.63564-0.65506-3.42811-1.75965l-7.04674-9.82207
				L18.741,30.87749l-0.75405-9.88857l4.39644-7.18519h21.22834L48.00827,20.98893z"/><polygon fill="#444A88" points="44.173 34.355 36.87 38.187 32.998 34.819 29.125 38.187 21.822 34.355 23.45 27.64 32.998 27.146 42.545 27.64"/><path fill="#FFF" d="M34.4666 32.7414c0 0 2.83331 3.75187 5.80365.49718C38.03918 31.62974 36.11768 31.52752 34.4666 32.7414zM31.52863 32.7414c0 0-2.83331 3.75187-5.80365.49718C27.95604 31.62974 29.87754 31.52752 31.52863 32.7414z"/><path fill="#27B14B" d="M50.97649,19.68494v31.2995l-6.05417,4.32022c0,0,0.08816-14.41541-1.07277-19.04425
				C43.21769,33.77702,39.5,26.98811,39.5,26.98811l-6.49499,3.51203l-6.50979-3.51203c0,0-3.71769,6.7889-4.34955,9.27229
				c-1.16093,4.62884-1.07277,19.04425-1.07277,19.04425l-6.05417-4.32022v-31.2995c0-4.95208,2.02786-9.44862,5.2754-12.71087
				c3.24754-3.24754,7.74409-5.26069,12.71087-5.26069c4.95208,0,9.44862,2.01315,12.69608,5.26069
				C48.96333,10.23632,50.97649,14.73286,50.97649,19.68494z"/><line x1="33.005" x2="33.005" y1="30.5" y2="1.713" fill="#F1AD7E"/><path fill="#FFF" d="M27.17324,46.23659c0,0,0.79948,0.67456,1.27417,1.54899c0,0,0.99821,1.9887,4.5502,1.9887
				s4.55019-1.9887,4.55019-1.9887c0.47469-0.87443,1.27417-1.54899,1.27417-1.54899l0.25974-0.19783
				c0,0-1.17791,0.92261-4.73804,0.30721c-0.26657-0.04608-0.54235-0.00393-0.77828,0.12843l0,0
				c-0.35267,0.19784-0.78289,0.19784-1.13556,0l0,0c-0.23594-0.13235-0.51171-0.17451-0.77828-0.12843
				c-3.56013,0.6154-4.73804-0.30721-4.73804-0.30721"/><path fill="#172540" d="M39.63,2.1675c-4.3185-1.63241-9.1098-1.5688-13.26001,0C12.03003,5.21755,1.25,17.97756,1.25,33.21755
				c0,8.23999,3.16003,15.76001,8.32001,21.40991c0,0,0.01001,0,0.01001,0.01001c0.31596,0.42213,2.55359,2.68874,5.02997,4.43994
				c0,0.05827,1.98089,1.30878,2.03003,1.34009c0,0.01001,0,0.01001,0,0.01001c1.12011,1.5996,17.02864,9.36267,32.46002,0.25
				c0.10999-0.06006,0.19995-0.15002,0.25995-0.25c0,0,0,0,0-0.01001c0.10007-0.06372,2.03003-1.23997,2.03003-1.34009
				c2.91154-2.05893,4.42064-3.83168,4.94-4.32983c0.01001-0.02002,0.02997-0.04004,0.04999-0.06006
				c0.02002-0.01001,0.03003-0.03003,0.03998-0.05005c0-0.01001,0-0.01001,0.01001-0.01001
				C61.59003,48.97756,64.75,41.45754,64.75,33.21755C64.75,17.97756,53.97003,5.21755,39.63,2.1675z M45.54999,7.90749
				c-4.3233,7.28095-4.70724,8.33718-6.71997,18.59009c-0.103,0.05567-5.17297,2.79572-5.07001,2.73999
				c0-8.17655,0-18.09094,0-26.25C38.39007,3.08748,42.22267,4.02505,45.54999,7.90749z M50.22998,19.68752v30.90991
				c-0.10056,0.07167-4.85851,3.46276-4.56,3.25c0-16.72165-0.89511-17.98173-2.91998-22.19995c0,0,0,0,0-0.01001
				c-0.94735-1.94291-1.78271-3.50578-2.46002-4.77002c0-0.12754,1.58563-8.1078,2.48004-10.5
				c0.60093-1.63043,2.95451-5.7703,3.81-7.26001C48.95001,12.11746,50.22998,15.80752,50.22998,19.68752z M18.69,59.83743
				c3.54368-3.0149,4.23776-4.12014,5.22998-8.53992l2.68005,3.72998c2.21134,3.06746,5.6866,1.76382,8.75995,2.06995
				c3.75315,0,4.7607-3.59174,6.71002-5.79993c1.00213,4.46392,1.70771,5.5345,5.22998,8.54993
				C39.26768,64.34992,28.24319,64.9733,18.69,59.83743z M15.77002,50.59743V19.68752c0-3.86999,1.27997-7.56006,3.64996-10.58008
				c0.92545,1.63982,3.24389,5.72339,3.81,7.26001c0.94289,2.52185,2.44664,10.39979,2.48004,10.5
				c-0.76969,1.43667-1.59646,2.98944-2.45001,4.77002C23.25,31.64748,23.25,31.64748,23.25,31.64748
				c-1.98092,4.12708-2.92999,5.34634-2.92999,22.19995C20.21953,53.77567,15.47173,50.38437,15.77002,50.59743z M32.26001,2.98757
				c0,0.59651,0,27.88449,0,26.26001c-0.10302-0.05562-5.06585-2.7352-4.76001-2.57007l-0.33002-0.17993
				c-2.0239-10.31177-2.23321-10.90879-6.71997-18.6001C24.10161,3.94128,27.53599,3.06312,32.26001,2.98757z M39.31,28.22756
				c0.73999,1.37988,2.16998,4.12988,3.07001,6.22998l-5.40002,2.82996l-3.48999-3.03003
				c-0.83897-0.74916-1.4679,0.67994-4.46997,3.03003l-5.41003-2.83997c0.91003-2.11011,2.34003-4.8501,3.08002-6.22998
				l0.46002-0.02002c5.6408,3.03892,5.73417,3.28416,6.27997,2.91992l5.42004-2.91992L39.31,28.22756z M44.02002,45.99758
				c-0.07128,0.10003-1.21296,1.70222-1.14001,1.59985l-1.22998,1.71008c-2.94572,3.5769-3.48602,6.28992-6.29004,6.28992h-4.71997
				c-1.12,0-2.16998-0.53992-2.82001-1.44995c-0.07221-0.1006-5.99611-8.3537-5.84998-8.1499
				c0.0869-2.25985,0.31821-8.02737,1.08997-10.15015c0.10068,0.05281,4.5522,2.38802,4.27002,2.23999
				c1.10273,0.55799,1.73886,1.14236,2.28998,0.67004c0.10062-0.08752,3.59829-3.12981,3.38-2.93994
				c0.10072,0.0876,2.78085,2.4185,2.60999,2.2699c0.66407,0.52271,0.80298,0.8501,1.26001,0.8501
				c0.30163,0,0.37455-0.12881,1.79999-0.8501c0.10068-0.05281,4.5522-2.38802,4.27002-2.23999
				C43.70821,38.26256,43.91559,43.28205,44.02002,45.99758z M21.85999,50.1675c0.19-0.34009,0.36005-0.69995,0.49005-1.07007
				L22.75,49.65749c-0.27002,1.38-0.58002,2.67993-0.91998,3.73999C21.83002,52.52749,21.84003,51.40749,21.85999,50.1675z
				 M44.16003,53.38747c-0.34003-1.06006-0.65002-2.34998-0.92004-3.72998l0.41003-0.57007
				c0.13,0.37012,0.28998,0.7301,0.47998,1.07007C44.15002,51.40749,44.16003,52.51748,44.16003,53.38747z M2.75,33.21755
				c0-12.29004,7.37-22.89014,17.91998-27.61011c-0.31,0.26001-0.62,0.55005-0.90997,0.84009
				C19.5,6.70754,19.27002,6.95754,19.03998,7.22756c-0.00995,0-0.00995,0-0.01996,0.02002
				C19,7.25747,18.98999,7.26748,18.97998,7.2875C18.92999,7.32742,18.90002,7.37746,18.87,7.42751
				c-2.97998,3.41992-4.59998,7.71997-4.59998,12.26001c0.12408,32.85219-0.28371,31.47279,0.31,31.90991l1.37,0.97998
				c-1.59861,0.46121-3.5172,0.6687-5.41003,0.88013C5.70001,48.08743,2.75,40.99758,2.75,33.21755z M12.71002,55.62746
				c-0.10784-0.05392-0.75963-0.71325-0.85999-0.80994c1.90997-0.22009,3.83997-0.49011,5.60999-1.16003l3.13,2.21997
				C19.91998,56.71755,18.81,57.79751,17.31,59.04751C15.82997,58.168,14.12474,56.9289,12.71002,55.62746z M48.70001,59.04751
				c-1.47003-1.21008-2.59998-2.29993-3.28998-3.16003l3.13995-2.23999c1.77002,0.67993,3.69,0.94995,5.60004,1.17004
				C52.63303,56.33384,50.74508,57.82146,48.70001,59.04751z M55.10999,53.40749c-1.76996-0.19995-3.48999-0.39001-5.06-0.83997
				l1.36005-0.97009c0.19995-0.13989,0.31995-0.36987,0.31995-0.60986V19.68752c0-4.6001-1.65997-8.93994-4.67999-12.36011
				c-0.01996-0.02991-0.03998-0.05994-0.07001-0.07983C46.57043,6.76971,45.88553,6.08016,45.31,5.59744
				c10.56,4.71008,17.94,15.32007,17.94,27.62012c0,7.77002-2.94,14.86987-7.78998,20.22998L55.10999,53.40749z"/><path fill="#172540" d="M34.70001 43.80752c.71002-.71008.84998-.76001 1.84998-.79004.41003-.01001.73999-.34998.73004-.7699-.01001-.41016-.35004-.70007-.77002-.7301-1.38.03003-1.89001.25-2.85999 1.22009-.29999.29993-.29999.7699-.01001 1.05994C33.95583 44.11345 34.41628 44.09125 34.70001 43.80752zM29.45001 43.01748c1 .03003 1.13.07996 1.83997.79004.74599.69622 1.73346-.37344 1.06006-1.06995-.98004-.97009-1.49005-1.19006-2.87006-1.22009-.40997.03003-.75995.31995-.76996.7301C28.70001 42.6675 29.03003 43.00747 29.45001 43.01748zM38.64001 45.43752c-.06.03003-1.16003.68994-4.16998.16992-.95969-.17439-1.2922.43033-1.67004.21008-.97081-.53671-1.37704-.01001-3.38995-.01001-1.47003 0-2.03003-.35999-2.03003-.35999-.7834-.61722-1.71017.57043-.92999 1.17993.02002.02002.08002.06006.15997.11011.03003.0199.05005.04993.08002.06995.01001.01001.70001.60999 1.09003 1.31995 1.76334 3.17789 8.59588 3.22972 10.42999.02002.40738-.76248.9914-1.22905 1.32996-1.51001.01001-.02002.03003-.03003.05005-.04004C40.29198 45.92043 39.39226 44.89049 38.64001 45.43752zM29.03003 47.29751c.73999.02991 1.63995-.02002 2.75-.21008.09998-.0199.19995-.01001.27997.04004 1.10087.60749 1.80775-.11011 2.16003-.04004 1.10999.19006 2.01996.23999 2.73999.21008C36.21769 49.14881 31.08833 50.03912 29.03003 47.29751z"/></svg>