<svg xmlns="http://www.w3.org/2000/svg" enable-background="new 0 0 66 66" viewBox="0 0 66 66"><path fill="#F0523C" d="M63.99771,33.31647c0,17.11822-13.87906,30.99729-30.99728,30.99729
				c-17.12365,0-31.00271-13.87907-31.00271-30.99729c0-17.12365,13.87906-31.00272,31.00271-31.00272
				C50.11865,2.31376,63.99771,16.19282,63.99771,33.31647z"/><path fill="#6C8CAB" d="M55.77771,54.34372c-5.66998,6.13-13.77997,9.97004-22.77997,9.97004s-17.10999-3.84003-22.78003-9.97004
				c3.42004-0.39001,6.92004-0.62,9.58002-2.76001c3.35999-2.69,2.40002-8.27997,2.40002-12.63995h21.58996
				c0,4.34998-0.94,9.94995,2.40002,12.63C48.85773,53.71372,52.35773,53.95371,55.77771,54.34372z"/><path fill="#F1AD7E" d="M50.42413,16.35715v23.42908c0,1.63771-0.65028,3.2084-1.8079,4.36685l-8.56736,8.57349
				c-1.1587,1.15953-2.73074,1.81102-4.36998,1.81102h-5.35848c-1.63924,0-3.21127-0.65148-4.36997-1.81101l-8.5674-8.5735
				c-1.15763-1.15845-1.8079-2.72915-1.8079-4.36686V16.35715c0-8.03209,6.5113-14.5434,14.5434-14.5434h5.7622
				C43.91283,1.81376,50.42413,8.32506,50.42413,16.35715z"/><path fill="#6C8CAB" d="M50.42035,16.35842v23.42607c0,1.63681-0.64952,3.21293-1.80135,4.36477l-3.32557,3.32557V34.28239
				l-12.29757-4.33014l-12.29762,4.33014v13.18377l-3.31691-3.31691c-1.15183-1.15183-1.81002-2.72796-1.81002-4.36477V16.35842
				c0-6.20947,3.88851-11.50089,9.36177-13.58799c1.61085-0.6149,3.3602-0.95266,5.18756-0.95266h5.75906
				c1.81869,0,3.55937,0.33776,5.17022,0.95266C46.53184,4.8402,50.42035,10.14029,50.42035,16.35842z"/><path fill="#172540" d="M18.80443 13.13459c-1.60697 3.10116-2.16296 9.76142-1.24047 12.85569.23034.77262 1.66335 2.76283 1.66335 2.76283C22.66383 23.95358 18.88096 18.5416 18.80443 13.13459zM47.18723 13.13459c1.60698 3.10116 2.16296 9.76142 1.24047 12.85569-.23034.77262-1.66335 2.76283-1.66335 2.76283C43.32783 23.95358 47.11069 18.5416 47.18723 13.13459z" opacity=".1"/><path fill="#FFF" d="M41.80841 46.45063c-1.99745-.05607-3.68387-1.13173-5.64673-1.38152-1.14734-.14786-2.14949 0-3.16551.41801-1.01598-.41801-2.01816-.56586-3.15859-.41801-1.96978.24979-3.6562 1.32545-5.64673 1.38152l.63585.12234c1.23028.33648 2.08039 1.15214 3.19314 1.65683 1.48939.6893 3.33354.75442 4.97633.74431 1.66062.01014 3.4824-.05645 4.98325-.74431 1.10583-.50469 1.96286-1.32035 3.18622-1.65683L41.80841 46.45063zM29.11387 27.80592l-1.23655-1.72466c0 0-3.74219-.45557-7.38676-2.18023l-2.14769 1.95245c0 0 .70802 3.70725 3.80727 4.13268C23.95745 30.23424 27.42175 29.69328 29.11387 27.80592zM36.87778 27.80592l1.23655-1.72466c0 0 3.7422-.45557 7.38676-2.18023l2.14769 1.95245c0 0-.70802 3.70725-3.80727 4.13268C42.0342 30.23424 38.5699 29.69328 36.87778 27.80592z"/><path fill="#172540" d="M44.5,3.72632c-0.10052-0.0575-1.36394-0.97975-3.14001-1.64001
					c-0.00995-0.01001-0.02997-0.01001-0.03998-0.02002c-4.97054-1.94442-14.62938-1.0043-16.64001,0h-0.01001
					C24.66003,2.0763,24.64001,2.0763,24.63,2.08631c0,0,0,0-0.01001,0.01001l-0.00037,0.00037
					c-0.01294,0.00616-0.02521,0.01202-0.03784,0.01898C24.00143,2.24028,22.30434,3.17597,21.5,3.72632
					C9.66003,8.33631,1.25,19.85627,1.25,33.31629c0,8.23999,3.15002,15.75,8.32001,21.40002
					c0.10658,0.26614,2.28841,2.26745,2.65997,2.59998c4.10069,3.88465,11.34718,7.24936,19,7.70002
					c0.59003,0.02997,1.18005,0.04999,1.77002,0.04999c17.34271,0,31.75-14.0554,31.75-31.75
					C64.75,19.85627,56.34003,8.33631,44.5,3.72632z M63.25,33.31629c0,7.78003-2.95001,14.87-7.78998,20.23999
					c-4.0857-0.48439-8.87845-0.9132-10.38-4.79999l4.07001-4.07001v-0.01001c0.77472-0.77472,1.3889-1.7548,1.71997-2.87v-0.01001
					c0.6005-1.88685,0.12571-1.89095,0.29999-25.44c0-0.53998-0.02997-1.08997-0.08997-1.62
					c-0.18647-2.2353-1.19983-5.2675-3.04999-7.64996C57.12,12.29627,63.25,22.10627,63.25,33.31629z M16.32001,32.17615
					c0.75226,1.18524,1.90692,2.57874,3.63,3.8255v9.65466l-2.03998-2.03003v-0.01001
					C15.31115,41.0174,16.7205,38.05714,16.32001,32.17615z M22.22003,5.05628h0.00995
					c0.07568-0.03778,0.16077-0.06622,0.24585-0.09454c-2.1156,3.55005-2.45557,6.53894-2.47168,6.69348
					c-0.02051,0.19727,0.0376,0.39355,0.16113,0.54785c3.01862,3.758,4.44183,7.91956,4.26855,12.37134
					c-1.10864-0.31995-2.3761-0.75916-3.62384-1.34808c-0.26996-0.13-0.59998-0.09003-0.82001,0.12l-2.14996,1.94995
					c-0.19,0.18005-0.28003,0.44-0.23004,0.70001c0.03003,0.17004,0.85004,4.23999,4.44,4.73004
					c0.30005,0.04999,0.65002,0.06995,1.01001,0.06995c2.02002,0,4.97003-0.64996,6.60999-2.48999
					c0.24005-0.26001,0.26001-0.64996,0.05005-0.94l-1.23004-1.71997c-0.13-0.16998-0.31-0.28003-0.51996-0.31
					c-0.02002,0-0.82001-0.10999-2.04004-0.38c-0.00146-0.00031-0.00311-0.00079-0.00458-0.0011
					c0.2666-4.84161-1.20117-9.36005-4.38562-13.4328c0.16193-0.94415,0.85315-4.05456,3.23737-7.3161h0.00287
					c5.55684-1.56947,11.25093-1.46985,16.43329-0.00165c2.38525,3.26215,3.0766,6.37347,3.23859,7.31775
					c-3.18439,4.07263-4.65216,8.59094-4.38568,13.43237c-0.00195,0.00043-0.00427,0.0011-0.00623,0.00153
					c-1.20996,0.27002-2.01996,0.38-2.03998,0.38c-0.20001,0.02997-0.39001,0.14001-0.51001,0.31l-1.23999,1.71997
					c-0.21002,0.29004-0.19,0.67999,0.04999,0.94c1.64001,1.84003,4.59003,2.48999,6.60999,2.48999
					c0.37,0,0.71002-0.01996,1.01001-0.06995c3.59003-0.49005,4.41003-4.56,4.45001-4.73004
					c0.03998-0.26001-0.03998-0.51996-0.23999-0.70001l-2.14001-1.94995c-0.22998-0.21002-0.56-0.25-0.83002-0.12
					c-1.24359,0.59692-2.50641,1.02515-3.62225,1.3446c-0.1723-4.4505,1.25085-8.61084,4.26868-12.36786
					c0.12354-0.1543,0.18164-0.35059,0.16113-0.54785c-0.01611-0.1546-0.3562-3.14569-2.474-6.69751
					C44.03768,5.07735,46.46408,6.97034,48,9.78632c0,0.01996,0.01001,0.03998,0.03003,0.06
					c0.93684,1.63956,1.63995,4.09329,1.63995,6.50995v12.42389c-0.07208,0.08185-0.13123,0.17615-0.16241,0.28815
					c-0.0863,0.30981-0.84967,2.79541-3.49609,5.0564c-0.00092-0.0025-0.00049-0.00592-0.00146-0.00842
					c-0.04999-0.25-0.22998-0.45996-0.46997-0.53998l-12.30005-4.33002C33.16003,29.21631,33.08002,29.2063,33,29.2063
					c-0.08997,0-0.16998,0.01001-0.25,0.03998L20.45001,33.5763c-0.23999,0.08002-0.41998,0.28998-0.47003,0.53998
					c-0.00085,0.0022-0.00049,0.00519-0.00134,0.00745c-2.64526-2.26074-3.4082-4.74561-3.49451-5.05542
					c-0.03149-0.11261-0.09137-0.20728-0.16412-0.28943C17.03183,19.87469,13.79557,10.82053,22.22003,5.05628z M27.45001,26.77631
					l0.67999,0.94c-1.56,1.27997-4.33997,1.73999-5.88,1.52997c-1.97998-0.26996-2.79999-2.27997-3.07001-3.14001L20.63,24.78632
					C23.60004,26.10627,26.48999,26.6363,27.45001,26.77631z M45.35999,24.78632L46.81,26.10627
					c-0.26996,0.86005-1.08997,2.87006-3.07001,3.14001c-1.53998,0.21002-4.32001-0.25-5.87-1.52997l0.67004-0.94
					C39.5,26.6363,42.40002,26.10627,45.35999,24.78632z M48.09003,43.61628v0.01001l-2.04999,2.04004v-9.66376
					c1.72272-1.24603,2.87732-2.63885,3.62994-3.82385C49.26732,38.23155,50.68739,40.94865,48.09003,43.61628z M21.45001,34.81629
					L33,30.74628l11.54004,4.07001c0,3.58097,0,10.06085,0,12.35999c-0.16888,0.16888-5.30204,5.30204-5.02002,5.02002
					c-2.42377,2.42377-5.27948,1.31237-9.20001,1.59003c-3.4392,0-4.66987-2.81616-7.70001-5.45001l-1.16998-1.16998
					C21.45001,43.5066,21.45001,38.51772,21.45001,34.81629z M17.97003,7.08631c-0.16003,0.20001-0.31,0.40997-0.45001,0.63
					c0,0.01001-0.02002,0.01996-0.02002,0.01996c-1.8561,2.73555-2.67999,5.765-2.67999,8.62
					c0.00986,23.54312-0.7195,25.57153,2.03003,28.32001v0.01001l4.06995,4.07001
					c-1.50559,3.89724-6.41981,4.35743-10.37994,4.78998C5.69,48.18628,2.75,41.08631,2.75,33.31629
					C2.75,22.10627,8.88,12.29627,17.97003,7.08631z M50.35004,58.0763c-0.24005,0.16998-0.49005,0.34003-0.74005,0.51001
					c-0.01996,0.01001-0.03998,0.01996-0.06,0.03998c-4.43561,2.95753-10.40026,4.94-16.54999,4.94
					c-7.66895,0-15.18491-2.85078-21.14996-8.64996c3.96549-0.45248,8.45458-1.32623,10.19995-5.03003l3.37,3.37
					c3.00753,3.00739,6.61618,1.7294,10.26001,2.03003c4.19867,0,5.76908-3.30521,8.26001-5.39001
					c0.41003,0.85999,0.98999,1.63,1.78003,2.26001c2.41998,1.94995,5.44995,2.41998,8.42999,2.76001
					C52.97279,56.09329,51.28502,57.45306,50.35004,58.0763z"/><path fill="#172540" d="M24.63 47.29627c.63.17004 1.16998.51001 1.75.87006 2.90536 1.84191 9.36705 2.39716 13.23999 0 1.83757-1.16071 1.7834-.78748 2.33002-.98004.87182-.16496.78564-1.44228-.12-1.48999-1.76822-.03576-3.55233-1.11514-5.57001-1.37C35.10004 44.17627 34.06 44.28632 33 44.68628c-3.69527-1.34692-6.21486.95659-8.83002 1.01001-.37994.02002-.69995.31-.72998.69C23.36971 47.30112 24.41866 47.20619 24.63 47.29627zM33.28003 46.17627c.94-.38 1.78998-.48999 2.78998-.35999 1.01886.12583 2.11073.54356 3.09003.87-.39321.25014-1.06692.66471-1.49005.85999-1.99219.91251-7.35279.92434-9.33997 0-.54432-.24492-.91496-.51867-1.5-.85999C32.47162 44.80527 32.33404 46.59682 33.28003 46.17627zM30.29999 41.05628c.72504.23309.77154 1.11526 2.24005 1.36005.03998.00995.07996.01996.12994.01996h.66003c.03998 0 .08997-.01001.13-.01996.89996-.15002 1.32001-.59003 1.62-.91003.55111-.57869.49843-.33474 1.53998-.77002.54568-.19581.59455-.85508.41003-1.03998-.15002-.34003-.54004-.51001-.90002-.38-.69245.24202-.98382.33691-1.07001.38-1.04451.42562-1.04396 1.07649-1.79999 1.23999h-.52002c-.73917-.15985-.76281-.81736-1.79999-1.23999-.08598-.04306-.42501-.15458-1.07001-.38-.35999-.13-.75.03998-.89996.38-.03003.03003-.04004.06-.05005.09003C28.57177 40.75654 29.99838 40.88166 30.29999 41.05628z"/><path fill="#172540" d="M36.91998 40.6363c-.72485.65244.23818 1.77317 1 1.12 2.93336-2.61184.98165-6.9869-.35999-6.03998-.33997.22998-.41998.70001-.17999 1.03998C38.07355 37.44983 38.34034 39.34137 36.91998 40.6363zM28.08002 41.75629c.33473.28687.78606.23211 1.06-.06.63735-.73171-.34171-1.09254-.81-2-.01001-.01001-.01001-.02002-.01001-.02997-1.088-1.95947 1.22009-3.18338.12-3.95001-1.01204-.71442-1.77266 1.2949-1.85999 2.47998-.03998.47998 0 .98999.14996 1.5C26.92999 40.39631 27.35004 41.10627 28.08002 41.75629z"/></svg>