<svg xmlns="http://www.w3.org/2000/svg" enable-background="new 0 0 66 66" viewBox="0 0 66 66"><path fill="#3590CE" d="M63.99773,33.25029c0,17.11822-13.87906,30.99729-30.99728,30.99729
				c-17.12365,0-31.00272-13.87907-31.00272-30.99729c0-17.12365,13.87907-31.00272,31.00272-31.00272
				C50.11867,2.24758,63.99773,16.12664,63.99773,33.25029z"/><path fill="#F0523C" d="M61.36887,45.7618c-4.81,10.89001-15.70001,18.48999-28.37,18.48999s-23.56-7.59998-28.37-18.48999
				c1.78998-2.59003,4.69-4.29999,7.42999-5.97003c3.12-1.88995,6.38-4.12,7.59997-7.54999h26.67005
				c1.22998,3.42999,4.48999,5.66003,7.60999,7.54999C56.66885,41.46181,59.57889,43.17178,61.36887,45.7618z"/><path fill="#575E85" d="M50.18887,59.05178c-4.91998,3.28003-10.83002,5.20001-17.19,5.20001s-12.27002-1.91998-17.19-5.20001
				c1.75-2.64996,3.27002-5.69,3.98999-7.52997c1.16998-3,2.40002-8.28003,2.40002-12.64001h21.58997
				c0,4.34998,1.23004,9.63,2.40002,12.63C46.89883,53.34182,48.42886,56.39181,50.18887,59.05178z"/><path fill="#F1AD7E" d="M32.99368,55.90078c-1.01607,0-3.15457,0.16771-4.05261-0.3076
				c-2.61887-1.38609-7.38765-9.26814-7.38765-9.26814c-0.55588-0.69737-0.91174-1.53273-1.02954-2.41673
				c0,0-2.1603-13.86972-2.46969-18.5339c-0.45807-6.90568,6.69408-12.5396,14.93948-12.5396s15.39756,5.63392,14.93948,12.5396
				c-0.30939,4.66418-2.46969,18.5339-2.46969,18.5339c-0.11779,0.884-0.47366,1.71935-1.02954,2.41673
				c0,0-4.76878,7.88205-7.38765,9.26814C36.14825,56.06849,34.00975,55.90078,32.99368,55.90078z"/><path fill="#575E85" d="M47.94436,25.3745c-0.21028,3.19623-0.95889,8.34386-1.60656,12.71767l-4.96255,3.90279l-8.36911-5.0467
				h-0.01684l-8.36907,5.0467l-4.96261-3.90279c-0.64767-4.37381-1.39623-9.52144-1.60651-12.71767
				c-1.22805-18.57186,6.956-23.62692,6.956-23.62692c-0.72335,5.39995,0.56359,9.77376,1.60656,12.25502
				c1.95976-0.74855,4.12986-1.16911,6.38404-1.16911s4.42428,0.42056,6.38409,1.16911
				c1.04297-2.48125,2.32986-6.85507,1.60651-12.25502C40.98831,1.74758,49.17241,6.80264,47.94436,25.3745z"/><path fill="#FFF" d="M26.64617,46.16001c0,0,0.87129,0.7263,1.38862,1.66781c0,0,1.08786,2.14124,4.9589,2.14124
				s4.9589-2.14124,4.9589-2.14124c0.51733-0.94151,1.38862-1.66781,1.38862-1.66781l0.28306-0.21301
				c0,0-1.28371,0.99338-5.16361,0.33078c-0.29051-0.04961-0.59106-0.00423-0.84819,0.13828l0,0
				c-0.38435,0.21301-0.85321,0.21301-1.23756,0l0,0c-0.25713-0.14251-0.55768-0.18789-0.84819-0.13828
				c-3.8799,0.66261-5.16361-0.33078-5.16361-0.33078"/><path fill="#F1AD7E" d="M34.71627 33.88965c0 0 5.69833-3.84922 7.81917-3.52984 1.01917.15348 3.0913 2.72762 3.0913 2.72762s-4.23849 3.48971-5.97045 3.51559C38.24741 36.62408 34.71627 33.88965 34.71627 33.88965zM31.27919 33.88965c0 0-5.69833-3.84922-7.81917-3.52984-1.01916.15348-3.0913 2.72762-3.0913 2.72762s4.23849 3.48971 5.97045 3.51559C27.74806 36.62408 31.27919 33.88965 31.27919 33.88965z"/><path fill="#172540" d="M43.72998,3.36256C42.5,1.82252,41.5,1.18257,41.38,1.11256
					c-0.23999-0.16003-0.56-0.15002-0.79999,0.01001c-0.24005,0.14996-0.37006,0.44-0.33002,0.71997
					c0.02002,0.16998,0.03998,0.34003,0.06,0.5c-4.73434-1.13299-9.87711-1.13506-14.62,0
					c0.05715-0.48676,0.18282-0.937-0.27002-1.21997c-0.25-0.16003-0.56-0.17004-0.81-0.01001
					c-0.12,0.07001-1.12,0.70996-2.34998,2.25C10.02002,7.77253,1.25,19.51252,1.25,33.25257
					c0,4.51996,0.95001,8.82996,2.66998,12.71997c0,0.3406,3.41207,8.32596,11.45001,13.69c0.2556,0,7.06633,5.34002,17.63,5.34002
					c7.66385,0,14.78831-3.24413,15.73999-4.19c0.02002-0.01001,0.03998-0.01001,0.04999-0.03003
					c0.27769-0.13881,1.79294-1.04585,1.84003-1.14001c0.03998-0.01996,0.07001-0.03998,0.09998-0.07001
					c0,0,0.01001-0.01996,0.02002-0.01996c7.26424-4.69164,11.32001-13.32565,11.32001-13.54004
					C63.78998,42.11256,64.75,37.79255,64.75,33.25257C64.75,19.50257,55.96997,7.77253,43.72998,3.36256z M44.84998,42.97255
					c0,0.01001,0,0.02002,0,0.02002c-0.07996,0.5-0.13,0.79999-0.13,0.82001c-0.2626,1.9174-6.03385,10.06207-8.01996,11.12
					c-0.62014,0.30998-2.332,0.25294-3.02002,0.22998c-1.41201-0.05436-3.5834,0.17321-4.39001-0.22998
					c-1.97998-1.05005-5.76001-6.78003-7.13-9.03003c0.29004-1.40997,0.53003-2.89996,0.66003-4.37
					c1.04553,0.69159,1.49036,1.52464,2.19,1.10999L30,39.63252l2.48999-1.5L33,37.82252l0.51001,0.31
					c0.10039,0.06053,7.98053,4.81181,7.47998,4.51001c0.12,0.07001,0.25,0.10004,0.39001,0.10004
					c0.15997,0,0.32001-0.05005,0.45996-0.16003l1.33002-1.04999l1.41998-1.10999l0.73004-0.57001
					C45.12,41.18257,44.95001,42.27253,44.84998,42.97255z M5.5,45.83253c1.65997-2.17999,4.20001-3.71997,6.64996-5.21997
					l0.30005-0.17999c2.13995-1.30005,4.42999-2.80005,6.07996-4.79004c0.61005,4.25,1.20001,8.08002,1.25,8.37
					c0.11005,0.79004,0.39001,1.56,0.78003,2.20001c-0.86774,3.98763-2.0355,7.13432-4.95001,11.76001
					C11.34461,55.00796,7.70524,50.73318,5.5,45.83253z M20.65997,39.84254l0.73999,0.58002
					c-0.04999,0.83997-0.13995,1.70001-0.25995,2.57001C21.02997,42.29255,20.85999,41.18257,20.65997,39.84254z M47.20001,25.32252
					c-0.11005,1.65002-0.36005,3.82001-0.67999,6.20001c-0.01001-0.01001-0.02002-0.01001-0.03003,0
					C46.44,31.94251,46.38,32.36256,46.32001,32.79255c-0.03003-0.06-0.06-0.12-0.11005-0.17999
					c-2.33926-2.84834-3.64219-5.24353-11.90997,0.65997c-0.20001,0.13-0.33002,0.35004-0.33002,0.59003
					c-0.01001,0.23999,0.10004,0.46997,0.29004,0.62c1.18205,0.9151,3.9235,2.87,5.40997,2.87
					c1.70829-0.027,5.71319-2.97321,6.45001-3.71002c0.02002,0.04004,0.03998,0.08002,0.07001,0.12
					c-0.06437,0.47908-0.4832,3.45372-0.56,3.92999l-1.15002,0.90002l-1.42999,1.13l-1.72998,1.35999
					c-0.10188-0.06141-8.03405-4.84275-7.92999-4.77997c-0.23004-0.14001-0.55005-0.14001-0.79004,0l-3.02997,1.82996l-2.48999,1.5
					l-2.40002,1.45001c-0.1049-0.08256-4.59313-3.61492-4.32001-3.39996c-0.0671-0.48681-0.31558-2.05957-0.56-3.91003
					c0.02002-0.03998,0.04999-0.08997,0.07001-0.13c0.73507,0.73507,4.67156,3.68176,6.46002,3.71002c0,0,0.01996,0,0.02997,0
					c1.59003,0,4.76001-2.39001,5.38-2.87c0.19-0.15002,0.29999-0.38,0.28998-0.62c-0.00995-0.23999-0.13-0.46002-0.32996-0.59003
					c-0.07001-0.04999-0.22003-0.14996-0.42004-0.27997c-0.52997-0.34003-1.44995-0.92004-2.5-1.5
					c-1.85999-1.03003-4.14996-2.07001-5.42999-1.87c-1.27787,0.18019-3.6026,2.90085-3.67999,3.20996h-0.01001
					c-0.68053-4.76374-1.14746-8.87745-0.91998-13.34998c0.37-7.90002,2.67999-12.47003,4.47998-14.85999
					c0.27002-0.10004,0.55005-0.19,0.83002-0.28003c-0.0834,3.539,0.58765,6.81376,1.87,9.95001
					c0.81499,1.88422,4.02532-2.86199,13.19,0.40997c0.72296,0.28542,1.0062-0.42827,1.22998-1.09998
					c0.88-2.26001,1.70001-5.44,1.60004-9.26001c0.27997,0.08002,0.56,0.17999,0.83997,0.28003
					c1.79004,2.39996,4.12,6.97998,4.49005,14.88C47.34998,21.27253,47.33997,23.20252,47.20001,25.32252z M36.02997,33.93257
					c1.19425-0.76971,4.97872-3.02694,6.39001-2.83002c0.13,0.02002,0.35999,0.15997,0.63,0.39001
					c0.42999,0.33997,0.97998,0.88001,1.51001,1.48999c-0.47683,0.34008-3.6675,2.85617-4.91003,2.87l-0.00995,0.75v-0.75
					C39.04999,35.85255,37.45996,34.94252,36.02997,33.93257z M21.44,32.98256c0.52997-0.60004,1.08002-1.15003,1.5-1.48999
					c0.27997-0.23004,0.5-0.37,0.63-0.39001c0.42999-0.06,1.07001,0.09998,1.81,0.39001c0.94,0.37,2.03998,0.92999,3.02997,1.5
					c0.57001,0.32996,1.10004,0.64996,1.54999,0.94c-1.41998,1.00995-3.00995,1.91998-3.59998,1.91998v0.75l-0.01001-0.75
					C25.11559,35.83882,21.63171,33.11928,21.44,32.98256z M40.44,3.91255c0.15997,3.77997-0.64001,6.91998-1.48999,9.14001
					c-1.49945-0.45011-2.97435-0.83754-4.74005-0.92999c-0.14996-0.01001-0.29999-0.02002-0.44995-0.02002
					c-0.51001-0.02002-1.02002-0.02002-1.52002,0c-0.15997,0-0.33002,0.01001-0.48999,0.02997
					c-1.46448,0-3.51192,0.56039-4.71002,0.92004C26.19,10.83253,25.39996,7.69251,25.56,3.91255
					C30.33007,2.71006,35.47659,2.66132,40.44,3.91255z M20.73999,5.60255c-4.74635,8.26039-3.76166,18.88539-2.51001,27.88001
					c-1.46997,2.42999-4.10999,4.19-6.56,5.66998L11.37,39.33253c-2.33002,1.42004-4.73999,2.89001-6.53003,4.94
					C3.48999,40.86256,2.75,37.14253,2.75,33.25257C2.75,20.93257,10.14996,10.30256,20.73999,5.60255z M46.39001,60.35255
					C44.41078,61.67204,38.46706,63.49257,33,63.49257c-3.82509,0-6.08613-0.66304-7.56-0.95001
					c-3.44212-0.9322-6.41764-2.28898-8.58002-3.72998c2.88953-4.54844,4.03862-7.73995,4.84003-10.84003
					c6.49099,10.14514,7.26914,8.71002,12.95996,8.71002c1.34003,0,2.17999-0.13,2.73999-0.42999
					c2.16003-1.14001,5.42004-5.97003,6.90002-8.28003c0.76493,3.01847,1.87824,6.18064,4.84003,10.84003
					C48.1805,59.45198,46.49057,60.31896,46.39001,60.35255z M50.38,57.98256c-2.91805-4.62796-4.07739-7.78075-4.95001-11.77002
					c0.68946-1.15475,0.70098-1.49045,1.64001-7.97998c0.01001-0.01001,0.01001-0.02002,0.01001-0.03003
					c0.01996-0.16998,0.04999-0.33997,0.06995-0.51001c0.07001-0.41998,0.13-0.84998,0.19-1.27997
					c0.04004-0.26001,0.08002-0.52002,0.11005-0.78003C51.045,39.9639,57.29458,41.63646,60.5,45.83253
					C58.27742,50.77172,54.6908,54.9558,50.38,57.98256z M47.76001,33.49257c0.44-3.10004,0.79999-5.97003,0.92999-8.07001
					c0.66998-10.03003-1.35999-16.22003-3.45001-19.83002C55.83997,10.29255,63.25,20.92256,63.25,33.25257
					c0,3.88995-0.73999,7.60999-2.09003,11.01996C57.45585,40.02427,50.58872,38.13705,47.76001,33.49257z"/><path fill="#172540" d="M34.14001 44.00257c.19 0 .38995-.07001.52997-.21002.69-.69.82001-.73999 1.78998-.77002.42004-.01001.74005-.34998.73004-.76996-.01001-.41003-.35999-.73004-.76001-.73004-1.35999.04004-1.85999.25-2.82001 1.20001-.28998.28998-.28998.77002 0 1.06C33.76001 43.93257 33.95001 44.00257 34.14001 44.00257zM29.52997 43.02253c.96002.03003 1.10004.08002 1.79004.77002.13995.14001.32996.21002.51996.21002.20001 0 .39001-.07001.54004-.22003.28998-.28998.28998-.77002-.01001-1.06-.96002-.95001-1.46002-1.15997-2.81-1.20001-.37 0-.76001.32001-.77002.73004C28.77997 42.67256 29.10999 43.01252 29.52997 43.02253zM39.17999 45.34254c-.06.03003-1.26001.76001-4.59003.20001-.46997-.09003-.94 0-1.33997.21997-.16003.09003-.35004.08002-.51001 0-.40002-.21997-.88-.31-1.34003-.21997-.91998.15997-1.67999.21002-2.29999.21002-1.64996 0-2.27997-.40002-2.27997-.40002-.32001-.25-.79999-.19-1.04999.13-.25.33002-.19.79999.12994 1.06.03003.02002.09003.06.18005.10999.02997.03003.06.06.08997.08002 0 .01001.77002.65997 1.20001 1.42999.04999.10999 1.33997 2.56 5.62 2.56 4.28998 0 5.58002-2.45001 5.62-2.53003.42999-.77997 1.17999-1.41998 1.17999-1.42999l.29004-.21997c.00995-.01001.02997-.02002.03998-.03998H40.13c.27997-.26001.32996-.70001.08997-1.01001C39.96997 45.16255 39.51001 45.10255 39.17999 45.34254zM37.28998 47.48256c-.03998.07001-.98999 1.73999-4.29999 1.73999-3.29999 0-4.25-1.66998-4.29999-1.76001-.04004-.07001-.08002-.14996-.13-.21997.81.03998 1.83002-.01001 3.08997-.23004.13-.01996.26001 0 .36005.06.60999.34003 1.35999.34003 1.96997 0 .10004-.06.22998-.07996.35004-.06 1.26996.22003 2.28998.27002 3.09998.23004C37.38 47.32252 37.33002 47.40254 37.28998 47.48256zM42.53998 25.83253c.37 1.65002 1.75 2.62 2.90002 3.58002 1.10584-4.30951.37063-8.54903-1.45001-12.57001C43.08529 19.94394 41.90817 23.08407 42.53998 25.83253zM22.01001 16.84254c-1.83261 4.06295-2.5501 8.26659-1.46002 12.57001 1.15002-.96002 2.53998-1.92999 2.90997-3.58002C24.06383 23.1613 23.00514 20.25391 22.01001 16.84254zM41.22998 33.89253c.32191-.1973.4723-.60604.26001-1.02997-.51869-.86449-1.46072.05563-1.69.13l-.21997.13c-.65814.38379-.39128 1.39996.37994 1.39996C40.26764 34.52253 40.41361 34.34368 41.22998 33.89253zM26.41998 33.12257l-.21997-.13-.67004-.39001c-.35999-.21002-.82001-.09003-1.02997.26001-.02002.03998-.04004.07996-.04999.13-.13.32996 0 .70996.32001.89996l.88995.52002c.12.07001.25.10999.38.10999.25 0 .5-.13.64001-.37C26.89001 33.79255 26.77002 33.33253 26.41998 33.12257z"/></svg>