<svg xmlns="http://www.w3.org/2000/svg" enable-background="new 0 0 66 66" viewBox="0 0 66 66"><path fill="#3590CE" d="M63.99785,33.26043c0,17.11822-13.87907,30.99728-30.99728,30.99728
				c-17.12365,0-31.00272-13.87907-31.00272-30.99728c0-17.12365,13.87907-31.00272,31.00272-31.00272
				C50.11879,2.25771,63.99785,16.13678,63.99785,33.26043z"/><path fill="#444A88" d="M59.98128 48.95883c-3.24467 2.67007-6.82455 5.04068-10.96719 5.68711-1.73608.26352-4.50174.31131-5.98643-.61048V7.17347c2.92138-1.4247 5.73505-.59864 8.20146 1.50859 2.47832 2.10724 3.84324 5.30405 4.29822 8.51284.77827 5.39978-.76628 10.87132-.67048 16.31889C54.95266 39.02143 56.76057 44.48099 59.98128 48.95883zM43.02765 6.59987c-1.40613-2.54761-3.80585-4.82861-7.89673-4.84204C16.30658 1.6957 11.4743 25.97243 11.4743 30.75295v24.05871h31.55335V6.59987z"/><path fill="#F1AD7E" d="M55.77785,54.28768c-5.66998,6.13-13.77997,9.97003-22.77997,9.97003s-17.10999-3.84003-22.78003-9.97003
				c3.42004-0.39001,6.92004-0.62,9.58002-2.76001c3.35999-2.69,2.40002-8.27997,2.40002-12.63995h21.58997
				c0,4.34998-0.94,9.94995,2.40002,12.63C48.85787,53.65768,52.35787,53.89767,55.77785,54.28768z"/><path fill="#444A88" d="M51.13183,31.70354c-4.01706,14.35073-5.97111,29.2298-17.47642,29.2298
				c-11.4976,0-13.45166-14.87906-17.47637-29.2298H51.13183z"/><path fill="#F1AD7E" d="M47.6694 28.58651c0 0 2.05487-5.41963 4.94028-4.29587.61505.23954 1.48964 1.44273 1.49417 2.05916.00382.51983-1.04383 1.22983-1.23464 1.71562-.37034.94286-.06711 3.07779-.48398 4.00313-.70541 1.56581-4.60062 5.25615-4.60062 5.25615l-1.03901-.11126L47.6694 28.58651zM19.64146 28.58651c0 0-2.05487-5.41963-4.94028-4.29587-.61505.23954-1.48964 1.44273-1.49417 2.05916-.00382.51983 1.04383 1.22983 1.23464 1.71562.37034.94286.06711 3.07779.48398 4.00313.70541 1.56581 4.60062 5.25615 4.60062 5.25615l1.03901-.11126L19.64146 28.58651z"/><path fill="#F1AD7E" d="M48.14356,35.64366c-1.01903,3.17835-4.83305,10.25139-5.13573,10.84666
				c-1.42271,2.82523-4.18734,4.97438-7.30509,5.54945l2.77472-6.11443c-3.21869,1.35201-6.42727,1.35201-9.63592,0l2.72429,6.01355
				c-6.04385-1.46299-9.77713-8.7076-11.72448-14.20668c-1.96754-5.57963-2.4014-11.84555-0.31278-17.3748
				c0.45406-1.21074,1.06953-2.43158,2.10882-3.19842c1.78587-1.32184,4.23771-0.97869,6.44741-0.84764
				c4.57076,0.26235,9.20206-0.65575,13.3187-2.64343c0.95855-0.46422,2.23999-0.39365,3.13795,0.19165
				c0.88792,0.58517,1.37228,1.62446,1.61443,2.66375c0.23205,1.03917,0.25225,2.10876,0.45406,3.14805
				c0.40356,2.10876,1.48319,4.02587,2.05832,6.09435C49.55617,28.98434,49.16265,32.45522,48.14356,35.64366z"/><path fill="#FFF" d="M29.99207 31.21063c0 0-1.75072 1.58498-3.90274 1.58498-2.15788 0-3.90278-1.58498-3.90278-1.58498s1.7449-1.58495 3.90278-1.58495C28.24134 29.62569 29.99207 31.21063 29.99207 31.21063zM37.31879 31.21063c0 0 1.75072 1.58498 3.90274 1.58498 2.15788 0 3.90277-1.58498 3.90277-1.58498s-1.7449-1.58495-3.90277-1.58495C39.06952 29.62569 37.31879 31.21063 37.31879 31.21063z"/><path fill="#172540" d="M64.75,33.26271c0-15.13001-10.63-27.82001-24.81-31c-2.90744-1.69083-6.73618-1.46163-10-0.62006
					C13.85999,3.1927,1.25,16.78267,1.25,33.26271c0,16.71111,13.02469,30.69365,29.97998,31.68994
					C31.81995,64.98268,32.40997,65.0027,33,65.0027c0.58997,0,1.17999-0.02002,1.75995-0.05005
					C51.47559,63.97044,64.75,50.20759,64.75,33.26271z M63.25,33.26271c0,5.06995-1.25,9.84998-3.48004,14.04999
					c-4.44547-6.98341-4.52761-13.09629-3.71997-20.5c0.33997-3.17999,0.69-6.47003,0.21997-9.72003
					c-0.23999-1.67999-0.69-3.23999-1.32996-4.63C60.08997,17.8827,63.25,25.21266,63.25,33.26271z M52.00995,53.05269
					c-2.07983-0.34666-4.00262-0.94125-5.58997-2.33002c1.90805-4.78902,3.27912-10.76392,4.56-15.58002
					c0.89996-0.98999,1.77002-2.04999,2.08997-2.76996c0.51621-1.12445,0.1875-3.19793,0.49005-4.03003
					c0.04999-0.08997,0.26996-0.32001,0.40997-0.46997c0.19-0.19,0.37-0.38,0.53003-0.59003
					c-0.78418,7.30606-0.57392,14.12946,4.44995,21.5C58.88718,48.97213,55.33516,51.77278,52.00995,53.05269z M42.20996,55.5627
					c-4.65097,6.4709-13.57951,6.43145-18.07001-1.5c-0.76001-1.29004-1.41998-2.75-2.02997-4.34003
					c-0.29004-0.72998-0.56-1.48999-0.82001-2.27997c-1.39572-4.18716-2.69456-9.67394-2.84003-10.11005
					c0.28003,0.27002,0.67999,0.64001,0.67999,0.65002c0.57001,1.59003,1.37006,3.58002,2.44,5.57001
					C22,44.36269,22.47998,45.16267,23,45.95265c4.52375,6.80767,10.21889,7.77899,9.25,5.68005l-2-4.42004
					c2.26996,0.63,4.53998,0.63,6.81995,0c-1.84453,4.39063-2.44633,4.66047-1.95996,5.29004
					c0.78079,0.93713,6.12901-0.92191,8.66998-5.87c0.09735-0.18676,0.58274-1.11522,0.66998-1.28003
					c1.60004-3.06,2.80005-5.51001,3.58002-7.32001c0.21635-0.06485,0.34989-0.23705,0.83002-0.70001
					c-0.02002,0.08002-0.04004,0.16003-0.06,0.24005C47.39982,42.96953,45.45444,51.12278,42.20996,55.5627z M43.77997,7.66267
					c2.29999-0.94,4.64001-0.39001,6.96002,1.59003c2.13,1.81,3.57001,4.66998,4.03998,8.04999
					c0.40002,2.71002,0.17999,5.52002-0.10999,8.27997c-1.00452-2.42231-3.45036-3.05409-5.54004-0.84998
					c-0.60244-1.80766-1.45815-3.46848-1.77997-5.20001c-0.3479-1.81617-0.15653-5.97741-3.57001-6.78998V7.66267z
					 M49.13995,34.91267c0.73886-2.66591,1.03109-5.6344,0.48004-8.39002c0.67299-0.95523,1.63291-1.95277,2.71997-1.52997
					c0.32001,0.12,1,1.02997,1.03003,1.27997c-0.14165,0.31147-0.96202,0.92514-1.20001,1.52002
					c-0.22998,0.58002-0.25,1.35999-0.27002,2.17999C51.86057,31.90129,51.93518,31.94368,49.13995,34.91267z M37.04999,50.89265
					c1.82164-4.40366,2.5852-4.84544,1.96997-5.48999c-0.23983-0.23983-0.5718-0.2847-0.82996-0.16998
					c-5.90263,2.48225-8.98493-0.7351-9.89001,0.16998c-0.21002,0.22003-0.27002,0.54999-0.14001,0.83002l2.01001,4.42999
					c-3.07001-1.38-5.41998-4.41998-7.10004-7.5c-0.62994-1.13-1.15997-2.26001-1.59998-3.32001
					c-1.15779-2.72928-1.7845-4.88424-2.21997-7.39001h0.04999l-0.16003-1.5h-0.08997c-0.08002-0.71997-0.13-1.42999-0.13-2.13995
					c-0.3195-0.63899,0.37812-8.98241,3.15997-11.04999c3.28721-2.41335,8.89994,1.76354,19.65002-3.42004
					c1.47289-0.69281,3.1647-0.02343,3.69,2.34003c0.48688,2.10973-0.13361,2.26859,1.62,6.75
					c1.19205,2.96328,1.94738,5.86645,0.82001,10.46997c0,0-0.01001,0.01001,0,0.02002
					c-0.41425,1.56131-0.68182,2.3331-1.41998,3.96997C42.51908,46.83248,40.75621,49.49448,37.04999,50.89265z M15.50995,31.3827
					c-0.29677-1.65479,0.38007-3.73331-1.54999-5.02002c0.01848-0.31395,0.66847-1.47998,1.53003-1.47998
					c0.71997,0,1.40997,0.59998,1.98999,1.35999c-0.21944,2.79787,0.02517,5.76602,0.76001,8.73999
					C17.42673,34.1242,15.62792,32.26638,15.50995,31.3827z M42.27997,6.79268c0,0.18119,0,6.18474,0,5.85999
					c-0.41998,0.04999-0.83002,0.16003-1.20001,0.34003c-10.04898,4.83557-16.10903,0.79266-19.88995,3.56
					c-2.04156,1.51521-3.08256,5.30017-3.47003,7.76001c-1.48077-1.27248-3.26583-1.32012-4.52997,0.32001
					c0.71997-2.93005,1.90997-6.45001,3.69995-9.81c6.66688-12.5141,18.17018-13.91748,22.53003-11.13
					C40.54999,4.41267,41.5,5.43269,42.27997,6.79268z M12.65997,27.05269c0.92659,1.58069,1.20948,0.41965,1.25,2.96997
					c0.06821,2.0215,0.01851,2.50735,2.41998,5.12c1.29485,4.92049,2.51506,10.09773,4.15002,14.47003
					c-0.29999,0.5-0.67999,0.95001-1.15002,1.33002c-1.96997,1.58997-4.45001,2.03998-7.10999,2.35999
					C12.34368,29.89355,11.90154,31.08947,12.65997,27.05269z M45.51996,5.72267c-0.64001,0.04999-1.27997,0.17999-1.90997,0.40002
					C43.28998,5.55269,42.94,5.03267,42.56,4.5627C43.56995,4.8827,44.56,5.27266,45.51996,5.72267z M23.91998,4.39265
					c-9.81,6.69-13.20001,21.36005-13.20001,26.36005v22.71997l-0.16998,0.02002C5.69995,48.13271,2.75,41.04268,2.75,33.26271
					C2.75,19.74269,11.65997,8.26271,23.91998,4.39265z M46.96997,60.0627c-3.23279,1.79618-8.61843,3.44-13.96997,3.44
					c-5.22095,0-10.55135-1.54055-13.97003-3.44c-0.54633-0.1094-4.49369-2.52372-7.16998-5.20001
					c3.01328-0.35683,6.03474-0.81755,8.40997-2.75c0.32001-0.26001,0.60999-0.53998,0.85999-0.84003
					c2.42743,5.94709,6.08644,10.41003,12.53003,10.41003c6.1045,0,9.68006-3.96288,12.14001-9.52002
					c2.38933,1.88752,5.34694,2.33713,8.33997,2.70001C51.42668,57.57596,47.36369,59.98386,46.96997,60.0627z M55.45996,53.49269
					c-0.87751-0.09573-0.57435-0.06271-0.64001-0.07001c0.46002-0.25,0.92004-0.51001,1.37006-0.78003
					C55.95996,52.93269,55.70996,53.21266,55.45996,53.49269z"/><path fill="#172540" d="M30.69,30.95265c-0.26865-0.73796-4.74074-4.03804-9.01001-0.29999
					c-0.14426,0.12822-0.23999,0.37232-0.23999,0.56c0,0.96913,4.06551,3.79966,8.10999,1.23999
					C30.172,32.06392,30.94073,31.62211,30.69,30.95265z M28.71997,31.21266c-1.74104,1.07782-3.44087,1.12617-5.26001,0
					C25.18014,30.10737,26.96906,30.08762,28.71997,31.21266z"/><path fill="#172540" d="M22.00995 29.20265c.86005-.87994 2.10004-1.83997 2.58002-1.87 2.24993-.0983 7.47299 2.98004 7.78998 2.98004.77561 0 1.03551-1.01766.38-1.40002-5.90389-3.37374-8.14866-3.04364-8.25-3.08002-1.29999.07001-3.06995 1.80005-3.57996 2.33002C20.24632 28.87064 21.31557 29.92114 22.00995 29.20265zM43.77997 29.47267c-3.57404-1.62465-7.21002.75982-7.21002 1.73999 0 .50323.59016.86511 1.19 1.23999 2.05502 1.30058 4.02636 1.39603 6.02002.49005C46.65189 31.62945 46.46192 30.70289 43.77997 29.47267zM43.77997 31.17268v.08002c-1.78234 1.06929-3.39135 1.04487-5.19-.04004C40.4208 30.03626 42.04844 30.16248 43.77997 31.17268z"/><path fill="#172540" d="M46.37994 28.16267c-1.11715-1.14583-2.61678-2.47497-4.09998-2.31-2.67999.22003-7.19 2.75-7.72998 3.06-.35999.21002-.48004.66998-.27002 1.03003.13.23999.39001.37.65002.37.73552 0 6.63021-4.07961 8.63995-2.57001 1.32257.75526 1.97235 2.27055 2.79004 1.47998C46.65997 28.93269 46.66998 28.45265 46.37994 28.16267zM30.14996 37.42268c-1.28977-1.79055.96831-2.82773-.14001-3.60999-.33997-.23999-.81-.16003-1.04999.17999-1.04519 1.49311-.99028 3.55686.58002 4.96997.57906.50179 1.44259-.07188 1.21002-.76996.12.04999.22998.07996.34998.12 1.33567.40808.61668 1.20482 2.83002 1.23999.40637 0 1.1204-.2981 1.57001-.85999.26618-.3132.59481-.31039 1.04999-.5-.21642.7419.69309 1.25917 1.21997.76996 2.54766-2.29264.75539-6.00791-.45996-5.14996-1.13161.76538 1.1462 1.8283-.16003 3.59998 0-.08997-.02002-.16998-.04999-.25-.27691-.70139-.93806-.41409-1.34003-.27997-1.49616.45235-1.24369 1.00346-1.90997 1.16998-.10692-.02111-.56688.10745-.88-.31C32.46757 37.1311 30.14996 36.17162 30.14996 37.42268zM40.16998 41.92268c-.31-.06-3.07001-.59998-4.14001-.51001-.75451.05035-2.0015.90693-2.37.92999-.34802-.0205-1.66283-.88173-2.37-.92999-1.07001-.07001-3.84003.45001-4.15002.51001-.98951.19313-.6879 1.65886.28003 1.46997 3.9595-.75578 3.84065-.49003 4.63-.10999 1.47774.75192 1.75311.74137 3.20996 0 .83311-.40112.70133-.63315 4.63.10999.41003.08002.80005-.19.88-.58997C40.84998 42.39265 40.57996 42.0027 40.16998 41.92268z"/></svg>