<svg xmlns="http://www.w3.org/2000/svg" enable-background="new 0 0 66 66" viewBox="0 0 66 66"><path fill="#3590CE" d="M63.99785,33.26166c0,17.11822-13.87907,30.99728-30.99728,30.99728
				c-17.12365,0-31.00272-13.87907-31.00272-30.99728c0-17.12365,13.87907-31.00272,31.00272-31.00272
				C50.11879,2.25894,63.99785,16.13801,63.99785,33.26166z"/><path fill="#E1C123" d="M60.74781,47.08973c-5.08002,10.17993-15.59998,17.16992-27.75,17.16992
				c-12.16003,0-22.67999-7-27.76001-17.18994c-0.03998-3.80005,1.28003-8.06006,3.97003-12.81006
				c0.38995-0.68994,0.81-1.38989,1.25995-2.09985c2.53003-4,4.16003-8.72009,5.01001-13.67005
				c0.28003-1.63,0.63001-3.23999,1.06-4.81995c0.63-2.28003,1.42999-4.51001,2.63-6.41016
				c0.69-1.07983,1.5-2.02991,2.41003-2.82983c1.21997-1.07007,2.60999-1.87012,4.07001-2.31006
				c1.87-0.56006,3.64996-0.43005,5.40997,0.19995c0.65002,0.22998,1.29999,0.53003,1.94,0.88
				c0.64001-0.34998,1.28998-0.65002,1.94-0.88c1.76001-0.63,3.53998-0.76001,5.39996-0.19995
				c1.46002,0.43994,2.84003,1.22998,4.06006,2.30005c0.90997,0.79993,1.73999,1.75,2.41998,2.83984
				c1.20001,1.90015,2.01001,4.13013,2.63,6.41016c0.44,1.57996,0.78998,3.18994,1.07001,4.81995
				c0.84998,4.94995,2.46997,9.67004,5,13.67005c0.44995,0.70996,0.87,1.40991,1.26996,2.09985
				C59.4878,39.01966,60.79779,43.28968,60.74781,47.08973z"/><path fill="#F1AD7E" d="M41.92038,52.30213c-0.08154-0.56738-0.13898-1.1413-0.14252-1.72656v-7.46002h-17.56v7.46002
				c-0.00177,0.58569-0.05823,1.16003-0.13916,1.72784c2.77185,1.05206,5.77991,1.63385,8.91919,1.63385
				C36.13846,53.93726,39.14768,53.35498,41.92038,52.30213z"/><path fill="#444A88" d="M47.03783,60.90897c-4.20996,2.14001-8.98999,3.34998-14.03998,3.34998
				s-9.83002-1.20996-14.03998-3.34998c0.65997-0.48999,1.25995-1.04999,1.81-1.65002h0.00995
				c1.75-1.92999,2.93005-4.32996,3.30005-6.95996c2.76996,1.06,5.77997,1.64001,8.91998,1.64001s6.15002-0.58002,8.91998-1.64001
				c0.38,2.63,1.54999,5.02997,3.31,6.95996h-0.01001C45.77782,59.85898,46.38787,60.41898,47.03783,60.90897z"/><path fill="#F1AD7E" d="M48.88897,17.533c0.83239,1.92293,1.1062,4.0418,0.78081,6.11173
				c-0.78254,4.97795-2.44424,14.33872-4.33262,17.70919c-1.36643,2.43887-7.98616,7.82716-7.98616,7.82716
				c-1.16362,1.14045-2.72799,1.77924-4.3573,1.77924h-0.00001c-1.63043,0-3.19579-0.63967-4.35962-1.78152
				c0,0-6.61085-5.38766-7.97552-7.82488c-1.88744-3.37086-3.5495-12.73097-4.33235-17.70887
				c-0.32556-2.07014-0.05178-4.18929,0.7807-6.11243l2.70804-6.25597c0.92506-2.13702,2.9457-3.59623,5.26522-3.80227
				l2.74226-0.2436c3.44351-0.30589,6.90736-0.30589,10.35087,0c1.11887,0.30156,6.04043-0.49828,8.00748,4.04587L48.88897,17.533z"/><path fill="#FFF" d="M26.23653 39.15931c0 0 .92811.70084 1.47917 1.60934 0 0 1.1588 2.06616 5.28227 2.06616s5.28227-2.06616 5.28227-2.06616c.55107-.9085 1.47918-1.60934 1.47918-1.60934l.30152-.20554c0 0-1.36742.95855-5.50034.31918-.30946-.04787-.6296-.00408-.9035.13343h0c-.40941.20554-.90885.20554-1.31826 0l0 0c-.2739-.13751-.59404-.1813-.9035-.13343-4.13291.63937-5.50034-.31918-5.50034-.31918M28.56186 29.58023c0 0-5.75301 2.45526-8.23234-3.36998C22.39964 27.10089 26.87688 23.99571 28.56186 29.58023zM37.43401 29.58023c0 0 5.75301 2.45526 8.23234-3.36998C43.59623 27.10089 39.11899 23.99571 37.43401 29.58023z"/><path fill="#E1C123" d="M56.78964,34.25546l-5.41998-5.10987c-1.69-1.81006-3.38-3.61011-5.07001-5.42004
				c-2.04999-2.18005-4.13-4.43005-5.42999-7.33997c-0.79917-1.78655-1.72854-5.27849-4.08002-5.5
				c-0.88-0.08008-2.83416-0.24669-3.78998-0.25c-0.96323-0.00333-2.90997,0.16992-3.79999,0.25
				c-2.35543,0.22189-3.27971,3.73328-4.07001,5.5c-1.29999,2.90991-3.39001,5.15991-5.42999,7.33997
				c-1.69,1.80994-3.39001,3.60999-5.08002,5.42004l-5.40997,5.10987c0.38995-0.68994,0.81-1.38989,1.25995-2.09985
				c2.53003-4,4.16003-8.72009,5.01001-13.67017c0.28003-1.62988,0.63-3.23999,1.06-4.81995
				c0.63-2.27991,1.42999-4.50989,2.63-6.41003c1.61005-2.52991,3.94-4.36987,6.48004-5.13989
				c2.56-0.77002,4.94995-0.23999,7.34998,1.07996c2.40002-1.31995,4.78998-1.84998,7.34003-1.07996
				c2.54999,0.77002,4.87,2.60999,6.47998,5.13989c1.20001,1.90015,2.01001,4.13013,2.63,6.41003
				c0.44,1.57996,0.78998,3.19006,1.07001,4.81995c0.84998,4.95007,2.46997,9.67017,5,13.67017
				C55.96963,32.86557,56.38968,33.56552,56.78964,34.25546z"/><path fill="#172540" d="M44.82996,3.79443C44.81995,3.78442,44.81995,3.78442,44.81,3.78442
				c-4.66739-4.04362-8.98283-2.45996-9.23004-2.45996c-0.25,0.07001-0.5,0.14001-0.76001,0.22998
				c-1.32353-0.06611-2.30199-0.06683-3.63995,0c-2.35433-0.77041-4.59332-0.67229-6.25,0.01001h-0.01001
				c-1.3745,0.52368-2.51966,1.16554-3.75,2.21997c-0.01001,0-0.01001,0-0.01001,0.02002c0,0,0,0-0.01001,0
				C9.48999,8.50445,1.25,19.94445,1.25,33.26446c0,5.01001,1.16998,9.76001,3.25995,13.97998
				c0,0.02002,0.01001,0.03003,0.02002,0.03998c0.01001,0.04004,0.02002,0.08002,0.03998,0.12
				c0.09003,0.17004,0.19,0.34003,0.29004,0.51001c0.01001,0.03003,0.01996,0.05005,0.03998,0.08002
				c7.37545,13.93066,22.78981,19.71087,36.84003,15.78998c0.31785,0,3.75903-1.25903,5.15997-1.98999
				c0.16003-0.06,0.32001-0.14001,0.47998-0.21997c0.01001,0,0.01001-0.01001,0.02002-0.01001
				c5.99493-3.03851,10.93415-7.99785,14.07001-14.26001c0-0.01001,0.01001-0.02002,0.01001-0.03998
				c2.09998-4.23004,3.27002-8.98004,3.27002-14C64.75,19.93444,56.5,8.49444,44.82996,3.79443z M63.25,33.26446
				c0,3.78998-0.70001,7.42999-1.99005,10.76996c-0.47998-3.08997-1.72998-6.42999-3.72998-9.98999
				c-0.02997-0.04999-0.06-0.10999-0.08997-0.15997c-0.03003-0.04999-0.05005-0.09003-0.08002-0.14001
				c-0.38-0.65002-0.78003-1.32001-1.21002-1.98999c-6.02743-9.55198-4.1087-18.01567-8.87-25.16003
				C56.77997,11.70446,63.25,21.74444,63.25,33.26446z M9.79999,34.72442c3.35253-3.22191,3.33199-3.02338,6.57001-6.33997
				c2.39808,13.07112,3.64084,13.96436,7.09998,17.26001c-0.04174,4.92638,0.09523,4.67603-0.12,6.48999
				c-0.06683,0.13326-0.40296,4.71426-4.46002,7.87C13.33997,57.07446,8.81,52.46447,5.98999,46.85443
				C6,43.28442,7.27997,39.20446,9.79999,34.72442z M43.39996,61.66442h-0.01001c-6.2292,2.29518-14.05864,2.47651-20.77997,0
				h-0.01001c-0.76001-0.27997-1.51001-0.58997-2.23999-0.94c2.18256-1.96408,3.70215-4.57425,4.29999-7.41998
				c0.01001,0,0.03003,0.01001,0.03998,0.01001c5.43703,1.86869,11.43472,1.7753,16.60004,0
				c0.01001,0,0.02997-0.01001,0.03998-0.01001c0.63416,2.99321,2.26555,5.63204,4.29999,7.41998
				C44.90997,61.07446,44.15997,61.38446,43.39996,61.66442z M41.09998,51.79443c-0.39687,0.14885-1.07764,0.37663-1.53003,0.48004
				c-0.00995,0.00995-0.01996,0.00995-0.02997,0.00995c-3.49471,1.09888-9.11912,1.24525-13.08002,0
				c-0.01001,0-0.01996,0-0.02997-0.00995c-0.45308-0.10357-1.13896-0.33343-1.53003-0.48004
				c0.12329-1.35482,0.04459-1.09703,0.07001-4.76996c3.61609,3.24116,5.14245,4.69,8.02002,4.69
				c2.86423,0,4.21752-1.27148,8.03998-4.70001C41.04608,50.50778,40.98726,50.80223,41.09998,51.79443z M36.82996,48.64447
				c-2.04712,2.00733-5.42806,2.19938-7.71997-0.05005c-1.6752-1.34007-6.75822-5.72887-7.79999-7.60999
				c-1.14001-2.02997-2.44-7.03998-3.66003-13.96997c0.12168-0.12168,2.62218-2.81219,2.83002-3.02002
				c3.27932,0,2.30374-1.93423,10.09998,2.78003c0.12,0.06995,0.26001,0.10999,0.39001,0.10999
				c0.75241,0,1.04478-1.00801,0.39001-1.39001c-6.21615-3.72954-7.00868-3.52879-9.29004-3.25
				c8.057-9.13468,1.24107-11.78341,14.65002-10.60999c1.5,0.14001,2.39001,2.38,3.03003,4.01001
				c0.15997,0.38,0.29999,0.73999,0.44,1.04999c0.95996,2.14996,2.31995,3.95001,3.73999,5.54999
				c-0.90002-0.10999-1.92004-0.19-2.48004-0.08002c-1.87,0.36005-6.32001,3.03003-6.82001,3.33002
				c-0.34998,0.21002-0.45996,0.66998-0.25,1.03003c0.14001,0.22998,0.39001,0.35999,0.64001,0.35999
				c0.14001,0,0.27002-0.04004,0.39001-0.10999c1.29999-0.78003,4.96002-2.88,6.32001-3.13
				c0.84243-0.15983,3.68536,0.34998,3.78998,0.34998c0.14984,0.14984-0.02691-0.03429,2.83002,3.02002
				c-1.22003,6.92999-2.52002,11.92999-3.66998,13.96997c-0.36005,0.65002-1.17004,1.56-2.15002,2.54999
				c-0.46997,0.48004-0.97998,0.97003-1.5,1.45001C39.44,46.46447,37.75,47.88446,36.82996,48.64447z M41.54999,16.07446
				c-0.13-0.29004-0.26001-0.62-0.40002-0.98004c-0.78998-2-1.87-4.72998-4.28998-4.95996
				c-10.33191-0.87144-10.09929,0.36472-12.41003,5.95001C22.64127,20.10065,17.7505,24.85776,12.5,30.12445
				c5.14763-9.65869,2.95853-18.96606,9.44995-25.01001c0-0.01001,0-0.02002,0.01001-0.01001
				c2.16619-2.1662,6.29368-3.37519,9-2.01996c0.01001-0.01001,0.01001,0,0.02002,0c1.31176,0.43696,1.77954,1.1093,2.38,0.76996
				c0.15997-0.08997,0.31-0.16998,0.46997-0.23999c0.15002-0.08002,0.31-0.14996,0.46002-0.21997
				c0.25-0.12,0.5-0.23004,0.73999-0.31h0.01001c0.10305-0.06191,1.01847-0.36023,1.52997-0.43005
				c0.02002-0.01996,0.03003-0.01996,0.05005-0.00995c2.94651-0.59002,6.52739,1.29928,7.38995,2.44995h0.01001
				c0.01001,0,0.01001,0,0.02002,0.01001c0.30078,0.2507,0.76178,0.74089,1.04999,1.08002
				c0.09003,0.09003,0.16998,0.19,0.23999,0.28998c4.63356,5.4066,3.38795,14.10312,8.16003,23.64001
				C49.2644,25.80894,43.43844,20.30882,41.54999,16.07446z M18.69995,6.60443c-4.42317,5.90957-2.65361,15.39963-9.27997,25.81
				c-0.02644,0.04408-0.88,1.46862-0.88,1.52002c-2.03998,3.59998-3.31,6.97998-3.81,10.08002
				C3.44995,40.67443,2.75,37.05444,2.75,33.26446C2.75,21.75445,9.20996,11.71447,18.69995,6.60443z M60,46.87445
				c-1.84286,4.14363-6.55651,9.78369-12.89001,13.13c-5.34041-4.34737-4.548-9.61541-4.58002-14.38
				c1.48999-1.40002,2.89001-2.88,3.46002-3.90002c1.44-2.57001,2.72998-8.38,3.63995-13.33997l1.23004,1.31L56.19,34.71447
				C60.11599,41.66648,59.72217,45.20752,60,46.87445z"/><path fill="#172540" d="M34.88995 36.93444c.85707-.85707 1.06313-.92347 2.23004-.95001.97736-.02386.9612-1.5-.02002-1.5-1.64304 0-2.24638.39334-3.27002 1.39001C33.10541 36.599 34.23925 37.63197 34.88995 36.93444zM28.14996 35.21447c-.02618 1.09841 1.17903.59108 1.97003.93994.68214.29242.93703 1 1.50995 1 .66901 0 1.00177-.80823.53003-1.27997-1.17617-1.17617-1.74223-1.33307-3.25-1.39001C28.90997 34.48443 28.1671 34.52952 28.14996 35.21447zM39.64996 38.32446c-.06.03998-1.37.76001-4.97998.20996-1.10159-.19147-1.42254.49877-1.98999.20001-1.05121-.51278-1.59475.01001-3.82001.01001-2.65426 0-2.95388-1.05025-3.54004-.21997-.2479.35118-.17975.89556.38 1.14996.07338.11007.86494.64588 1.36005 1.46002 2.06106 3.4379 10.34471 3.0505 11.85999.01996.45996-.75995 1.26001-1.37994 1.26001-1.37994l.29999-.20001c.01001 0 .01001 0 .01001-.01001H40.5c.00995-.01001.01996-.01001.01996-.02002.31-.23999.39001-.69.16003-1.01996C40.44995 38.19445 39.98999 38.10443 39.64996 38.32446zM28.25995 40.22442c.85004.04004 1.94 0 3.29004-.20996.16998-.02002.32001 0 .45001.06 1.25351.61686 1.90313-.16264 2.44995-.06 1.35004.20996 2.42999.25 3.29004.20996C36.01156 42.81443 29.70145 42.62692 28.25995 40.22442zM28.85999 30.27447c.34998-.15002.52997-.54004.41998-.91003-1.84578-6.12248-6.96721-3.14775-8.65002-3.83997-.59876-.27804-1.26383.34092-.98999.97998C21.194 30.15077 24.35852 31.77191 28.85999 30.27447zM21.65997 27.12445c2.27327-.05834 4.6475-1.17773 5.94 1.97998C25.32744 29.72418 23.07546 29.24052 21.65997 27.12445zM46.35999 26.50445c.12-.28003.04999-.60999-.16003-.83002-.21997-.20996-.54999-.27997-.82996-.14996-.39001.15997-1.17999.09998-2.05005 0-.56995-.07001-1.15997-.14001-1.76996-.14001-2.48004 0-4.01001 1.26001-4.83002 3.97998-.10999.37.07001.76001.41998.91003C41.6395 31.77127 44.80523 30.15242 46.35999 26.50445zM38.39996 29.10443c1.28733-3.18518 3.80958-2.03584 5.92999-1.97998C43.34998 28.60443 40.68405 29.72733 38.39996 29.10443z"/></svg>