<svg xmlns="http://www.w3.org/2000/svg" enable-background="new 0 0 66 66" viewBox="0 0 66 66"><path fill="#3590CE" d="M63.99775,33.30759c0,17.11822-13.87907,30.99728-30.99728,30.99728
				c-17.12365,0-31.00272-13.87906-31.00272-30.99728c0-17.12365,13.87907-31.00271,31.00272-31.00271
				C50.11868,2.30488,63.99775,16.18394,63.99775,33.30759z"/><path fill="#6C8CAB" d="M43.8289,40.21907v22.15002c-3.37,1.25-7.02002,1.94-10.83002,1.94s-7.46002-0.69-10.83002-1.94V40.21907
				H43.8289z"/><path fill="#D6EBF7" d="M18.57564,35.33762c-0.81085,0-1.57559-0.49274-1.88424-1.29453
				c-4.3369-11.27626,2.89928-32.55318,3.96833-32.23467c1.06747,0.32008-4.04205,20.79916-0.20064,30.78562
				c0.4001,1.04067-0.11905,2.20827-1.15932,2.60798C19.06168,35.29425,18.81649,35.33762,18.57564,35.33762z"/><path fill="#D6EBF7" d="M19.17124 29.78335v12.8959c-2.45507 0-4.43559-2.884-4.43559-6.45249C14.73565 32.66734 16.71617 29.78335 19.17124 29.78335zM47.41985 35.33762c.81086 0 1.57559-.49274 1.88424-1.29453 4.3369-11.27626-2.89928-32.55318-3.96833-32.23467-1.06747.32008 4.04205 20.79916.20064 30.78562-.4001 1.04067.11905 2.20827 1.15932 2.60798C46.93382 35.29425 47.179 35.33762 47.41985 35.33762z"/><path fill="#D6EBF7" d="M46.82425,29.78335v12.8959c2.45507,0,4.43559-2.884,4.43559-6.45249
				C51.25985,32.66734,49.27932,29.78335,46.82425,29.78335z"/><path fill="#6C8CAB" d="M44.6512,48.53181c-2.04251,3.16462-8.2435,7.06343-11.64946,7.06393
				c-3.40767,0.0005-9.61499-3.8993-11.65745-7.06393c-3.2373-5.0295-3.13235-23.88011-3.13235-23.88011
				c-0.33102-7.02357,5.27168-12.89265,12.29525-12.89265h4.98106c7.02357,0,12.62627,5.86908,12.2953,12.89265
				C47.78355,24.65169,47.88846,43.50231,44.6512,48.53181z"/><path fill="#F0523C" d="M41.75725 13.47606v18.28549h-3.10815V12.16823C39.7551 12.4589 40.79655 12.90291 41.75725 13.47606zM27.34681 12.16823v19.59332h-3.10811V13.47606C25.1994 12.90291 26.24081 12.4589 27.34681 12.16823z"/><path fill="#D6EBF7" d="M30.27293 52.65462v4.96495l-3.99588-.52234c-1.37996-.18039-2.60631-.97005-3.34156-2.15167l-2.89351-4.65017c-.62633-1.00657-.95829-2.16842-.95829-3.35394v-6.39641l7.76628 11.85932L30.27293 52.65462zM35.72256 52.65462v4.96495l3.99588-.52234c1.37996-.18039 2.60631-.97005 3.34156-2.15167l2.89352-4.65017c.62633-1.00657.95829-2.16842.95829-3.35394v-6.39641l-7.76628 11.85932L35.72256 52.65462z"/><path fill="#D6EBF7" d="M38.63679,53.67105c0,3.10815-2.52687,5.63503-5.64306,5.63503
				c-3.10815,0-5.63503-2.52687-5.63503-5.63503c0-3.11619,2.52687-5.63498,5.63503-5.63498
				C36.10992,48.03608,38.63679,50.55487,38.63679,53.67105z"/><path fill="#444A88" d="M35.85272,53.67107c0,1.57362-1.27932,2.85294-2.85701,2.85294
				c-1.57362,0-2.85294-1.27932-2.85294-2.85294c0-1.57769,1.27932-2.85292,2.85294-2.85292
				C34.5734,50.81815,35.85272,52.09338,35.85272,53.67107z"/><path fill="#F0523C" d="M36.13805 31.47186c-.66193.63772-.65969 2.56891 0 3.20789 1.04588 1.01305 5.13044 1.95715 6.6665 1.37132 1.52982-.58346 2.94891-3.60197 2.29994-4.7751C44.26015 29.74967 40.00686 27.74455 36.13805 31.47186zM29.85745 31.47186c.66193.63772.65969 2.56891 0 3.20789-1.04589 1.01305-5.13044 1.95715-6.6665 1.37132-1.52982-.58346-2.94891-3.60197-2.29994-4.7751C21.73534 29.74967 25.98863 27.74455 29.85745 31.47186z"/><line x1="30.143" x2="35.853" y1="31.762" y2="31.762" fill="#6C8CAB"/><line x1="32.998" x2="32.998" y1="31.762" y2="48.036" fill="#6C8CAB"/><path fill="#172540" d="M47.87,5.26047c-0.60004-1.72998-1.16003-2.98999-1.57001-3.58997
			c-0.12-0.17004-0.42999-0.62006-0.94-0.62006c-0.07001,0-0.17004,0.02002-0.23999,0.04004
			c-0.65002,0.19-0.79004,0.72998-0.60004,2.63C40.94995,2.32047,37.06,1.55045,33,1.55045
			c-4.06006,0-7.95001,0.77002-11.52002,2.17004c0.17999-1.90002,0.03998-2.44-0.60999-2.63
			c-0.07001-0.02002-0.16003-0.04004-0.23004-0.04004c-0.51996,0-0.82001,0.45001-0.94,0.62006
			C19.28998,2.26047,18.72998,3.53049,18.12,5.26047C8.08997,10.61051,1.25,21.18046,1.25,33.31046
			c0,13.56,8.54999,25.16003,20.53998,29.69c1.07992,1.08157,12.27148,3.74679,22.29999,0.07001
			c0.03998-0.02002,0.08002-0.03998,0.12-0.07001c11.98999-4.52997,20.54004-16.13,20.54004-29.69
			C64.75,21.17051,57.90997,10.6005,47.87,5.26047z M47.65997,41.78049c-0.00874-1.20443,0.02163-1.26938-0.03003-1.45001
			c0.3084-2.30484,0.61951-5.70038,0.76001-9.25c0.67065,0.48563,1.35981,1.36994,1.78003,2.73999v0.01001
			C51.21312,37.29218,49.80413,41.00909,47.65997,41.78049z M43.07996,53.49045c-0.38029,0.44809-1.06705,2.55056-3.45996,2.86005
			l-0.89001,0.12c0.55538-1.11085,0.74266-2.33404,0.63-3.35004c0.45564-0.14237,5.28555-7.75007,5.21997-7.64996
			c0.06574-0.10027,1.68283-2.56685,1.58002-2.41003v4.01001c-0.04195,2.09529-1.17017,3.22659-1.58002,4.02002L43.07996,53.49045z
			 M35.12,58.06046c-3.5484,1.7742-7.46533-1.40555-6.98004-4.81h0.02002c-0.01001,0-0.01001,0-0.02002-0.01001
			c0.13225-2.28996,2.168-4.44995,4.85004-4.44995H33c2.6693,0,4.72695,2.14648,4.85999,4.44995
			c-0.01001,0.01001-0.01001,0.01001-0.02002,0.01001h0.02002C38.10718,54.9846,37.06929,57.14485,35.12,58.06046z
			 M20.67999,49.90049c-1.32927-2.14727-0.68941-3.91972-0.85004-6.84003c0.06577,0.10026,3.29614,5.02419,3.09003,4.71002
			c3.46705,5.17616,3.24452,5.21016,3.71997,5.34998c-0.10627,0.95834,0.0597,2.22935,0.62,3.35004
			c-0.43832-0.13278-2.45408,0.05357-3.69-1.92004C23.50727,54.44961,20.61726,49.79967,20.67999,49.90049z M15.82996,33.84049
			v-0.01001c0.31921-1.05459,0.96614-2.20735,1.78003-2.75c0.14711,3.71659,0.44412,6.95397,0.75,9.23999
			c-0.052,0.18185-0.02122,0.23606-0.03003,1.46002C16.22578,41.01883,14.78277,37.31562,15.82996,33.84049z M19.81995,5.03049
			c-0.23681,2.13234-1.23482,8.41359-1.5,14.33997c-1.04289,2.6636-0.96282,4.67816-0.77997,10.02002
			c-0.39001,0.16998-0.77002,0.40002-1.10999,0.70001C15.24026,22.70664,17.33089,11.96684,19.81995,5.03049z M37.89996,12.76047
			v16.54999c-1.17408,0.57125-2.2296,1.51926-2.34998,1.70001h-5.10004c-0.11474-0.17228-1.11814-1.10066-2.34998-1.70001V12.76047
			C29.87985,12.37258,36.1202,12.3726,37.89996,12.76047z M47.02997,24.6605c0,4.35935-0.2674,11.03168-0.91998,15.72998
			c-1.20609,1.84361-7.15712,10.94026-7.17004,10.96002C38.09998,49.20047,36.12,47.61051,33.75,47.34049v-6.37
			c0-0.17699,0-8.77728,0-8.46002h1.17999c-0.11959,0.9159,0.03578,2.07565,0.69,2.71002
			c1.03998,1.01001,3.97998,1.76001,5.90997,1.76001c1.4892,0,2.54549-0.42546,3.57001-2.14001
			c0.6726-1.08643,1.27843-2.8194,0.65997-3.92999c-0.08997-0.16003-0.19995-0.31-0.33997-0.47003
			c-0.59003-0.69-1.63-1.34998-2.91003-1.64996V14.88047C45.66888,17.36709,47.20299,20.91961,47.02997,24.6605z M37.89996,31.0405
			c1.48076-0.98724,3.0094-0.92397,3.10999-0.94c1.70306,0.03099,3.04929,0.85623,3.44,1.53998
			c0.37602,0.68342-0.72447,3.26294-1.90997,3.71002c-1.20508,0.46336-5.03295-0.37701-5.88-1.21002
			c-0.09998-0.09998-0.27002-0.47998-0.27002-1.07001C36.38995,32.30153,36.51355,31.87865,37.89996,31.0405z M41.00995,28.6005
			c-0.38857,0.01868-0.79574-0.00572-1.60999,0.17999V13.19047c0.03003,0,0.06,0.01001,0.08002,0.02002
			c0.01001,0,0.01001,0,0.02002,0.01001c0.51996,0.19,1.01996,0.42999,1.50995,0.69V28.6005z M29.59998,33.07047
			c0,0.59003-0.16003,0.97003-0.26001,1.07001c-0.85369,0.82576-4.6627,1.67809-5.88,1.21002c-0.62-0.23004-1.37-1.20001-1.75-2.25
			c-0.27002-0.72003-0.27002-1.26001-0.15997-1.46002c0.78598-1.43534,3.92952-2.29242,6.54999-0.59998
			C29.48375,31.87705,29.59998,32.28054,29.59998,33.07047z M26.59998,13.19047v15.59003
			c-0.83531-0.18723-1.32459-0.16614-1.60999-0.17999v-14.69c0.48999-0.26001,0.98999-0.5,1.51001-0.69
			c0.00995-0.01001,0.00995-0.01001,0.01996-0.01001C26.53998,13.20048,26.56995,13.19047,26.59998,13.19047z M23.48999,28.78049
			c-3.23156,0.78879-4.50664,2.92337-2.60004,6.04999c1.0355,1.73294,2.09257,2.15002,3.58002,2.15002
			c1.92999,0,4.87-0.75,5.90997-1.76001c0.64468-0.63475,0.7994-1.79417,0.68005-2.71002h1.19c0,0.15546,0,8.94096,0,8.46002
			v6.35999c-2.38,0.28003-4.36005,1.85999-5.20001,4.02002c-0.72931-1.11494,2.64149,4.03818-7.13-10.90002v-4.71002
			c-0.10032,0.05473-0.37309,0.18261-0.51001,0.21002c-0.13879-1.47143-0.32969-4.81639-0.37-6.90997
			c-0.20965-5.98503-0.4413-10.39002,4.45001-14.16003V28.78049z M49.56,30.1005c-0.34003-0.31-0.71002-0.54004-1.10004-0.71002
			c0.18124-5.93419,0.17072-7.57162-0.78998-10.03998c-0.19788-4.42247-0.88798-9.91259-1.5-14.32001
			C48.64658,11.92913,50.76873,22.64799,49.56,30.1005z M33,3.05045c4.14996,0,8.10999,0.84003,11.70996,2.36005
			c0.24147,1.93152,0.89783,6.33131,1.27002,10.88c-1.74318-2.3423-4.12748-4.01875-7.14001-4.85004
			c-2.56508-0.66494-9.11264-0.66552-11.67999,0c-3.0793,0.84971-5.45612,2.57739-7.14001,4.84003
			c0.37301-4.55867,1.03053-8.95428,1.27002-10.87C24.88995,3.89048,28.84998,3.05045,33,3.05045z M2.75,33.31046
			c0-11,5.89996-20.63995,14.69995-25.94995c-1.94995,6.42999-3.88,16.68994-2.25,24.20996
			c-2.50394,4.0853-0.96988,10.89078,3.13,11.76001c0.16037,2.70026-0.51624,4.81954,1.08002,7.35999l2.01001,3.23004v7.31995
			C10.46997,56.69046,2.75,45.89048,2.75,33.31046z M22.91998,61.82047v-5.67999c1.83354,2.03006,4.10592,1.66972,5.51996,1.98999
			c2.49949,2.58638,6.63577,2.5603,9.11005,0c1.41395-0.31957,3.69476,0.04191,5.52997-1.98999v5.67999
			C36.62209,64.12342,29.39544,64.1297,22.91998,61.82047z M44.57996,61.24045v-7.31995
			c1.36866-2.5107,3.08002-3.96447,3.08002-6.98004v-3.60999c4.1465-0.8791,5.62091-7.71232,3.14001-11.76001
			c1.62-7.51001-0.31-17.77002-2.25-24.20996C57.34998,12.67051,63.25,22.31046,63.25,33.31046
			C63.25,45.89048,55.52997,56.69046,44.57996,61.24045z"/></svg>