<svg xmlns="http://www.w3.org/2000/svg" enable-background="new 0 0 66 66" viewBox="0 0 66 66"><path fill="#3590CE" d="M64.24783,32.99979c0,17.25627-13.99099,31.24726-31.24726,31.24726
				c-17.26174,0-31.25274-13.99099-31.25274-31.24726c0-17.26174,13.99099-31.25274,31.25274-31.25274
				C50.25684,1.74705,64.24783,15.73804,64.24783,32.99979z"/><path fill="#575E85" d="M60.91196,47.06977c-5.15002,10.19-15.72003,17.17999-27.90997,17.17999
				c-12.20001,0-22.77002-6.98999-27.91003-17.17999C22.01589,39.6629,43.99972,39.66802,60.91196,47.06977z"/><path fill="#575E85" d="M47.31044,21.74344c0.98999,4.20996,0.54004,8.01996,0.54004,8.01996l-1.22003,15.13
				c-0.16998,2-1.08002,3.85004-2.56,5.20001l-4.58997,4.20001c-1.45001,1.32001-3.26001,2.15997-5.20001,2.41998
				c-0.42999,0.06-0.85999,0.09003-1.29004,0.09003c-0.42999,0-0.85999-0.03003-1.27997-0.09003
				c-1.94-0.26001-3.73999-1.09998-5.19-2.41998l-4.59998-4.20001c-1.48004-1.34998-2.39001-3.20001-2.55005-5.20001l-1.21997-15.13
				c0,0-0.45001-3.79999,0.52997-8c-1.57996-6.67999-1.21997-13.34998,1.09003-20.00995
				c3.03998,3.39996,5.62,6.66998,7.46997,9.70996c1.61005-0.54999,3.52002-0.84998,5.76001-0.81
				c2.23004-0.03998,4.13,0.26001,5.75,0.79999c1.85004-3.02997,4.42999-6.29999,7.47003-9.69995
				C48.52046,8.40342,48.89046,15.0734,47.31044,21.74344z"/><path fill="#010101" d="M47.95001,27.33996l-0.81,1.85004l-0.36005,0.83002L46.72998,30.13
				c-0.16998,0.39001-0.34998,0.78998-0.54999,1.19v0.01001c-0.84003,1.73999-1.85999,3.5-2.98999,5
				c-0.20001,0.08997-1.98999,1.67999-5.35999,1.67999c-2.12,0-3.33002-0.54999-4.83002-1.06
				c-1.47003,0.5-2.67999,1.06-4.84003,1.06c-3.32996,0-5.17999-1.60004-5.35999-1.67999c-1.12-1.5-2.15002-3.26001-2.97998-4.99005
				v-0.00995c-0.20001-0.40002-0.39001-0.80005-0.56-1.20001l-0.04999-0.10999l-0.35004-0.80005v-0.00995l-0.82001-1.87006
				c0.02002-0.84998,0.06-1.87994,0.19-2.98999L18.94,24.82001l14.06,9.38l14.06-9.38l0.71002-0.47003
				C47.89001,25.46002,47.94,26.48999,47.95001,27.33996z" opacity=".1"/><path fill="#575E85" d="M45.34531 43.69033c1.7977-1.5074 2.81695-3.82829 2.9761-6.16894.15916-2.34064-.49055-4.69102-1.59158-6.76265M20.65036 43.69033c-1.79769-1.5074-2.81695-3.82829-2.9761-6.16894-.15916-2.34064.49055-4.69102 1.59158-6.76265"/><path fill="#575E85" d="M45.34531 43.69033c1.7977-1.5074 2.81695-3.82829 2.9761-6.16894.15916-2.34064-.49055-4.69102-1.59158-6.76265M20.65036 43.69033c-1.79769-1.5074-2.81695-3.82829-2.9761-6.16894-.15916-2.34064.49055-4.69102 1.59158-6.76265"/><path fill="#FFF" d="M35.41278 35.35232c0 0 3.35814 1.16529 6.17464-.7171 0 0 1.5888-2.10649 3.03316-5.4231L35.41278 35.35232zM30.58289 35.35232c0 0-3.35814 1.16529-6.17464-.7171 0 0-1.58879-2.10649-3.03316-5.4231L30.58289 35.35232z"/><path fill="#FFF" d="M42.93726,20.69417c0,3.16566-4.44755,5.73245-9.92581,5.73245c-5.49736,0-9.9448-2.56679-9.9448-5.73245
				s4.44743-5.73245,9.9448-5.73245C38.48971,14.96171,42.93726,17.5285,42.93726,20.69417z" opacity=".2"/><path fill="#010101" d="M46.22047 1.75345l-2.52002 13.87c-1.96997-2.65002-4.95001-4.17004-4.95001-4.17004C40.60048 8.42344 43.18044 5.15342 46.22047 1.75345zM19.7675 1.75345l2.52002 13.87c1.96997-2.65002 4.95001-4.17004 4.95001-4.17004C25.3875 8.42344 22.80754 5.15342 19.7675 1.75345z" opacity=".1"/><path fill="#FFF" d="M43.51105 42.22094c-.21387 0-.42676-.09131-.57422-.26807-.2666-.31738-.22461-.79053.09277-1.05664 1.33984-1.12354 2.18457-2.88477 2.31738-4.83154.02734-.41309.3877-.72949.79883-.69678.41309.02783.72559.38574.69727.79932-.16016 2.35156-1.19922 4.49414-2.85061 5.87842C43.85284 42.16333 43.68195 42.22094 43.51105 42.22094zM22.47687 42.22094c-.1709 0-.3418-.05762-.48145-.17529-1.65137-1.38428-2.69043-3.52686-2.85059-5.87842-.02832-.41357.28418-.77148.69727-.79932.39258-.03125.77148.28369.79883.69678.13281 1.94678.97754 3.70801 2.31738 4.83154.31738.26611.35938.73926.09277 1.05664C22.90363 42.12963 22.69073 42.22094 22.47687 42.22094z" opacity=".2"/><path fill="#172540" d="M47.88,4.67999c-0.27002-1.06-0.59003-2.12-0.95001-3.16998c-0.09003-0.25-0.29999-0.44-0.56-0.48999
					C46.10999,0.96997,45.83997,1.05999,45.65997,1.25C45.13,1.84997,44.62,2.42999,44.13,3C40.65997,1.71002,36.90997,1,33,1
					c-3.91003,0-7.66003,0.71002-11.13,2c-0.5-0.57001-1.01001-1.15002-1.53998-1.75C20.14996,1.05999,19.88,0.96997,19.62,1.02002
					C19.35999,1.07,19.14996,1.26001,19.06,1.51001C18.69,2.57,18.38,3.61999,18.10999,4.69C7.94,10.04998,1,20.72998,1,33
					c0,17.2454,13.85126,32,32,32c18.04572,0,32-14.65984,32-32C65,20.71997,58.04999,10.03998,47.88,4.67999z M63.5,33
					c0,4.69-1.06,9.13-2.96002,13.09998C56.51001,44.38,52.15997,43.07,47.63,42.17999
					c0.82001-1.34003,1.33002-2.92999,1.44-4.60999c0.10999-1.59003-0.13-3.25-0.70001-4.90002l0.22998-2.82001
					c0.01001-0.15997,0.44-3.88995-0.51996-8.10999c1.15997-5.01001,1.23999-10.07001,0.23999-15.10999
					C57.39001,11.91998,63.5,21.76001,63.5,33z M33,2.5c3.53998,0,6.95001,0.60999,10.10999,1.71997
					c-1.90997,2.30005-3.46002,4.39001-4.69,6.35004c-1.52997-0.45001-3.21997-0.66998-5.02997-0.66998h-0.79004
					c-1.82001,0-3.51001,0.22998-5.02997,0.66998c-1.23004-1.95001-2.77002-4.04999-4.67999-6.35004
					C26.04999,3.10998,29.46002,2.5,33,2.5z M20.08002,3.22998c0.10999,0.12,0.20996,0.23999,0.31,0.35999
					C20.75,4,21.08997,4.40002,21.40997,4.78998c2.17999,2.59003,3.89001,4.92004,5.19,7.06c0.17999,0.31,0.54999,0.44,0.88,0.32001
					c1.5-0.51001,3.23004-0.76996,5.12-0.76996h0.79004c1.88,0,3.59998,0.25995,5.12,0.75995
					c0.32996,0.12,0.70001-0.01996,0.88-0.32001c1.31-2.13995,3.01996-4.45996,5.19995-7.04999
					c0.31-0.38995,0.65002-0.78998,1.01001-1.20001c0.10004-0.12,0.20001-0.23999,0.31-0.35999c0.06,0.19,0.11005,0.37,0.16003,0.56
					c0.19,0.63,0.35999,1.26001,0.51001,1.90002c1.25,5.28998,1.25,10.62,0,15.88001c-0.03003,0.10999-0.03003,0.22998,0,0.33997
					c0.23999,1.01001,0.38995,2,0.47998,2.91003c0.20001,1.95996,0.14001,3.58002,0.08002,4.37
					c-0.02002,0.32001-0.04004,0.5-0.04004,0.51001l-0.02997,0.38995c-0.09003-0.03998-0.19-0.06995-0.29004-0.06995
					C46.64996,30,46.51001,30.02997,46.38,30.09997c-0.37,0.19-0.51001,0.64001-0.31,1.01001
					c0.03998,0.07001,0.07996,0.14001,0.10999,0.21002v0.01001c0.26001,0.50995,0.47998,1.01996,0.66998,1.52997
					c0.57001,1.56,0.82001,3.13,0.72003,4.60999c-0.24273,3.78514-2.69273,5.59909-2.78003,5.73004
					c-0.25,0.26996-0.26001,0.67999-0.01996,0.96997c0.27381,0.32864,0.75106,0.35479,1.06,0.09003
					c0.02997-0.03003,0.06995-0.06,0.09998-0.09003L45.88,44.83001c-0.15002,1.81-0.97003,3.48999-2.32001,4.70996l-4.58002,4.20001
					c-1.33997,1.22003-3,1.98999-4.79999,2.22998c-0.79999,0.11005-1.59003,0.11005-2.37,0
					c-1.78998-0.23999-3.45001-1.00995-4.78003-2.22998l-4.59998-4.20001c-1.34998-1.22998-2.16998-2.89996-2.31-4.70996
					l-0.04999-0.66003c0.38958,0.39037,0.8885,0.32584,1.15997,0c0.28732-0.34717,0.1736-0.86723-0.09998-1.04999
					c-0.42999-0.35999-0.81-0.78003-1.14001-1.23999c-0.04999-0.04999-0.09003-0.10999-0.12-0.16998
					c-0.83002-1.19-1.34003-2.67004-1.45001-4.24005c-0.09998-1.5,0.15002-3.07996,0.72998-4.63995
					c0.19-0.5,0.41003-0.99005,0.67004-1.49005v-0.00995c0.02997-0.07001,0.07001-0.15002,0.10999-0.22003
					c0.19-0.37,0.04999-0.82001-0.31-1.01001c-0.23838-0.12837-0.52994-0.09889-0.69-0.01001
					c-0.00971-0.11271-0.06291-0.76716-0.07001-0.87v-0.00995c-0.06-0.76001-0.13-2.41003,0.08002-4.39001
					c0.08997-0.90002,0.23999-1.88,0.46997-2.89001c0.03003-0.10999,0.03003-0.22998,0-0.34003
					c-1.25-5.27997-1.25-10.59998,0-15.88995c0.15002-0.63,0.31-1.27002,0.5-1.90002
					C19.96002,3.60998,20.02002,3.41998,20.08002,3.22998z M17.66998,6.64001c-1,5.02997-0.91998,10.09998,0.23999,15.13001
					c-0.94995,4.19995-0.51996,7.91998-0.51001,8.04999L17.63,32.65002c-0.57001,1.65997-0.81,3.32996-0.70001,4.91998
					c0.10999,1.67999,0.62,3.26996,1.44,4.60999C13.83997,43.07,9.5,44.38,5.46002,46.09997C3.56,42.13,2.5,37.69,2.5,33
					C2.5,21.76001,8.59998,11.92999,17.66998,6.64001z M33,63.5c-11.00851,0-21.34438-5.91079-26.85999-16.06
					c3.88-1.64001,8.02997-2.90002,12.38-3.76001L18.62,44.95001c0.17999,2.19,1.16998,4.20996,2.78998,5.70001l4.61005,4.19995
					c1.56,1.42004,3.5,2.33002,5.57996,2.61005c0.88768,0.11578,1.83028,0.12387,2.78003,0
					c2.09998-0.28003,4.03998-1.19,5.60999-2.61005l4.59003-4.19995c1.62-1.48004,2.60999-3.5,2.79999-5.70001l0.09998-1.27002
					c4.35004,0.85999,8.5,2.12,12.38,3.76001C54.229,57.80151,43.77835,63.5,33,63.5z"/><path fill="#172540" d="M35.16632 36.06079c.04688.01611 1.16504.39795 2.66895.39795 1.5752 0 2.97754-.40381 4.16895-1.2002.06934-.04688.13086-.10498.18164-.17188.06738-.08887 1.65918-2.21582 3.12207-5.57519.13281-.30469.04883-.66113-.20605-.87451-.25488-.21436-.62109-.2334-.89746-.04883l-9.20801 6.14013c-.2373.1582-.36426.43652-.32813.71924C34.70441 35.72973 34.89777 35.96753 35.16632 36.06079zM42.73077 31.37378c-.78223 1.44043-1.45117 2.40478-1.66797 2.70801-.91797.58203-2.00293.87695-3.22754.87695-.15918 0-.3125-.00488-.45996-.01367L42.73077 31.37378zM23.80988 35.08667c.05078.06689.1123.125.18164.17188 1.19141.79639 2.59473 1.2002 4.16895 1.2002 1.50391 0 2.62207-.38184 2.66895-.39795.26855-.09326.46191-.33105.49805-.61328.03613-.28271-.09082-.56104-.32813-.71924l-9.20801-6.14013c-.27539-.18457-.6416-.16357-.89746.04883-.25488.21338-.33887.56982-.20605.87451C22.1507 32.87085 23.74248 34.9978 23.80988 35.08667zM28.62042 34.94506c-.14746.00879-.30078.01367-.45996.01367-1.22461 0-2.30957-.29492-3.22754-.87695-.2168-.30225-.88477-1.26514-1.66895-2.70849L28.62042 34.94506z"/></svg>