<svg xmlns="http://www.w3.org/2000/svg" enable-background="new 0 0 66 66" viewBox="0 0 66 66"><path fill="#3590CE" d="M63.99761,33.24302c0,17.11822-13.87907,30.99729-30.99728,30.99729
				c-17.12365,0-31.00272-13.87907-31.00272-30.99729c0-17.12365,13.87907-31.00271,31.00272-31.00271
				C50.11855,2.2403,63.99761,16.11937,63.99761,33.24302z"/><path fill="#F0523C" d="M60.40896,47.72533c-5.20001,9.82001-15.52002,16.51001-27.41003,16.51001
				c-11.88,0-22.20996-6.67999-27.40997-16.5c6.77997-4.77002,16.54999-7.75,27.40997-7.75
				C43.86892,39.98534,53.64895,42.97533,60.40896,47.72533z"/><path fill="#27B14B" d="M47.69078 41.04976c0 0 2.97226.12071 3.72544-.5597 2.08755-1.88586 5.53911-9.27792 3.66507-11.08772-.752-.72622-4.02789 1.4747-4.02789 1.4747L47.69078 41.04976zM18.30444 41.04976c0 0-2.97226.12071-3.72544-.5597-2.08755-1.88586-5.53911-9.27792-3.66507-11.08772.752-.72622 4.02789 1.4747 4.02789 1.4747L18.30444 41.04976z"/><path fill="#F0523C" d="M51.97851,17.11753l0.60219,2.8383v6.80514c0,2.63527-0.54618,5.24195-1.60409,7.65556l-7.64759,17.44798
				c-1.19533,2.72714-3.89088,4.48877-6.86848,4.48877h-6.92586c-2.9776,0-5.67315-1.76162-6.86847-4.48877l-7.64759-17.44798
				c-1.05791-2.41361-1.60409-5.02028-1.60409-7.65556v-4.8117c0-2.54655,0.61806-4.91748,0.5969-4.81735
				c1.89644-8.97202,9.8148-15.39161,18.98505-15.39161h0.00003C42.16124,1.74031,50.07641,8.15235,51.97851,17.11753z"/><path fill="#FFF" d="M40.08306,46.55476c0,0-1.54615,2.88941-7.08545,2.88941c-5.53923,0-7.08545-2.88941-7.08545-2.88941"/><path fill="#27B14B" d="M52.57877,19.95454v6.81c0,2.63-0.54004,5.23999-1.60004,7.64996l-0.84998-5.70001l-1.42999-2.00995
				V22.1645l1.05822-5.15051c0.22523-1.09623-0.22918-2.22058-1.15284-2.85248l-3.77166-2.58031
				c-0.74817-0.51184-1.69898-0.62655-2.54741-0.30732l-3.2365,1.21778c-0.82392,0.31001-1.45219,0.99212-1.69358,1.8387
				L34.24875,25.2245h-2.60999l-3.09642-10.89073c-0.24125-0.84851-0.87107-1.53205-1.69704-1.84179l-3.25414-1.22029
				c-0.84776-0.31791-1.79725-0.20283-2.54452,0.3084l-3.77328,2.58142c-0.92366,0.6319-1.37807,1.75625-1.15283,2.85248
				l1.05822,5.15051v4.54004l-1.42999,2.00995l-0.81,5.49005c-1.01001-2.35004-1.52002-4.89001-1.52002-7.44v-4.82001
				c0-2.51885,0.49131-4.22311,0.59003-4.81C15.90872,8.1645,23.82877,1.74452,32.99875,1.74452
				c4.58002,0,8.84998,1.59998,12.21002,4.33002c3.35999,2.71997,5.81995,6.56,6.76996,11.03998L52.57877,19.95454z"/><path fill="#FFF" d="M46.35183 28.03905c0 0-3.12793 6.43364-10.19625 3.77154C39.32792 28.50537 42.73664 27.33832 46.35183 28.03905zM19.64339 28.03905c0 0 3.12793 6.43364 10.19625 3.77154C26.6673 28.50537 23.25858 27.33832 19.64339 28.03905z"/><path fill="#172540" d="M40.09003,2.29383c-0.53497-0.21412-1.38844-0.48464-1.92999-0.62006
					c-3.11543-0.92252-7.83882-1.03404-12.17004,0.60004C11.84003,5.47382,1.25,18.14381,1.25,33.24378
					c0,17.65914,14.45599,31.75,31.75,31.75c11.3152,0,22.31282-6.1031,28.07001-16.91998
					c0.01001-0.02002,0.02002-0.02997,0.02002-0.04999C63.42999,43.60383,64.75,38.5738,64.75,33.24378
					C64.75,18.17377,54.20001,5.52381,40.09003,2.29383z M13.04999,30.6338c0.06,0.34003,0.14001,0.66998,0.23004,1
					c0.07996,0.34003,0.17999,0.67999,0.27997,1.01001c0.10004,0.31,0.21002,0.63,0.32001,0.94
					c0.12,0.31,0.23999,0.60999,0.37,0.91998c0.02002,0.07001,0.04999,0.14001,0.08002,0.21002l2.44,5.56
					c-1.12-0.07001-1.59003-0.26001-1.69-0.34003C13.63,38.61378,11.16998,33.8838,11.13,31.15382
					c-0.01001-0.52002,0.08002-0.92999,0.25-1.15002C11.73999,30.0138,12.39001,30.28382,13.04999,30.6338z M18.92999,41.46381
					c0.09003-0.14001,0.14001-0.32001,0.10999-0.48999C18.94,40.99378,18.84003,41.0138,18.75,41.04383l-3.03998-6.93005
					l0.32996-2.27997l0.42004-2.83002c1.24384-1.8108,1.46997-1.87899,1.46997-2.29999
					c-0.01053-4.8794,0.01944-4.49203-0.01996-4.69c-0.50941-3.87487-2.01017-6.01232-0.21002-7.22998
					c3.20447-1.94445,4.02055-3.40717,5.63-2.81l3.25,1.21997c0.59998,0.22998,1.07001,0.72998,1.23999,1.34003l3.09998,10.89996
					c0.25154,0.89412,1.34591,0.40529,3.33002,0.54004c0.33002,0,0.63-0.22003,0.72003-0.54004
					C38.2232,14.97842,37.6554,13.80059,39.31,13.19379c2.47254-0.73742,3.70695-1.94443,5.10004-0.98999
					c2.60141,2.10073,5.05522,2.56458,4.60999,4.65997c-1.11324,5.46209-1.07001,5.08955-1.07001,5.30005
					c0.064,6.20929-0.47098,3.91986,1.46002,6.83997c0.01533,0.10153,0.85186,5.64366,0.79999,5.29999L47.25,41.04383
					c-0.09998-0.04004-0.20001-0.06006-0.29999-0.08002c-0.03003,0.16998,0.02002,0.34998,0.12,0.5v0.01001
					c-6.07088,13.82734-3.97703,9.05827-4.42999,10.08997c-1.07001,2.45001-3.5,4.04004-6.17999,4.04004h-6.92999
					c-2.67004,0-5.10004-1.59003-6.17999-4.04004l-4-9.13L18.92999,41.46381z M51.64001,34.7638
					c0.16286-0.16286,1.28998-3.47858,1.28998-4.03998c0.01001-0.03003,0.02002-0.06,0.02002-0.09003
					c0.65002-0.33997,1.28998-0.59998,1.66998-0.62c1.21656,1.57432-1.86068,8.24797-3.70996,9.91998
					c-0.09003,0.08002-0.56,0.27002-1.69,0.34003L51.64001,34.7638z M51.59003,29.66383c-0.20001,0.10999-0.37,0.21997-0.52002,0.31
					c-0.412-2.53534,0.15413-0.68825-1.62-3.51001v-4.22003l1.03998-5.07996c0.71413-3.42248-3.27453-4.49609-5.22998-6.20001
					c-2.25428-1.54244-4.23765,0.22988-6.47998,0.83002c-2.8004,1.04999-2.14122,3.72333-5.10004,12.67999h-1.46997
					l-2.95001-10.35004c-0.71152-2.53789-3.30306-2.52746-5.40997-3.54999c-1.06006-0.40002-2.29004-0.25-3.23004,0.39001
					l-3.76996,2.58002c-2.93043,1.98661-0.72963,5.48195-0.42004,8.69995v4.22003c-1.8703,2.67943-1.22952,1.4158-1.60999,3.45001
					c-0.12-0.08002-0.26001-0.16003-0.40997-0.25c-0.35779-2.14633-0.45436-8.50021,0.17999-11.67004
					c0.0075-0.01496,0.13995-0.61609,0.13995-0.64996c0.01998-0.01998,0.00004-0.04002,0.02002-0.06
					c1.34456-6.32836,5.84608-11.336,11.59003-13.54004h0.01001c4.20847-1.63891,8.93987-1.6942,13.31995,0
					c0.01001,0,0.02002,0,0.03003,0.01001c10.9751,4.29625,11.83231,15.59479,12.13,16.28003
					C51.81447,21.67531,51.90628,28.71505,51.59003,29.66383z M2.75,33.24378c0-11.85999,6.85999-22.14996,16.83002-27.09998
					c-1.83783,1.64051-3.38284,3.61659-4.56,5.91998c0,0.01001-0.01001,0.02002-0.01001,0.03003
					c-1.37167,2.74333-1.69423,4.7839-1.72998,4.88995c-0.10015,0.10015-0.51373,1.97292-0.60004,4.15002
					c0.01001,0.01001,0.01001,0.02002,0,0.03998c-0.15088,3.47766,0.08874,7.56815,0.09003,7.67004
					c-0.5-0.20001-0.98999-0.34003-1.40002-0.34003c-0.5,0-0.81,0.20001-0.97998,0.35999
					C9.87,29.37379,9.60999,30.15382,9.63,31.18378c0.04999,3,2.59003,8.17999,4.45001,9.86005
					c0.15997,0.14996,0.59998,0.54999,2.23999,0.69995c-3.85999,1.22003-7.40002,2.86005-10.42999,4.89001
					C3.88,42.59382,2.75,38.05378,2.75,33.24378z M44.78998,61.10383c-0.00995,0-0.01996,0.00995-0.02997,0.00995
					c-3.17905,1.42255-7.54769,2.37-11.76001,2.37c-3.71622,0-7.88474-0.72268-11.76001-2.37
					c-0.01001,0-0.01996-0.00995-0.02997-0.00995c-6.07979-2.54971-11.30537-7.19363-14.62-13.14001
					c3.23999-2.16998,7.07996-3.91998,11.29999-5.13l4.08997,9.33002c1.31,3,4.28003,4.94,7.55005,4.94h6.92999
					c3.27997,0,6.23999-1.94,7.56-4.94l4.08997-9.33002c4.22003,1.21002,8.06,2.95001,11.31,5.12
					c-0.07996,0.14001-0.15997,0.27002-0.23999,0.40997c-0.34998,0.61005-0.70996,1.21002-1.09998,1.78003
					C54.68468,55.15541,50.06271,58.85874,44.78998,61.10383z M49.70001,41.74378c1.62-0.15997,2.04999-0.54999,2.21997-0.69995
					c3.40982-3.07986,7.34008-14.61219,1.31-12.20001c0.17197-1.97771,0.06807-2.34207,0.10004-8.89001
					c0-0.04999-0.01001-0.09998-0.02002-0.15002c-0.43332-1.11181-0.58622-8.00922-6.83997-13.63001
					C56.41003,11.12379,63.25,21.40382,63.25,33.24378c0,4.81-1.13,9.35004-3.14001,13.39001
					C57.08002,44.60383,53.54999,42.96381,49.70001,41.74378z"/><path fill="#172540" d="M30.88,42.34382c2.03089,2.03089,5.34777,0.04755,4.22998-1.07001
					c-0.28998-0.29004-0.75995-0.29004-1.06,0.01001c-0.60313,0.60313-1.53992,0.56994-2.10999,0
					C31.24827,40.56807,30.17924,41.64291,30.88,42.34382z"/><path fill="#172540" d="M35.63 41.3238c-.33459.50917.06607 1.15002.63 1.15002.63107 0 .72182-.61896 1.17999-1.22003.77873-1.22343.6673-2.82533-.22998-3.91998-.63992-.75839-1.78925.18775-1.17004.95001.5497.68162.53782 1.55523.14001 2.16998C36.11655 40.55416 35.56656 41.42416 35.63 41.3238zM28.78998 37.33381c-.92587 1.12953-1.00459 2.71875-.23999 3.91998.2825.22831.64243 1.68283 1.59003 1.10004.34998-.22003.45001-.68005.22998-1.03003-.06345-.10036-.61343-.97036-.54999-.87-.44202-.68326-.35381-1.59315.13-2.16998C30.21002 37.96381 29.40004 36.58297 28.78998 37.33381zM39.17999 45.69379c-2.22694.1856-4.31907-.48979-6.17999.5-2.43232-1.29387-5.67558.27699-8.38-1.02997-.90243-.43916-1.53597.92383-.65997 1.34998.39996.19.84998.34998 1.32996.46002 2.5922 4.28978 12.80563 4.31089 15.41003 0 .47998-.11005.92999-.27002 1.33002-.46002.37-.17999.52997-.63.34998-1.01001C41.91543 44.54881 41.25962 45.54871 39.17999 45.69379zM27.58002 47.23377c1.45745 0 2.61144-.16195 3.58002-.06 1.27565.15669 1.29241.67004 1.83997.67004.71655 0 .29528-.8282 3.62-.67004.56.03003 1.16998.06 1.79999.06C35.76934 49.19313 30.22957 49.19233 27.58002 47.23377zM35.60999 31.29383c-.36295.38433-.23029 1.0202.28003 1.21997 7.55024 2.84702 12.86515-4.81577 10.59998-5.21002C42.56 26.53382 38.88 27.8838 35.60999 31.29383zM37.58002 31.47382c2.34998-2.11005 4.84998-3.07001 7.52002-2.85004C43.30721 31.08357 40.72575 32.21091 37.58002 31.47382zM43.35004 25.10383l.27997-.06c.51001-.10004 1.09003-.22003 1.63-.54004 1.25511-.70402 2.13486-2.87771.77997-3.01001-.40997-.02997-.77997.27002-.81995.67999-.04004.49005-.39001.85004-.70001 1.03003-.34003.20001-.76001.27997-1.20001.37l-.28998.07001c-3.31.71997-6.19 2.77002-8.86005 4.81-.32996.25-.38995.71997-.13995 1.04999C35.14109 30.91149 37.59011 26.36674 43.35004 25.10383zM30.10004 32.5138c.23999-.09003.41998-.28998.46997-.53998.06-.24005-.01001-.5-.19-.67999-3.27002-3.41003-6.95001-4.76001-10.88-3.99005-.47282.08232-.74648.60557-.52997 1.06C20.55069 31.87789 24.94346 34.45812 30.10004 32.5138zM20.89001 28.62379c2.66998-.21997 5.16998.73999 7.52002 2.85004-.64001.14996-1.26001.22998-1.86005.22998C23.58002 31.7038 21.73999 29.80378 20.89001 28.62379zM20.72998 24.50379c.55005.32001 1.13.44 1.64001.54004l.28003.06c3.01001.65997 5.72998 2.59998 8.26001 4.53998.82736.59102 1.68666-.60163.90997-1.19-2.65997-2.03998-5.53998-4.09003-8.84998-4.81l-.30005-.07001c-.44-.09003-.84998-.16998-1.19995-.37-1.04093-.60439-.409-1.7893-1.52002-1.71002C18.61048 21.62458 19.48061 23.78769 20.72998 24.50379z"/></svg>