<svg xmlns="http://www.w3.org/2000/svg" enable-background="new 0 0 66 66" viewBox="0 0 66 66"><path fill="#3590CE" d="M63.99782,33.25083c0,17.11822-13.87907,30.99728-30.99728,30.99728
				c-17.12365,0-31.00272-13.87906-31.00272-30.99728c0-17.12365,13.87907-31.00272,31.00272-31.00272
				C50.11876,2.24811,63.99782,16.12718,63.99782,33.25083z"/><path fill="#444A88" d="M60.97005,46.63321c-5,10.41998-15.65002,17.60998-27.97003,17.60998s-22.96997-7.19-27.95996-17.60998
				c4.67999-1.70001,10.69914-0.5365,14.76001-3.78998c3.35637-2.68906,2.39996-8.28003,2.39996-12.64002h21.59003
				c0,4.34998-0.94241,9.94421,2.39996,12.63001C50.2551,46.09976,56.29006,44.9332,60.97005,46.63321z"/><path fill="#F1AD7E" d="M47.20002,18.29396l-0.71357,9.35672l-1.34629,13.13978l-1.05006,2.03291
				c0,0-4.22814,7.82934-6.81221,8.9259c-0.99196,0.42094-3.20364-0.5-4.28123-0.5c-1.07758,0-3.28926,0.92094-4.28123,0.5
				c-2.58407-1.09655-6.81221-8.9259-6.81221-8.9259l-1.05006-2.03291l-1.34629-13.13978l-0.71349-9.35672l4.15998-6.79874h20.08659
				L47.20002,18.29396z"/><path fill="#444A88" d="M35.48734,1.74811h-4.98128c-7.05453,0-12.77626,5.72172-12.77626,12.77626v6.26027l2.47712,20.26161
				l1.69634,1.77711c0,0-0.28223-8.77783,0.60637-11.61848l5.65359-4.43417h9.66697l5.97,4.13069
				c0.8886,2.84065,0.28995,11.92196,0.28995,11.92196l1.69625-1.77711l2.47721-20.26161v-6.26027
				C48.2636,7.46983,42.54187,1.74811,35.48734,1.74811z"/><polygon fill="#172540" points="22.471 22.81 23.485 16.335 21.333 12.056 27.14 16.027 27.933 22.81" opacity=".1"/><polygon fill="#172540" points="43.522 22.81 42.509 16.335 44.661 12.056 38.853 16.027 38.06 22.81" opacity=".1"/><path fill="#172540" d="M33.26056,37.97741h-0.52832c-0.04297,0-0.08594-0.00342-0.12793-0.01074
				c-0.55664-0.09619-1.06055-0.39014-1.41895-0.82666c-0.16016-0.19629-0.33398-0.25732-0.67969-0.3667
				c-0.15527-0.04932-0.31348-0.1001-0.47363-0.1665c-0.38281-0.1582-0.56445-0.59717-0.40625-0.97949
				c0.15918-0.38281,0.59961-0.56494,0.98047-0.40625c0.11816,0.04932,0.23633,0.08545,0.35254,0.12207
				c0.41699,0.13232,0.93652,0.29639,1.38672,0.8457c0.11816,0.14453,0.28027,0.24561,0.46094,0.28857h0.37988
				c0.18164-0.04297,0.34375-0.14404,0.46191-0.28857c0.4502-0.5498,0.96875-0.71387,1.38574-0.84521
				c0.11523-0.03662,0.23438-0.07324,0.35449-0.12256c0.38184-0.15869,0.82129,0.02344,0.97949,0.40625
				s-0.02441,0.82129-0.40723,0.97949c-0.16113,0.06689-0.31934,0.11768-0.47559,0.16699
				c-0.35254,0.11182-0.51563,0.16943-0.67676,0.36572c-0.3584,0.4375-0.8623,0.73096-1.42091,0.82715
				C33.34552,37.974,33.30353,37.97741,33.26056,37.97741z"/><path fill="#172540" d="M36.50665 37.58923c-.20605 0-.41113-.08447-.55957-.25049-.27539-.30908-.24902-.7832.06055-1.05908 1.43359-1.27979.38477-2.80566.33887-2.87012-.23828-.33838-.15723-.80664.18066-1.04492.3418-.23926.80762-.15674 1.0459.18066.65039.92285 1.36914 3.125-.56738 4.85352C36.8631 37.52624 36.68439 37.58923 36.50665 37.58923zM29.48615 37.58923c-.17773 0-.35645-.06299-.5-.19043-1.93457-1.72852-1.21582-3.93066-.56543-4.85352.23926-.33838.70508-.4209 1.0459-.18066.33691.23779.41895.70361.18262 1.0415-.11426.16699-1.05176 1.63379.33691 2.87354.30859.27588.33496.75.05957 1.05908C29.89728 37.50476 29.6922 37.58923 29.48615 37.58923z"/><path fill="#FFF" d="M38.12073,40.05807c-1.40332,0.11513-2.67132-0.14592-3.68828-0.01149
				c-0.5207,0.06884-1.0397,0.2453-1.43575,0.58622c-0.39605-0.34092-0.91505-0.51738-1.43575-0.58622
				c-1.03318-0.13658-2.26476,0.12828-3.68828,0.01149c-0.70316-0.05769-2.03009-0.21344-2.03009-0.21344
				c2.401,0.46714,3.05483,2.96659,7.15412,2.88039c4.09929,0.0862,4.75313-2.41325,7.15412-2.88039
				C40.15082,39.84464,38.82389,40.00039,38.12073,40.05807z"/><path fill="#172540" d="M33.20294 43.47692l-.22168-.00195-.19043.00195c-2.59668 0-3.96094-1.00684-5.05664-1.81641-.6748-.49805-1.25684-.92822-2.03516-1.07959-.39551-.07715-.65918-.45313-.59766-.85156.0625-.39844.42871-.67432.8291-.62988.00195.00049 1.31055.1543 2.00391.21094.67383.05518 1.30469.01807 1.89063-.01465.66504-.03809 1.27344-.06787 1.83496.00732.49805.06592.95117.20996 1.33691.42285.38574-.21289.83887-.35693 1.33691-.42285.54883-.07227 1.16406-.04297 1.83496-.00732.58984.03223 1.22266.0708 1.89063.01465.69434-.05664 2.00391-.21094 2.00391-.21094.4043-.04932.7666.23047.8291.62988.06152.39795-.20215.77441-.59766.85156-.77832.15137-1.36035.58154-2.03516 1.07959C37.1629 42.47009 35.79962 43.47692 33.20294 43.47692zM32.98126 41.97497l.22168.00195c1.76074 0 2.74902-.51855 3.64746-1.14697-.26172-.00879-.5166-.02246-.76367-.03613-.56641-.03125-1.09277-.06494-1.55566-.00342-.30664.04053-.73633.14453-1.04492.41064-.28125.24121-.69727.2417-.97852.00049-.30957-.2666-.73926-.37061-1.04492-.41113-.47266-.06299-.99121-.02783-1.55371.00293-.24707.01416-.50195.02832-.76465.03662.89746.62891 1.88574 1.14697 3.64648 1.14697L32.98126 41.97497zM30.01349 47.5946c-.2793 0-.5459-.15527-.67578-.42285-.18066-.37256-.02539-.82129.34766-1.00195.83301-.40479 3.78027-1.59912 6.66309.021.36133.20264.48926.66016.28711 1.021-.20215.36133-.65918.4917-1.02148.28662-2.30566-1.29395-4.79785-.20996-5.27441.021C30.23419 47.57067 30.12286 47.5946 30.01349 47.5946z"/><path fill="#E1C123" d="M31.61217 28.30163c0 0-2.49833 3.809-7.49982 2.83526 0 0-4.40396-.61965-4.24905-6.39571 0 0 .10905-5.37995 4.64271-4.79095.96449.1253 1.86579.53802 2.64931 1.11426C28.77321 22.25435 31.61222 24.83602 31.61217 28.30163zM34.38123 28.30163c0 0 2.49833 3.809 7.49982 2.83526 0 0 4.40396-.61965 4.24905-6.39571 0 0-.10905-5.37995-4.64271-4.79095-.9645.1253-1.86579.53802-2.64931 1.11426C37.22019 22.25435 34.38118 24.83602 34.38123 28.30163z"/><path fill="#FFF" d="M37.59209,27.29648c0.50474-0.22605,0.96428-0.54244,1.34096-0.9417
				c0.42942-0.45205,0.75336-1.00198,1.19786-1.43895c0.8513-0.8513,2.13952-1.24306,3.32231-1.00198
				C41.29107,29.33052,38.14957,27.65054,37.59209,27.29648z"/><path fill="#172540" d="M39.37189,28.57019c-1.05957,0-1.87891-0.44824-2.18262-0.64111
				c-0.2334-0.14795-0.36523-0.41211-0.3457-0.6875c0.02051-0.2749,0.18945-0.51709,0.44141-0.62988
				c0.43066-0.19287,0.80176-0.45215,1.10252-0.77148c0.18263-0.19238,0.34181-0.40332,0.50294-0.61328
				c0.21582-0.28223,0.43848-0.57471,0.71387-0.8457c1.01758-1.01563,2.58594-1.49072,3.99805-1.20215
				c0.21777,0.04443,0.40527,0.18311,0.51074,0.37842c0.10547,0.1958,0.11914,0.42822,0.03613,0.63428
				C42.7049,27.81091,40.75372,28.57019,39.37189,28.57019z M39.28009,27.06872c1.31738,0.05762,2.35741-1.14258,3.02637-2.44092
				c-0.62012,0.0957-1.21387,0.38672-1.64551,0.81836c-0.2041,0.20117-0.38672,0.43945-0.5791,0.69141
				c-0.19238,0.25244-0.38672,0.50391-0.60449,0.7334C39.41388,26.93884,39.34747,27.00476,39.28009,27.06872z"/><path fill="#FFF" d="M22.54018,23.91384c1.18278-0.24108,2.471,0.15068,3.32231,1.00198
				c0.4445,0.43696,0.76844,0.9869,1.19787,1.43895c0.37668,0.39926,0.83622,0.71566,1.34096,0.9417
				C27.84383,27.65054,24.70233,29.33052,22.54018,23.91384z"/><path fill="#172540" d="M26.62091,28.57019c-1.38184,0-3.33301-0.75928-4.77734-4.37842
				c-0.08301-0.20605-0.06934-0.43848,0.03613-0.63428c0.10547-0.19531,0.29297-0.33398,0.51074-0.37842
				c1.41504-0.29004,2.98145,0.18506,4.00195,1.20703c0.27148,0.26563,0.4951,0.55762,0.71094,0.84033
				c0.16016,0.20996,0.31934,0.4209,0.50098,0.61182c0.30371,0.32178,0.67383,0.58105,1.10352,0.77344
				c0.25195,0.11279,0.4209,0.35498,0.44141,0.62988c0.01953,0.27539-0.1123,0.53955-0.3457,0.6875
				C28.49982,28.12195,27.68048,28.57019,26.62091,28.57019z M23.68536,24.62781c0.6543,1.26807,1.61523,2.44238,2.93555,2.44238
				c0.03125,0,0.0625-0.00049,0.09277-0.00195c-0.06836-0.06396-0.13477-0.13037-0.19922-0.19873
				c-0.21582-0.22754-0.41016-0.47949-0.60352-0.73242c-0.19238-0.25195-0.37402-0.48975-0.57422-0.68604
				C24.90118,25.01501,24.30743,24.72351,23.68536,24.62781z"/><path fill="#172540" d="M42.47003,2.94C40.42999,1.71002,38.04004,1,35.48999,1h-4.97998c-2.54999,0-4.94,0.71002-6.97998,1.94
				C10.63,6.98004,1.25,19.04004,1.25,33.25C1.25,50.93206,15.63751,65,33,65c17.34436,0,31.75-14.06376,31.75-31.75
				C64.75,19.04004,55.37,6.98004,42.47003,2.94z M63.25,33.25c0,4.44-0.95996,8.66003-2.70001,12.46002
				c-1.75-0.53998-3.62-0.75-5.44995-0.94c-2.89001-0.32001-6.93005-0.72998-8.96002-3.01001
				c0.13-0.15997,0.34998-0.27997,0.39001-0.62l2.47998-20.35998v-6.26001c0-3.28003-1.16998-6.28998-3.12-8.63
				C56.14001,10.73999,63.25,21.17999,63.25,33.25z M35.75,63.35003c-0.94654,0.08352-1.8159,0.13995-2.75,0.13995
				c-0.93724,0-1.78848-0.056-2.73999-0.13995L29.31,59.48999C28.64001,56.78003,27.79004,54,25.47003,52.53003
				c-0.63-0.40002-1.29004-0.66003-1.88-0.96002c-2.64001-1.38-4.35999-4.12-5.75-6.71997
				c0.84998-0.36005,1.66998-0.81,2.42999-1.42004c0.22998-0.17999,0.44-0.37994,0.62-0.57996L21.28003,43.25
				c0.59998,1.11005,4.46997,8.05005,7.13995,9.19c0.76001,0.32001,1.99005,0.09003,3.14001-0.17999
				c1.42004-0.33997,1.44-0.33997,2.87,0C35.47003,52.5,36.66998,52.80999,37.57001,52.44
				c2.69-1.13995,6.53998-8.09998,7.15002-9.20001l0.38-0.38995c0.81995,0.85999,1.97998,1.53998,3.06995,2
				C46.78003,47.45001,45.06,50.19,42.41998,51.57c-0.59998,0.31-1.25,0.54999-1.87994,0.96002
				C38.22003,54,37.37,56.78003,36.70001,59.48999L35.75,63.35003z M24.13,4.33001C25.98004,3.17004,28.16998,2.5,30.51001,2.5
				h4.97998C37.82001,2.5,40,3.17004,41.85004,4.32c3.39996,2.13,5.65997,5.90002,5.65997,10.20001
				c0,0.09998,0.01001,5.76001,0.01001,6.16998l-2.38,19.47003c-0.06-0.14001-0.10999-0.27002-0.15997-0.41003
				C45.03003,38.27002,45.06,36.46002,45,34.79004c-0.04999-1.64001-0.19-3.14001-0.46997-4.07001
				c0-0.01001-0.01001-0.03003-0.01001-0.04004c0.34998-0.27997,0.69-0.62,1.01001-1.03998
				c0.79999-1.07001,1.40997-2.63,1.34998-4.90997c-0.02002-0.82001-0.21002-1.94-0.70001-2.96002
				c-0.73999-1.56-2.17999-2.90002-4.78998-2.56c-1.03003,0.13-2.06,0.56-3,1.25c-1.39001,1.02997-3.53998,2.96002-4.38,5.56
				h-2.02997c-0.84003-2.59998-2.98004-4.53003-4.38-5.56c-0.93005-0.69-1.97003-1.12-3-1.25
				c-2.61005-0.34003-4.05005,1-4.79004,2.56c-0.48999,1.02002-0.67999,2.14001-0.70001,2.95001
				c-0.06,2.28998,0.55005,3.84998,1.35004,4.91998c0.41998,0.56,0.89001,0.97998,1.34998,1.28998
				c-0.01001,0.02002-0.01001,0.03003-0.01996,0.05005c-0.12006,0.37-0.21002,0.82996-0.29004,1.34997
				c-0.17999,1.16998-0.28998,2.65997-0.33997,4.14001c-0.04004,1.01996-0.05005,2.03998-0.05005,2.95001
				c-0.06995,0.25995-0.15997,0.50995-0.25995,0.75l-2.37-19.39001c0-0.25,0-6.26001,0-6.26001
				C18.48004,10.23004,20.73999,6.46002,24.13,4.33001z M23,32.39001c0.01001-0.01001,0.01001-0.01001,0-0.02002
				c0.04999-0.26996,0.10004-0.50995,0.16003-0.71997l0.00995-0.01001c0.77002,0.28998,1.76001,0.41003,2.55005,0.41003
				c4.27997,0,6.42999-3.20001,6.51996-3.34002c0.08002-0.12,0.12-0.26001,0.12-0.40997c0-0.26001-0.00995-0.52002-0.03998-0.78003
				h1.34998C33.64001,27.78003,33.63,28.04004,33.63,28.30005c0,0.14996,0.03998,0.28998,0.12,0.40997
				c0.09003,0.14001,2.23999,3.34002,6.53003,3.34002c0.98999,0,2-0.15002,2.89996-0.55005
				c0.41003,1.81,0.40002,5.56,0.29004,8.42999C43.44,41,43.39001,41.94,43.35004,42.61004
				c-1.61005,2.94-4.69,7.72998-6.36005,8.44995c-0.44,0.17999-1.75-0.14996-2.21997-0.25995
				c-1.62-0.40002-1.92999-0.39001-3.54999,0C30.82001,50.89001,29.38,51.25,29.01001,51.05999
				c-1.69-0.70996-4.77002-5.50995-6.37-8.44995c-0.01001-0.44-0.03003-1.57001-0.03003-2.97003
				C22.60999,37.33001,22.67999,34.28003,23,32.39001z M20.60999,24.76001c0.14152-2.40324,1.21886-4.32758,3.80005-4.07001
				c0.77997,0.10004,1.57001,0.44,2.29999,0.98004c1.14001,0.83997,2.85999,2.35999,3.67999,4.34998
				c0.30489,0.7164,0.43088,1.33273,0.46997,2.03998c-2.01996,2.60004-5.84998,3.06-7.90997,1.84003
				C21.88,29.27002,20.53003,27.86004,20.60999,24.76001z M40.28003,30.55005c-2.98004,0-4.67999-1.89001-5.14001-2.49005
				c0.03909-0.70295,0.16297-1.3184,0.46997-2.03998c0.81-1.98999,2.53003-3.51001,3.67004-4.34998
				c0.72998-0.54004,1.52997-0.88,2.29999-0.98004c3.62-0.45996,3.79999,3.89001,3.79999,4.07001
				C45.47003,28.15002,43.82001,30.55005,40.28003,30.55005z M2.75,33.25c0-12.07001,7.10999-22.51001,17.35999-27.35999
				c-1.94995,2.34003-3.12994,5.34998-3.12994,8.63L16.98999,20.88l2.47003,20.26001c0.02002,0.16003,0.08997,0.31,0.20001,0.41998
				l0.19,0.20001c-0.15002,0.17999-0.33002,0.35004-0.52002,0.5c-2.28998,1.83002-5.27002,2.16003-8.41998,2.51001
				c-1.82001,0.19-3.71002,0.40997-5.46002,0.94C3.71002,41.91003,2.75,37.69,2.75,33.25z M6.10999,47.08001
				c1.54004-0.45001,3.21002-0.63,4.97003-0.82001c1.78998-0.20001,3.60999-0.40997,5.33002-0.90997
				c1.50995,2.85999,3.39996,5.94,6.48999,7.54999c0.59998,0.31,1.25,0.56,1.76001,0.89001
				c1.85999,1.17999,2.57001,3.53998,3.19,6.07001l0.81995,3.31C18.11698,61.62793,9.3918,54.3712,6.10999,47.08001z
				 M37.34314,63.15753l0.81689-3.29749c0.62-2.53003,1.32996-4.89001,3.19-6.07001
				c0.51996-0.33002,1.15997-0.58002,1.75995-0.89001c3.09003-1.60999,4.98004-4.69,6.49005-7.54999
				c1.71997,0.5,3.53998,0.70996,5.33997,0.90997c1.75,0.19,3.41998,0.38,4.95001,0.81
				C56.04239,54.88857,47.7812,61.55899,37.34314,63.15753z"/></svg>