<svg xmlns="http://www.w3.org/2000/svg" enable-background="new 0 0 66 66" viewBox="0 0 66 66"><path fill="#3590CE" d="M63.99763,33.2507c0,17.11822-13.87907,30.99728-30.99729,30.99728
				c-17.12365,0-31.00271-13.87906-31.00271-30.99728c0-17.12365,13.87906-31.00272,31.00271-31.00272
				C50.11856,2.24798,63.99763,16.12705,63.99763,33.2507z"/><path fill="#444A88" d="M55.77763,54.27795c-5.66998,6.13-13.77997,9.97003-22.77997,9.97003s-17.10999-3.84002-22.78003-9.97003
				c3.42004-0.39001,6.92004-0.62,9.58002-2.76001c3.35999-2.69,2.40002-8.27997,2.40002-12.63995h21.58997
				c0,4.34998-0.94,9.94995,2.40002,12.63C48.85764,53.64795,52.35764,53.88794,55.77763,54.27795z"/><path fill="#F1AD7E" d="M48.60713,40.33899c-0.08317,1.9744-0.81538,3.86369-2.08675,5.37656
				c-1.79085,2.13103-4.31922,5.16586-5.39116,6.57717c-3.21918,4.23837-5.94532,3.18214-8.1273,3.18174
				c-2.18197-0.00041-4.91265,1.05391-8.12725-3.18174c-1.07164-1.41203-3.60227-4.44543-5.39557-6.57603
				c-1.27406-1.51369-2.0079-3.40506-2.09117-5.38182L16.488,18.97088c-0.39774-9.38959,7.11567-17.2229,16.51392-17.2229
				c9.3983,0,16.90305,7.83331,16.50532,17.2229L48.60713,40.33899z"/><path fill="#F1AD7E" d="M18.37858 37.79959h-1.35657c0 0-2.27038-3.24969-2.742-4.47379-.80448-2.08804-2.35843-8.89436 1.90497-8.74554.84948.02965 2.1936 2.59768 2.1936 2.59768V37.79959zM47.61667 37.79959h1.35657c0 0 2.27038-3.24969 2.742-4.47379.80448-2.08804 2.35843-8.89436-1.90497-8.74554-.84948.02965-2.1936 2.59768-2.1936 2.59768V37.79959z"/><path fill="#444A88" d="M49.50724,18.97088l-0.89917,21.36439c-0.08649,1.97992-0.81273,3.86475-2.08372,5.37781
				l-1.55628-10.19366c0,0-8.47145-6.95951-11.92287-6.96005c-3.45331-0.00055-11.93158,6.96005-11.93158,6.96005l-1.63406,10.19366
				c-1.271-1.51306-2.00589-3.39789-2.09238-5.37781L16.488,18.97088c-0.39774-9.38959,7.11567-17.2229,16.51392-17.2229
				C42.40022,1.74798,49.90497,9.58129,49.50724,18.97088z"/><path fill="#FFF" d="M29.5013 26.11266c-2.12782-.67391-4.20873-1.49587-6.22269-2.45801-.34297-.16385-.71749-.33629-1.08873-.25471-.22809.05012-.42398.1911-.61264.32874-.84418.61588-1.68836 1.23175-2.53254 1.84763l3.54632 2.24883c1.51943.96351 3.46428 1.15293 5.05198.30663C28.50966 27.66979 29.14825 27.01311 29.5013 26.11266zM38.63051 46.35654v.08644c0 1.79839-11.26577 1.79839-11.26577 0v-.08644c.70033-.64845 1.99723-1.54768 3.66591-1.36609.51014.05187 1.45253.55336 1.96267.55336.51009 0 1.46119-.50149 1.96262-.55336C36.63327 44.80886 37.93018 45.70808 38.63051 46.35654zM36.49396 26.11266c2.12782-.67391 4.20872-1.49587 6.22269-2.45801.34297-.16385.71749-.33629 1.08873-.25471.22809.05012.42398.1911.61264.32874.84418.61588 1.68836 1.23175 2.53254 1.84763l-3.54632 2.24883c-1.51943.96351-3.46428 1.15293-5.05198.30663C37.4856 27.66979 36.847 27.01311 36.49396 26.11266z"/><path fill="#D6EBF7" d="M35.42876,8.99868h-4.96002l-4.44,9.79999l2.99005,2.98999l0.94995-1.91998h6.02002l0.90997,1.91998
				l3.02002-3.02997L35.42876,8.99868z M30.43877,17.16867l2.59998-5.29999l2.48999,5.29999H30.43877z"/><path fill="#172540" d="M39.08002,2.09054c-3.85688-1.45394-8.29887-1.45556-12.16003,0
					C12.31,4.93051,1.25,17.82052,1.25,33.25051c0,8.23999,3.14996,15.75,8.32001,21.40002
					c0.1138,0.28502,3.64418,3.91681,7.78998,6.21997c4.93842,2.79125,10.31152,4.13,15.64001,4.13
					c17.51297,0,31.75-14.24455,31.75-31.75C64.75,17.82052,53.69,4.93051,39.08002,2.09054z M63.25,33.25051
					c0,7.78003-2.95001,14.87-7.79004,20.23999c-3.13152-0.34686-6.37878-0.62246-8.79999-2.57001
					c-0.75-0.59998-1.26001-1.38-1.59998-2.28998c2.082-2.5107,2.0082-2.38618,2.02997-2.42999h0.01001
					c0.16998-0.20001,0.33002-0.41003,0.48004-0.63c0,0,0.00995,0,0.00995-0.01001c2.18182-3.01245,1.70659-6.21159,1.85004-7.17999
					c0.20125-0.1341,2.4986-3.55865,2.96997-4.78998c0.57001-1.45001,1.81-6.12,0.22003-8.42999
					c-0.58002-0.84003-1.46002-1.30005-2.57001-1.32001l0.20001-4.84003c0.19995-4.75-1.5-9.25-4.79004-12.67999
					c-0.38995-0.40002-0.78998-0.78003-1.20996-1.14001C55.38,9.65054,63.25,20.5505,63.25,33.25051z M16.44,35.58053
					c-0.62-0.96002-1.26001-1.98999-1.46002-2.52002c-0.64996-1.70001-1.44-5.52002-0.38-7.06
					c0.31-0.45001,0.76001-0.65997,1.41003-0.66998L16.44,35.58053z M17.47998,24.53054l-0.23999-5.59003
					c-0.19-4.33002,1.37-8.45001,4.37-11.58002c1.64001-1.70996,3.58002-3,5.72003-3.82001
					c3.68023-0.72003,7.6526-0.72142,11.33997,0C40.79999,4.3605,42.75,5.65054,44.38,7.35055
					c3.01001,3.13995,4.56,7.25,4.38,11.58997l-0.23004,5.58002h-0.01001c-0.80849,19.22673-0.52964,12.59541-0.58997,14.02997
					c-0.12736,1.02332,0.17931,3.01424-0.96002,5.13l-1.26001-8.26996c-0.02997-0.19-0.12-0.35004-0.26996-0.47003
					c-0.88-0.72998-8.78003-7.13-12.39001-7.13c-3.62,0-11.52002,6.40002-12.40997,7.13
					C20.5,35.0505,20.39996,35.22055,20.37,35.40054l-1.33002,8.31c-0.01001-0.01001-0.01001-0.02002-0.02002-0.03003
					L18.87,43.35055c-0.98717-2.18607-0.66287-3.86718-0.79999-4.80005C18.06556,38.44469,17.47509,24.41092,17.47998,24.53054z
					 M49.98999,25.33053c0.65002,0.01001,1.09998,0.21997,1.40002,0.66998c1.06,1.54999,0.27997,5.35999-0.38,7.06
					c-0.20001,0.52002-0.83002,1.56-1.45001,2.51001L49.98999,25.33053z M21.81,35.9205c2.46997-2,8.70001-6.60999,11.23999-6.60999
					c2.53003,0,8.75,4.60999,11.21997,6.60999l1.46002,9.57001c-6.8455,8.17677-6.9116,9.6582-11.58002,9.29004
					c-8.19184-0.61504-4.27503,1.88063-13.88-9.28003L21.81,35.9205z M21.73999,5.18051
					c-0.41998,0.35999-0.82001,0.73999-1.21002,1.14001c-3.28998,3.42999-4.98999,7.94-4.78998,12.67999L15.94,23.84054
					c-1.10999,0.01996-2,0.47998-2.58002,1.31c-1.58002,2.32001-0.34003,6.98999,0.22003,8.44
					c0.47222,1.23355,2.78141,4.65767,2.97998,4.78998c0.19002,0.86951-0.51211,4.39687,2.34998,7.82001
					c0.63,0.75,1.33002,1.58997,2.03003,2.41998c-1.48305,3.96917-6.29311,4.38297-10.40002,4.85999
					C5.69,48.12051,2.75,41.02053,2.75,33.25051C2.75,20.5505,10.62,9.65054,21.73999,5.18051z M33,63.50051
					c-7.17382,0-15.10174-2.76986-21.15002-8.64996c2.98004-0.34003,6-0.81006,8.41998-2.75
					c0.77002-0.61005,1.33002-1.35004,1.74005-2.18005c3.44364,4.18426,4.54065,6.74675,9.95996,6.36005
					c1.62578-0.13738,1.98293,0.06,3.39001,0.06c4.24376,0,5.84357-3.02433,8.63-6.41003
					c0.40997,0.82001,0.96997,1.54999,1.72998,2.16003c2.42004,1.94995,5.45001,2.41998,8.42999,2.76001
					C48.92347,60.07704,41.2408,63.50051,33,63.50051z"/><path fill="#172540" d="M29.42841 41.07284c.67021.27557 1.13405.28017 1.47998.70215.55834.68109 1.49606 1.1212 2.54053.95313 1.50388-.26015 1.22895-1.04001 2.5498-1.45605.49617-.15846 1.29453-.40676.97412-1.17969-.31021-.75105-1.08843-.35683-1.42627-.25098-1.70731.54076-1.46069 1.21334-2.29688 1.39746-.16283-.03295-.71466.15585-1.18115-.41504-.6749-.8241-1.49236-.89717-2.06592-1.1377C29.6203 39.53085 28.51622 40.69354 29.42841 41.07284zM33.36932 44.70407c-1.02721.30507-1.2665-.62037-3.15448-.46234-2.08304.17385-5.13368 2.43013-3.87677 3.3526.28601.21198.66693.17529.92603-.04895 2.6076 1.31949 9.52684 1.3628 11.47064-.00543.71821.61996 1.58081-.31658 1.08331-.99445C38.45636 44.70088 36.27828 43.7102 33.36932 44.70407zM28.40997 46.47055c.58227-.43739 1.48888-.8109 2.54004-.73004.17549.01255.55614.17374 1.09753.35199 1.94271.652 2.09276-.60528 3.87793-.32227.69921.11417 1.38079.47441 1.64954.70679C35.93813 47.1361 30.64544 47.31826 28.40997 46.47055zM18.67548 23.34335c.65845-.19641 1.41211-.2005 2.23273-.0542-2.01473 1.57688-2.60822 1.62373-2.60822 2.28137v.03003c0 .47655.33983.57437.44.66998l3.45001 2.19c.98999.63 2.12.95996 3.26001.95996.89996 0 1.77997-.21997 2.54999-.63 1.03766-.54877 1.77618-1.34686 2.18677-2.36365.36798-.00964.72723-.04565 1.07513-.11963.40527-.08691.66309-.48535.57666-.89063-.28511-1.33373-1.17404.33799-4.75244-1.17871-.60156-.25488-1.1792-.5459-1.79053-.85449-2.12079-1.07269-4.53951-2.2263-7.04883-1.47754-.39697.11816-.62256.53613-.50439.93262C17.86102 23.2369 18.27899 23.46151 18.67548 23.34335zM27.28998 27.47055c-2.90999 1.55806-5.55339-1.30981-6.90997-1.94 3.15344-2.30258.42909-1.52368 8.02997 1.00995C28.13 26.91055 27.76001 27.22055 27.28998 27.47055zM34.73309 26.30722c.34955.07434.71045.11053 1.08026.11993.40063 1.01672 1.13904 1.81464 2.18665 2.36334.76996.41003 1.64996.63 2.54999.63 1.14001 0 2.26001-.32996 3.26001-.95996.10055-.06391 3.77405-2.39878 3.53998-2.25.35473-.21958.3224-.53935.35004-.64001v-.01001c0-.61835-.58833-.69647-2.61725-2.27069.82178-.14697 1.57642-.14313 2.23676.05353.39453.11914.81396-.10645.93311-.50488.11816-.39648-.10742-.81445-.50439-.93262-3.26308-.97436-6.38333 1.29309-8.83936 2.33203-1.50732.63867-2.77002.83301-3.8623.60254-.40039-.08984-.80371.17188-.89014.57617C34.07001 25.82187 34.32782 26.2203 34.73309 26.30722zM38.70001 27.47055c-.47003-.25-.84003-.56-1.11005-.93005 7.38854-2.47609 4.98159-3.2924 8.03003-1.00995C44.22122 26.18033 41.63639 29.03052 38.70001 27.47055zM23.58002 44.31051c2.65157-4.91051 7.22868-4.92128 5.96997-6.17999C29.37 37.81051 28.97998 37.6705 28.63 37.83053c-2.70829 1.10735-5.01661 3.28869-6.37 5.77002C21.8017 44.46888 23.09591 45.1904 23.58002 44.31051zM37.65997 39.63052c4.57661 2.40269 4.48045 5.80082 5.77002 4.97998 2.10371-1.08031-5.97548-8.28368-6.98999-6.47998-.03003.03003-.04999.06-.06.09003C36.02861 39.07679 37.01027 39.27209 37.65997 39.63052zM36.3493 50.67245c-2.87793-1.61914-5.82764-.42676-6.6626-.02148-.37256.17969-.52881.62891-.34863 1.00098.12939.26758.39697.42383.67578.42383.10938 0 .2207-.02441.32617-.0752 4.07905-1.96223 5.50778 1.09009 6.29541-.30762C36.83856 51.33261 36.71014 50.8746 36.3493 50.67245zM29.70624 23.53671c.29296.29296.76757.29298 1.06055 0 .29297-.29297.29297-.76758 0-1.06055l-6.04785-6.04785c-.29297-.29297-.76758-.29297-1.06055 0s-.29297.76758 0 1.06055L29.70624 23.53671zM36.28925 23.53671l6.04736-6.04785c.29297-.29297.29297-.76758 0-1.06055s-.76758-.29297-1.06055 0l-6.04736 6.04785c-.29297.29297-.29297.76758 0 1.06055C35.52166 23.82967 35.99627 23.82969 36.28925 23.53671z"/></svg>