<svg xmlns="http://www.w3.org/2000/svg" enable-background="new 0 0 66 66" viewBox="0 0 66 66"><path fill="#3590CE" d="M63.99775,33.32327c0,17.11822-13.87907,30.99729-30.99728,30.99729
				c-17.12365,0-31.00272-13.87907-31.00272-30.99729c0-17.12365,13.87907-31.00272,31.00272-31.00272
				C50.11868,2.32055,63.99775,16.19962,63.99775,33.32327z"/><path fill="#F0523C" d="M50.50772,58.90057c-4.97998,3.41998-11.00995,5.41999-17.50995,5.41999s-12.53003-2-17.51001-5.41999
				c1.07001-0.28003,2.31-0.67999,2.71997-1.15997c1.70001-1.96002,3.45001-14.35212,3.45001-14.35212h22.67999
				c0,0,1.75,12.3921,3.45001,14.35212C48.19773,58.22058,49.43772,58.62054,50.50772,58.90057z"/><path fill="#444A88" d="M49.49636,43.92728c0.4628-3.77561,2.16028-12.731,2.06652-16.53371
				c-0.09376-3.80271-0.7668-7.64536-2.47085-11.04619c-2.0514-4.09403-5.5968-7.41875-9.81404-9.20317
				c-6.70242-2.83596-14.69515-1.81376-21.07055-5.32366c1.72943,3.83145,4.97799,6.95185,8.87591,8.52576
				C21.59779,8.23294,15.70072,7.1938,9.8232,7.30486c2.63028,0.63708,4.38036,3.25192,4.93502,5.90081
				c0.55466,2.64889,0.17395,5.38939,0.0123,8.0909c-0.49472,8.26766,1.12978,16.65343,4.67607,24.13826L49.49636,43.92728z"/><path fill="#F1AD7E" d="M53.00764 38.1293c-1.04348 3.61741-5.53417 10.02311-7.44035 9.19083s-2.23018-4.30404-.72368-7.7544c1.5065-3.45036 1.13623-4.67069 2.26218-6.41953C49.54389 29.35936 54.1131 34.29705 53.00764 38.1293zM13.13529 38.1293c1.04348 3.61741 5.53417 10.02311 7.44035 9.19083 1.90617-.83227 2.23018-4.30404.72368-7.7544-1.5065-3.45036-1.13623-4.67069-2.26218-6.41953C16.59905 29.35936 12.02984 34.29705 13.13529 38.1293z"/><path fill="#F1AD7E" d="M44.94728,49.11667c-5.03559,8.47623-11.87262,7.79692-11.87262,7.79692
				s-6.83712,0.67931-11.8875-7.79692c-3.21919-5.43433-4.1643-11.87271-3.24866-18.11912
				c0.48725-3.32257,1.37332-6.80756,3.02721-8.74203c0,0,5.24069,3.85415,12.10895,3.85416
				c6.86817,0.00001,12.10885-3.85416,12.10885-3.85416c1.63921,1.93447,2.53997,5.41946,3.02731,8.74203
				C49.11159,37.24396,48.18126,43.68234,44.94728,49.11667z"/><path fill="#FFF" d="M25.97717 47.49498c0 0 .9738.82164 1.55199 1.88673 0 0 1.21585 2.42231 5.54231 2.42231s5.54231-2.42231 5.54231-2.42231c.57819-1.06509 1.55199-1.88673 1.55199-1.88673l.31636-.24097c0 0-1.43474 1.12378-5.77111.3742-.32469-.05613-.6606-.00478-.94798.15643v0c-.42957.24097-.95359.24097-1.38316 0v0c-.28738-.16121-.62329-.21255-.94798-.15643-4.33637.74958-5.77111-.3742-5.77111-.3742M29.0381 38.00946c0 0-5.23076 2.23238-7.48502-3.06406C23.43527 35.75519 27.50607 32.93189 29.0381 38.00946zM37.10484 38.00946c0 0 5.23076 2.23238 7.48502-3.06406C42.70766 35.75519 38.63686 32.93189 37.10484 38.00946z"/><path fill="#172540" d="M23.5,3.02339c-1.73004-0.42999-3.37006-1.01001-4.93005-1.85999
					c-0.27997-0.15997-0.63995-0.10999-0.87,0.10999c-0.23999,0.21002-0.31,0.56-0.17999,0.86005
					c0.41998,0.94,0.94,1.83997,1.53003,2.67999c-1.21002,0.57996-2.37,1.25-3.48999,2
					c-1.90002-0.21002-3.82001-0.29004-5.75-0.26001c-0.38,0.01001-0.69,0.28998-0.73004,0.66998
					c-0.12465,1.15364,1.24909,0.41093,2.98004,2.25C5.43994,15.29341,1.25,23.83339,1.25,33.32344
					c0,10.83997,5.45996,20.42999,13.76996,26.14996c0.91858,1.83715,19.7243,11.27862,35.91003,0.03998
					c0.00995,0,0.00995-0.00995,0.01996-0.00995C59.27997,53.77339,64.75,44.17342,64.75,33.32344
					C64.75,11.89946,43.89725-3.36776,23.5,3.02339z M19.94995,3.46339c9.2754,3.66189,22.09533,0.47063,28.47003,13.22003
					c1.82251,3.62054,2.82753,8.66193,2.13,14.63c-0.67295-0.28169-1.32734-0.3162-1.58002-0.26001
					c0-0.68915-1.12893-7.19894-3.20001-9.27002c-3.333-4.0132-10.17439-9.07926-18.40997-12.13
					c-0.01001,0-0.01001-0.01001-0.02002-0.01001S27.31995,9.63344,27.31,9.63344
					C24.39888,8.44072,21.69446,6.25404,19.94995,3.46339z M47.39996,45.76338c1.3241-3.12037,2.22445-8.09909,1.73999-13.21997
					c1.27779-0.42593,3.92281,2.66272,3.15002,5.38c-0.34003,1.17999-0.97003,2.5-1.71002,3.73999
					C49.74619,43.04095,48.47905,44.78882,47.39996,45.76338z M21.12994,23.27339c1.61005,1.02002,6.20001,3.59003,11.94,3.59003
					c5.75,0,10.33002-2.56,11.94-3.59003c3.22099,4.74346,4.08782,16.50716-0.16998,24.48999
					c-0.14001,0.27002-0.27997,0.52002-0.42999,0.78003c-0.03998,0.06-0.07001,0.13-0.10999,0.19
					c-4.10004,6.90997-9.35004,7.44-10.86005,7.44c-0.16998,0-0.27997,0-0.28998-0.01001H33
					c-0.01001,0.01001-0.12006,0.01001-0.29004,0.01001c-4.62773,0-8.88775-3.71186-11.09998-7.82001
					C17.09723,40.5575,17.80786,28.13596,21.12994,23.27339z M17,32.54341c-0.04268,0.44601-0.23367,3.33634-0.13,3.44
					c0.05453,3.51284,0.72539,6.85863,1.84998,9.75c-1.72998-1.60999-4.07001-5.08002-4.85999-7.81
					C13.05579,35.15333,15.77012,32.13345,17,32.54341z M15.63995,13.91341c1.72003,2.59998,3.44,5.90002,4.45001,8.22998
					c-1.77499,2.38444-2.90997,7.6776-2.90997,8.91003c-0.22918-0.04586-0.76373-0.02721-1.25,0.14001
					C14.6766,22.52695,16.2738,18.37259,15.63995,13.91341z M19.96997,6.0334c0.54999,0.66003,1.15002,1.28003,1.78998,1.85004
					c-1.25995-0.31-2.53998-0.57001-3.82996-0.77002C18.58997,6.7234,19.26996,6.36342,19.96997,6.0334z M12.77997,8.0934
					c4.17919,0.13945,9.2265,1.11769,14,2.94c0.01001,0.01001,0.02002,0.01001,0.03003,0.01001l0.00995,0.01001
					c9.71002,3.58997,15.5,9.20001,17.23004,11.04999c-1.60004,0.98999-5.85004,3.26001-10.98004,3.26001
					c-5.85999,0-10.56-2.97003-11.48999-3.60004c-1.37316-3.14771-5.10615-10.25889-7.57001-12.22998V9.52339
					C13.61406,8.92956,13.13496,8.40102,12.77997,8.0934z M15.63995,58.08339C7.84998,52.60341,2.75,43.54341,2.75,33.32344
					c0-9,3.94995-17.10004,10.21997-22.64001c2.94996,4.9353-0.25654,9.75364,1.57001,21.29999
					c-1.65817,1.27912-2.80377,4.01243-2.13,6.34998c0.90997,3.15002,4.65997,9.14001,7.35999,9.76001
					c0.08002,0.16998,0.16998,0.34003,0.27002,0.51001c-0.72003,3.89001-1.64001,7.77002-2.40002,8.65002
					c-0.06,0.07001-0.38995,0.38-1.98999,0.82996H15.63995z M17.25,59.14339c1.74304-0.65066,2.45388-1.1973,3.94995-8.60999
					c3.54424,5.30429,8.89756,7.55538,11.87,7.13c2.78479,0.34837,8.02221-1.48919,11.76001-6.96002
					c1.51986,7.52896,2.35052,7.83317,3.92004,8.44C40.75723,64.4719,26.77247,65.50463,17.25,59.14339z M50.35999,58.08339
					h-0.01001c-1.59998-0.44995-1.94-0.75995-2-0.82996c-0.75-0.87-1.64001-4.64001-2.35999-8.46002
					c0.13-0.22998,0.26001-0.46002,0.38-0.70001c2.69995-0.60999,6.44995-6.60999,7.35999-9.76001
					c0.60552-2.10078-0.24813-4.58778-1.78003-6.04999c0.88653-7.12942-0.25708-12.42852-2.19-16.27002
					C44.33867,5.19642,34.05276,4.90075,26.87,3.70338c18.48818-3.92161,36.38,10.32229,36.38,29.62006
					C63.25,43.54341,58.14996,52.60341,50.35999,58.08339z"/><path fill="#172540" d="M35.02997 45.13344c1.03941-1.00788 1.05088-.72268 1.28003-.99005.59292-.59292-.03502-2.4152-2.20001-.19-.04574.0343-.15818.14223-.19.19C33.30334 44.88862 34.42104 45.78563 35.02997 45.13344zM29.83997 44.14339c-.10022.10022.20977-.03804 1.27002.99005.7028.7028 1.75974-.36026 1.06-1.06-.45771-.45771-.90213-.87954-1.51001-1.14001C29.88959 42.60899 29.25915 43.589 29.83997 44.14339zM31.29999 46.89339c-3.75297.64972-5.07911-.21999-5.17999-.22998-.79845-.64875-1.85416.69132-.72003 1.31.08559.11394.9452.80442 1.46002 1.75 2.16493 3.96867 10.83407 3.5664 12.40997.02002.49624-.91307 1.13559-1.45147 1.66003-1.89001.00995 0 .00995-.01001.00995-.01001.01001 0 .01001 0 .01001 0v-.01001h.01001c.05052-.10104.52847-.5043.10999-1.03998-.25-.32001-.70996-.39001-1.03998-.14001-.04999.03003-1.40997.89001-5.19.23999-1.20482-.21679-1.47918.57602-2.08997.24005C32.31995 46.89339 31.79999 46.80342 31.29999 46.89339zM34.57996 48.36342c1.51001.26001 2.70001.31 3.62.25-.08997.13-.16998.27997-.25.41998-1.53603 2.76635-8.44288 2.62264-9.76001-.01001-.07996-.13995-.15997-.27997-.25-.40997.92004.06 2.11005.01001 3.62006-.25.15997-.02002.31995 0 .44995.08002C33.29207 49.15348 34.0838 48.27028 34.57996 48.36342zM26.53998 39.2234c1.17097 0 3.56341-.2753 3.21997-1.42999-1.71259-5.64007-6.53617-2.89891-7.90997-3.53998-.62966-.26981-1.24682.3692-.98999.98999C22.26996 38.5334 24.71997 39.2234 26.53998 39.2234zM28.06995 37.5334c-1.99719.51235-3.93661.07615-5.17999-1.69C23.19995 35.82344 26.96317 34.90861 28.06995 37.5334z"/><path fill="#172540" d="M25.12 32.67342c1.65522.30949 5.67525 2.95001 6.10999 2.95001.74366 0 1.04262-.97983.39001-1.39001-5.96435-3.63068-6.5863-3.31568-10.10004-2.72998-.40997.07996-.67999.45996-.60999.87C21.13685 33.70203 23.3626 32.36917 25.12 32.67342zM44.28998 34.25343c-1.41724.62505-6.22699-2.04434-7.90002 3.53998-.10999.37.07001.76001.42004.90997 3.1637 1.26702 6.81161.4371 8.46997-3.45996C45.5448 34.60329 44.90639 33.98923 44.28998 34.25343zM38.06995 37.5334c1.0984-2.6047 3.02247-1.82889 5.18005-1.69C42.37994 37.0934 40.09985 38.04103 38.06995 37.5334z"/><path fill="#172540" d="M35.29999,35.51338c5.5996-3.36909,5.82094-3.07483,9.06-2.52997
					c0.97349,0.16623,1.24443-1.28799,0.26001-1.47998c-3.48908-0.58159-4.13115-0.90347-10.10004,2.72998
					c-0.34998,0.21997-0.45996,0.67999-0.25,1.02997C34.49727,35.63685,34.98889,35.72083,35.29999,35.51338z"/></svg>