<svg xmlns="http://www.w3.org/2000/svg" enable-background="new 0 0 66 66" viewBox="0 0 66 66"><path fill="#3590CE" d="M63.99771,33.26914c0,17.11822-13.87906,30.99729-30.99728,30.99729
				c-17.12365,0-31.00271-13.87907-31.00271-30.99729c0-17.12365,13.87906-31.00271,31.00271-31.00271
				C50.11865,2.26642,63.99771,16.14549,63.99771,33.26914z"/><path fill="#444A88" d="M47.84966,38.25809c-0.16211-3.32489,1.22803-6.49915,2.46765-9.58075
				c3.37128-8.41071,5.15533-16.02203,6.51074-24.97723l-21.40906,3.2785l-2.42133,0.37073L9.16741,3.70011
				c0.38226,2.53705,0.79938,4.96991,1.28595,7.34485c1.20477,5.98944,2.81512,11.60822,5.22479,17.63239
				c3.15642,7.84661,3.28858,9.65026,0.5213,16.49707c-1.349,3.26837-2.68872,6.54614-4.02893,9.82343
				c0.0412-0.00085,0.07959-0.00598,0.12134-0.00598c1.61609,0,2.82587,0.62903,3.63068,1.57123
				c0.54199,0.38611,0.97986,0.87579,1.30011,1.4375c2.54597-0.75562,4.93624-2.29575,7.44543-3.22223
				c3.37128-1.22803,4.74988-1.37866,8.32959-1.51764c3.57983,0.13898,4.95844,0.28961,8.32965,1.51764
				c1.94604,0.71851,3.76135,1.75635,5.6767,2.56042c1.69789-1.21653,1.96676-0.54342,5.18024-1.74695
				c0.54565-0.20435,1.08826-0.41193,1.63452-0.60895c-1.33832-3.27209-2.67584-6.54504-4.02283-9.80847
				C48.89232,42.93851,47.96556,40.65622,47.84966,38.25809z"/><path fill="#D6EBF7" d="M18.05131 41.85896c-.55551 1.04612-1.76136 1.70893-2.94228 1.61727-1.18091-.09167-2.27003-.93263-2.65745-2.05194-.24481-.70729-.22274-1.47517-.33435-2.21525-.47263-3.134-3.34703-5.72081-2.76595-8.95397.2082-1.15844.89042-2.27707.66869-3.433-.21709-1.13169-2.28823-3.42947-1.26406-7.35531.4677 1.98099 1.95536 3.69193 3.85215 4.43033 1.89679.73839 4.14969.48359 5.83365-.65979L18.05131 41.85896zM47.94412 41.85896c1.24707 2.34845 4.73054 2.07654 5.59973-.43468.24481-.70729.22274-1.47517.33435-2.21525.23626-1.56661 1.06189-2.96974 1.75838-4.39275 2.42529-4.95521-.09579-5.72823.33888-7.99422.21709-1.13169 2.28823-3.42947 1.26406-7.35531-.46769 1.98099-1.95536 3.69193-3.85215 4.43033-1.89679.73839-4.14969.48359-5.83366-.65979L47.94412 41.85896zM55.77771 54.29639c-5.66998 6.13-13.77997 9.97004-22.77997 9.97004s-17.10999-3.84003-22.78003-9.97004c3.42004-.39001 6.92004-.62 9.58002-2.76001 3.35999-2.69 2.40002-8.27997 2.40002-12.63995h21.58996c0 4.34998-.94 9.94995 2.40002 12.63C48.85773 53.66639 52.35773 53.90638 55.77771 54.29639z"/><path fill="#D6EBF7" d="M36.82452,7.51929c4.51202-1.33212,12.76326,4.70332,12.76326,4.70332
				c1.4446,2.80633-0.00533,6.29023,0.80093,9.34184c0.65023,2.46103,2.74248,4.54214,2.64153,7.08562
				c-0.12067,3.04037-3.25501,5.03736-4.3923,7.85958c-1.51093,3.74941,0.75147,8.20693-0.68005,11.98737
				c-1.00696,2.65924-3.6964,4.38974-6.47069,5.01331c-2.08072,0.46768-4.22556,0.41365-6.36053,0.22792
				c-1.41594-0.12318-2.84195-0.12318-4.25788,0c-2.13497,0.18572-4.27982,0.23976-6.36053-0.22792
				c-2.77428-0.62358-5.46373-2.35408-6.47069-5.01331c-1.43152-3.78044,0.83088-8.23796-0.68005-11.98737
				c-1.13729-2.82222-4.27163-4.81922-4.3923-7.85958c-0.10095-2.54347,1.9913-4.62459,2.64153-7.08562
				c0.80626-3.05161-0.64367-6.53551,0.80093-9.34184c0,0,8.25123-6.03544,12.76326-4.70332H36.82452z"/><path fill="#444A88" d="M56.82803,3.70012c-0.38226,2.53705-0.79937,4.96994-1.28592,7.34485
				c-0.59084,0.54453-1.228,1.03108-1.88836,1.47132c-2.03897,1.36702-4.33278,2.317-6.60346,3.26698
				c-4.85412,2.02738-9.19849,3.64923-14.05261,5.67661c-4.85412-2.02738-9.19849-3.64923-14.05254-5.67661
				c-2.27069-0.94998-4.56449-1.89996-6.60346-3.26698c-0.66035-0.44024-1.29751-0.92679-1.88836-1.47132
				C9.96677,8.67006,9.54965,6.23717,9.1674,3.70012l21.40906,3.2785l2.42122,0.37073l2.4213-0.37073L56.82803,3.70012z"/><path fill="#6C8CAB" d="M56.82803,3.70012c-2.80355,3.4639-6.52236,6.18635-10.68134,7.80828
				c-5.04226,1.97116-12.64705,2.70313-13.14902,9.95148c-0.50214-7.25331-8.09309-7.975-13.14895-9.95148
				C15.68969,9.88647,11.97095,7.16402,9.1674,3.70012c3.08158,1.35543,6.6729,1.71456,9.96307,1.04261
				c2.2359-0.45183,4.33278-1.36702,6.49917-2.06209c2.16639-0.69514,5.13215-1.18169,7.36804-0.75305
				c2.23597-0.42864,5.20173,0.05791,7.36811,0.75305c2.16639,0.69507,4.27487,1.61026,6.49917,2.06209
				C50.15506,5.41468,53.74646,5.05555,56.82803,3.70012z"/><path fill="#FFF" d="M47.2652 27.55493c0 0-3.22149 7.16641-10.50124 3.43391C40.0312 27.45077 43.54188 26.41147 47.2652 27.55493zM18.73023 27.55493c0 0 3.22149 7.16641 10.50124 3.43391C25.96423 27.45077 22.45355 26.41147 18.73023 27.55493z"/><path fill="#172540" d="M56.19,11.61022c0.18414-0.73582,1.35999-6.976,1.35999-8.13
				c-0.07382-0.14786-0.02844-0.07763-0.13-0.22998c-0.04536-0.13663-0.46163-0.37619-0.75-0.27997
				c-0.02997,0-0.04999,0-0.06995,0.00995c-11.42966,1.41617-5.79731,2.1543-16.01001-1.00995
				C37.98999,1.13024,35.04999,0.81023,33,1.16021c-3.28757-0.55853-6.80435,0.49224-9.70996,1.53003
				c-1.83523,0.66624-3.82524,1.37111-5.77002,1.53003c-2.48068-0.37954-8.0989-1.25-8.20001-1.25
				C9.16892,2.90975,8.77814,2.98287,8.66003,3.16021c-0.1858,0.13935-0.27905,0.47403-0.23004,0.67004
				c0.33512,2.223,0.95146,5.92092,1.38,7.77997C4.5,17.28026,1.25,24.90026,1.25,33.27025
				c0,8.22998,3.15002,15.75,8.32001,21.39996c1.17831,2.94577,18.26092,16.66643,37.95001,6.82001
				c0.01001,0,0.02002-0.01001,0.02997-0.01001c4.10357-2.12586,7.88876-5.481,8.87-6.78998
				c0-0.01001,0.01001-0.01001,0.01001-0.01001C61.59003,49.03026,64.75,41.51024,64.75,33.27025
				C64.75,24.90026,61.5,17.28026,56.19,11.61022z M63.25,33.27025c0,7.77997-2.95001,14.87-7.78998,20.23999
				c-0.11879-0.01379-1.38489-0.15788-1.5-0.16998c-1.79525-4.40218-3.02506-7.36751-3.75-9.14001
				c2.66901,0.19081,4.13451-1.54336,4.33002-4.17999c0.01996-0.23004,0.03998-0.47003,0.07996-0.70001
				c0.2141-1.40361,0.97075-2.73148,1.69-4.16998c2.86523-5.86442-0.65429-6.21137,0.78003-9.08002
				c0.63995-1.34003,1.70996-3.58002,0.88-6.78998c-0.20405-0.7707-1.28156-0.72597-1.46002,0.00995
				c-0.40997,1.73004-1.72998,3.25-3.39001,3.91003c1.03003-3.13,1.91003-6.33002,2.67999-9.78003
				C60.44,18.73021,63.25,25.68023,63.25,33.27025z M38.5,53.11022c-3.05051-0.74442-7.73763-0.79368-10.98999,0
				c-11.27424-0.32802-8.94177-9.82158-9.03998-10.51001c0.45511-0.60703,0.30172-0.55049,0.38995-3.62994
				c-0.04999,0.41998-0.12,0.84998-0.21997,1.29999c0.1877-6.43208-4.76693-8.01654-4.92999-11.65002
				c-0.03003-0.66998,0.13-1.32001,0.38-1.96002c0.21997-0.53998,0.48999-1.06995,0.76996-1.60999H14.87
				c0.08002,0,0.15002,0,0.23004-0.01001c-0.03003-0.07996-0.07001-0.16998-0.09003-0.25995
				c0-0.01001,0.01001-0.01001,0.01001-0.02002c0.21997-0.41003,0.44-0.83002,0.64996-1.26001
				c0.26001-0.56,0.5-1.14001,0.66003-1.73999c0.39001-1.46002,0.29999-2.96002,0.21997-4.41003
				c-0.03998-0.60999-0.07001-1.21997-0.07001-1.79999c2.50657,1.10571,6.83891,2.82594,9.22003,3.77002
				c2.23999,0.89001,4.56,1.81,6.96997,2.82001c0.01001,0,0.03003,0.01001,0.04004,0.01001c0.08997,0.03998,0.19,0.06,0.28998,0.06
				c0.10004,0,0.19-0.02002,0.29004-0.06c0.00995,0,0.00995,0,0.01996-0.01001c4.36429-1.82901,12.18233-4.81757,16.20001-6.59003
				c0.07902,4.57863-0.86631,4.85511,1.46997,9.21002c0.01001,0.01001,0.01001,0.02002,0.01001,0.02997
				c-0.02997,0.08002-0.06,0.17004-0.08997,0.25c0.08312,0.01041,0.15588,0.01001,0.23999,0.01001
				c2.76685,5.33705-0.36871,6.1912-2.59003,9.98004c-0.22998,0.37994-0.44,0.77997-0.60999,1.19995
				c-1.9724,4.93102,1.80091,10.05325-1.96997,14.03003C44.50685,51.80685,42.15097,53.00399,38.5,53.11022z M10.76001,26.68023
				c-0.08002-0.38-0.26001-0.77002-0.5-1.26001c-0.37-0.78998-0.87-1.82996-1-3.16998c0.78003,1.03998,1.84998,1.87,3.08002,2.34998
				c0.29999,0.11005,0.60999,0.21002,0.92999,0.27002c-0.60004,1.17999-1.10999,2.41003-1.04999,3.81
				c0.20864,5.32322,6.93803,6.1138,4.20996,13.77002c-1.33437,0.73727-2.85026-0.0542-3.26996-1.27002
				c-0.56025-1.68076,0.38956-1.70564-1.78003-6.01001c-0.82001-1.60999-1.58997-3.13995-1.28998-4.77997
				c0.06-0.35004,0.17999-0.72003,0.29999-1.10004C10.65002,28.51024,10.94,27.62023,10.76001,26.68023z M10.29999,6.09026
				c9.13001,9.33947,20.03715,6.20892,21.77002,14.17999c-2-0.83002-3.94-1.60004-5.82001-2.35004
				c-5.43621-2.14069-11.99709-4.57254-15.10999-7.26996C10.63397,8.12157,10.5413,7.44977,10.29999,6.09026z M55.56,29.15026
				c1.49006,4.28807-2.17395,6.20735-2.51001,10.73999c-0.03998,0.45996-0.07996,0.89996-0.21997,1.28998
				c-0.39001,1.14001-1.41998,1.54004-2.19,1.54004c-0.39001,0-0.77002-0.09003-1.09003-0.27002
				c-3.32605-9.17587,7.53639-9.01301,3.17999-17.58002c1.34429-0.25204,2.9055-1.16196,4.01001-2.63
				C56.39289,25.84471,54.35498,25.67964,55.56,29.15026z M51.66998,22.83025c-1.41327-2.94995-0.50033-4.90866-0.67999-7.96002
				c2.21669-1.06654,3.09058-1.7563,3.38-1.92999C53.60004,16.43023,52.71002,19.66021,51.66998,22.83025z M54.85004,10.6602
				c-3.78867,3.2831-10.16854,5.14808-20.92004,9.61005c1.76687-8.10899,12.1976-4.49886,21.76001-14.17004
				C55.6106,6.73497,54.86873,10.55721,54.85004,10.6602z M46.23999,6.08025l2.22003-0.34003
				c1.96555,0.15134,3.74118,0.097,5.88-0.40997c-2.3358,2.28013-5.05929,4.13137-8.41003,5.45996
				c-0.09415,0,0.36656-0.05526-3.07996,1.04004c-3.68005,1.15997-8.08002,2.53998-9.84003,6.44
				c-3.22242-7.3116-12.58121-4.36982-21.35999-12.94c3.17645,0.74948,5.68461,0.41045,5.88,0.40997l2.22998,0.34003
				C28.01202,1.95395,38.17972,2.04953,46.23999,6.08025z M15,14.87023c-0.03998,0.85004,0,1.71002,0.04999,2.56
				c0.08002,1.40002,0.15002,2.72003-0.16998,3.94c-0.13,0.48999-0.32001,0.96002-0.54999,1.44
				C13.26001,19.61022,12.37,16.36022,11.62,12.93022C12.48951,13.53873,13.52593,14.16099,15,14.87023z M16.79999,45.68023
				c0.04154,2.15816,0.60836,3.96954,2.11005,5.58002c-1.5,1.06-3.26001,1.53998-5.15002,1.83997
				C14.77002,50.63024,15.78003,48.16021,16.79999,45.68023z M49.20001,45.71025c1.02002,2.45996,2.02997,4.91998,3.03998,7.38995
				c-1.88995-0.29999-3.64996-0.77997-5.14996-1.83997C48.57719,49.66534,49.1583,47.85614,49.20001,45.71025z M10.20001,13.43022
				c0.73999,3.38001,1.62,6.59003,2.67999,9.77002c-1.65002-0.65002-2.98999-2.17999-3.39001-3.91003
				c-0.07996-0.32996-0.38-0.56995-0.72998-0.56995c-0.34003-0.02002-0.64001,0.21997-0.72998,0.56
				c-0.84003,3.19995,0.23999,5.44995,0.88,6.78998c0.16998,0.35999,0.33997,0.70001,0.37,0.89001
				c0.43084,2.23284-2.38934,2.62689,0.76001,8.88995c2.08519,4.10122,1.01179,3.79178,1.69995,5.82001
				c0.60775,1.75979,2.57121,2.81603,4.05005,2.52002c-0.21569,0.55099-2.15872,5.24778-3.75,9.15002
				c-0.37006,0.03998-1.12498,0.12015-1.5,0.15997C5.69,48.14025,2.75,41.04021,2.75,33.27025
				C2.75,25.68023,5.56,18.74022,10.20001,13.43022z M11.85004,54.87023c2.9672-0.33792,5.87331-0.81821,8.19995-2.58002
				c3.12449,2.37805,6.97536,2.52551,10.88,2.20001c5.02288-0.43995,10.23255,1.44373,15.02002-2.20001
				c2.3338,1.75639,5.2553,2.25286,8.20001,2.58002C42.29742,66.72283,23.01464,66.03483,11.85004,54.87023z"/><path fill="#172540" d="M18.85999 38.96025c.07001-.67004.09003-1.32001.04004-1.98999L18.85999 38.96025zM47.95001 27.86022c.09003-.19.09003-.41998 0-.60999-.09003-.20001-.26001-.34998-.46002-.40997-4.43959-1.26864-8.08155.18246-11.27997 3.63995-.16003.17004-.23004.41003-.17999.64001.03998.22998.17999.42999.38995.53998 1.5.76001 2.96002 1.16003 4.34003 1.16003 3.07001 0 5.08002-1.85999 6.16998-3.29999C47.59003 28.65026 47.91003 27.93023 47.95001 27.86022zM40.76001 31.32024c-.84998 0-1.76001-.19-2.71002-.57001 2.52002-2.40002 5.19-3.29999 8.09003-2.71002C45.38 29.23021 43.63 31.32024 40.76001 31.32024zM35.40002 28.70024c7.99683-5.99767 9.5023-4.00917 11.42999-5.64001v-.01001c.20001-.15997.38-.33997.52997-.53998H47.37c.66875-.87318 1.0111-2.33378-.02997-2.41003-1.1326-.1078-.43247 1.24512-1.70001 1.96002-.46818.26259-1.06356.36554-1.76001.51001-3.47998.77002-6.56 2.82001-9.38 4.91998C33.68591 28.10692 34.65312 29.27463 35.40002 28.70024zM29.97003 31.12023c.03998-.22998-.03003-.46997-.19-.64001-3.21002-3.47998-6.82001-4.75995-10.66003-3.81-.20001.05005-.40997.11005-.60999.17004-.21002.06-.37.20996-.46002.40997-.08997.19-.08997.41998 0 .60999.04004.07001.36005.78003 1.01001 1.64001C23.3724 35.19722 29.81085 32.03458 29.97003 31.12023zM19.85999 28.04021c2.89001-.58997 5.57001.31 8.09003 2.71002C24.54391 32.11267 21.69954 30.92053 19.85999 28.04021zM19.16003 23.05022c.13995.10999.28998.22003.44995.31.62.35004 1.28003.48999 1.86005.61005l.32996.06995c4.80308 1.05069 8.52353 4.80005 9.24005 4.80005.72183 0 1.02311-.91585.44995-1.35004-2.81-2.09998-5.88995-4.14996-9.37-4.91998l-.34998-.07001c-.52002-.10999-1.01001-.21002-1.41998-.44-.38-.21997-.82001-.67999-.87006-1.28998-.03998-.41003-.40997-.71002-.81995-.67004-.41003.03003-.72003.40002-.68005.81.06006.58002.29004 1.14001.67004 1.61005C18.79004 22.71025 18.97003 22.89025 19.16003 23.05022zM30.10999 37.54021c-.39996-.13-.81995.08002-.95996.47003-.37201.92889 1.04489 1.10065 1.32001 1.25.36584.12809.50883.36943.54999.39001 1.02066 1.2299 2.96679 1.19696 3.95996 0 .02002-.01001.03003-.03003.04004-.04004.57353-.70574 2.03194-.39853 1.84998-1.45996 0-.37572-.48264-.77583-.97998-.61005-.66825.25061-1.02492.30548-1.47003.61005-.58022.38675-.6144.77214-1.17999.88995-.16709-.03378-.64986.1546-1.09998-.38-.16003-.19995-.34998-.37-.56-.50995C31.16314 37.86502 30.76908 37.78739 30.10999 37.54021zM38.08002 34.71025c-.15002-.39001-.59003-.58002-.97003-.42999-.38995.14996-.57996.57996-.42999.96997 1.88607 4.9327 5.61277 6.87119 6.75 8.08002 1.37508 1.4781.76793 2.20697 1.07001 2.65997v.01001c.12.21002.33002.35999.59003.38.88974.44623 1.46703-1.87576-.56-4.07001C42.88514 40.66869 39.81926 39.20343 38.08002 34.71025zM29.32001 35.25023c.3539-.92002-1.04156-1.47186-1.40002-.53998-.67463 1.74285-1.78053 3.46431-3.31 4.92999-.00995 0-.00995.01001-.00995.01001-1.87627 1.70504-4.72951 3.14367-4.5 6.04999.0411.53489.62324.76836.79999.67999.26001-.02002.46997-.15997.58997-.35999v-.01001c.28944-.43406-.28831-1.20915 1.08002-2.67999.49248-.5582 1.6477-1.37276 2.33002-1.95001C26.91017 39.71553 28.4222 37.53955 29.32001 35.25023zM40.62 44.63024c-6.54999-3.67999-13.29999-.94-15.20996-.02002-.87087.42365-.26891 1.77221.65997 1.35004 1.73999-.84003 7.90002-3.34003 13.82001-.02002C40.76683 46.4274 41.47769 45.13063 40.62 44.63024zM29.04004 48.35021c-.87601.42623-.26811 1.77184.65997 1.35004.83002-.41003 3.76001-1.60004 6.56-.03003.35999.20001.82001.08002 1.02002-.27997C38.1255 47.8681 33.05692 46.38197 29.04004 48.35021z"/></svg>