<svg xmlns="http://www.w3.org/2000/svg" enable-background="new 0 0 66 66" viewBox="0 0 66 66"><path fill="#3590CE" d="M63.99793,33.23842c0,17.11822-13.87907,30.99728-30.99729,30.99728
				c-17.12365,0-31.00271-13.87906-31.00271-30.99728c0-17.12365,13.87907-31.00272,31.00271-31.00272
				C50.11886,2.23571,63.99793,16.11477,63.99793,33.23842z"/><path fill="#444A88" d="M57.9579,51.62655c-3.31,4.47998-7.79004,8.03992-12.99005,10.20996h-23.94
				c-5.19995-2.17004-9.67999-5.72998-12.98999-10.20996c-0.20996-2.36011-0.35998-4.29004-0.29999-4.63013l-0.01001-0.03992
				c0.35998-2,1.44-3.72009,2.90002-5.15002c0.14001-0.14001,0.26001-0.29004,0.38-0.47998
				c0.70001-1.03003,0.57001-2.44995,0.10999-3.64001c-0.74279-1.97521-3.202-4.82372-1.35999-9.01001
				c0.81-1.83997,2.34998-3.2699,3.15997-5.15002c0.59003-1.36987,1.02002-3.90991,1.58002-6.32996
				c0.63437-3.67425,2.45704-7.3261,5.40997-10.18005c1.46002-1.40991,3.13-2.57996,4.97003-3.45996
				c0.45996-0.21997,0.92999-0.41992,1.40997-0.58997c2.07001-0.80005,4.31-1.2301,6.66004-1.2301
				c2.31,0,4.51996,0.42017,6.57001,1.19006c4.90035,1.82559,8.63319,5.60437,10.47998,9.7301
				c1.52997,2.77991,2.06,8.5199,3.08997,10.86987c0.80005,1.88013,2.34003,3.31006,3.15002,5.15002
				c1.84267,4.18778-0.62393,7.0527-1.35999,9.01001c-0.46002,1.19006-0.59003,2.60999,0.12,3.64001
				c0.10999,0.18994,0.23999,0.33997,0.37,0.47998c1.46002,1.42993,2.54999,3.15002,2.90002,5.15002l-0.01001,0.03992
				C58.31789,47.33651,58.16787,49.26645,57.9579,51.62655z"/><path fill="#F1AD7E" d="M41.92041,52.28228c-0.08154-0.56738-0.13898-1.1413-0.14252-1.72656v-7.46002h-17.56v7.46002
				c-0.00177,0.58569-0.05823,1.16003-0.13916,1.72784c2.77185,1.05206,5.77991,1.63385,8.91919,1.63385
				C36.13849,53.91741,39.14771,53.33513,41.92041,52.28228z"/><path fill="#F1AD7E" d="M45.2179 59.23571h.01001c-1.75934-1.92377-2.93048-4.33112-3.3075-6.95343-2.77271 1.05286-5.78192 1.63513-8.92249 1.63513-3.13928 0-6.14734-.58179-8.91919-1.63385-.37378 2.62183-1.55005 5.02869-3.30084 6.95215h-.00995c-.55005.59998-1.15002 1.15997-1.81 1.65002 4.20996 2.13995 8.98999 3.34997 14.03998 3.34997s9.83002-1.21002 14.03998-3.34997C46.38794 60.39568 45.7779 59.83568 45.2179 59.23571zM19.81598 45.12447c0 0-5.89919.08675-6.98372-5.2615-.10868-.53596-.03671-1.097.18793-1.5956l3.62359-8.0426L19.81598 45.12447zM46.25212 45.12448c0 0 7.87325.03557 6.87356-5.94471-.38214-2.28601-7.68112-6.51008-7.68112-6.51008L46.25212 45.12448z"/><path fill="#F1AD7E" d="M35.56651,58.24463h-3.67117c-1.30411,0-2.57314-0.41081-3.62674-1.17934
				c-2.53032-1.84569-7.23125-5.38578-8.53579-7.13082c-1.98892-2.6605-3.74088-12.74954-3.74088-12.74954
				c-0.67838-2.31202-0.48102-4.79293,0.55434-6.96862l7.79601-11.9698c0.75613-1.16095,2.04776-1.86112,3.43323-1.86112h0
				c1.19565,0,2.3288,0.51786,3.10647,1.42604c2.21198,2.5832,7.39147,8.34602,14.57306,14.53896
				c2.55009,2.19903,3.85603,5.50851,3.39054,8.84348c0,0-0.57471,2.80343-0.94738,3.64454
				c-1.05281,2.37621-5.0204,7.78797-7.41529,10.96131C39.3188,57.3422,37.49896,58.24463,35.56651,58.24463z"/><path fill="#FFF" d="M24.80187 45.47485c0 0 1.08328.91402 1.72648 2.09886 0 0 1.35255 2.69465 6.16544 2.69465s6.16544-2.69465 6.16544-2.69465c.6432-1.18484 1.72648-2.09886 1.72648-2.09886l.35193-.26806c0 0-1.59605 1.25012-6.41996.41627-.36119-.06244-.73487-.00532-1.05456.17402l0 0c-.47786.26807-1.0608.26807-1.53866 0h0c-.31968-.17933-.69336-.23645-1.05456-.17402-4.82391.83385-6.41996-.41627-6.41996-.41627M26.29172 34.10886c0 0-6.71488 2.86577-9.60874-3.93342C19.09921 31.21499 24.32502 27.59064 26.29172 34.10886zM44.9367 31.90019c-3.19269 4.54079-8.65953 2.20746-8.65953 2.20746 1.36303-4.53356 4.31125-4.15576 6.79284-3.85935C43.67739 30.79646 44.29966 31.34462 44.9367 31.90019z"/><path fill="#172540" d="M39.78003,2.22894c-2.7223-1.36115-8.74338-1.89956-13.73004,0.03003h-0.00995
					C11.87,5.43896,1.25,18.11896,1.25,33.23895c0,12.38597,7.23511,23.2432,17.33002,28.28998
					c0.01001,0.01001,0.02997,0.02002,0.03998,0.03003c8.55276,4.28074,19.01282,4.87855,28.76001,0
					c0.02002-0.01001,0.04004-0.02002,0.04999-0.03998c0.03003-0.01001,0.05005-0.02002,0.07001-0.04004
					c4.75058-2.10958,10.8615-8.48753,11.12-9.51996c3.86005-5.25,6.13-11.73004,6.13-18.72003
					C64.75,18.05896,54.04004,5.33899,39.78003,2.22894z M49.34003,13.01898c0.82001,1.48999,1.37,4.02997,1.84998,6.26996
					c0.91014,4.26332,1.11709,4.81045,2.89001,7.31c4.61174,6.47293,0.22939,8.41089-0.27002,12.24005
					c-0.59998-2.09003-4.88995-4.93005-7.01001-6.24005c-0.26996-0.28998-0.54999-0.56-0.84998-0.82001
					c-7.02997-6.06-12.09998-11.65997-14.5-14.45996c-2.08415-2.42402-5.96512-2.20157-7.73999,0.52002
					c-12.0234,18.98733-4.48441,5.41134-11.37,20.11999c-0.09003,0.19-0.15002,0.38995-0.20001,0.58997
					c-0.1447-0.89234-0.55805-1.71258-0.96997-2.52002c-3.37836-6.68218,0.73925-8.31696,2.43994-12.20996
					c1.85413-4.36737,0.88221-10.51934,6.82001-16.26001C24.29759,3.82767,27.54151,2.98895,33,2.98895
					c2.17999,0,4.31,0.22998,6.35999,0.67999C43.73004,5.32898,47.44,8.79895,49.34003,13.01898z M39.88,55.34893
					c-2.31244,3.06802-5.83703,1.90018-7.98999,2.15002c-2.09728,0-3.23453-0.92818-7.25-4.12
					c0.01001-0.03003,0.01001-0.06,0.02002-0.09003c-0.09003-0.02997-0.17004-0.06-0.26001-0.08997
					c-0.38-0.29999-0.72998-0.59003-1.06-0.87c0-0.05134-0.02002-0.1142-0.02002-0.01001
					c-3.19386-2.65797-3.63699-3.0765-5.01001-8.10999c-0.72998-2.71002-1.32996-5.68005-1.59998-7.23004
					c-0.52091-1.7763-0.46268-3.63771,0-5.10998c1.4478,2.35696,3.64273,3.59002,6.38,3.59002c1.92999,0,3.42999-0.63,3.5-0.66003
					c0.34998-0.14996,0.52997-0.53998,0.41998-0.90997c-1.87241-6.19495-6.63011-4.26001-9.12-4.26001h-0.06l1.13-1.72998
					c2.15843-0.25632,2.76809-0.66188,9.76001,3.56995c0.88487,0.51625,1.60525-0.79273,0.76996-1.27997
					c-0.57996-0.35999-5.73999-3.46002-7.90997-3.87C21.42999,26.28894,21.04999,26.21893,20,26.28894l4.97003-7.63
					c1.22063-1.88994,3.92218-2.02529,5.33997-0.35999c1.64001,1.91003,4.5,5.10004,8.36005,8.87
					c-2.42004,1.09003-5.45001,2.92999-5.60004,3.02002c-0.62724,0.37641-0.38131,1.39001,0.39001,1.39001
					c0.48568,0,3.28944-1.99832,6.39996-3.29004c0.36005,0.35004,0.74005,0.70001,1.12006,1.05005
					c-2.78003,0.02997-4.5,1.47998-5.42004,4.54999c-0.10999,0.37,0.07001,0.76001,0.42004,0.90997
					c0.06995,0.02002,1.56995,0.66003,3.5,0.66003c2.08997,0,3.88995-0.74005,5.25995-2.15002
					c0.10004-0.09998,0.21002-0.21997,0.30005-0.33002c0.46997,0.42004,0.89996,0.87,1.26996,1.36005
					C51.47137,41.08017,44.99051,48.6129,39.88,55.34893z M45.20001,60.91894c-0.13,0.06-0.27002,0.10999-0.40002,0.17004
					c-0.00995,0.00995-0.01996,0.00995-0.03998,0.01996c-9.45006,3.98997-22.02073,1.50992-23.56-0.01996
					c-0.13-0.06006-0.27002-0.11005-0.40002-0.17004c-0.0225,0-0.42731-0.19778-0.44995-0.20996
					c1.73108-1.56373,3.09292-3.54921,3.84998-5.77002c3.22918,2.50858,4.8676,4.06,7.69,4.06
					c1.94876-0.25409,6.34605,1.04194,9.19-2.75c0.26001-0.34998,0.52997-0.71002,0.81-1.08002
					c0.79046,2.16069,2.16777,4.13501,3.76001,5.54004C45.62748,60.72112,45.22251,60.91894,45.20001,60.91894z M9.35004,52.08899
					v-0.01001c-0.20001-0.25-0.39001-0.5-0.58002-0.75c-0.4482-4.97773-0.23722-4.07495-0.28998-4.34003
					c0.77439-3.91936,3.32676-4.19639,3.69995-6.66998c0.71002,2.95996,2.87,4.45996,4.92004,5.12
					c1.3232,4.59779,1.96225,5.377,5.84998,8.51001c-0.52002,1.72998-1.41998,3.32996-2.65997,4.70996
					c-0.10067,0.06711-0.48437,0.58754-1.40002,1.32001C15.1437,58.00837,12.05389,55.41706,9.35004,52.08899z M14.94,35.83899
					c0.02507,0.17902,0.95372,4.96207,1.66998,7.79999c-2.56217-1.20235-3.42046-3.91126-2.90997-5.06L14.94,35.83899z
					 M18.02002,31.12897c1.17626-0.02309,2.22848-0.28998,3.46997-0.28998c1.45001,0,2.90002,0.35999,3.85004,2.79999
					c-0.53003,0.14996-1.33002,0.32001-2.25,0.32001C20.89001,33.95898,19.19,33.00897,18.02002,31.12897z M42.73999,30.96893
					c0.30005,0.26001,0.61005,0.53003,0.91003,0.81c0.08997,0.06006,0.16998,0.14001,0.26001,0.22003
					c-1.12,1.29999-2.61005,1.96002-4.42999,1.96002c-0.91003,0-1.72003-0.17004-2.25-0.32001
					C38.32508,30.79653,40.04216,30.63784,42.73999,30.96893z M48.85999,35.77893c1.84003,1.34003,3.39001,2.73004,3.53003,3.52002
					c0.41087,2.5237-0.90224,3.95797-3.41998,4.66998C49.70116,41.22079,50.18311,38.8963,48.85999,35.77893z M2.75,33.23895
					c0-12.01001,7.03003-22.39996,17.20001-27.27997c-0.19,0.16998-0.38,0.33997-0.56,0.51996
					c-2.94,2.84003-4.94,6.60004-5.62,10.54999c-0.16003,0.67004-0.29999,1.34003-0.44,2.01001
					c-0.35999,1.67999-0.70001,3.27002-1.09998,4.19c-0.38,0.88-0.94,1.66003-1.53003,2.48999
					c-6.27543,8.72146,2.6419,12.3062-0.59998,15.55005c-2.06913,2.03258-3.12,4.56281-3.12,5.72998
					c-0.01001,0.21997-0.01001,0.64001,0.06,1.76001C4.32001,44.21893,2.75,38.90893,2.75,33.23895z M56.54999,52.20898
					c0,0.00995,0,0.01996-0.00995,0.01996c-0.46002,0.57001-0.94,1.13-1.45001,1.66003c0,0.01001,0,0.01996-0.01001,0.01996
					c-2.38358,2.53752-5.35479,4.74248-7.97998,6.08002c-0.41003-0.33997-0.81-0.71997-1.20001-1.12
					c-0.11787-0.21227-2.0344-1.95647-2.91998-5.17999c2.16998-2.94,4.35999-6.09998,5.34998-8.02002
					c2.83419-0.50821,5.33216-2.04433,5.59003-4.88c0.15308,0.52065,0.43498,1.03631,0.91998,1.55005
					c3.39266,3.32302,2.69412,5.61182,2.39001,8.98999C57.01001,51.62896,56.78003,51.91894,56.54999,52.20898z M56.16003,36.71893
					c3.84406-7.5671-0.87949-9.95217-2.39001-13.48999c-1.63773-3.75449-0.94207-11.27309-7.96002-17.38
					c10.29004,4.82001,17.44,15.29004,17.44,27.39001c0,5.67999-1.57001,11-4.31,15.53998
					C59.53183,40.79131,52.98172,42.93642,56.16003,36.71893z"/><path fill="#172540" d="M34.29004 43.56897c.19 0 .38-.08002.52997-.22003.37-.37.75-.75 1.17999-.94.06-.02997.12-.04999.19-.06.39001-.12.85004-.13 1.31-.14996.41003-.01001.73999-.35004.73004-.76001-.01001-.41003-.34003-.73999-.75-.73999 0 0-.01001 0-.02002 0-.63.01996-1.35999.03998-2.04999.32996-.69.30005-1.20001.81006-1.65002 1.25-.02002.02002-.03998.04004-.06.07001-.22998.30005-.21997.72003.06.99005C33.90002 43.48895 34.10004 43.56897 34.29004 43.56897zM27.89001 42.19897c.45001.01996.91998.02997 1.31.14996.07001.01001.13.03003.19.06.41998.19.81.57001 1.17999.94.15002.14001.34003.22003.53003.22003s.38-.08002.52997-.22998c.27002-.27002.29004-.69.06-.99005-.01996-.02997-.03998-.04999-.06-.07001-.45001-.43994-.95996-.94995-1.64996-1.25-.70001-.28998-1.42004-.31-2.06-.32996-.44.01996-.75.32001-.76001.73999C27.15002 41.84893 27.47003 42.18896 27.89001 42.19897zM40.48999 44.60894c-2.77394 1.38839-5.80844-.36398-7.38995.53003-.25.13995-.56.13995-.81 0-.46002-.26001-1.01001-.35004-1.55005-.26001-1.56039.26675-4.39399.5564-5.76996-.22998-.04004-.02002-.06-.03003-.06-.03003-.33002-.26001-.80005-.20001-1.05005.13-.25995.32001-.19995.78998.13 1.04999.03003.02002.10004.08002.23004.15002.02997.03998.06.07001.09998.09998.45775.45776 1.07161.99827 1.53998 1.85999.06006.13 1.62006 3.11005 6.83002 3.11005 6.19643 0 6.66555-3.60083 8.34003-4.94.01001-.01001.01001-.01001.01001-.01001l.34998-.26001c0 0 0 0 0-.01001.02002-.01001.03998-.02997.06-.04999.28003-.26001.32001-.69.08002-1C41.26857 44.42723 40.81439 44.36571 40.48999 44.60894zM38.19 47.22894c-1.75615 3.16278-9.52279 2.94622-11-.01001-.10999-.20996-.23999-.40997-.37-.59998 1.03998.09003 2.41003.04999 4.17999-.26001.19-.02997.39001 0 .56.09003 1.41896.79058 2.13586-.19403 2.83002-.09003 1.77002.31 3.13.35004 4.17999.26001C38.42999 46.80896 38.31 47.01898 38.19 47.22894z"/></svg>